<!DOCTYPE svg PUBLIC "-//W3C//DTD SVG 1.1//EN" "http://www.w3.org/Graphics/SVG/1.1/DTD/svg11.dtd">
<!-- Uploaded to: SVG Repo, www.svgrepo.com, Transformed by: SVG Repo Mixer Tools -->
<svg fill="#dbfae3" height="800px" width="800px" version="1.1" id="Layer_1" xmlns="http://www.w3.org/2000/svg" xmlns:xlink="http://www.w3.org/1999/xlink" viewBox="0 0 512 512" xml:space="preserve">
<g id="SVGRepo_bgCarrier" stroke-width="0"/>
<g id="SVGRepo_tracerCarrier" stroke-linecap="round" stroke-linejoin="round"/>
<g id="SVGRepo_iconCarrier"> <g> <g> <g> <path d="M463.495,88.926c0,4.466,3.618,8.084,8.084,8.084c4.466,0,8.084-3.619,8.084-8.084c0-31.203-25.387-56.589-56.589-56.589 c-4.466,0-8.084,3.618-8.084,8.084c0,4.466,3.619,8.084,8.084,8.084C445.362,48.505,463.495,66.638,463.495,88.926z"/> <path d="M363.789,210.189c4.466,0,8.084-3.618,8.084-8.084c0-4.466-3.618-8.084-8.084-8.084 c-19.317,0-35.032-15.715-35.032-35.032s15.715-35.032,35.032-35.032c19.317,0,35.032,15.715,35.032,35.032 c0,10.045-4.323,19.623-11.862,26.276c-3.347,2.953-3.666,8.063-0.711,11.411c2.955,3.348,8.063,3.665,11.411,0.711 c11.015-9.72,17.331-23.716,17.331-38.398c0-28.231-22.969-51.2-51.2-51.2s-51.2,22.969-51.2,51.2 S335.558,210.189,363.789,210.189z"/> <path d="M137.432,495.832H51.2c-19.316,0-35.032-15.715-35.032-35.032v-45.811h99.705c4.465,0,8.084-3.618,8.084-8.084 c0-4.466-3.62-8.084-8.084-8.084H16.168V288.337c0-12.781,3.179-25.498,9.193-36.776l73.805-138.382h50.392 c4.465,0,8.084-3.618,8.084-8.084c0-4.466-3.62-8.084-8.084-8.084H102.4V51.2c0-19.317,15.716-35.032,35.032-35.032h153.6v17.767 l-69.635,15.475c-16.119,3.582-27.375,17.615-27.375,34.126v13.474h-13.743c-4.465,0-8.084,3.618-8.084,8.084 c0,4.466,3.62,8.084,8.084,8.084h16.977l20.713,38.835c1.455,2.728,4.25,4.282,7.14,4.282c1.284,0,2.586-0.307,3.797-0.954 c3.94-2.101,5.43-6.998,3.329-10.936l-22.044-41.333V83.537c0-8.874,6.05-16.417,14.714-18.344l75.966-16.881 c3.699-0.821,6.33-4.101,6.33-7.891V8.084c0-4.466-3.618-8.084-8.084-8.084H137.432c-28.231,0-51.2,22.969-51.2,51.2v51.874 L11.096,243.952C3.837,257.564,0,272.911,0,288.337V460.8C0,489.031,22.969,512,51.2,512h86.232c4.465,0,8.084-3.618,8.084-8.084 C145.516,499.45,141.896,495.832,137.432,495.832z"/> <path d="M342.232,97.011c4.466,0,8.084-3.619,8.084-8.084c0-40.119,32.639-72.758,72.758-72.758 c40.119,0,72.758,32.639,72.758,72.758c0,34.47-24.476,64.457-58.198,71.303c-4.376,0.887-7.202,5.154-6.313,9.531 c0.778,3.833,4.149,6.477,7.914,6.477c0.532,0,1.075-0.053,1.617-0.163C482.077,167.705,512,131.055,512,88.926 C512,39.893,472.107,0,423.074,0c-49.033,0-88.926,39.893-88.926,88.926C334.147,93.392,337.766,97.011,342.232,97.011z"/> <path d="M439.242,291.032c-13.372,0-24.253-10.88-24.253-24.253c0-4.466-3.618-8.084-8.084-8.084 c-4.466,0-8.084,3.618-8.084,8.084c0,22.289,18.132,40.421,40.421,40.421c22.289,0,40.421-18.132,40.421-40.421 s-18.132-40.421-40.421-40.421c-9.961,0-19.531,3.656-26.95,10.294c-3.326,2.978-3.61,8.089-0.633,11.416 c2.977,3.326,8.087,3.609,11.416,0.633c4.448-3.982,10.189-6.174,16.166-6.174c13.372,0,24.253,10.88,24.253,24.253 C463.495,280.151,452.614,291.032,439.242,291.032z"/> <path d="M447.326,439.242c0-16.344-13.298-29.642-29.642-29.642s-29.642,13.298-29.642,29.642 c0,16.344,13.298,29.642,29.642,29.642S447.326,455.586,447.326,439.242z M404.211,439.242c0-7.43,6.044-13.474,13.474-13.474 s13.474,6.044,13.474,13.474s-6.044,13.474-13.474,13.474S404.211,446.672,404.211,439.242z"/> <path d="M291.032,439.242c0,16.344,13.298,29.642,29.642,29.642s29.642-13.298,29.642-29.642 c0-16.344-13.298-29.642-29.642-29.642S291.032,422.898,291.032,439.242z M334.147,439.242c0,7.43-6.044,13.474-13.474,13.474 s-13.474-6.044-13.474-13.474s6.044-13.474,13.474-13.474S334.147,431.812,334.147,439.242z"/> <path d="M204.8,396.126c0,16.344,13.297,29.642,29.642,29.642c16.345,0,29.642-13.298,29.642-29.642 c0-16.344-13.297-29.642-29.642-29.642C218.097,366.484,204.8,379.782,204.8,396.126z M247.916,396.126 c0,7.43-6.044,13.474-13.474,13.474c-7.43,0-13.474-6.044-13.474-13.474c0-7.43,6.044-13.474,13.474-13.474 C241.872,382.653,247.916,388.696,247.916,396.126z"/> <path d="M482.358,344.926c-0.301,0-0.599,0.014-0.898,0.023c-8.963-6.979-20.005-10.802-31.439-10.802h-74.162 c-5.441-6.579-13.663-10.779-22.848-10.779c-9.185,0-17.407,4.199-22.848,10.779H202.105c-28.231,0-51.2,22.969-51.2,51.2v52.604 c-6.579,5.441-10.779,13.663-10.779,22.848c0,12.551,7.845,23.298,18.887,27.614C168.39,503.011,184.677,512,202.105,512h172.463 c4.466,0,8.084-3.618,8.084-8.084c0-4.466-3.619-8.084-8.084-8.084H202.105c-7.904,0-15.466-2.706-21.54-7.434 c11.019-4.327,18.845-15.063,18.845-27.597c0-16.344-13.297-29.642-29.642-29.642c-0.909,0-1.807,0.048-2.695,0.128v-45.939 c0-19.317,15.716-35.032,35.032-35.032h121.391c-0.081,0.888-0.128,1.786-0.128,2.695c0,16.344,13.298,29.642,29.642,29.642 c16.344,0,29.642-13.298,29.642-29.642c0-0.909-0.047-1.807-0.128-2.695h67.497c4.296,0,8.512,0.788,12.455,2.287 c-5.991,5.427-9.76,13.265-9.76,21.965c0,16.344,13.298,29.642,29.642,29.642c0.909,0,1.807-0.048,2.695-0.128V460.8 c0,19.317-15.715,35.032-35.032,35.032h-43.116c-4.466,0-8.084,3.619-8.084,8.084c0,4.466,3.618,8.084,8.084,8.084h43.116 c28.231,0,51.2-22.969,51.2-51.2v-63.383c6.579-5.441,10.779-13.663,10.779-22.848C512,358.224,498.702,344.926,482.358,344.926z M169.768,447.326c7.43,0,13.474,6.044,13.474,13.474s-6.044,13.474-13.474,13.474s-13.474-6.044-13.474-13.474 S162.338,447.326,169.768,447.326z M353.01,366.484c-7.43,0-13.474-6.044-13.474-13.474s6.044-13.474,13.474-13.474 s13.474,6.044,13.474,13.474S360.44,366.484,353.01,366.484z M482.358,388.042c-7.43,0-13.474-6.044-13.474-13.474 s6.044-13.474,13.474-13.474s13.474,6.044,13.474,13.474S489.788,388.042,482.358,388.042z"/> <path d="M288.337,319.057c4.466,0,8.084-3.618,8.084-8.084v-22.636c0-15.426-3.837-30.774-11.097-44.384l-38.756-72.667 c-2.102-3.94-7-5.428-10.937-3.329c-3.94,2.101-5.43,6.998-3.328,10.936l38.757,72.667c3.021,5.665,5.326,11.695,6.873,17.912 H61.979c-4.465,0-8.084,3.618-8.084,8.084c0,4.466,3.62,8.084,8.084,8.084h218.223c0.031,0.898,0.051,1.796,0.051,2.695v22.636 C280.253,315.438,283.871,319.057,288.337,319.057z"/> </g> </g> </g> </g>
</svg>