<?xml version="1.0" encoding="utf-8"?>
<!-- Generator: Adobe Illustrator 27.5.0, SVG Export Plug-In . SVG Version: 6.00 Build 0)  -->
<svg version="1.1" xmlns="http://www.w3.org/2000/svg" xmlns:xlink="http://www.w3.org/1999/xlink" x="0px" y="0px"
	 viewBox="0 0 500 500" style="enable-background:new 0 0 500 500;" xml:space="preserve">
<g id="Background_Simple">
	<g>
		<path style="fill:#92E3A9;" d="M98.943,86.081c0,0-104.579,131.732-56.291,278.307c48.288,146.575,242.47,136.766,371.929,41.673
			s23.742-200.49-14.731-226.916s17.618-82.573-29.08-125.047C324.073,11.622,214.835-22.678,98.943,86.081z"/>
		<path style="opacity:0.7;fill:#FFFFFF;" d="M98.943,86.081c0,0-104.579,131.732-56.291,278.307
			c48.288,146.575,242.47,136.766,371.929,41.673s23.742-200.49-14.731-226.916s17.618-82.573-29.08-125.047
			C324.073,11.622,214.835-22.678,98.943,86.081z"/>
	</g>
</g>
<g id="Plants">
	<g>
		<path style="fill:#263238;" d="M380.534,428.435c1.977,0.863,6.81,0.754,6.814,0.754c0.05-0.001-1.039-3.164-1.131-3.356
			c-1.06-2.219-4.414-5.882-7.143-5.513c-1.966,0.266-3.059,2.233-2.616,4.084C376.912,426.295,378.851,427.699,380.534,428.435z"/>
		<path style="fill:#263238;" d="M382.203,442.436c2.05,0.299,6.364-0.952,6.707-1.053c0.681,2.415,1.576,4.838,2.616,7.24
			c0.593,1.374,1.234,2.739,1.893,4.1c-0.393-0.576-0.75-1.089-0.807-1.155c-1.609-1.86-5.811-4.507-8.345-3.431
			c-1.827,0.775-2.361,2.961-1.444,4.63c0.936,1.704,3.178,2.546,4.995,2.811c1.844,0.269,5.543-0.724,6.519-1
			c0.258,0.52,0.51,1.041,0.771,1.559c1.249,2.488,2.506,4.964,3.665,7.431c0.409,0.869,0.779,1.74,1.153,2.61
			c-0.35-0.512-0.649-0.94-0.702-1.001c-1.609-1.859-5.811-4.507-8.346-3.43c-1.826,0.775-2.361,2.962-1.444,4.63
			c0.937,1.704,3.178,2.546,4.996,2.811c1.76,0.257,5.183-0.629,6.343-0.951c0.356,0.903,0.715,1.806,1.019,2.697
			c0.194,0.613,0.424,1.189,0.584,1.816c0.173,0.617,0.342,1.228,0.511,1.832c0.282,1.176,0.581,2.389,0.827,3.543
			c0.178,0.802,0.332,1.569,0.49,2.342c-0.397-0.87-1.21-2.557-1.294-2.69c-1.308-2.082-5.061-5.335-7.73-4.655
			c-1.923,0.49-2.782,2.57-2.128,4.358c0.667,1.826,2.755,2.998,4.512,3.535c1.934,0.591,6.215,0.051,6.75-0.02
			c0.257,1.279,0.494,2.526,0.699,3.706c0.154,0.873,0.294,1.713,0.423,2.519h1.715c-0.162-0.898-0.339-1.836-0.534-2.819
			c-0.255-1.3-0.554-2.684-0.874-4.103c0.322-0.128,2.148-0.867,3.766-1.771c1.409,1.526,5.021,3.313,5.489,3.54
			c-0.491,1.209-0.981,2.379-1.461,3.477c-0.253,0.582-0.498,1.13-0.743,1.676h1.813c0.144-0.345,0.286-0.682,0.433-1.041
			c0.504-1.225,1.019-2.545,1.534-3.904c0.518,0.108,4.756,0.969,6.732,0.523c1.791-0.405,3.961-1.419,4.763-3.19
			c0.785-1.733,0.082-3.872-1.799-4.504c-2.61-0.877-6.595,2.088-8.055,4.067c-0.086,0.117-0.879,1.488-1.365,2.361
			c0.208-0.556,0.415-1.095,0.622-1.671c0.417-1.135,0.799-2.281,1.215-3.512c0.18-0.601,0.362-1.209,0.546-1.823
			c0.195-0.605,0.324-1.268,0.49-1.908c0.355-1.491,0.642-3.018,0.897-4.564c0.995,0.362,4.548,1.598,6.389,1.469
			c1.832-0.129,4.13-0.802,5.191-2.431c1.039-1.595,0.668-3.815-1.095-4.725c-2.448-1.262-6.835,1.065-8.578,2.8
			c-0.109,0.108-1.22,1.493-1.815,2.266c0.146-0.93,0.296-1.858,0.414-2.804c0.339-2.73,0.597-5.505,0.867-8.271
			c0.082-0.848,0.174-1.691,0.263-2.536c0.353,0.133,4.544,1.693,6.605,1.548c1.832-0.128,4.131-0.802,5.191-2.431
			c1.039-1.595,0.668-3.815-1.095-4.724c-2.447-1.262-6.835,1.065-8.578,2.799c-0.131,0.131-1.727,2.126-2.108,2.654
			c0.197-1.86,0.41-3.712,0.694-5.529c0.388-2.508,0.909-4.947,1.587-7.272c0.164,0.062,4.531,1.71,6.642,1.562
			c1.832-0.129,4.131-0.802,5.191-2.431c1.039-1.595,0.668-3.815-1.095-4.725c-2.448-1.262-6.835,1.065-8.578,2.799
			c-0.137,0.136-1.852,2.284-2.135,2.696c0.041-0.138,0.068-0.286,0.11-0.423c0.756-2.474,1.799-4.775,2.881-6.882
			c0.626-1.226,1.294-2.362,1.967-3.453c0.782,0.39,4.375,2.135,6.29,2.212c1.835,0.073,4.194-0.344,5.427-1.846
			c1.208-1.471,1.083-3.719-0.569-4.816c-2.294-1.523-6.911,0.308-8.834,1.84c-0.104,0.083-1.073,1.048-1.769,1.761
			c0.311-0.488,0.624-0.997,0.932-1.458c1.152-1.735,2.314-3.252,3.354-4.589c0.597-0.755,1.152-1.425,1.679-2.047
			c0.967-0.017,4.863-0.135,6.567-0.935c1.662-0.781,3.564-2.237,3.966-4.139c0.393-1.862-0.753-3.8-2.725-4.012
			c-2.738-0.295-5.992,3.457-6.992,5.704c-0.086,0.194-1.09,3.386-1.039,3.385c0,0,0.047,0,0.058-0.001
			c-0.519,0.588-1.067,1.225-1.653,1.933c-1.071,1.316-2.269,2.812-3.463,4.529c-1.198,1.713-2.451,3.607-3.591,5.721
			c-1.146,2.118-2.242,4.404-3.068,6.906c-0.009,0.028-0.015,0.059-0.025,0.087c0.014-0.807-0.021-3.064-0.044-3.236
			c-0.316-2.439-2.36-6.965-5.069-7.466c-1.951-0.36-3.603,1.168-3.758,3.065c-0.158,1.938,1.246,3.877,2.616,5.1
			c1.545,1.38,5.833,2.716,6.174,2.822c-0.764,2.389-1.354,4.904-1.812,7.481c-0.263,1.474-0.482,2.965-0.682,4.464
			c-0.01-0.698-0.024-1.322-0.036-1.409c-0.316-2.439-2.36-6.965-5.068-7.465c-1.951-0.361-3.603,1.168-3.758,3.065
			c-0.159,1.938,1.246,3.877,2.616,5.1c1.39,1.241,5.023,2.455,5.988,2.763c-0.071,0.576-0.148,1.15-0.217,1.726
			c-0.33,2.764-0.648,5.523-1.042,8.22c-0.138,0.951-0.31,1.881-0.478,2.813c-0.01-0.619-0.023-1.141-0.033-1.221
			c-0.316-2.439-2.36-6.965-5.068-7.466c-1.951-0.36-3.604,1.168-3.759,3.065c-0.159,1.937,1.246,3.877,2.616,5.1
			c1.326,1.185,4.67,2.335,5.815,2.706c-0.201,0.95-0.401,1.901-0.638,2.812c-0.177,0.618-0.303,1.225-0.515,1.837
			c-0.197,0.609-0.391,1.213-0.584,1.81c-0.414,1.137-0.834,2.313-1.265,3.412c-0.294,0.767-0.589,1.492-0.883,2.223
			c0.149-0.944,0.402-2.8,0.405-2.957c0.038-1.633-0.542-4.289-1.697-6.156c0.007-0.241-0.007-0.482-0.045-0.721
			c-0.302-1.879-2.068-3.275-3.985-2.765c-2.661,0.708-4.349,5.38-4.475,7.835c-0.008,0.145,0.087,1.726,0.164,2.722
			c-0.135-0.579-0.257-1.142-0.403-1.736c-0.279-1.177-0.592-2.343-0.924-3.6c-0.182-0.601-0.366-1.207-0.551-1.821
			c-0.171-0.611-0.429-1.236-0.643-1.861c-0.526-1.439-1.13-2.872-1.769-4.302c1.031-0.247,4.675-1.176,6.139-2.299
			c1.457-1.118,3.003-2.948,2.989-4.891c-0.014-1.904-1.547-3.551-3.52-3.337c-2.738,0.297-5.114,4.659-5.611,7.067
			c-0.031,0.15-0.193,1.918-0.264,2.891c-0.391-0.856-0.777-1.713-1.202-2.567c-1.223-2.465-2.538-4.921-3.84-7.377
			c-0.399-0.752-0.788-1.506-1.179-2.26c0.368-0.084,4.724-1.095,6.364-2.353c1.457-1.118,3.003-2.947,2.989-4.891
			c-0.014-1.903-1.547-3.551-3.52-3.336c-2.738,0.297-5.114,4.658-5.611,7.067c-0.037,0.182-0.267,2.726-0.294,3.376
			c-0.862-1.66-1.706-3.322-2.472-4.994c-1.059-2.306-1.971-4.627-2.688-6.941c0.171-0.039,4.723-1.074,6.402-2.362
			c1.457-1.118,3.003-2.947,2.989-4.891c-0.013-1.903-1.547-3.551-3.52-3.336c-2.738,0.297-5.114,4.659-5.61,7.067
			c-0.039,0.189-0.285,2.927-0.294,3.426c-0.043-0.137-0.102-0.275-0.142-0.413c-0.734-2.481-1.134-4.975-1.393-7.33
			c-0.154-1.367-0.224-2.683-0.263-3.965c0.867-0.106,4.827-0.633,6.466-1.625c1.572-0.952,3.309-2.6,3.508-4.533
			c0.195-1.894-1.148-3.7-3.132-3.703c-2.754-0.005-5.594,4.069-6.353,6.408c-0.041,0.127-0.318,1.467-0.505,2.445
			c-0.009-0.579-0.029-1.176-0.027-1.73c0.004-2.082,0.135-3.989,0.266-5.677c0.082-0.959,0.175-1.825,0.271-2.634
			c0.797-0.548,3.982-2.796,4.961-4.403c0.956-1.568,1.738-3.832,1.024-5.64c-0.699-1.771-2.724-2.754-4.486-1.844
			c-2.447,1.265-3.09,6.189-2.686,8.615c0.035,0.209,0.959,3.425,1.001,3.397c0,0,0.039-0.027,0.048-0.033
			c-0.108,0.777-0.214,1.611-0.311,2.524c-0.168,1.688-0.341,3.597-0.39,5.688c-0.054,2.089-0.055,4.36,0.161,6.753
			c0.213,2.398,0.559,4.91,1.251,7.452c0.008,0.029,0.02,0.058,0.028,0.086c-0.433-0.681-1.708-2.543-1.823-2.675
			c-1.609-1.86-5.811-4.507-8.345-3.431c-1.826,0.776-2.361,2.962-1.444,4.63C378.144,441.329,380.385,442.171,382.203,442.436z"/>
		<path style="fill:#263238;" d="M429.426,429.498c0.043,0.027,0.879-3.213,0.909-3.423c0.339-2.435-0.438-7.341-2.917-8.539
			c-1.786-0.863-3.783,0.175-4.434,1.964c-0.665,1.826,0.178,4.068,1.176,5.61C425.331,426.92,429.423,429.496,429.426,429.498z"/>
	</g>
	<g>
		<path style="fill:#263238;" d="M60.63,456.72c1.025,0.448,3.533,0.391,3.535,0.391c0.026-0.001-0.539-1.642-0.587-1.741
			c-0.55-1.151-2.29-3.052-3.706-2.861c-1.02,0.138-1.587,1.159-1.357,2.119C58.751,455.61,59.757,456.339,60.63,456.72z"/>
		<path style="fill:#263238;" d="M61.496,463.984c1.064,0.155,3.302-0.494,3.48-0.547c0.353,1.253,0.818,2.51,1.357,3.756
			c0.308,0.713,0.64,1.421,0.982,2.127c-0.204-0.299-0.389-0.565-0.419-0.599c-0.835-0.965-3.015-2.339-4.33-1.78
			c-0.948,0.402-1.225,1.536-0.749,2.402c0.486,0.884,1.649,1.321,2.592,1.458c0.957,0.14,2.876-0.375,3.382-0.519
			c0.134,0.27,0.265,0.54,0.4,0.809c0.648,1.29,1.3,2.576,1.902,3.855c0.212,0.451,0.404,0.903,0.598,1.354
			c-0.182-0.266-0.337-0.487-0.364-0.519c-0.835-0.965-3.015-2.338-4.33-1.78c-0.948,0.402-1.225,1.537-0.749,2.402
			c0.486,0.884,1.649,1.321,2.592,1.458c0.913,0.133,2.689-0.326,3.291-0.493c0.185,0.468,0.371,0.937,0.529,1.399
			c0.101,0.318,0.22,0.617,0.303,0.942c0.09,0.32,0.178,0.637,0.265,0.951c0.146,0.61,0.301,1.239,0.429,1.838
			c0.092,0.416,0.172,0.814,0.254,1.215c-0.206-0.451-0.628-1.327-0.671-1.396c-0.679-1.08-2.626-2.768-4.01-2.415
			c-0.997,0.254-1.444,1.333-1.104,2.261c0.346,0.947,1.429,1.556,2.341,1.834c1.004,0.307,3.225,0.026,3.502-0.01
			c0.133,0.664,0.256,1.311,0.363,1.923c0.08,0.453,0.153,0.889,0.219,1.307h0.89c-0.084-0.466-0.176-0.953-0.277-1.463
			c-0.132-0.674-0.287-1.392-0.454-2.129c0.167-0.066,1.115-0.45,1.954-0.919c0.731,0.792,2.605,1.719,2.848,1.837
			c-0.255,0.627-0.509,1.235-0.758,1.804c-0.131,0.302-0.259,0.587-0.385,0.869h0.941c0.075-0.179,0.149-0.354,0.225-0.54
			c0.262-0.635,0.529-1.32,0.796-2.026c0.269,0.056,2.468,0.503,3.493,0.272c0.929-0.21,2.055-0.736,2.471-1.655
			c0.407-0.899,0.043-2.009-0.933-2.337c-1.354-0.455-3.422,1.083-4.179,2.11c-0.045,0.06-0.456,0.772-0.708,1.225
			c0.108-0.289,0.215-0.568,0.323-0.867c0.216-0.589,0.415-1.184,0.63-1.822c0.093-0.312,0.188-0.627,0.283-0.946
			c0.101-0.314,0.168-0.658,0.254-0.99c0.184-0.773,0.333-1.566,0.466-2.368c0.516,0.188,2.36,0.829,3.315,0.762
			c0.951-0.067,2.143-0.416,2.693-1.261c0.539-0.828,0.347-1.98-0.568-2.451c-1.27-0.655-3.546,0.553-4.451,1.453
			c-0.056,0.056-0.633,0.775-0.942,1.176c0.076-0.483,0.154-0.964,0.215-1.455c0.176-1.417,0.31-2.856,0.45-4.291
			c0.042-0.44,0.09-0.877,0.136-1.316c0.183,0.069,2.357,0.879,3.427,0.803c0.951-0.066,2.143-0.416,2.693-1.261
			c0.539-0.827,0.347-1.979-0.568-2.451c-1.27-0.655-3.546,0.552-4.45,1.452c-0.068,0.068-0.896,1.103-1.093,1.377
			c0.102-0.965,0.213-1.926,0.36-2.869c0.202-1.301,0.472-2.566,0.824-3.773c0.085,0.032,2.351,0.887,3.446,0.811
			c0.951-0.067,2.143-0.416,2.693-1.261c0.539-0.827,0.347-1.979-0.568-2.451c-1.27-0.655-3.546,0.552-4.451,1.452
			c-0.071,0.071-0.961,1.185-1.108,1.399c0.021-0.072,0.035-0.148,0.057-0.219c0.392-1.283,0.933-2.478,1.495-3.57
			c0.325-0.636,0.671-1.225,1.021-1.791c0.406,0.203,2.27,1.108,3.263,1.147c0.952,0.038,2.176-0.178,2.815-0.958
			c0.627-0.763,0.562-1.929-0.295-2.499c-1.19-0.79-3.585,0.16-4.583,0.955c-0.054,0.043-0.557,0.544-0.918,0.914
			c0.161-0.253,0.324-0.517,0.483-0.757c0.598-0.9,1.2-1.687,1.74-2.381c0.31-0.392,0.598-0.74,0.871-1.062
			c0.502-0.009,2.523-0.07,3.407-0.485c0.862-0.405,1.849-1.161,2.057-2.147c0.204-0.966-0.39-1.971-1.414-2.082
			c-1.42-0.153-3.109,1.793-3.628,2.959c-0.045,0.101-0.565,1.757-0.539,1.756c0,0,0.024,0,0.03,0
			c-0.269,0.305-0.553,0.636-0.857,1.003c-0.556,0.683-1.177,1.459-1.797,2.35c-0.621,0.888-1.272,1.871-1.863,2.968
			c-0.594,1.099-1.163,2.285-1.591,3.583c-0.005,0.015-0.008,0.031-0.013,0.045c0.007-0.419-0.011-1.59-0.023-1.679
			c-0.164-1.265-1.224-3.614-2.63-3.874c-1.012-0.187-1.869,0.606-1.95,1.59c-0.082,1.005,0.646,2.011,1.357,2.646
			c0.801,0.716,3.026,1.409,3.203,1.464c-0.397,1.24-0.703,2.544-0.94,3.881c-0.136,0.764-0.25,1.539-0.354,2.316
			c-0.005-0.362-0.013-0.686-0.019-0.731c-0.164-1.265-1.224-3.613-2.63-3.873c-1.012-0.187-1.869,0.606-1.95,1.59
			c-0.082,1.005,0.646,2.011,1.357,2.646c0.721,0.644,2.606,1.273,3.107,1.433c-0.037,0.299-0.077,0.597-0.113,0.896
			c-0.171,1.434-0.336,2.865-0.541,4.265c-0.072,0.493-0.161,0.976-0.248,1.46c-0.005-0.321-0.012-0.592-0.017-0.633
			c-0.164-1.265-1.224-3.614-2.629-3.873c-1.012-0.187-1.87,0.606-1.951,1.59c-0.082,1.005,0.647,2.011,1.357,2.646
			c0.688,0.615,2.423,1.211,3.017,1.404c-0.104,0.493-0.208,0.986-0.331,1.459c-0.092,0.321-0.157,0.636-0.267,0.953
			c-0.102,0.316-0.203,0.629-0.303,0.939c-0.215,0.59-0.432,1.2-0.656,1.77c-0.153,0.398-0.306,0.774-0.458,1.154
			c0.077-0.49,0.208-1.453,0.21-1.534c0.019-0.847-0.282-2.225-0.881-3.194c0.004-0.125-0.004-0.25-0.023-0.374
			c-0.157-0.975-1.073-1.699-2.068-1.434c-1.381,0.367-2.256,2.791-2.322,4.065c-0.004,0.075,0.045,0.895,0.085,1.412
			c-0.07-0.3-0.133-0.593-0.209-0.901c-0.145-0.611-0.307-1.216-0.479-1.868c-0.094-0.312-0.19-0.626-0.286-0.945
			c-0.089-0.317-0.223-0.641-0.334-0.966c-0.273-0.747-0.586-1.49-0.918-2.232c0.535-0.128,2.426-0.61,3.185-1.193
			c0.756-0.58,1.558-1.529,1.551-2.538c-0.007-0.988-0.803-1.842-1.826-1.731c-1.42,0.154-2.653,2.417-2.911,3.667
			c-0.016,0.078-0.1,0.995-0.137,1.5c-0.203-0.444-0.403-0.889-0.623-1.332c-0.635-1.279-1.317-2.553-1.992-3.827
			c-0.207-0.39-0.409-0.782-0.612-1.172c0.191-0.044,2.451-0.568,3.302-1.221c0.756-0.58,1.558-1.529,1.551-2.538
			c-0.007-0.987-0.803-1.842-1.826-1.731c-1.421,0.154-2.653,2.417-2.911,3.666c-0.019,0.094-0.139,1.414-0.152,1.751
			c-0.447-0.861-0.885-1.723-1.282-2.591c-0.549-1.196-1.023-2.401-1.395-3.601c0.089-0.02,2.45-0.557,3.322-1.225
			c0.756-0.58,1.558-1.529,1.551-2.538c-0.007-0.987-0.803-1.842-1.826-1.731c-1.42,0.154-2.653,2.417-2.911,3.667
			c-0.02,0.098-0.148,1.519-0.152,1.777c-0.022-0.071-0.053-0.143-0.074-0.214c-0.381-1.287-0.588-2.581-0.723-3.803
			c-0.08-0.709-0.116-1.392-0.137-2.057c0.45-0.055,2.504-0.328,3.355-0.843c0.815-0.494,1.717-1.349,1.82-2.352
			c0.101-0.982-0.596-1.92-1.625-1.921c-1.429-0.003-2.903,2.111-3.296,3.325c-0.021,0.066-0.165,0.761-0.262,1.269
			c-0.005-0.3-0.015-0.61-0.014-0.898c0.002-1.08,0.07-2.07,0.138-2.945c0.042-0.498,0.091-0.947,0.141-1.366
			c0.413-0.284,2.066-1.451,2.574-2.285c0.496-0.814,0.902-1.988,0.531-2.926c-0.363-0.919-1.413-1.429-2.327-0.957
			c-1.269,0.656-1.603,3.211-1.393,4.47c0.018,0.109,0.498,1.777,0.52,1.762c0,0,0.02-0.014,0.025-0.017
			c-0.056,0.403-0.111,0.836-0.162,1.31c-0.087,0.876-0.177,1.866-0.202,2.951c-0.028,1.084-0.028,2.262,0.083,3.503
			c0.111,1.244,0.29,2.547,0.649,3.866c0.004,0.015,0.01,0.03,0.014,0.045c-0.225-0.353-0.886-1.319-0.946-1.388
			c-0.835-0.965-3.015-2.339-4.33-1.78c-0.947,0.402-1.225,1.537-0.749,2.402C59.39,463.41,60.553,463.847,61.496,463.984z"/>
		<path style="fill:#263238;" d="M85.997,457.272c0.022,0.014,0.456-1.667,0.472-1.776c0.176-1.264-0.227-3.809-1.514-4.43
			c-0.927-0.448-1.963,0.091-2.3,1.019c-0.345,0.948,0.092,2.111,0.61,2.91C83.872,455.935,85.995,457.271,85.997,457.272z"/>
	</g>
	<g>
		<path style="fill:#263238;" d="M104.383,446.593c0,0-1.311-7.946,1.07-8.621c2.381-0.675,5.319,3.636,5.319,3.636
			s2.411-4.8,3.949-3.007c1.538,1.793,1.772,3.528,1.772,3.528s3.88-2.644,4.487,0.099c0.607,2.743-3.745,8.865-7.566,10.207
			C109.593,453.776,106.192,453.395,104.383,446.593z"/>
		<path style="fill:#263238;" d="M135.757,457.456c0,0,3.391-7.305,5.739-6.522c2.348,0.783,2.348,6,2.348,6
			s4.696-2.609,4.957-0.261c0.261,2.348-0.522,3.913-0.522,3.913s4.696,0,3.652,2.609c-1.043,2.609-8.087,5.217-12,4.174
			C136.018,466.325,133.422,464.095,135.757,457.456z"/>
		<path style="fill:none;stroke:#263238;stroke-miterlimit:10;" d="M109.026,450.94c0,0-1.3,20.374,4.768,35.762
			c0,0,9.537-17.122,25.142-23.408"/>
		<path style="fill:#263238;" d="M113.795,486.702c0,0,0.217-4.985-5.852-9.97c-6.069-4.985-9.753-6.069-9.753-6.069
			s-2.818,4.985,2.818,9.97C106.642,485.619,113.795,486.702,113.795,486.702z"/>
		<path style="fill:#263238;" d="M113.795,486.702c0,0,3.901-6.285,7.152-8.019c3.251-1.734,9.753-0.217,9.753-0.217
			s-3.901,3.901-7.152,5.852C120.297,486.269,113.795,486.702,113.795,486.702z"/>
		<path style="fill:#263238;" d="M123.548,473.915c0,0-1.084-2.384,0.65-7.152c1.734-4.768,3.468-7.152,3.468-7.152
			s1.084,1.951,0.217,6.285C127.016,470.23,123.548,473.915,123.548,473.915z"/>
		<path style="fill:#263238;" d="M110.11,468.496c0,0,0-4.552,3.251-8.236c3.251-3.684,6.502-6.285,6.502-6.285
			s-0.867,7.586-3.468,10.187C113.795,466.762,110.11,468.496,110.11,468.496z"/>
		<path style="fill:#263238;" d="M109.677,470.013c0,0-1.517-3.468-3.685-5.202c-2.167-1.734-5.635-3.468-5.635-3.468
			s-1.734,3.468,0.65,5.635C103.391,469.147,109.677,470.013,109.677,470.013z"/>
		<path style="fill:#263238;" d="M126.366,471.314c0,0,0.217-0.65,3.901-1.084c3.685-0.434,6.502,1.301,6.502,1.301
			s-1.517,1.951-5.419,1.517C127.449,472.614,126.366,471.314,126.366,471.314z"/>
	</g>
	<g>
		<g>
			<path style="fill:#263238;" d="M364.793,444.295c0,0-3.391-7.304-5.739-6.522c-2.348,0.783-2.348,6-2.348,6
				s-4.696-2.609-4.957-0.261c-0.261,2.348,0.522,3.913,0.522,3.913s-4.696,0-3.652,2.609c1.043,2.609,8.087,5.217,12,4.174
				C364.532,453.165,367.128,450.935,364.793,444.295z"/>
			<path style="fill:#263238;" d="M359.529,457.456c0,0-3.391-7.305-5.739-6.522c-2.348,0.783-2.348,6-2.348,6
				s-4.696-2.609-4.957-0.261c-0.261,2.348,0.522,3.913,0.522,3.913s-4.696,0-3.652,2.609c1.043,2.609,8.087,5.217,12,4.174
				C359.268,466.325,361.864,464.095,359.529,457.456z"/>
			<g>
				<path style="fill:#263238;" d="M374.068,486.907c-0.063-0.164-6.387-16.466-17.914-22.101l0.44-0.898
					c8.475,4.143,14.091,13.542,16.71,18.844c-4.493-22.975-11.696-31.135-11.772-31.22l0.739-0.673
					c0.338,0.37,8.31,9.362,12.758,35.787L374.068,486.907z"/>
			</g>
		</g>
		<path style="fill:#263238;" d="M375.029,486.647c0,0-1.506-8.476-0.165-11.571c1.341-3.095,5.158-9.491,5.158-9.491
			s1.96,3.714,0.619,8.872C379.3,479.614,375.029,486.647,375.029,486.647z"/>
		<path style="fill:#263238;" d="M374.554,486.423c0,0-1.754-3.611-6.19-6.706c-4.436-3.095-10.523-6.603-10.523-6.603
			s0.206,5.055,5.055,8.15C367.745,484.36,374.554,486.423,374.554,486.423z"/>
		<path style="fill:#263238;" d="M373.729,481.368c0,0-4.23-12.38-4.23-18.673c0-6.293,1.857-16.3,1.857-16.3
			s0.206,2.27,1.341,11.451C373.832,467.028,373.729,481.368,373.729,481.368z"/>
		<path style="fill:#263238;" d="M368.674,475.488c0,0-2.889-3.095-4.849-4.023c-1.96-0.928-4.436-2.063-4.436-2.063
			s1.135,2.992,3.404,4.436c2.27,1.444,8.356,5.055,8.356,5.055L368.674,475.488z"/>
	</g>
</g>
<g id="Floor">
	<g>
		
			<line style="fill:none;stroke:#263238;stroke-linecap:round;stroke-linejoin:round;stroke-miterlimit:10;" x1="474.256" y1="487.22" x2="487.734" y2="487.22"/>
		
			<line style="fill:none;stroke:#263238;stroke-linecap:round;stroke-linejoin:round;stroke-miterlimit:10;" x1="11.497" y1="487.22" x2="467.773" y2="487.22"/>
	</g>
</g>
<g id="Clouds">
	<g>
		<path style="fill:none;stroke:#263238;stroke-miterlimit:10;" d="M460.031,210.883c0,0-8.194-13.111-19.666-12.643
			c-11.472,0.468-11.238,14.515-14.984,13.813c-3.746-0.702-8.897-6.321-14.047-3.746c-5.151,2.575-7.96,7.258-9.131,7.96
			c-1.171,0.702-7.535-3.317-10.77-0.936c-3.234,2.381-6.67,3.363-6.67,3.363s-3.397-1.021-4.567-1.021
			c-1.171,0-10.078,4.184-10.078,4.184h114.964c0,0-5.385-8.866-9.131-10.973c-3.746-2.107-9.131,0.936-11.94,1.639
			C461.202,213.224,460.031,210.883,460.031,210.883z"/>
		<path style="fill:none;stroke:#263238;stroke-miterlimit:10;" d="M119.289,81.826c0,0-8.194-13.111-19.666-12.642
			C88.151,69.652,88.386,83.699,84.64,82.997c-3.746-0.702-8.897-6.321-14.047-3.746c-5.151,2.575-7.96,7.258-9.131,7.96
			c-1.171,0.702-7.535-3.317-10.77-0.937c-3.234,2.381-6.67,3.363-6.67,3.363s-3.397-1.021-4.568-1.021s-10.078,4.184-10.078,4.184
			H144.34c0,0-5.385-8.866-9.131-10.973c-3.746-2.107-9.131,0.937-11.94,1.639C120.46,84.167,119.289,81.826,119.289,81.826z"/>
	</g>
</g>
<g id="Line">
	<g>
		<g>
			<path style="fill:none;stroke:#263238;stroke-linecap:round;stroke-linejoin:round;" d="M224.877,285.701
				c0,0,0.685-0.165,1.948-0.432"/>
			<path style="fill:none;stroke:#263238;stroke-linecap:round;stroke-linejoin:round;stroke-dasharray:3.9952,3.9952;" d="
				M230.739,284.496c22.409-4.152,101.653-14.466,106.796,46.054c5.006,58.903-113.597,89.947-212.269,69.184
				c-90.53-19.05-161.21-117.395-22.607-185.914s269.014-18.687,331.83-75.37c58.677-52.949,12.497-83.614-7.199-91.994"/>
			<path style="fill:none;stroke:#263238;stroke-linecap:round;stroke-linejoin:round;" d="M425.44,45.702
				c-0.671-0.261-1.299-0.489-1.875-0.687"/>
		</g>
	</g>
</g>
<g id="Card">
	<g>
		
			<rect x="102.703" y="112.234" style="fill:#92E3A9;stroke:#263238;stroke-linecap:round;stroke-linejoin:round;stroke-miterlimit:10;" width="295.982" height="158.749"/>
		<polygon style="fill:#92E3A9;stroke:#263238;stroke-linecap:round;stroke-linejoin:round;stroke-miterlimit:10;" points="
			250.694,198.834 102.703,112.234 102.703,270.983 398.685,270.983 398.685,112.234 		"/>
		<path style="fill:#92E3A9;stroke:#263238;stroke-linecap:round;stroke-linejoin:round;stroke-miterlimit:10;" d="M102.703,112.234
			l139.923-92.822c4.89-3.244,11.247-3.244,16.137,0l139.923,92.822H102.703z"/>
		<path style="fill:#92E3A9;stroke:#263238;stroke-linecap:round;stroke-linejoin:round;stroke-miterlimit:10;" d="M102.703,270.983
			l140.247-83.715c4.77-2.847,10.718-2.847,15.488,0l140.247,83.715H102.703z"/>
	</g>
	<g>
		<polygon style="fill:#263238;" points="180.764,60.451 115.24,103.918 129.401,218.527 390.771,186.231 380.105,99.909 
			298.663,45.882 		"/>
		
			<rect x="122.921" y="45.26" transform="matrix(0.9925 -0.1226 0.1226 0.9925 -12.8619 32.1321)" style="fill:#FFFFFF;stroke:#263238;stroke-linecap:round;stroke-linejoin:round;stroke-miterlimit:10;" width="263.358" height="150.585"/>
	</g>
	<g>
		<path style="fill:#B2B2B2;" d="M316.621,167.526c0.024,0.011,0.252-1.734,0.254-1.846c0.02-1.294-0.702-3.805-2.074-4.27
			c-0.988-0.335-1.964,0.335-2.188,1.312c-0.229,0.996,0.355,2.112,0.976,2.853C314.317,166.445,316.62,167.525,316.621,167.526z"/>
		<path style="fill:#B2B2B2;" d="M337.116,145.231c0,0,0.026-0.023,0.032-0.028c-0.009,0.571-0.011,1.184,0,1.853
			c0.03,1.236,0.075,2.632,0.226,4.148c0.147,1.516,0.35,3.158,0.72,4.869c0.368,1.715,0.843,3.501,1.571,5.277
			c0.008,0.02,0.02,0.04,0.028,0.06c-0.374-0.454-1.463-1.687-1.557-1.772c-1.33-1.201-4.605-2.74-6.342-1.735
			c-1.251,0.724-1.443,2.353-0.631,3.477c0.83,1.148,2.526,1.557,3.864,1.586c1.509,0.033,4.517-1.257,4.756-1.361
			c0.708,1.686,1.572,3.358,2.539,5.002c0.552,0.941,1.137,1.87,1.735,2.796c-0.336-0.382-0.639-0.72-0.687-0.763
			c-1.33-1.201-4.606-2.74-6.342-1.735c-1.252,0.724-1.443,2.353-0.631,3.477c0.829,1.148,2.526,1.558,3.864,1.586
			c1.358,0.03,3.944-1.019,4.625-1.305c0.233,0.353,0.462,0.707,0.697,1.059c1.126,1.687,2.256,3.366,3.315,5.047
			c0.373,0.592,0.719,1.189,1.068,1.785c-0.299-0.339-0.553-0.621-0.597-0.661c-1.33-1.201-4.605-2.74-6.342-1.735
			c-1.251,0.724-1.443,2.353-0.631,3.477c0.83,1.148,2.526,1.557,3.864,1.586c1.296,0.028,3.692-0.918,4.502-1.255
			c0.338,0.621,0.678,1.242,0.978,1.859c0.195,0.426,0.413,0.822,0.585,1.261c0.103,0.246,0.203,0.487,0.304,0.73l1.049-0.13
			c-0.146-0.329-0.291-0.658-0.439-0.992c-0.178-0.427-0.421-0.855-0.631-1.288c-0.509-0.993-1.074-1.976-1.664-2.953
			c0.723-0.271,3.276-1.268,4.234-2.212c0.954-0.939,1.908-2.4,1.725-3.804c-0.18-1.376-1.436-2.43-2.844-2.099
			c-1.953,0.46-3.282,3.826-3.426,5.612c-0.009,0.112,0.032,1.405,0.068,2.115c-0.359-0.584-0.715-1.169-1.098-1.749
			c-1.105-1.673-2.275-3.332-3.436-4.992c-0.356-0.508-0.704-1.019-1.055-1.529c0.258-0.094,3.319-1.214,4.392-2.27
			c0.954-0.939,1.908-2.4,1.724-3.804c-0.18-1.375-1.436-2.43-2.843-2.098c-1.954,0.459-3.282,3.826-3.426,5.612
			c-0.011,0.135,0.051,1.995,0.089,2.467c-0.772-1.123-1.531-2.25-2.234-3.391c-0.972-1.573-1.839-3.17-2.564-4.78
			c0.12-0.044,3.319-1.199,4.419-2.28c0.954-0.939,1.908-2.4,1.724-3.804c-0.18-1.375-1.436-2.43-2.844-2.098
			c-1.953,0.46-3.282,3.826-3.426,5.612c-0.011,0.14,0.056,2.142,0.094,2.504c-0.043-0.096-0.098-0.19-0.14-0.286
			c-0.752-1.729-1.264-3.497-1.663-5.176c-0.233-0.975-0.401-1.921-0.545-2.844c0.618-0.154,3.434-0.889,4.531-1.753
			c1.052-0.829,2.16-2.176,2.132-3.592c-0.028-1.387-1.161-2.573-2.596-2.398c-1.992,0.242-3.682,3.443-4.022,5.202
			c-0.018,0.096-0.099,1.089-0.146,1.814c-0.058-0.418-0.126-0.848-0.174-1.249c-0.183-1.506-0.259-2.897-0.315-4.129
			c-0.027-0.701-0.036-1.335-0.04-1.929c0.527-0.468,2.63-2.378,3.195-3.628c0.551-1.22,0.915-2.926,0.237-4.17
			c-0.664-1.218-2.216-1.748-3.409-0.932c-1.657,1.133-1.682,4.752-1.173,6.47C336.133,143.012,337.088,145.255,337.116,145.231z"/>
		<path style="fill:#B2B2B2;" d="M355.071,183.515l6.175-0.763c-0.186-0.323-0.388-0.633-0.61-0.909
			c-0.016-0.175-0.048-0.348-0.097-0.517c-0.386-1.332-1.788-2.184-3.129-1.643C356.178,180.179,355.412,181.894,355.071,183.515z"
			/>
		<path style="fill:#B2B2B2;" d="M332.568,152.991c1.507,0.448,4.992-0.063,4.995-0.063c0.036-0.005-1.034-2.196-1.118-2.326
			c-0.965-1.51-3.718-3.859-5.659-3.349c-1.398,0.368-2.013,1.889-1.527,3.188C329.757,151.767,331.285,152.61,332.568,152.991z"/>
		<path style="fill:#B2B2B2;" d="M157.398,207.671c-0.217,0.085-0.4,0.205-0.568,0.339l2.542-0.314
			C158.665,207.489,157.976,207.445,157.398,207.671z"/>
		<path style="fill:#B2B2B2;" d="M347.155,183.999c-0.349,0.136-0.634,0.346-0.858,0.6l3.346-0.413
			C348.759,183.846,347.873,183.719,347.155,183.999z"/>
		<path style="fill:#B2B2B2;" d="M359.666,177.787c1.065,0.738,3.586,1.271,4.447,1.437c-0.06,0.705-0.12,1.41-0.21,2.09
			c-0.06,0.38-0.102,0.753-0.167,1.129l1.016-0.126c0.035-0.29,0.067-0.584,0.106-0.876c0.124-1.11,0.195-2.24,0.241-3.381
			c0.752,0.173,3.432,0.749,4.752,0.491c1.314-0.257,2.915-0.949,3.537-2.222c0.609-1.246,0.142-2.819-1.214-3.319
			c-1.883-0.694-4.848,1.381-5.953,2.791c-0.069,0.088-0.749,1.189-1.11,1.801c0.022-0.686,0.048-1.37,0.049-2.065
			c0.001-2.005-0.06-4.034-0.112-6.059c-0.017-0.62-0.025-1.238-0.036-1.857c0.267,0.065,3.437,0.818,4.915,0.529
			c1.313-0.257,2.915-0.949,3.537-2.222c0.609-1.246,0.142-2.819-1.214-3.319c-1.883-0.694-4.848,1.381-5.953,2.791
			c-0.083,0.106-1.059,1.692-1.287,2.107c-0.024-1.363-0.035-2.721,0.008-4.061c0.057-1.848,0.215-3.659,0.498-5.401
			c0.124,0.03,3.43,0.832,4.943,0.536c1.314-0.257,2.916-0.949,3.537-2.222c0.609-1.246,0.142-2.819-1.214-3.319
			c-1.883-0.694-4.848,1.381-5.954,2.791c-0.087,0.111-1.135,1.817-1.303,2.14c0.017-0.104,0.023-0.213,0.042-0.316
			c0.326-1.857,0.874-3.614,1.469-5.234c0.343-0.942,0.724-1.824,1.114-2.673c0.6,0.212,3.355,1.153,4.746,1.037
			c1.334-0.111,3.002-0.623,3.759-1.82c0.742-1.172,0.451-2.786-0.842-3.432c-1.796-0.897-4.97,0.84-6.224,2.12
			c-0.068,0.07-0.682,0.854-1.122,1.432c0.182-0.381,0.362-0.777,0.544-1.138c0.678-1.358,1.383-2.559,2.015-3.618
			c0.365-0.599,0.706-1.134,1.031-1.631c0.698-0.099,3.505-0.533,4.666-1.263c1.132-0.713,2.377-1.936,2.498-3.348
			c0.118-1.382-0.884-2.681-2.329-2.658c-2.006,0.031-4.024,3.036-4.547,4.75c-0.045,0.148-0.485,2.546-0.449,2.541
			c0,0,0.034-0.004,0.042-0.006c-0.322,0.472-0.662,0.981-1.022,1.546c-0.657,1.047-1.39,2.236-2.1,3.585
			c-0.713,1.346-1.45,2.827-2.086,4.458c-0.639,1.634-1.228,3.385-1.601,5.268c-0.004,0.021-0.006,0.044-0.01,0.065
			c-0.062-0.585-0.289-2.214-0.321-2.337c-0.447-1.735-2.329-4.826-4.333-4.947c-1.443-0.086-2.501,1.167-2.444,2.553
			c0.059,1.415,1.248,2.692,2.348,3.455c1.241,0.86,4.461,1.443,4.717,1.489c-0.339,1.796-0.541,3.667-0.642,5.572
			c-0.058,1.089-0.083,2.188-0.095,3.29c-0.07-0.504-0.136-0.954-0.152-1.016c-0.447-1.736-2.329-4.826-4.332-4.946
			c-1.443-0.087-2.501,1.167-2.444,2.552c0.058,1.415,1.247,2.692,2.347,3.455c1.116,0.773,3.852,1.326,4.578,1.463
			c0,0.423-0.004,0.845-0.002,1.268c0.008,2.028,0.025,4.052-0.019,6.038c-0.015,0.7-0.056,1.388-0.094,2.077
			c-0.062-0.447-0.119-0.824-0.133-0.88c-0.447-1.736-2.329-4.826-4.332-4.946c-1.444-0.086-2.502,1.166-2.445,2.553
			C357.377,175.748,358.566,177.025,359.666,177.787z"/>
		<path style="fill:#B2B2B2;" d="M368.021,149.391c0.033,0.015,0.349-2.402,0.351-2.557c0.027-1.792-0.973-5.27-2.873-5.915
			c-1.369-0.465-2.72,0.465-3.031,1.817c-0.318,1.38,0.492,2.926,1.352,3.952C364.83,147.893,368.019,149.389,368.021,149.391z"/>
		<path style="fill:#B2B2B2;" d="M294.309,164.523c0,0,0.018-0.016,0.023-0.02c-0.006,0.412-0.008,0.855,0,1.338
			c0.021,0.892,0.054,1.9,0.163,2.995c0.106,1.094,0.253,2.28,0.52,3.515c0.266,1.238,0.609,2.527,1.134,3.81
			c0.006,0.014,0.014,0.029,0.02,0.043c-0.27-0.328-1.056-1.218-1.124-1.279c-0.96-0.867-3.325-1.978-4.579-1.253
			c-0.903,0.523-1.042,1.699-0.455,2.511c0.599,0.829,1.824,1.124,2.789,1.145c1.09,0.024,3.261-0.908,3.434-0.982
			c0.511,1.217,1.135,2.424,1.833,3.611c0.398,0.679,0.821,1.35,1.253,2.018c-0.242-0.275-0.462-0.52-0.496-0.551
			c-0.96-0.867-3.325-1.978-4.579-1.253c-0.904,0.523-1.042,1.699-0.455,2.51c0.599,0.829,1.824,1.124,2.789,1.145
			c0.98,0.022,2.848-0.736,3.339-0.943c0.168,0.255,0.334,0.511,0.503,0.764c0.813,1.218,1.629,2.43,2.393,3.643
			c0.27,0.427,0.519,0.858,0.771,1.288c-0.216-0.245-0.4-0.449-0.431-0.477c-0.96-0.867-3.325-1.978-4.579-1.253
			c-0.904,0.523-1.042,1.699-0.455,2.51c0.372,0.515,0.987,0.824,1.631,0.989l3.641-0.45c0.32-0.118,0.596-0.229,0.768-0.3
			c0.035,0.064,0.066,0.128,0.101,0.193l0.724-0.089c-0.224-0.4-0.455-0.799-0.695-1.196c0.522-0.195,2.365-0.916,3.057-1.597
			c0.689-0.678,1.378-1.733,1.245-2.747c-0.13-0.993-1.037-1.754-2.053-1.515c-1.41,0.332-2.37,2.762-2.474,4.052
			c-0.006,0.08,0.023,1.014,0.049,1.527c-0.259-0.422-0.517-0.844-0.793-1.263c-0.798-1.208-1.643-2.406-2.481-3.604
			c-0.257-0.367-0.508-0.736-0.762-1.104c0.187-0.068,2.396-0.877,3.171-1.639c0.689-0.678,1.378-1.732,1.245-2.747
			c-0.13-0.993-1.037-1.754-2.053-1.515c-1.41,0.332-2.37,2.762-2.474,4.052c-0.008,0.097,0.037,1.441,0.064,1.782
			c-0.557-0.811-1.105-1.624-1.613-2.448c-0.702-1.136-1.328-2.289-1.851-3.451c0.087-0.031,2.397-0.865,3.19-1.646
			c0.689-0.678,1.378-1.732,1.245-2.747c-0.13-0.993-1.037-1.754-2.053-1.515c-1.41,0.332-2.369,2.762-2.473,4.052
			c-0.008,0.101,0.04,1.547,0.068,1.808c-0.031-0.069-0.071-0.137-0.101-0.206c-0.543-1.248-0.913-2.525-1.2-3.737
			c-0.168-0.704-0.29-1.387-0.393-2.053c0.446-0.111,2.479-0.642,3.271-1.266c0.759-0.598,1.56-1.571,1.539-2.593
			c-0.02-1.001-0.838-1.858-1.874-1.731c-1.438,0.175-2.658,2.485-2.904,3.756c-0.013,0.069-0.071,0.786-0.106,1.309
			c-0.042-0.302-0.091-0.612-0.126-0.902c-0.132-1.088-0.187-2.092-0.228-2.981c-0.019-0.506-0.026-0.964-0.028-1.393
			c0.381-0.338,1.898-1.717,2.306-2.619c0.398-0.881,0.66-2.113,0.171-3.011c-0.479-0.879-1.6-1.262-2.461-0.673
			c-1.196,0.818-1.214,3.431-0.846,4.671C293.599,162.921,294.289,164.54,294.309,164.523z"/>
		<path style="fill:#B2B2B2;" d="M165.189,206.978l5.874-0.726c-0.149-0.243-0.306-0.478-0.476-0.69
			c-0.016-0.171-0.047-0.34-0.095-0.506c-0.378-1.303-1.749-2.137-3.061-1.608C166.281,203.911,165.545,205.459,165.189,206.978z"/>
		<path style="fill:#B2B2B2;" d="M147.577,169.743c0,0,0.025-0.022,0.031-0.028c-0.008,0.559-0.011,1.158,0,1.813
			c0.029,1.209,0.073,2.575,0.221,4.058c0.144,1.483,0.342,3.09,0.704,4.764c0.36,1.678,0.825,3.425,1.537,5.163
			c0.008,0.02,0.019,0.039,0.027,0.059c-0.366-0.444-1.431-1.65-1.523-1.734c-1.301-1.175-4.505-2.681-6.205-1.698
			c-1.224,0.709-1.412,2.302-0.617,3.402c0.812,1.124,2.471,1.523,3.78,1.552c1.477,0.032,4.419-1.23,4.653-1.332
			c0.693,1.649,1.538,3.285,2.484,4.893c0.54,0.92,1.112,1.83,1.698,2.735c-0.329-0.373-0.626-0.705-0.672-0.747
			c-1.301-1.175-4.506-2.681-6.205-1.698c-1.225,0.708-1.412,2.302-0.617,3.402c0.811,1.124,2.471,1.524,3.78,1.552
			c1.329,0.029,3.859-0.997,4.525-1.277c0.228,0.345,0.452,0.692,0.682,1.036c1.101,1.651,2.207,3.293,3.243,4.937
			c0.365,0.579,0.703,1.163,1.044,1.746c-0.292-0.331-0.541-0.608-0.584-0.646c-1.301-1.175-4.505-2.681-6.205-1.698
			c-1.224,0.708-1.412,2.302-0.617,3.402c0.812,1.123,2.471,1.524,3.78,1.552c1.268,0.028,3.612-0.898,4.405-1.227
			c0.331,0.607,0.664,1.215,0.957,1.819c0.191,0.417,0.404,0.805,0.572,1.234c0.072,0.172,0.142,0.34,0.213,0.511l1.021-0.126
			c-0.113-0.255-0.226-0.509-0.34-0.768c-0.174-0.418-0.412-0.837-0.618-1.26c-0.498-0.972-1.05-1.933-1.628-2.889
			c0.708-0.265,3.205-1.241,4.142-2.164c0.934-0.918,1.867-2.348,1.687-3.722c-0.176-1.346-1.405-2.377-2.782-2.053
			c-1.911,0.45-3.211,3.743-3.352,5.491c-0.009,0.109,0.031,1.374,0.066,2.069c-0.352-0.572-0.7-1.144-1.075-1.711
			c-1.081-1.637-2.226-3.26-3.362-4.884c-0.348-0.497-0.689-0.997-1.032-1.496c0.253-0.092,3.247-1.188,4.297-2.221
			c0.933-0.918,1.867-2.348,1.687-3.722c-0.176-1.345-1.405-2.377-2.782-2.053c-1.911,0.45-3.211,3.743-3.352,5.49
			c-0.01,0.132,0.049,1.952,0.087,2.414c-0.755-1.099-1.497-2.201-2.185-3.318c-0.951-1.539-1.799-3.102-2.508-4.676
			c0.118-0.043,3.248-1.173,4.323-2.231c0.933-0.918,1.867-2.348,1.687-3.722c-0.176-1.346-1.405-2.377-2.782-2.053
			c-1.911,0.449-3.211,3.743-3.352,5.491c-0.011,0.137,0.054,2.096,0.092,2.45c-0.042-0.094-0.096-0.186-0.137-0.28
			c-0.736-1.691-1.237-3.421-1.627-5.064c-0.228-0.954-0.393-1.879-0.533-2.782c0.605-0.151,3.36-0.87,4.433-1.715
			c1.029-0.811,2.114-2.129,2.086-3.514c-0.027-1.357-1.136-2.517-2.539-2.346c-1.949,0.237-3.603,3.368-3.935,5.089
			c-0.018,0.094-0.096,1.065-0.143,1.774c-0.057-0.409-0.124-0.829-0.17-1.222c-0.179-1.474-0.253-2.834-0.308-4.04
			c-0.026-0.686-0.036-1.307-0.039-1.887c0.516-0.458,2.573-2.327,3.125-3.549c0.539-1.193,0.895-2.863,0.232-4.08
			c-0.649-1.192-2.168-1.71-3.335-0.912c-1.62,1.109-1.645,4.649-1.147,6.33C146.614,167.572,147.549,169.766,147.577,169.743z"/>
		<path style="fill:#B2B2B2;" d="M143.127,177.335c1.474,0.438,4.884-0.062,4.887-0.062c0.035-0.005-1.012-2.148-1.093-2.275
			c-0.944-1.477-3.638-3.776-5.536-3.276c-1.368,0.36-1.969,1.848-1.493,3.118C140.377,176.137,141.872,176.961,143.127,177.335z"/>
		<path style="fill:#B2B2B2;" d="M169.638,201.594c1.042,0.722,3.508,1.243,4.351,1.406c-0.059,0.689-0.117,1.38-0.206,2.045
			c-0.047,0.299-0.084,0.592-0.128,0.887l0.988-0.122c0.024-0.213,0.046-0.428,0.074-0.639c0.121-1.086,0.19-2.192,0.236-3.307
			c0.736,0.169,3.358,0.733,4.649,0.48c1.285-0.251,2.852-0.928,3.46-2.174c0.596-1.219,0.139-2.758-1.188-3.247
			c-1.842-0.679-4.743,1.351-5.825,2.731c-0.068,0.086-0.732,1.163-1.086,1.762c0.022-0.671,0.047-1.34,0.048-2.02
			c0.001-1.962-0.059-3.947-0.11-5.928c-0.016-0.607-0.025-1.212-0.036-1.817c0.261,0.063,3.363,0.801,4.809,0.518
			c1.285-0.251,2.852-0.928,3.46-2.174c0.596-1.219,0.139-2.758-1.188-3.247c-1.842-0.679-4.743,1.351-5.824,2.73
			c-0.081,0.104-1.036,1.655-1.259,2.062c-0.024-1.333-0.035-2.662,0.008-3.973c0.056-1.808,0.21-3.579,0.487-5.284
			c0.121,0.03,3.355,0.814,4.836,0.525c1.285-0.251,2.853-0.928,3.461-2.174c0.595-1.219,0.139-2.758-1.188-3.247
			c-1.842-0.679-4.743,1.351-5.825,2.731c-0.085,0.108-1.111,1.778-1.275,2.094c0.017-0.101,0.023-0.208,0.041-0.309
			c0.319-1.816,0.855-3.536,1.437-5.121c0.336-0.922,0.709-1.784,1.09-2.615c0.587,0.208,3.282,1.128,4.644,1.015
			c1.305-0.109,2.937-0.61,3.678-1.781c0.726-1.147,0.441-2.726-0.824-3.358c-1.757-0.877-4.863,0.822-6.089,2.074
			c-0.067,0.068-0.668,0.836-1.098,1.401c0.178-0.372,0.354-0.76,0.532-1.113c0.663-1.328,1.353-2.503,1.972-3.54
			c0.357-0.586,0.691-1.109,1.009-1.595c0.682-0.096,3.429-0.521,4.565-1.236c1.108-0.698,2.326-1.894,2.444-3.275
			c0.116-1.352-0.865-2.623-2.279-2.6c-1.963,0.031-3.937,2.97-4.448,4.647c-0.044,0.145-0.475,2.491-0.439,2.486
			c0,0,0.033-0.004,0.041-0.006c-0.316,0.462-0.648,0.96-1,1.512c-0.643,1.025-1.36,2.188-2.054,3.507
			c-0.698,1.316-1.419,2.766-2.041,4.361c-0.625,1.598-1.201,3.312-1.567,5.154c-0.004,0.021-0.006,0.043-0.01,0.064
			c-0.06-0.572-0.283-2.166-0.314-2.286c-0.437-1.698-2.279-4.722-4.239-4.839c-1.412-0.084-2.447,1.141-2.391,2.497
			c0.057,1.385,1.221,2.634,2.297,3.38c1.214,0.841,4.364,1.412,4.615,1.457c-0.332,1.757-0.529,3.588-0.628,5.451
			c-0.057,1.066-0.082,2.14-0.093,3.218c-0.068-0.493-0.133-0.933-0.149-0.994c-0.437-1.698-2.279-4.721-4.239-4.839
			c-1.412-0.085-2.447,1.141-2.391,2.497c0.057,1.385,1.22,2.634,2.296,3.38c1.092,0.757,3.768,1.298,4.479,1.431
			c0,0.414-0.004,0.827-0.002,1.24c0.008,1.984,0.024,3.964-0.019,5.907c-0.015,0.685-0.055,1.358-0.092,2.032
			c-0.061-0.437-0.116-0.806-0.13-0.861c-0.437-1.698-2.279-4.722-4.238-4.839c-1.412-0.084-2.448,1.141-2.392,2.497
			C167.398,199.598,168.562,200.848,169.638,201.594z"/>
		<path style="fill:#B2B2B2;" d="M291.026,170.125c1.088,0.323,3.604-0.046,3.606-0.046c0.026-0.004-0.747-1.585-0.807-1.679
			c-0.697-1.09-2.684-2.786-4.085-2.418c-1.009,0.266-1.453,1.363-1.102,2.301C288.996,169.242,290.1,169.85,291.026,170.125z"/>
		<path style="fill:#B2B2B2;" d="M177.812,173.813c0.033,0.015,0.341-2.35,0.344-2.501c0.027-1.753-0.951-5.156-2.811-5.786
			c-1.339-0.454-2.662,0.455-2.965,1.777c-0.311,1.35,0.481,2.863,1.322,3.866C174.69,172.347,177.81,173.811,177.812,173.813z"/>
		<path style="fill:#B2B2B2;" d="M310.59,188.027c0.44,0.305,1.223,0.559,1.93,0.745l1.976-0.244
			c0.005-0.101,0.012-0.201,0.016-0.303c0.18,0.041,0.519,0.115,0.918,0.188l4.23-0.523c0.353-0.242,0.654-0.542,0.836-0.914
			c0.44-0.9,0.103-2.035-0.877-2.396c-1.359-0.501-3.5,0.997-4.298,2.015c-0.05,0.063-0.54,0.858-0.801,1.3
			c0.016-0.495,0.035-0.989,0.035-1.49c0.001-1.447-0.043-2.913-0.081-4.374c-0.012-0.448-0.018-0.894-0.026-1.341
			c0.193,0.047,2.482,0.591,3.549,0.382c0.948-0.185,2.105-0.685,2.553-1.604c0.44-0.9,0.103-2.035-0.877-2.396
			c-1.359-0.501-3.5,0.997-4.298,2.015c-0.06,0.077-0.764,1.222-0.929,1.521c-0.017-0.984-0.026-1.965,0.006-2.932
			c0.041-1.334,0.155-2.641,0.36-3.899c0.09,0.022,2.476,0.601,3.569,0.387c0.948-0.185,2.105-0.685,2.554-1.604
			c0.439-0.9,0.103-2.035-0.877-2.396c-1.36-0.501-3.5,0.997-4.298,2.015c-0.063,0.08-0.819,1.312-0.941,1.545
			c0.013-0.075,0.017-0.154,0.03-0.228c0.235-1.34,0.631-2.609,1.06-3.779c0.248-0.68,0.523-1.317,0.804-1.93
			c0.433,0.153,2.422,0.832,3.427,0.749c0.963-0.08,2.167-0.45,2.714-1.314c0.536-0.846,0.326-2.011-0.608-2.478
			c-1.296-0.647-3.588,0.606-4.494,1.531c-0.049,0.05-0.493,0.617-0.81,1.034c0.131-0.275,0.262-0.561,0.393-0.821
			c0.49-0.98,0.998-1.847,1.455-2.612c0.263-0.432,0.51-0.818,0.744-1.177c0.504-0.071,2.531-0.384,3.368-0.912
			c0.817-0.515,1.716-1.398,1.804-2.417c0.085-0.998-0.638-1.936-1.682-1.919c-1.449,0.022-2.905,2.191-3.283,3.429
			c-0.033,0.107-0.35,1.838-0.324,1.835c0,0,0.025-0.003,0.031-0.004c-0.233,0.341-0.478,0.709-0.738,1.116
			c-0.474,0.756-1.003,1.615-1.516,2.588c-0.515,0.971-1.047,2.041-1.506,3.219c-0.461,1.18-0.886,2.444-1.156,3.803
			c-0.003,0.015-0.004,0.032-0.007,0.047c-0.045-0.422-0.209-1.598-0.232-1.687c-0.322-1.253-1.681-3.484-3.128-3.571
			c-1.042-0.062-1.806,0.842-1.765,1.843c0.042,1.022,0.901,1.944,1.695,2.494c0.896,0.621,3.221,1.042,3.406,1.075
			c-0.245,1.297-0.391,2.648-0.463,4.023c-0.042,0.786-0.06,1.579-0.068,2.375c-0.05-0.364-0.098-0.689-0.11-0.733
			c-0.322-1.253-1.681-3.484-3.128-3.571c-1.042-0.063-1.806,0.842-1.765,1.843c0.042,1.022,0.901,1.944,1.695,2.494
			c0.806,0.558,2.781,0.957,3.305,1.056c0,0.305-0.003,0.61-0.002,0.915c0.006,1.464,0.018,2.925-0.014,4.359
			c-0.011,0.505-0.04,1.002-0.068,1.5c-0.045-0.323-0.086-0.594-0.096-0.635c-0.322-1.253-1.682-3.484-3.128-3.571
			c-1.042-0.062-1.806,0.842-1.765,1.843C308.936,186.555,309.795,187.477,310.59,188.027z"/>
	</g>
	<g>
		<g>
			<path style="fill:#92E3A9;" d="M260.609,157.617c6.736-15.904-11.8-13.613-1.395,0.172c-10.405-13.786-17.69,3.413-0.548,1.294
				c-17.141,2.118-5.889,17.026,0.847,1.122c-6.736,15.904,11.8,13.614,1.395-0.172c10.405,13.786,17.69-3.413,0.548-1.295
				C278.597,156.622,267.345,141.714,260.609,157.617z"/>
			<path style="fill:#FFFFFF;" d="M264.565,158.355c-0.307-2.488-2.573-4.255-5.061-3.948c-2.488,0.307-4.255,2.573-3.948,5.061
				c0.307,2.488,2.573,4.255,5.061,3.948C263.105,163.109,264.872,160.843,264.565,158.355z"/>
		</g>
		<g>
			<path style="fill:#92E3A9;" d="M340.047,53.811c5.671-13.387-9.933-11.459-1.174,0.145c-8.759-11.604-14.891,2.873-0.462,1.09
				c-14.429,1.783-4.958,14.332,0.713,0.945c-5.67,13.387,9.933,11.459,1.174-0.145c8.759,11.604,14.891-2.873,0.462-1.09
				C355.189,52.972,345.717,40.423,340.047,53.811z"/>
			<path style="fill:#FFFFFF;" d="M343.377,54.432c-0.259-2.094-2.166-3.582-4.26-3.323c-2.094,0.259-3.582,2.166-3.323,4.26
				c0.259,2.094,2.166,3.582,4.26,3.323C342.148,58.433,343.636,56.526,343.377,54.432z"/>
		</g>
		<g>
			<path style="fill:#92E3A9;" d="M214.078,178.395c12.859-4.1,2.066-13.926-0.812-0.74c2.879-13.186-11.027-8.753-1.047,0.334
				c-9.98-9.086-13.093,5.173-0.234,1.073c-12.859,4.1-2.067,13.926,0.812,0.74c-2.879,13.186,11.027,8.753,1.047-0.334
				C223.824,188.554,226.937,174.294,214.078,178.395z"/>
			<path style="fill:#FFFFFF;" d="M215.654,181.116c1.319-1.448,1.213-3.691-0.235-5.01c-1.448-1.319-3.692-1.213-5.01,0.235
				c-1.319,1.448-1.214,3.692,0.235,5.01C212.092,182.669,214.335,182.564,215.654,181.116z"/>
		</g>
		<g>
			<path style="fill:#92E3A9;" d="M239.017,76.458c12.859-4.1,2.066-13.926-0.812-0.74c2.879-13.186-11.027-8.752-1.047,0.334
				c-9.98-9.086-13.093,5.173-0.234,1.073c-12.859,4.1-2.066,13.926,0.812,0.739c-2.879,13.186,11.027,8.753,1.047-0.334
				C248.762,86.618,251.876,72.358,239.017,76.458z"/>
			<path style="fill:#FFFFFF;" d="M240.592,79.179c1.319-1.448,1.214-3.691-0.235-5.01c-1.448-1.319-3.691-1.213-5.01,0.235
				c-1.319,1.448-1.214,3.692,0.235,5.01C237.031,80.733,239.274,80.628,240.592,79.179z"/>
		</g>
		<g>
			<path style="fill:#92E3A9;" d="M146.421,136.287c8.917,5.029,8.805-6.04-0.008-0.833c8.814-5.207-0.829-10.646-0.726-0.409
				c-0.103-10.237-9.634-4.605-0.717,0.424c-8.917-5.029-8.805,6.041,0.008,0.833c-8.814,5.207,0.829,10.646,0.726,0.409
				C145.807,146.948,155.337,141.316,146.421,136.287z"/>
			<path style="fill:#FFFFFF;" d="M145.722,138.568c1.486-0.015,2.678-1.231,2.663-2.717c-0.015-1.486-1.231-2.678-2.717-2.663
				c-1.486,0.015-2.678,1.231-2.663,2.717C143.02,137.391,144.237,138.583,145.722,138.568z"/>
		</g>
		<g>
			<path style="fill:#92E3A9;" d="M303.22,57.739c6.176,3.484,6.099-4.184-0.006-0.577c6.105-3.607-0.574-7.374-0.503-0.284
				c-0.071-7.091-6.673-3.19-0.497,0.294c-6.176-3.484-6.099,4.184,0.006,0.577c-6.105,3.607,0.574,7.374,0.503,0.283
				C302.794,65.123,309.396,61.222,303.22,57.739z"/>
			<path style="fill:#FFFFFF;" d="M302.736,59.319c1.029-0.01,1.855-0.853,1.844-1.882c-0.01-1.029-0.853-1.855-1.882-1.845
				c-1.029,0.01-1.855,0.853-1.844,1.882C300.864,58.503,301.707,59.329,302.736,59.319z"/>
		</g>
		<g>
			<path style="fill:#92E3A9;" d="M359.447,117.263c6.176,3.484,6.099-4.184-0.006-0.577c6.105-3.607-0.574-7.374-0.503-0.284
				c-0.071-7.091-6.673-3.19-0.497,0.294c-6.176-3.484-6.099,4.184,0.006,0.577c-6.105,3.607,0.574,7.374,0.503,0.284
				C359.021,124.648,365.623,120.747,359.447,117.263z"/>
			<path style="fill:#FFFFFF;" d="M358.963,118.843c1.029-0.01,1.855-0.853,1.844-1.882c-0.01-1.029-0.853-1.855-1.882-1.844
				c-1.029,0.01-1.855,0.853-1.845,1.882C357.091,118.028,357.934,118.854,358.963,118.843z"/>
		</g>
		<g>
			<path style="fill:#92E3A9;" d="M203.758,68.636c6.176,3.484,6.099-4.184-0.006-0.577c6.105-3.607-0.574-7.374-0.503-0.284
				c-0.071-7.09-6.673-3.19-0.497,0.294c-6.176-3.483-6.099,4.184,0.006,0.577c-6.105,3.607,0.574,7.374,0.503,0.284
				C203.333,76.021,209.935,72.12,203.758,68.636z"/>
			<path style="fill:#FFFFFF;" d="M203.274,70.216c1.029-0.01,1.855-0.853,1.844-1.882c-0.01-1.029-0.853-1.855-1.882-1.844
				c-1.029,0.01-1.855,0.853-1.844,1.882C201.403,69.4,202.245,70.226,203.274,70.216z"/>
		</g>
		<g>
			<path style="fill:#92E3A9;" d="M166.439,100.33c8.917,5.029,8.805-6.04-0.008-0.833c8.813-5.207-0.829-10.646-0.726-0.409
				c-0.103-10.236-9.634-4.605-0.717,0.424c-8.917-5.029-8.805,6.041,0.008,0.833c-8.814,5.207,0.829,10.646,0.726,0.409
				C165.824,110.991,175.355,105.36,166.439,100.33z"/>
			<path style="fill:#FFFFFF;" d="M165.74,102.611c1.486-0.015,2.678-1.231,2.663-2.717c-0.015-1.486-1.231-2.678-2.717-2.663
				c-1.486,0.015-2.678,1.231-2.663,2.717C163.038,101.434,164.254,102.626,165.74,102.611z"/>
		</g>
		<g>
			<path style="fill:#92E3A9;" d="M139.852,75.136c7.535,4.25,7.441-5.105-0.007-0.704c7.448-4.401-0.7-8.997-0.613-0.346
				c-0.087-8.651-8.141-3.892-0.606,0.358c-7.535-4.25-7.441,5.105,0.007,0.704c-7.448,4.401,0.7,8.996,0.613,0.346
				C139.332,84.144,147.387,79.386,139.852,75.136z"/>
			<path style="fill:#FFFFFF;" d="M139.261,77.063c1.255-0.013,2.263-1.041,2.25-2.296c-0.013-1.255-1.041-2.263-2.296-2.25
				c-1.255,0.013-2.263,1.041-2.25,2.296S138.006,77.076,139.261,77.063z"/>
		</g>
		<g>
			<path style="fill:#92E3A9;" d="M367.521,84.073c8.917,5.029,8.805-6.04-0.008-0.833c8.814-5.207-0.829-10.646-0.726-0.409
				c-0.103-10.236-9.634-4.605-0.717,0.424c-8.917-5.029-8.805,6.041,0.008,0.833c-8.814,5.207,0.829,10.646,0.726,0.409
				C366.906,94.733,376.437,89.102,367.521,84.073z"/>
			<path style="fill:#FFFFFF;" d="M366.822,86.354c1.486-0.015,2.678-1.231,2.663-2.717c-0.015-1.486-1.231-2.678-2.717-2.663
				c-1.486,0.015-2.678,1.231-2.663,2.717C364.12,85.176,365.336,86.369,366.822,86.354z"/>
		</g>
	</g>
	<g>
		<path style="fill:#263238;" d="M191.958,138.164l-3.133-25.355l-5.165,0.638l-0.246-1.992l12.728-1.573l0.246,1.992l-4.997,0.617
			l3.133,25.355L191.958,138.164z"/>
		<path style="fill:#263238;" d="M202.525,136.858l-3.379-27.348l2.6-0.321l1.498,12.12l8.609-1.064l-1.498-12.12l2.566-0.317
			l3.379,27.347l-2.566,0.317l-1.644-13.302l-8.609,1.064l1.644,13.302L202.525,136.858z"/>
		<path style="fill:#263238;" d="M219.609,134.747l2.394-28.061l2.701-0.334l9.187,26.63l-2.532,0.313l-2.256-7.16l-6.516,0.805
			l-0.479,7.498L219.609,134.747z M222.728,125.038l5.807-0.717l-4.76-14.391L222.728,125.038z"/>
		<path style="fill:#263238;" d="M237.198,132.574l-3.379-27.347l1.857-0.229l11.335,20.16l-2.624-21.236l2.229-0.275l3.379,27.348
			l-1.823,0.225l-11.431-20.388l2.653,21.473L237.198,132.574z"/>
		<path style="fill:#263238;" d="M254.721,130.408l-3.379-27.348l2.6-0.321l1.785,14.45l5.507-15.351l2.465-0.305l-4.187,12.446
			l8.781,14.752l-2.532,0.313l-7.699-12.931l-1.88,4.757l1.139,9.217L254.721,130.408z"/>
		<path style="fill:#263238;" d="M281.967,127.042l-1.122-9.082l-8.435-17.502l2.498-0.309l6.806,14.584l2.849-15.777l2.532-0.313
			l-3.753,19.008l1.122,9.082L281.967,127.042z"/>
		<path style="fill:#263238;" d="M299.936,125.164c-1.801,0.223-3.257,0.042-4.368-0.54c-1.112-0.582-1.955-1.483-2.528-2.704
			c-0.574-1.219-0.962-2.652-1.165-4.295l-1.402-11.344c-0.206-1.665-0.165-3.138,0.122-4.42c0.287-1.281,0.901-2.322,1.842-3.124
			c0.94-0.802,2.289-1.311,4.044-1.528c1.778-0.22,3.221-0.055,4.328,0.493c1.107,0.549,1.951,1.41,2.531,2.584
			c0.579,1.174,0.971,2.594,1.177,4.259l1.406,11.378c0.203,1.644,0.173,3.121-0.087,4.433c-0.261,1.313-0.854,2.385-1.779,3.219
			C303.134,124.409,301.759,124.939,299.936,125.164z M299.681,123.104c1.216-0.15,2.108-0.506,2.679-1.068
			c0.57-0.562,0.92-1.29,1.05-2.186c0.128-0.895,0.122-1.918-0.02-3.065l-1.531-12.391c-0.142-1.148-0.383-2.135-0.725-2.961
			c-0.343-0.826-0.858-1.431-1.544-1.815c-0.688-0.383-1.639-0.5-2.855-0.35c-1.193,0.147-2.081,0.492-2.666,1.032
			c-0.585,0.541-0.942,1.254-1.073,2.138c-0.131,0.885-0.125,1.901,0.017,3.048l1.531,12.391c0.142,1.147,0.385,2.141,0.728,2.978
			c0.344,0.838,0.866,1.458,1.567,1.863C297.542,123.124,298.488,123.252,299.681,123.104z"/>
		<path style="fill:#263238;" d="M317.898,122.945c-1.846,0.228-3.322,0.073-4.428-0.464c-1.107-0.537-1.924-1.373-2.452-2.507
			c-0.53-1.134-0.886-2.456-1.073-3.964l-2.457-19.886l2.498-0.309l2.466,19.954c0.131,1.058,0.367,2.005,0.711,2.842
			c0.344,0.838,0.872,1.464,1.586,1.878c0.714,0.415,1.678,0.547,2.894,0.396c1.169-0.145,2.05-0.51,2.641-1.097
			c0.59-0.588,0.961-1.324,1.115-2.212c0.153-0.887,0.165-1.859,0.034-2.918l-2.466-19.954l2.464-0.305l2.457,19.886
			c0.186,1.508,0.151,2.878-0.109,4.11c-0.259,1.232-0.854,2.242-1.785,3.031C321.064,122.216,319.698,122.723,317.898,122.945z"/>
	</g>
</g>
<g id="Character">
	<g>
		<path style="fill:#FFFFFF;stroke:#263238;stroke-linecap:round;stroke-linejoin:round;stroke-miterlimit:10;" d="M273.079,304.104
			c0,0,1.125,22.8-0.448,24.651c-3.66,4.306-15.071-1.292-15.071-1.292L273.079,304.104z"/>
		
			<line style="fill:none;stroke:#263238;stroke-linecap:round;stroke-linejoin:round;stroke-miterlimit:10;" x1="268.396" y1="293.495" x2="278.415" y2="349.661"/>
		<path style="fill:#263238;stroke:#263238;stroke-linecap:round;stroke-linejoin:round;stroke-miterlimit:10;" d="M269.003,351.18
			c0,0,6.983-8.501,8.805-5.768c1.822,2.732,7.286,12.144,4.858,18.52c-2.429,6.376-13.359,7.894-14.269,7.286
			C267.485,370.61,269.003,351.18,269.003,351.18z"/>
		<g>
			<path style="fill:#263238;stroke:#263238;stroke-linecap:round;stroke-linejoin:round;stroke-miterlimit:10;" d="M239.573,240.28
				c0,0-4.345-0.29-6.662,3.186c-2.317,3.476,0.579,4.441,1.545,5.407c0.966,0.965-0.772,1.545-0.193,2.897
				c0.579,1.352,2.607,0.193,2.607,0.193l5.793-4.924c0,0,11.876-9.173,10.331-9.945
				C251.449,236.321,246.428,234.776,239.573,240.28z"/>
			<polyline style="fill:none;stroke:#263238;stroke-linecap:round;stroke-linejoin:round;stroke-miterlimit:10;" points="
				250.435,280.323 236.461,302.703 243.84,327.455 			"/>
			<path style="fill:#FFFFFF;stroke:#263238;stroke-linecap:round;stroke-linejoin:round;stroke-miterlimit:10;" d="
				M236.461,302.703c0,0-2.368-1.077-2.799,0c-0.431,1.076-0.215,7.966,0.431,8.397s4.091,2.368,4.521,1.507
				c0.431-0.861,0-8.181,0-8.181L236.461,302.703z"/>
			<path style="fill:#FFFFFF;stroke:#263238;stroke-linecap:round;stroke-linejoin:round;stroke-miterlimit:10;" d="
				M236.891,299.474c0,0-1.938,1.077-1.938,1.938s2.584,5.383,3.66,4.737c1.076-0.646,2.153-0.861,1.507-2.368
				C239.316,301.902,240.363,303.234,236.891,299.474z"/>
			<path style="fill:#92E3A9;stroke:#263238;stroke-linecap:round;stroke-linejoin:round;stroke-miterlimit:10;" d="
				M250.435,280.323c0,0-7.015,14.455-8.65,17.475c-1.635,3.019-4.151,4.78-4.403,8.555c-0.252,3.774,3.145,9.813,3.145,9.813
				l-2.39,18.996l26.293-2.768c0,0,8.873-26.08,9.561-31.325c0.876-6.682,1.923-13.374-1.258-17.99
				c-3.352-4.864-10.326-9.34-10.326-9.34L250.435,280.323z"/>
			<g>
				<path style="fill:#FFFFFF;stroke:#263238;stroke-linecap:round;stroke-linejoin:round;stroke-miterlimit:10;" d="
					M225.039,378.598c0,0-8.891,34.554-9.093,37.787c-0.131,2.097-1.92,24.935-4.446,40.01c-1.368,8.164-4.243,13.337-4.243,13.337
					s-12.124,6.466-13.337,7.275c-1.212,0.808-9.093,1.414-9.699,3.233c-0.606,1.819-0.202,4.648,0.606,5.254
					c0.808,0.606,12.528,1.617,12.528,1.617s11.72-0.202,12.326-0.202c0.606,0,10.71,1.01,12.73-0.606
					c2.021-1.617,1.415-4.243,0.606-7.477c-0.808-3.233-2.627-8.689-2.425-10.306c0.202-1.617,10.508-32.938,10.306-38.798
					c-0.202-5.86,0.404-14.751,0.404-14.751l21.824-34.756L225.039,378.598z"/>
				<g>
					<path style="fill:#FFFFFF;stroke:#263238;stroke-linecap:round;stroke-linejoin:round;stroke-miterlimit:10;" d="
						M184.22,480.239c-0.606,1.819-0.202,4.648,0.606,5.254c0.808,0.606,12.528,1.617,12.528,1.617s11.72-0.202,12.326-0.202
						c0.606,0,10.71,1.01,12.73-0.606c2.021-1.617,1.415-4.243,0.606-7.477c-0.538-2.154-1.523-5.291-2.062-7.626
						c-1.272,0.308-3.003,0.799-5.01,1.564c-4.244,1.617-5.658,0-5.658,0l-3.031-3.031c0,0-12.124,6.466-13.337,7.275
						C192.707,477.814,184.827,478.421,184.22,480.239z"/>
					<path style="fill:none;stroke:#263238;stroke-linecap:round;stroke-linejoin:round;stroke-miterlimit:10;" d="M216.4,483.649
						c3.688-0.53,5.81-1.187,5.81-1.187"/>
					<path style="fill:none;stroke:#263238;stroke-linecap:round;stroke-linejoin:round;stroke-miterlimit:10;" d="M184.827,482.664
						c0,0,3.839,0.404,16.368,1.415c4.343,0.35,8.2,0.263,11.387,0"/>
				</g>
			</g>
			<g>
				<path style="fill:#FFFFFF;stroke:#263238;stroke-linecap:round;stroke-linejoin:round;stroke-miterlimit:10;" d="
					M249.489,384.458c0,0,17.746,38.758,19.63,40.533c1.884,1.774,30.251,24.542,34.525,29.347c4.275,4.805,7.423,11.42,7.423,11.42
					s-4.924,9.98-6.876,11.3c-1.952,1.32-6.304,3.174-5.791,5.17c0.513,1.996,0.589,3.408,2.236,3.926
					c1.647,0.518,12.396,0.948,15.357-0.426c2.961-1.375,17.788-15.331,18.295-17.18c0.507-1.849-1.854-4.352-3.982-6.26
					c-2.127-1.909-8.791-5.393-11.098-6.887c-2.307-1.494-15.608-24.69-22.637-30.529c-7.029-5.839-15.648-10.483-15.648-10.483
					l-7.792-31.952L249.489,384.458z"/>
				<g>
					<path style="fill:#FFFFFF;stroke:#263238;stroke-linecap:round;stroke-linejoin:round;stroke-miterlimit:10;" d="
						M334.288,468.547c0.507-1.849-1.854-4.352-3.982-6.26c-1.141-1.024-3.586-2.5-5.965-3.88c-0.819,2.257-2.21,5.557-3.78,7.038
						c-2.503,2.362-6.146,2.356-6.146,2.356l-3.349-2.045c0,0-4.924,9.98-6.876,11.3c-1.952,1.32-6.304,3.174-5.791,5.17
						c0.513,1.996,0.589,3.408,2.236,3.926c1.647,0.518,12.396,0.948,15.357-0.426C318.955,484.353,333.781,470.396,334.288,468.547
						z"/>
					<path style="fill:none;stroke:#263238;stroke-linecap:round;stroke-linejoin:round;stroke-miterlimit:10;" d="M308.654,483.421
						c1.908-0.113,3.811-0.46,5.327-1.227c4.924-2.493,16.948-15.893,16.948-15.893"/>
					<path style="fill:none;stroke:#263238;stroke-linecap:round;stroke-linejoin:round;stroke-miterlimit:10;" d="M300.048,482.745
						c0,0,3.069,0.661,6.604,0.716"/>
				</g>
			</g>
			<path style="fill:#263238;stroke:#263238;stroke-linecap:round;stroke-linejoin:round;stroke-miterlimit:10;" d="M306.83,434.564
				c-8.011-11.215-25.234-23.232-25.234-23.232l-6.607-28.41l0.03-0.001c0,0,0.804-19.024,0-24.382
				c-0.804-5.359-10.59-26.146-10.59-26.146l-27.591,1.63l-2.144,13.933l0.199,3.604l-11.318,26.539c0,0-9.67,30.43-9.67,34.436
				c0,4.005-5.608,44.06-8.011,49.667s-4.005,7.61-4.005,7.61s13.421,10.816,21.13,9.013c7.709-1.803,7.709-1.803,7.709-1.803
				s0-20.428,5.207-33.245c5.207-12.817,14.419-44.861,14.419-44.861s4.406,22.03,7.61,28.839
				c3.204,6.809,13.618,15.621,25.234,24.433c11.616,8.812,19.226,18.826,19.226,18.826s7.161,1.187,11.992-3.212
				c4.831-4.399,9.926-9.394,9.926-9.394S314.841,445.779,306.83,434.564z"/>
			<g>
				<path style="fill:#FFFFFF;stroke:#263238;stroke-linecap:round;stroke-linejoin:round;stroke-miterlimit:10;" d="
					M239.811,243.512c0,0-2.843,3.89-2.993,7.332c-0.068,1.565,0.186,3.221,0.318,4.977c0.158,2.106-1.032,3.033-0.516,5.421
					c0.102,0.47,1.049,1.812,1.42,2.581c1.495,3.102,3.476,7.101,4.316,7.821c1.047,0.898,4.639,0.299,4.639,0.299
					c1.286-0.738,5.186,5.027,3.442,8.38c-0.989,1.901,0.449,2.095,0.449,2.095s4.938-4.489,6.434-5.536
					c1.496-1.047,5.088-3.142,5.088-3.142l-2.394-10.474c0,0,2.993-4.938,1.197-8.08c-1.796-3.142-9.726-9.577-12.869-11.223
					c-3.142-1.646-5.387-1.945-5.985-1.945S239.811,243.512,239.811,243.512z"/>
				<path style="fill:#FFFFFF;stroke:#263238;stroke-linecap:round;stroke-linejoin:round;stroke-miterlimit:10;" d="
					M246.993,271.943c0,0,2.539-0.955,4.984-2.271"/>
				<path style="fill:#FFFFFF;stroke:#263238;stroke-linecap:round;stroke-linejoin:round;stroke-miterlimit:10;" d="
					M258.98,261.714c0,0-1.173,1.939-2.114,1.939l-1.316-0.188v1.881"/>
				<path style="fill:none;stroke:#263238;stroke-linecap:round;stroke-linejoin:round;stroke-miterlimit:10;" d="M240.692,253.794
					c0.715,0.725,0.926,4.743-0.283,5.471c-1.263,0.759-0.599,2.394,0.299,2.694c0.898,0.299,2.245,0,2.245,0"/>
				<path style="fill:none;stroke:#263238;stroke-linecap:round;stroke-linejoin:round;stroke-miterlimit:10;" d="M240.858,265.209
					c0,0,3.442,1.796,6.584-1.347"/>
				<path style="fill:none;stroke:#263238;stroke-linecap:round;stroke-linejoin:round;stroke-miterlimit:10;" d="M239.392,252.494
					c0,0-0.855-1.141-2.136-1.074"/>
				<path style="fill:none;stroke:#263238;stroke-linecap:round;stroke-linejoin:round;stroke-miterlimit:10;" d="M242.555,252.064
					c0,0,2.76-1.922,5.29,0.214"/>
				<ellipse style="fill:#263238;" cx="245.529" cy="256.102" rx="0.97" ry="1.649"/>
				<path style="fill:#263238;" d="M239.565,256.047c0,0.775-0.37,1.403-0.825,1.403c-0.456,0-0.825-0.628-0.825-1.403
					c0-0.775,0.369-1.403,0.825-1.403C239.196,254.644,239.565,255.272,239.565,256.047z"/>
			</g>
			<path style="fill:#263238;stroke:#263238;stroke-linecap:round;stroke-linejoin:round;stroke-miterlimit:10;" d="
				M242.856,241.245c0,0,3.766,1.545,3.959,4.538s7.048,9.945,10.331,10.331s2.993,3.476,1.835,5.6
				c-1.159,2.124-2.028,8.593,0.965,11.2s5.986,3.573,8.014,5.6c2.028,2.028,4.152,4.828,3.766,7.048
				c-0.386,2.221,0.676,4.441,2.703,5.503c2.028,1.062,7.917,0.29,11.586-6.855c3.669-7.145,5.6-10.138,1.159-14.676
				c-4.441-4.538-8.304-5.793-8.304-5.793s1.835-0.386,0.386-7.628c-1.448-7.241-10.331-5.986-10.621-5.986
				c-0.29,0-2.8-4.538-5.117-9.076s-7.435-6.759-10.91-5.6C249.132,236.611,243.628,239.507,242.856,241.245z"/>
			<polygon style="fill:#263238;stroke:#263238;stroke-linecap:round;stroke-linejoin:round;stroke-miterlimit:10;" points="
				211.609,297.029 205.108,281.988 212.877,286.036 219.565,300.867 			"/>
			<g>
				<path style="fill:#FFFFFF;stroke:#263238;stroke-linecap:round;stroke-linejoin:round;stroke-miterlimit:10;" d="
					M253.048,288.92l-4.967,27.969c0,0-9.816-2.254-15.1-5.371c-5.284-3.118-8.838-7.333-8.838-7.333s-1.466-6.649-2.428-7.429
					s-2.7-2.552-3.387-3.388c-0.687-0.836-1.761-2.168-2.266-1.262c-0.505,0.906-0.58,1.668,0.35,2.57
					c0.93,0.902,2.307,4.009,2.307,4.009l-3.415-1.832c0,0-1.989-4.705-2.643-5.663c-0.654-0.958-3.069-4.084-4.172-3.86
					c-1.103,0.224,0.051,2.229,0.051,2.229l0.313,1.257c0,0-0.627,4.261-0.501,5.728c0.126,1.467,0.77,2.944,0.77,2.944
					s1.205,4.233,2.312,5.443c1.107,1.21,6.755,4.426,6.755,4.426s11.814,9.828,17.728,13.506c5.914,3.678,13.637,6.932,15.58,7.455
					c1.943,0.524,3.453-0.242,4.682-2.387c1.229-2.144,3.31-7.447,3.31-7.447l8.019-29.76c1.484-4.5-2.994-14.515-10.057-9.207
					C255.079,283.299,253.567,285.999,253.048,288.92z"/>
				<path style="fill:none;stroke:#263238;stroke-linecap:round;stroke-linejoin:round;stroke-miterlimit:10;" d="M248.081,316.889
					c0,0,2.64,0.841,3.835,2.206"/>
				<path style="fill:none;stroke:#263238;stroke-linecap:round;stroke-linejoin:round;stroke-miterlimit:10;" d="M208.854,290.815
					c0,0,1.742,3.205,2.143,4.616c0.402,1.411,1.588,3.294,1.588,3.294"/>
			</g>
		</g>
	</g>
</g>
<g id="Paper_Plane">
	<g>
		<polygon style="fill:#263238;stroke:#263238;stroke-linecap:round;stroke-linejoin:round;stroke-miterlimit:10;" points="
			411.618,32.128 409.417,45.271 351.325,23.334 		"/>
		<polygon style="fill:#92E3A9;stroke:#263238;stroke-linecap:round;stroke-linejoin:round;stroke-miterlimit:10;" points="
			411.618,18.472 351.325,23.334 411.618,32.128 		"/>
		<polygon style="fill:#263238;stroke:#263238;stroke-linecap:round;stroke-linejoin:round;stroke-miterlimit:10;" points="
			351.325,23.334 401.083,56.856 409.417,45.271 		"/>
		<polygon style="fill:#92E3A9;stroke:#263238;stroke-linecap:round;stroke-linejoin:round;stroke-miterlimit:10;" points="
			351.325,23.334 413.885,56.239 411.854,37.552 		"/>
	</g>
</g>
</svg>
