<?xml version="1.0" encoding="utf-8"?>
<!-- Generator: Adobe Illustrator 27.5.0, SVG Export Plug-In . SVG Version: 6.00 Build 0)  -->
<svg version="1.1" xmlns="http://www.w3.org/2000/svg" xmlns:xlink="http://www.w3.org/1999/xlink" x="0px" y="0px"
	 viewBox="0 0 750 500" style="enable-background:new 0 0 750 500;" xml:space="preserve">
<g id="Background_Simple">
	<g>
		<path style="fill:#92E3A9;" d="M633.021,79.212c-49.218-28.961-105.034-40.958-160.894-48.488
			c-53.949-7.272-109.311-3.474-161.871,10.607c-23.005,6.163-45.484,14.301-67.076,24.349c-20.232,9.415-39.769,26.27-61.81,30.639
			c7.381-10.298,14.763-20.596,22.145-30.894c4.257-5.938,8.446-14.455,3.521-19.853c-2.008-2.201-5.061-3.117-8.01-3.551
			c-11.394-1.677-22.833,2.453-33.17,7.529c-47.63,23.389-86.519,67.007-116.091,110.159
			C0.966,230.914,6.388,347.786,62.158,405.061c55.77,57.275,175.055,85.139,224.628,78.947
			c37.632-4.701-2.915-27.049-11.244-40.598c-0.726-1.181-1.408-2.482-1.348-3.867c0.102-2.37,2.268-4.074,4.32-5.265
			c17.195-9.984,39.17-7.049,58.201-8.546c30.27-2.382,60.784-3.364,91.137-2.24c4.122,0.153,51.7,1.288,47.929,10.987
			c-2.997,7.702-14.821,13.925-21.029,18.64c-4.768,3.621-35.634,24.599-26.726,31.762c2.462,1.98,5.797,2.387,8.943,2.692
			c52.12,5.049,105.757,3.495,157.077-7.36c44.693-9.455,94.025-24.837,120.692-64.784c27.195-40.737,28.857-95.148,18.483-141.581
			c-2.47-11.055-5.716-21.947-9.822-32.508c-3.811-9.801-9.869-18.061-14.925-27.218c-2.038-3.69-3.445-8.137-1.977-12.088
			c6.477-17.433,25.284,17.333,30.414-1.337c2.491-9.066-2.31-22.515-5.357-31.075c-5.491-15.426-14.786-29.301-25.915-41.23
			C684.361,105.587,659.141,94.582,633.021,79.212z"/>
		<path style="opacity:0.7;fill:#FFFFFF;" d="M633.021,79.212c-49.218-28.961-105.034-40.958-160.894-48.488
			c-53.949-7.272-109.311-3.474-161.871,10.607c-23.005,6.163-45.484,14.301-67.076,24.349c-20.232,9.415-39.769,26.27-61.81,30.639
			c7.381-10.298,14.763-20.596,22.145-30.894c4.257-5.938,8.446-14.455,3.521-19.853c-2.008-2.201-5.061-3.117-8.01-3.551
			c-11.394-1.677-22.833,2.453-33.17,7.529c-47.63,23.389-86.519,67.007-116.091,110.159
			C0.966,230.914,6.388,347.786,62.158,405.061c55.77,57.275,175.055,85.139,224.628,78.947
			c37.632-4.701-2.915-27.049-11.244-40.598c-0.726-1.181-1.408-2.482-1.348-3.867c0.102-2.37,2.268-4.074,4.32-5.265
			c17.195-9.984,39.17-7.049,58.201-8.546c30.27-2.382,60.784-3.364,91.137-2.24c4.122,0.153,51.7,1.288,47.929,10.987
			c-2.997,7.702-14.821,13.925-21.029,18.64c-4.768,3.621-35.634,24.599-26.726,31.762c2.462,1.98,5.797,2.387,8.943,2.692
			c52.12,5.049,105.757,3.495,157.077-7.36c44.693-9.455,94.025-24.837,120.692-64.784c27.195-40.737,28.857-95.148,18.483-141.581
			c-2.47-11.055-5.716-21.947-9.822-32.508c-3.811-9.801-9.869-18.061-14.925-27.218c-2.038-3.69-3.445-8.137-1.977-12.088
			c6.477-17.433,25.284,17.333,30.414-1.337c2.491-9.066-2.31-22.515-5.357-31.075c-5.491-15.426-14.786-29.301-25.915-41.23
			C684.361,105.587,659.141,94.582,633.021,79.212z"/>
	</g>
</g>
<g id="Clouds">
	<path style="fill:none;stroke:#263238;stroke-linecap:round;stroke-linejoin:round;stroke-miterlimit:10;" d="M686.63,119.698
		c-0.422-0.26-0.852-0.496-1.288-0.704c-6.714-3.198-12.15-0.64-15.348,4.157c-3.198,4.796-4.157,7.354-6.395,5.116
		c-2.238-2.238-5.755-5.436-10.871-2.558c-5.116,2.878-4.157,5.755-7.034,6.395c-2.878,0.639-4.796-2.238-9.273-1.279
		c-4.476,0.959-7.034,4.476-7.994,5.116c-0.959,0.64-8.633,3.517-8.633,3.517h99.44c0,0-1.599-8.953-6.715-11.511
		c-5.116-2.558-8.953,1.918-11.83,3.837c-2.878,1.919-3.517,0.32-3.517,0.32s-2.708-5.246-6.768-9.336"/>
	<path style="fill:none;stroke:#263238;stroke-linecap:round;stroke-linejoin:round;stroke-miterlimit:10;" d="M327.931,129.849
		c-0.422-0.26-0.852-0.496-1.288-0.704c-6.714-3.197-12.15-0.639-15.348,4.157c-3.197,4.796-4.157,7.354-6.395,5.116
		c-2.238-2.238-5.755-5.436-10.871-2.558c-5.116,2.878-4.157,5.755-7.034,6.395c-2.878,0.639-4.796-2.238-9.273-1.279
		c-4.476,0.959-7.034,4.476-7.994,5.116c-0.959,0.64-8.633,3.517-8.633,3.517h99.44c0,0-1.599-8.953-6.715-11.511
		c-5.116-2.558-8.953,1.918-11.83,3.837c-2.878,1.919-3.517,0.32-3.517,0.32s-2.707-5.246-6.768-9.336"/>
	<path style="fill:none;stroke:#263238;stroke-linecap:round;stroke-linejoin:round;stroke-miterlimit:10;" d="M89.168,151.789
		c-0.422-0.26-0.852-0.496-1.288-0.704c-6.715-3.197-12.15-0.639-15.348,4.157c-3.198,4.796-4.157,7.354-6.395,5.116
		c-2.238-2.238-5.755-5.436-10.871-2.558c-5.116,2.878-4.157,5.755-7.034,6.395c-2.878,0.639-4.796-2.238-9.273-1.279
		c-4.476,0.959-7.034,4.476-7.994,5.116c-0.959,0.64-8.633,3.517-8.633,3.517h99.44c0,0-1.599-8.953-6.715-11.511
		c-5.116-2.558-8.953,1.918-11.83,3.837c-2.878,1.919-3.517,0.32-3.517,0.32s-2.708-5.246-6.768-9.336"/>
	<path style="fill:none;stroke:#263238;stroke-linecap:round;stroke-linejoin:round;stroke-miterlimit:10;" d="M314.99,46.819
		c-0.809-0.499-1.633-0.952-2.47-1.35c-12.878-6.132-23.302-1.227-29.435,7.972c-6.132,9.198-7.972,14.104-12.265,9.812
		c-4.292-4.293-11.038-10.425-20.849-4.906c-9.812,5.519-7.972,11.038-13.491,12.264c-5.519,1.226-9.198-4.293-17.784-2.453
		c-8.585,1.84-13.491,8.585-15.331,9.812c-1.84,1.227-16.557,6.745-16.557,6.745h190.712c0,0-3.066-17.17-12.878-22.076
		c-9.812-4.906-17.17,3.679-22.689,7.359c-5.519,3.68-6.745,0.613-6.745,0.613s-5.193-10.061-12.98-17.905"/>
</g>
<g id="Trees">
	<g>
		<path style="fill:#92E3A9;" d="M114.168,343.943c0,25.294-14.963,45.799-33.421,45.799c-18.458,0-33.421-20.505-33.421-45.799
			c0-25.294,14.963-112.228,33.421-112.228C99.205,231.715,114.168,318.649,114.168,343.943z"/>
		<path style="opacity:0.53;fill:#FFFFFF;" d="M114.168,343.943c0,25.294-14.963,45.799-33.421,45.799
			c-18.458,0-33.421-20.505-33.421-45.799c0-25.294,14.963-112.228,33.421-112.228C99.205,231.715,114.168,318.649,114.168,343.943z
			"/>
		<polygon style="fill:#B2B2B2;" points="62.694,346.217 73.353,349.935 78.634,357.113 77.71,379.09 71.566,374.921 
			77.519,383.638 76.124,416.84 82.644,416.84 81.784,366.936 99.487,357.177 89.367,360.919 91.397,354.828 86.559,361.958 
			81.729,363.745 81.384,343.741 98.965,320.383 89.543,329.805 91.136,323.254 86.629,332.719 81.286,338.062 80.747,306.809 
			78.832,352.39 62.172,334.735 71.323,347.176 		"/>
		<g>
			<path style="fill:#FFFFFF;" d="M99.133,306.908c0,0,0.309,3.07-1.369,5.324c-1.678,2.254-4.708,2.838-4.708,2.838
				s-0.309-3.07,1.369-5.324C96.103,307.492,99.133,306.908,99.133,306.908z"/>
			<path style="fill:#FFFFFF;" d="M109.206,321.06c0,0,0.309,3.07-1.369,5.325c-1.678,2.254-4.708,2.838-4.708,2.838
				s-0.309-3.07,1.369-5.324C106.176,321.645,109.206,321.06,109.206,321.06z"/>
			<path style="fill:#FFFFFF;" d="M109.202,348.616c0,0-0.743,2.995-3.082,4.553c-2.339,1.557-5.389,1.088-5.389,1.088
				s0.743-2.995,3.082-4.553C106.152,348.145,109.202,348.616,109.202,348.616z"/>
			<path style="fill:#FFFFFF;" d="M53.882,348.616c0,0,0.743,2.995,3.082,4.553c2.339,1.557,5.389,1.088,5.389,1.088
				s-0.743-2.995-3.082-4.553C56.932,348.145,53.882,348.616,53.882,348.616z"/>
			<path style="fill:#FFFFFF;" d="M97.568,337.177c0,0,0.309,3.07-1.369,5.325c-1.678,2.254-4.709,2.838-4.709,2.838
				s-0.309-3.07,1.369-5.325C94.537,337.762,97.568,337.177,97.568,337.177z"/>
			<path style="fill:#FFFFFF;" d="M94.958,291.512c0,0,0.309,3.071-1.369,5.325c-1.678,2.254-4.708,2.838-4.708,2.838
				s-0.309-3.07,1.369-5.324C91.928,292.096,94.958,291.512,94.958,291.512z"/>
			<path style="fill:#FFFFFF;" d="M88.956,303.255c0,0,0.309,3.07-1.369,5.324c-1.678,2.254-4.708,2.838-4.708,2.838
				s-0.309-3.07,1.369-5.325C85.926,303.839,88.956,303.255,88.956,303.255z"/>
			<path style="fill:#FFFFFF;" d="M103.204,294.705c0,0,0.309,3.07-1.369,5.324c-1.678,2.254-4.708,2.838-4.708,2.838
				s-0.309-3.07,1.369-5.324C100.174,295.289,103.204,294.705,103.204,294.705z"/>
			<path style="fill:#FFFFFF;" d="M56.905,294.705c0,0-0.309,3.07,1.369,5.324c1.678,2.254,4.708,2.838,4.708,2.838
				s0.309-3.07-1.369-5.324C59.935,295.289,56.905,294.705,56.905,294.705z"/>
			<path style="fill:#FFFFFF;" d="M96.263,277.16c0,0,0.309,3.071-1.369,5.325s-4.708,2.838-4.708,2.838s-0.309-3.07,1.369-5.325
				C93.233,277.744,96.263,277.16,96.263,277.16z"/>
			<path style="fill:#FFFFFF;" d="M93.313,261.915c0,0,1.071,2.894,0.012,5.498c-1.058,2.603-3.844,3.93-3.844,3.93
				s-1.071-2.894-0.012-5.498C90.527,263.241,93.313,261.915,93.313,261.915z"/>
			<path style="fill:#FFFFFF;" d="M72.179,257.931c0,0,2.734,1.432,3.692,4.074c0.958,2.642-0.222,5.493-0.222,5.493
				s-2.734-1.432-3.692-4.074C70.999,260.782,72.179,257.931,72.179,257.931z"/>
			<path style="fill:#FFFFFF;" d="M82.035,276.161c0,0,1.947,2.394,1.786,5.2c-0.161,2.806-2.37,4.961-2.37,4.961
				s-1.947-2.394-1.786-5.199C79.826,278.316,82.035,276.161,82.035,276.161z"/>
			<path style="fill:#FFFFFF;" d="M81.513,249.023c0,0,1.947,2.394,1.786,5.199c-0.161,2.805-2.37,4.96-2.37,4.96
				s-1.947-2.394-1.786-5.2C79.304,251.178,81.513,249.023,81.513,249.023z"/>
			<path style="fill:#FFFFFF;" d="M59.394,306.908c0,0-0.309,3.07,1.369,5.324c1.678,2.254,4.708,2.838,4.708,2.838
				s0.309-3.07-1.369-5.324C62.424,307.492,59.394,306.908,59.394,306.908z"/>
			<path style="fill:#FFFFFF;" d="M53.653,323.608c0,0-0.309,3.07,1.369,5.324c1.678,2.254,4.708,2.838,4.708,2.838
				s0.309-3.07-1.369-5.325C56.683,324.193,53.653,323.608,53.653,323.608z"/>
			<path style="fill:#FFFFFF;" d="M68.892,329.672c0,0-0.309,3.07,1.369,5.324c1.678,2.254,4.708,2.838,4.708,2.838
				s0.309-3.071-1.369-5.325C71.922,330.256,68.892,329.672,68.892,329.672z"/>
			<path style="fill:#FFFFFF;" d="M73.058,306.531c0,0-1.175,2.853-0.213,5.494c0.963,2.64,3.699,4.068,3.699,4.068
				s1.175-2.853,0.213-5.494C75.794,307.958,73.058,306.531,73.058,306.531z"/>
			<path style="fill:#FFFFFF;" d="M62.267,368.107c0,0,3.085,0.056,5.194-1.801c2.109-1.857,2.443-4.925,2.443-4.925
				s-3.085-0.056-5.194,1.801C62.601,365.039,62.267,368.107,62.267,368.107z"/>
			<path style="fill:#FFFFFF;" d="M91.875,364.732c0,0,0.838,2.97,3.226,4.452c2.388,1.482,5.421,0.914,5.421,0.914
				s-0.838-2.97-3.226-4.452C94.908,364.164,91.875,364.732,91.875,364.732z"/>
			<path style="fill:#FFFFFF;" d="M65.709,291.512c0,0-0.309,3.071,1.369,5.325c1.678,2.254,4.709,2.838,4.709,2.838
				s0.309-3.07-1.369-5.324C68.74,292.096,65.709,291.512,65.709,291.512z"/>
			<path style="fill:#FFFFFF;" d="M65.656,277.943c0,0-0.309,3.07,1.369,5.324c1.678,2.254,4.709,2.838,4.709,2.838
				s0.309-3.071-1.369-5.325C68.687,278.527,65.656,277.943,65.656,277.943z"/>
		</g>
	</g>
	<g>
		<path style="fill:#92E3A9;" d="M709.794,366.692c0,25.294-14.963,45.799-33.421,45.799c-18.458,0-33.421-20.505-33.421-45.799
			c0-25.294,14.963-112.228,33.421-112.228C694.832,254.464,709.794,341.398,709.794,366.692z"/>
		<path style="opacity:0.53;fill:#FFFFFF;" d="M709.794,366.692c0,25.294-14.963,45.799-33.421,45.799
			c-18.458,0-33.421-20.505-33.421-45.799c0-25.294,14.963-112.228,33.421-112.228C694.832,254.464,709.794,341.398,709.794,366.692
			z"/>
		<polygon style="fill:#B2B2B2;" points="658.32,368.965 668.98,372.684 674.26,379.862 673.337,401.839 667.192,397.669 
			673.146,406.387 671.751,439.588 678.271,439.588 677.41,389.684 695.113,379.925 684.993,383.668 687.024,377.576 
			682.186,384.706 677.355,386.493 677.01,366.489 694.591,343.132 685.169,352.553 686.763,346.002 682.256,355.467 
			676.913,360.81 676.374,329.557 674.459,375.139 657.798,357.484 666.95,369.924 		"/>
		<g>
			<path style="fill:#FFFFFF;" d="M694.76,329.656c0,0,0.309,3.071-1.369,5.325c-1.678,2.254-4.708,2.838-4.708,2.838
				s-0.309-3.07,1.369-5.325C691.73,330.24,694.76,329.656,694.76,329.656z"/>
			<path style="fill:#FFFFFF;" d="M704.833,343.809c0,0,0.309,3.07-1.369,5.325c-1.678,2.254-4.708,2.838-4.708,2.838
				s-0.309-3.07,1.369-5.324C701.803,344.393,704.833,343.809,704.833,343.809z"/>
			<path style="fill:#FFFFFF;" d="M704.828,371.364c0,0-0.742,2.995-3.082,4.553c-2.339,1.558-5.389,1.088-5.389,1.088
				s0.742-2.995,3.082-4.553C701.779,370.894,704.828,371.364,704.828,371.364z"/>
			<path style="fill:#FFFFFF;" d="M649.508,371.364c0,0,0.742,2.995,3.082,4.553c2.339,1.558,5.389,1.088,5.389,1.088
				s-0.742-2.995-3.082-4.553C652.558,370.894,649.508,371.364,649.508,371.364z"/>
			<path style="fill:#FFFFFF;" d="M693.194,359.926c0,0,0.309,3.07-1.369,5.325c-1.678,2.254-4.708,2.838-4.708,2.838
				s-0.309-3.07,1.369-5.324C690.164,360.51,693.194,359.926,693.194,359.926z"/>
			<path style="fill:#FFFFFF;" d="M690.585,314.26c0,0,0.309,3.07-1.369,5.324c-1.678,2.254-4.709,2.838-4.709,2.838
				s-0.309-3.07,1.369-5.324C687.555,314.845,690.585,314.26,690.585,314.26z"/>
			<path style="fill:#FFFFFF;" d="M684.583,326.003c0,0,0.309,3.07-1.369,5.325c-1.678,2.254-4.709,2.838-4.709,2.838
				s-0.309-3.07,1.369-5.325C681.553,326.587,684.583,326.003,684.583,326.003z"/>
			<path style="fill:#FFFFFF;" d="M698.831,317.453c0,0,0.309,3.07-1.369,5.324s-4.708,2.838-4.708,2.838s-0.309-3.07,1.369-5.324
				C695.801,318.037,698.831,317.453,698.831,317.453z"/>
			<path style="fill:#FFFFFF;" d="M652.532,317.453c0,0-0.309,3.07,1.369,5.324c1.678,2.254,4.708,2.838,4.708,2.838
				s0.309-3.07-1.369-5.324C655.562,318.037,652.532,317.453,652.532,317.453z"/>
			<path style="fill:#FFFFFF;" d="M691.889,299.909c0,0,0.309,3.07-1.369,5.324c-1.678,2.254-4.708,2.838-4.708,2.838
				s-0.309-3.07,1.369-5.325C688.859,300.492,691.889,299.909,691.889,299.909z"/>
			<path style="fill:#FFFFFF;" d="M688.94,284.663c0,0,1.071,2.894,0.012,5.498c-1.058,2.603-3.844,3.93-3.844,3.93
				s-1.071-2.894-0.012-5.498C686.154,285.99,688.94,284.663,688.94,284.663z"/>
			<path style="fill:#FFFFFF;" d="M667.806,280.679c0,0,2.734,1.432,3.692,4.074c0.958,2.642-0.222,5.493-0.222,5.493
				s-2.734-1.432-3.692-4.074C666.626,283.531,667.806,280.679,667.806,280.679z"/>
			<path style="fill:#FFFFFF;" d="M677.661,298.91c0,0,1.947,2.394,1.786,5.2c-0.161,2.806-2.37,4.961-2.37,4.961
				s-1.947-2.394-1.786-5.2C675.452,301.065,677.661,298.91,677.661,298.91z"/>
			<path style="fill:#FFFFFF;" d="M677.139,271.772c0,0,1.947,2.394,1.786,5.199c-0.161,2.806-2.37,4.96-2.37,4.96
				s-1.947-2.394-1.786-5.2C674.93,273.926,677.139,271.772,677.139,271.772z"/>
			<path style="fill:#FFFFFF;" d="M655.02,329.656c0,0-0.309,3.071,1.369,5.325c1.678,2.254,4.708,2.838,4.708,2.838
				s0.309-3.07-1.369-5.325C658.05,330.24,655.02,329.656,655.02,329.656z"/>
			<path style="fill:#FFFFFF;" d="M649.279,346.357c0,0-0.309,3.07,1.369,5.325c1.678,2.254,4.709,2.838,4.709,2.838
				s0.309-3.07-1.369-5.325C652.31,346.941,649.279,346.357,649.279,346.357z"/>
			<path style="fill:#FFFFFF;" d="M664.518,352.42c0,0-0.309,3.07,1.369,5.324s4.708,2.838,4.708,2.838s0.309-3.07-1.369-5.325
				C667.548,353.004,664.518,352.42,664.518,352.42z"/>
			<path style="fill:#FFFFFF;" d="M668.685,329.279c0,0-1.175,2.853-0.213,5.494c0.962,2.64,3.698,4.068,3.698,4.068
				s1.176-2.853,0.213-5.494C671.421,330.707,668.685,329.279,668.685,329.279z"/>
			<path style="fill:#FFFFFF;" d="M657.894,390.855c0,0,3.086,0.056,5.194-1.801c2.109-1.857,2.443-4.925,2.443-4.925
				s-3.085-0.056-5.194,1.801C658.228,387.788,657.894,390.855,657.894,390.855z"/>
			<path style="fill:#FFFFFF;" d="M687.501,387.48c0,0,0.838,2.97,3.226,4.452c2.388,1.482,5.421,0.914,5.421,0.914
				s-0.838-2.97-3.226-4.452C690.535,386.913,687.501,387.48,687.501,387.48z"/>
			<path style="fill:#FFFFFF;" d="M661.336,314.26c0,0-0.309,3.07,1.369,5.324c1.678,2.254,4.708,2.838,4.708,2.838
				s0.309-3.07-1.369-5.324C664.366,314.845,661.336,314.26,661.336,314.26z"/>
			<path style="fill:#FFFFFF;" d="M661.283,300.691c0,0-0.309,3.07,1.369,5.324c1.678,2.254,4.708,2.838,4.708,2.838
				s0.309-3.07-1.369-5.325C664.313,301.275,661.283,300.691,661.283,300.691z"/>
		</g>
	</g>
	<g>
		<path style="fill:#92E3A9;" d="M631.57,302.29c0,25.294-14.963,45.799-33.421,45.799c-18.458,0-33.421-20.505-33.421-45.799
			c0-25.294,14.963-112.228,33.421-112.228C616.607,190.062,631.57,276.996,631.57,302.29z"/>
		<path style="opacity:0.53;fill:#FFFFFF;" d="M631.57,302.29c0,25.294-14.963,45.799-33.421,45.799
			c-18.458,0-33.421-20.505-33.421-45.799c0-25.294,14.963-112.228,33.421-112.228C616.607,190.062,631.57,276.996,631.57,302.29z"
			/>
		<polygon style="fill:#B2B2B2;" points="580.096,304.563 590.755,308.282 596.036,315.46 595.112,337.437 588.968,333.267 
			594.921,341.985 593.526,375.186 600.047,375.186 599.186,325.282 616.889,315.523 606.769,319.266 608.8,313.174 
			603.961,320.304 599.131,322.091 598.786,302.087 616.367,278.73 606.945,288.152 608.539,281.6 604.031,291.065 598.688,296.408 
			598.149,265.155 596.234,310.737 579.574,293.082 588.725,305.522 		"/>
		<g>
			<path style="fill:#FFFFFF;" d="M616.535,265.254c0,0,0.309,3.07-1.369,5.325c-1.678,2.254-4.708,2.838-4.708,2.838
				s-0.309-3.07,1.369-5.324C613.505,265.838,616.535,265.254,616.535,265.254z"/>
			<path style="fill:#FFFFFF;" d="M626.608,279.407c0,0,0.309,3.07-1.369,5.325c-1.678,2.254-4.708,2.838-4.708,2.838
				s-0.309-3.07,1.369-5.324C623.578,279.991,626.608,279.407,626.608,279.407z"/>
			<path style="fill:#FFFFFF;" d="M626.604,306.962c0,0-0.742,2.995-3.082,4.553c-2.339,1.557-5.389,1.088-5.389,1.088
				s0.742-2.995,3.082-4.553C623.554,306.492,626.604,306.962,626.604,306.962z"/>
			<path style="fill:#FFFFFF;" d="M571.284,306.962c0,0,0.743,2.995,3.082,4.553c2.339,1.557,5.389,1.088,5.389,1.088
				s-0.742-2.995-3.082-4.553C574.334,306.492,571.284,306.962,571.284,306.962z"/>
			<path style="fill:#FFFFFF;" d="M614.97,295.524c0,0,0.309,3.07-1.369,5.325c-1.678,2.254-4.708,2.838-4.708,2.838
				s-0.309-3.071,1.369-5.325C611.94,296.108,614.97,295.524,614.97,295.524z"/>
			<path style="fill:#FFFFFF;" d="M612.36,249.859c0,0,0.309,3.07-1.369,5.324c-1.678,2.254-4.708,2.838-4.708,2.838
				s-0.309-3.07,1.369-5.324C609.33,250.443,612.36,249.859,612.36,249.859z"/>
			<path style="fill:#FFFFFF;" d="M606.359,261.601c0,0,0.309,3.07-1.369,5.324c-1.678,2.254-4.709,2.838-4.709,2.838
				s-0.309-3.07,1.369-5.325C603.328,262.185,606.359,261.601,606.359,261.601z"/>
			<path style="fill:#FFFFFF;" d="M620.607,253.051c0,0,0.309,3.071-1.369,5.325s-4.708,2.838-4.708,2.838s-0.309-3.07,1.369-5.325
				C617.577,253.635,620.607,253.051,620.607,253.051z"/>
			<path style="fill:#FFFFFF;" d="M574.307,253.051c0,0-0.309,3.071,1.369,5.325c1.678,2.254,4.708,2.838,4.708,2.838
				s0.309-3.07-1.369-5.325C577.337,253.635,574.307,253.051,574.307,253.051z"/>
			<path style="fill:#FFFFFF;" d="M613.665,235.507c0,0,0.309,3.07-1.369,5.324c-1.678,2.254-4.708,2.838-4.708,2.838
				s-0.309-3.07,1.369-5.325C610.635,236.091,613.665,235.507,613.665,235.507z"/>
			<path style="fill:#FFFFFF;" d="M610.716,220.261c0,0,1.071,2.894,0.012,5.498c-1.058,2.604-3.844,3.93-3.844,3.93
				s-1.071-2.894-0.012-5.498C607.93,221.588,610.716,220.261,610.716,220.261z"/>
			<path style="fill:#FFFFFF;" d="M589.581,216.277c0,0,2.734,1.432,3.692,4.074c0.958,2.642-0.222,5.493-0.222,5.493
				s-2.734-1.432-3.692-4.074C588.401,219.129,589.581,216.277,589.581,216.277z"/>
			<path style="fill:#FFFFFF;" d="M599.437,234.508c0,0,1.947,2.394,1.786,5.2c-0.161,2.806-2.37,4.961-2.37,4.961
				s-1.947-2.394-1.786-5.2C597.228,236.663,599.437,234.508,599.437,234.508z"/>
			<path style="fill:#FFFFFF;" d="M598.915,207.37c0,0,1.947,2.394,1.786,5.199c-0.161,2.806-2.37,4.96-2.37,4.96
				s-1.947-2.394-1.786-5.2C596.706,209.525,598.915,207.37,598.915,207.37z"/>
			<path style="fill:#FFFFFF;" d="M576.796,265.254c0,0-0.309,3.07,1.369,5.325c1.678,2.254,4.708,2.838,4.708,2.838
				s0.309-3.07-1.369-5.324C579.826,265.838,576.796,265.254,576.796,265.254z"/>
			<path style="fill:#FFFFFF;" d="M571.055,281.955c0,0-0.309,3.07,1.369,5.324c1.678,2.254,4.708,2.838,4.708,2.838
				s0.309-3.07-1.369-5.325C574.085,282.539,571.055,281.955,571.055,281.955z"/>
			<path style="fill:#FFFFFF;" d="M586.294,288.018c0,0-0.309,3.07,1.369,5.324s4.708,2.838,4.708,2.838s0.309-3.07-1.369-5.325
				C589.324,288.602,586.294,288.018,586.294,288.018z"/>
			<path style="fill:#FFFFFF;" d="M590.46,264.878c0,0-1.175,2.853-0.213,5.494c0.962,2.64,3.698,4.068,3.698,4.068
				s1.176-2.853,0.213-5.494C593.196,266.305,590.46,264.878,590.46,264.878z"/>
			<path style="fill:#FFFFFF;" d="M579.669,326.453c0,0,3.086,0.057,5.194-1.801c2.109-1.857,2.443-4.925,2.443-4.925
				s-3.086-0.056-5.194,1.801C580.003,323.386,579.669,326.453,579.669,326.453z"/>
			<path style="fill:#FFFFFF;" d="M609.277,323.078c0,0,0.838,2.97,3.226,4.452c2.388,1.482,5.421,0.914,5.421,0.914
				s-0.838-2.97-3.226-4.452C612.31,322.511,609.277,323.078,609.277,323.078z"/>
			<path style="fill:#FFFFFF;" d="M583.112,249.859c0,0-0.309,3.07,1.369,5.324c1.678,2.254,4.708,2.838,4.708,2.838
				s0.309-3.07-1.369-5.324C586.142,250.443,583.112,249.859,583.112,249.859z"/>
			<path style="fill:#FFFFFF;" d="M583.059,236.29c0,0-0.309,3.07,1.369,5.324c1.678,2.254,4.708,2.838,4.708,2.838
				s0.309-3.07-1.369-5.325C586.089,236.874,583.059,236.29,583.059,236.29z"/>
		</g>
	</g>
	<g>
		<path style="fill:#92E3A9;" d="M386.836,289.101c0,25.294-14.963,45.799-33.421,45.799c-18.458,0-33.421-20.505-33.421-45.799
			c0-25.294,14.963-112.228,33.421-112.228C371.874,176.873,386.836,263.807,386.836,289.101z"/>
		<path style="opacity:0.53;fill:#FFFFFF;" d="M386.836,289.101c0,25.294-14.963,45.799-33.421,45.799
			c-18.458,0-33.421-20.505-33.421-45.799c0-25.294,14.963-112.228,33.421-112.228C371.874,176.873,386.836,263.807,386.836,289.101
			z"/>
		<polygon style="fill:#B2B2B2;" points="335.362,291.375 346.022,295.093 351.302,302.271 350.379,324.248 344.234,320.079 
			350.188,328.796 348.793,361.998 355.313,361.998 354.452,312.094 372.155,302.335 362.035,306.077 364.066,299.986 
			359.228,307.116 354.397,308.902 354.052,288.899 371.633,265.541 362.211,274.963 363.805,268.412 359.298,277.877 
			353.954,283.22 353.416,251.967 351.501,297.548 334.84,279.893 343.992,292.334 		"/>
		<g>
			<path style="fill:#FFFFFF;" d="M371.802,252.066c0,0,0.309,3.07-1.369,5.325c-1.678,2.254-4.708,2.838-4.708,2.838
				s-0.309-3.07,1.369-5.324C368.772,252.65,371.802,252.066,371.802,252.066z"/>
			<path style="fill:#FFFFFF;" d="M381.875,266.219c0,0,0.309,3.07-1.369,5.324c-1.678,2.254-4.708,2.838-4.708,2.838
				s-0.309-3.07,1.369-5.324C378.844,266.803,381.875,266.219,381.875,266.219z"/>
			<path style="fill:#FFFFFF;" d="M381.87,293.773c0,0-0.742,2.995-3.082,4.553c-2.339,1.558-5.389,1.088-5.389,1.088
				s0.742-2.996,3.082-4.553C378.82,293.303,381.87,293.773,381.87,293.773z"/>
			<path style="fill:#FFFFFF;" d="M326.55,293.773c0,0,0.743,2.995,3.082,4.553c2.339,1.558,5.389,1.088,5.389,1.088
				s-0.742-2.996-3.082-4.553C329.6,293.303,326.55,293.773,326.55,293.773z"/>
			<path style="fill:#FFFFFF;" d="M370.236,282.336c0,0,0.309,3.07-1.369,5.324c-1.678,2.254-4.708,2.838-4.708,2.838
				s-0.309-3.07,1.369-5.325C367.206,282.92,370.236,282.336,370.236,282.336z"/>
			<path style="fill:#FFFFFF;" d="M367.627,236.67c0,0,0.309,3.07-1.369,5.324c-1.678,2.254-4.708,2.838-4.708,2.838
				s-0.309-3.07,1.369-5.324C364.596,237.254,367.627,236.67,367.627,236.67z"/>
			<path style="fill:#FFFFFF;" d="M361.625,248.413c0,0,0.309,3.07-1.369,5.325c-1.678,2.254-4.709,2.838-4.709,2.838
				s-0.309-3.07,1.369-5.324C358.595,248.997,361.625,248.413,361.625,248.413z"/>
			<path style="fill:#FFFFFF;" d="M375.873,239.863c0,0,0.309,3.07-1.369,5.324c-1.678,2.254-4.708,2.838-4.708,2.838
				s-0.309-3.07,1.369-5.325C372.843,240.447,375.873,239.863,375.873,239.863z"/>
			<path style="fill:#FFFFFF;" d="M329.573,239.863c0,0-0.309,3.07,1.369,5.324c1.678,2.254,4.708,2.838,4.708,2.838
				s0.309-3.07-1.369-5.325C332.604,240.447,329.573,239.863,329.573,239.863z"/>
			<path style="fill:#FFFFFF;" d="M368.931,222.318c0,0,0.309,3.07-1.369,5.324c-1.678,2.254-4.708,2.838-4.708,2.838
				s-0.309-3.07,1.369-5.325C365.901,222.902,368.931,222.318,368.931,222.318z"/>
			<path style="fill:#FFFFFF;" d="M365.982,207.073c0,0,1.07,2.894,0.012,5.498c-1.058,2.604-3.845,3.93-3.845,3.93
				s-1.071-2.894-0.012-5.498C363.196,208.399,365.982,207.073,365.982,207.073z"/>
			<path style="fill:#FFFFFF;" d="M344.848,203.089c0,0,2.734,1.432,3.692,4.074c0.958,2.642-0.222,5.493-0.222,5.493
				s-2.734-1.432-3.692-4.074C343.668,205.94,344.848,203.089,344.848,203.089z"/>
			<path style="fill:#FFFFFF;" d="M354.703,221.319c0,0,1.947,2.394,1.786,5.2c-0.161,2.806-2.371,4.961-2.371,4.961
				s-1.947-2.394-1.786-5.2C352.494,223.474,354.703,221.319,354.703,221.319z"/>
			<path style="fill:#FFFFFF;" d="M354.181,194.181c0,0,1.947,2.394,1.786,5.2c-0.161,2.806-2.37,4.96-2.37,4.96
				s-1.947-2.394-1.786-5.2C351.972,196.336,354.181,194.181,354.181,194.181z"/>
			<path style="fill:#FFFFFF;" d="M332.062,252.066c0,0-0.309,3.07,1.369,5.325c1.678,2.254,4.708,2.838,4.708,2.838
				s0.309-3.07-1.369-5.324C335.092,252.65,332.062,252.066,332.062,252.066z"/>
			<path style="fill:#FFFFFF;" d="M326.321,268.766c0,0-0.309,3.071,1.369,5.325c1.678,2.254,4.708,2.838,4.708,2.838
				s0.309-3.07-1.369-5.325C329.352,269.35,326.321,268.766,326.321,268.766z"/>
			<path style="fill:#FFFFFF;" d="M341.56,274.83c0,0-0.309,3.07,1.369,5.324c1.678,2.254,4.708,2.838,4.708,2.838
				s0.309-3.07-1.369-5.325C344.59,275.414,341.56,274.83,341.56,274.83z"/>
			<path style="fill:#FFFFFF;" d="M345.727,251.689c0,0-1.175,2.853-0.213,5.494c0.962,2.64,3.698,4.068,3.698,4.068
				s1.175-2.853,0.213-5.494C348.462,253.116,345.727,251.689,345.727,251.689z"/>
			<path style="fill:#FFFFFF;" d="M334.936,313.265c0,0,3.086,0.056,5.194-1.801c2.109-1.857,2.443-4.925,2.443-4.925
				s-3.086-0.056-5.194,1.801C335.27,310.197,334.936,313.265,334.936,313.265z"/>
			<path style="fill:#FFFFFF;" d="M364.543,309.89c0,0,0.838,2.97,3.226,4.452c2.388,1.482,5.421,0.914,5.421,0.914
				s-0.838-2.97-3.226-4.452C367.577,309.322,364.543,309.89,364.543,309.89z"/>
			<path style="fill:#FFFFFF;" d="M338.378,236.67c0,0-0.309,3.07,1.369,5.324c1.678,2.254,4.708,2.838,4.708,2.838
				s0.309-3.07-1.369-5.324C341.408,237.254,338.378,236.67,338.378,236.67z"/>
			<path style="fill:#FFFFFF;" d="M338.325,223.101c0,0-0.309,3.07,1.369,5.325c1.678,2.254,4.708,2.838,4.708,2.838
				s0.309-3.07-1.369-5.325C341.355,223.685,338.325,223.101,338.325,223.101z"/>
		</g>
	</g>
	<g>
		<path style="fill:#92E3A9;" d="M224.294,312.763c0,25.294-14.963,45.799-33.421,45.799c-18.458,0-33.421-20.505-33.421-45.799
			c0-25.294,14.963-112.228,33.421-112.228C209.331,200.535,224.294,287.469,224.294,312.763z"/>
		<path style="opacity:0.53;fill:#FFFFFF;" d="M224.294,312.763c0,25.294-14.963,45.799-33.421,45.799
			c-18.458,0-33.421-20.505-33.421-45.799c0-25.294,14.963-112.228,33.421-112.228C209.331,200.535,224.294,287.469,224.294,312.763
			z"/>
		<polygon style="fill:#B2B2B2;" points="172.819,315.036 183.479,318.755 188.759,325.933 187.836,347.91 181.691,343.74 
			187.645,352.458 186.25,385.659 192.77,385.659 191.91,335.755 209.613,325.996 199.493,329.739 201.523,323.647 196.685,330.777 
			191.855,332.564 191.51,312.56 209.09,289.203 199.669,298.624 201.262,292.073 196.755,301.538 191.412,306.881 190.873,275.628 
			188.958,321.21 172.297,303.555 181.449,315.995 		"/>
		<g>
			<path style="fill:#FFFFFF;" d="M209.259,275.727c0,0,0.309,3.07-1.369,5.324c-1.678,2.254-4.708,2.838-4.708,2.838
				s-0.309-3.07,1.369-5.324C206.229,276.311,209.259,275.727,209.259,275.727z"/>
			<path style="fill:#FFFFFF;" d="M219.332,289.88c0,0,0.309,3.07-1.369,5.325c-1.678,2.254-4.708,2.838-4.708,2.838
				s-0.309-3.07,1.369-5.324C216.302,290.464,219.332,289.88,219.332,289.88z"/>
			<path style="fill:#FFFFFF;" d="M219.328,317.435c0,0-0.742,2.995-3.082,4.553c-2.339,1.557-5.389,1.087-5.389,1.087
				s0.742-2.995,3.082-4.553C216.278,316.965,219.328,317.435,219.328,317.435z"/>
			<path style="fill:#FFFFFF;" d="M164.007,317.435c0,0,0.743,2.995,3.082,4.553c2.339,1.557,5.389,1.087,5.389,1.087
				s-0.742-2.995-3.082-4.553C167.057,316.965,164.007,317.435,164.007,317.435z"/>
			<path style="fill:#FFFFFF;" d="M207.693,305.997c0,0,0.309,3.07-1.369,5.324c-1.678,2.254-4.708,2.838-4.708,2.838
				s-0.309-3.07,1.369-5.325C204.663,306.581,207.693,305.997,207.693,305.997z"/>
			<path style="fill:#FFFFFF;" d="M205.084,260.331c0,0,0.309,3.07-1.369,5.325c-1.678,2.254-4.708,2.838-4.708,2.838
				s-0.309-3.07,1.369-5.325C202.054,260.915,205.084,260.331,205.084,260.331z"/>
			<path style="fill:#FFFFFF;" d="M199.082,272.074c0,0,0.309,3.07-1.369,5.324c-1.678,2.254-4.709,2.838-4.709,2.838
				s-0.309-3.07,1.369-5.324C196.052,272.658,199.082,272.074,199.082,272.074z"/>
			<path style="fill:#FFFFFF;" d="M213.33,263.524c0,0,0.309,3.07-1.369,5.324c-1.678,2.254-4.709,2.838-4.709,2.838
				s-0.309-3.07,1.369-5.325C210.3,264.108,213.33,263.524,213.33,263.524z"/>
			<path style="fill:#FFFFFF;" d="M167.031,263.524c0,0-0.309,3.07,1.369,5.324c1.678,2.254,4.709,2.838,4.709,2.838
				s0.309-3.07-1.369-5.325C170.061,264.108,167.031,263.524,167.031,263.524z"/>
			<path style="fill:#FFFFFF;" d="M206.389,245.98c0,0,0.309,3.07-1.369,5.324c-1.678,2.254-4.708,2.838-4.708,2.838
				s-0.309-3.07,1.369-5.325C203.358,246.564,206.389,245.98,206.389,245.98z"/>
			<path style="fill:#FFFFFF;" d="M203.439,230.734c0,0,1.071,2.894,0.012,5.498c-1.058,2.604-3.845,3.93-3.845,3.93
				s-1.071-2.894-0.012-5.498C200.653,232.061,203.439,230.734,203.439,230.734z"/>
			<path style="fill:#FFFFFF;" d="M182.305,226.75c0,0,2.734,1.432,3.692,4.074c0.958,2.642-0.222,5.493-0.222,5.493
				s-2.734-1.432-3.692-4.074C181.125,229.602,182.305,226.75,182.305,226.75z"/>
			<path style="fill:#FFFFFF;" d="M192.16,244.981c0,0,1.947,2.394,1.786,5.2c-0.161,2.806-2.37,4.96-2.37,4.96
				s-1.947-2.394-1.786-5.2C189.951,247.136,192.16,244.981,192.16,244.981z"/>
			<path style="fill:#FFFFFF;" d="M191.638,217.842c0,0,1.947,2.394,1.786,5.2c-0.161,2.806-2.37,4.96-2.37,4.96
				s-1.947-2.394-1.786-5.2C189.429,219.997,191.638,217.842,191.638,217.842z"/>
			<path style="fill:#FFFFFF;" d="M169.519,275.727c0,0-0.309,3.07,1.369,5.324c1.678,2.254,4.708,2.838,4.708,2.838
				s0.309-3.07-1.369-5.324C172.549,276.311,169.519,275.727,169.519,275.727z"/>
			<path style="fill:#FFFFFF;" d="M163.779,292.428c0,0-0.309,3.07,1.369,5.324c1.678,2.254,4.708,2.838,4.708,2.838
				s0.309-3.07-1.369-5.325C166.809,293.012,163.779,292.428,163.779,292.428z"/>
			<path style="fill:#FFFFFF;" d="M179.017,298.491c0,0-0.309,3.07,1.369,5.324c1.678,2.254,4.708,2.838,4.708,2.838
				s0.309-3.07-1.369-5.325C182.048,299.075,179.017,298.491,179.017,298.491z"/>
			<path style="fill:#FFFFFF;" d="M183.184,275.35c0,0-1.175,2.853-0.213,5.494c0.962,2.64,3.698,4.068,3.698,4.068
				s1.175-2.853,0.213-5.494C185.92,276.778,183.184,275.35,183.184,275.35z"/>
			<path style="fill:#FFFFFF;" d="M172.393,336.926c0,0,3.085,0.056,5.194-1.801c2.109-1.857,2.443-4.925,2.443-4.925
				s-3.085-0.056-5.194,1.801C172.727,333.858,172.393,336.926,172.393,336.926z"/>
			<path style="fill:#FFFFFF;" d="M202.001,333.551c0,0,0.838,2.97,3.226,4.452c2.388,1.482,5.421,0.914,5.421,0.914
				s-0.838-2.97-3.226-4.452C205.034,332.984,202.001,333.551,202.001,333.551z"/>
			<path style="fill:#FFFFFF;" d="M175.835,260.331c0,0-0.309,3.07,1.369,5.325c1.678,2.254,4.708,2.838,4.708,2.838
				s0.309-3.07-1.369-5.325C178.865,260.915,175.835,260.331,175.835,260.331z"/>
			<path style="fill:#FFFFFF;" d="M175.782,246.762c0,0-0.309,3.07,1.369,5.325c1.678,2.254,4.708,2.838,4.708,2.838
				s0.309-3.07-1.369-5.325C178.812,247.346,175.782,246.762,175.782,246.762z"/>
		</g>
	</g>
	<g>
		<path style="fill:#92E3A9;" d="M687.034,244.671c0,38.611-22.84,69.91-51.016,69.91c-28.175,0-51.016-31.3-51.016-69.91
			s22.84-171.312,51.016-171.312C664.194,73.359,687.034,206.061,687.034,244.671z"/>
		<path style="opacity:0.3;fill:#FFFFFF;" d="M687.034,244.671c0,38.611-22.84,69.91-51.016,69.91
			c-28.175,0-51.016-31.3-51.016-69.91s22.84-171.312,51.016-171.312C664.194,73.359,687.034,206.061,687.034,244.671z"/>
		<polygon style="fill:#B2B2B2;" points="608.46,248.142 624.732,253.818 632.792,264.775 631.383,298.322 622.003,291.957 
			631.091,305.264 628.962,355.945 638.914,355.945 637.601,279.768 664.624,264.871 649.176,270.585 652.276,261.286 
			644.891,272.17 637.517,274.897 636.991,244.362 663.827,208.708 649.445,223.09 651.878,213.089 644.997,227.538 
			636.841,235.694 636.019,187.987 633.095,257.565 607.664,230.615 621.633,249.605 		"/>
		<g>
			<path style="fill:#FFFFFF;" d="M664.084,188.138c0,0,0.472,4.687-2.09,8.128c-2.562,3.441-7.187,4.332-7.187,4.332
				s-0.472-4.687,2.09-8.128C659.459,189.03,664.084,188.138,664.084,188.138z"/>
			<path style="fill:#FFFFFF;" d="M679.46,209.741c0,0,0.472,4.687-2.09,8.128c-2.562,3.441-7.187,4.332-7.187,4.332
				s-0.472-4.687,2.09-8.128C674.835,210.633,679.46,209.741,679.46,209.741z"/>
			<path style="fill:#FFFFFF;" d="M679.454,251.803c0,0-1.133,4.572-4.704,6.95c-3.57,2.378-8.226,1.66-8.226,1.66
				s1.133-4.572,4.704-6.95C674.798,251.086,679.454,251.803,679.454,251.803z"/>
			<path style="fill:#FFFFFF;" d="M595.009,251.803c0,0,1.133,4.572,4.704,6.95c3.571,2.378,8.226,1.66,8.226,1.66
				s-1.133-4.572-4.704-6.95C599.665,251.086,595.009,251.803,595.009,251.803z"/>
			<path style="fill:#FFFFFF;" d="M661.694,234.344c0,0,0.472,4.687-2.09,8.128c-2.562,3.441-7.187,4.332-7.187,4.332
				s-0.472-4.687,2.09-8.128C657.069,235.235,661.694,234.344,661.694,234.344z"/>
			<path style="fill:#FFFFFF;" d="M657.711,164.637c0,0,0.472,4.687-2.09,8.128c-2.562,3.441-7.187,4.332-7.187,4.332
				s-0.472-4.687,2.09-8.128C653.086,165.528,657.711,164.637,657.711,164.637z"/>
			<path style="fill:#FFFFFF;" d="M648.55,182.561c0,0,0.472,4.687-2.09,8.128c-2.562,3.441-7.188,4.332-7.188,4.332
				s-0.472-4.687,2.09-8.128C643.924,183.453,648.55,182.561,648.55,182.561z"/>
			<path style="fill:#FFFFFF;" d="M670.299,169.511c0,0,0.472,4.687-2.09,8.128s-7.187,4.332-7.187,4.332s-0.472-4.687,2.09-8.128
				C665.673,170.402,670.299,169.511,670.299,169.511z"/>
			<path style="fill:#FFFFFF;" d="M599.624,169.511c0,0-0.472,4.687,2.09,8.128c2.562,3.441,7.187,4.332,7.187,4.332
				s0.472-4.687-2.09-8.128C604.25,170.402,599.624,169.511,599.624,169.511z"/>
			<path style="fill:#FFFFFF;" d="M659.703,142.729c0,0,0.472,4.687-2.09,8.128c-2.562,3.441-7.187,4.332-7.187,4.332
				s-0.472-4.687,2.09-8.128C655.077,143.621,659.703,142.729,659.703,142.729z"/>
			<path style="fill:#FFFFFF;" d="M655.201,119.457c0,0,1.634,4.418,0.019,8.392c-1.615,3.974-5.868,5.999-5.868,5.999
				s-1.634-4.418-0.019-8.392C650.948,121.482,655.201,119.457,655.201,119.457z"/>
			<path style="fill:#FFFFFF;" d="M622.94,113.376c0,0,4.173,2.186,5.635,6.219c1.463,4.033-0.339,8.385-0.339,8.385
				s-4.173-2.186-5.635-6.219C621.138,117.729,622.94,113.376,622.94,113.376z"/>
			<path style="fill:#FFFFFF;" d="M637.984,141.204c0,0,2.973,3.654,2.726,7.937c-0.246,4.283-3.618,7.572-3.618,7.572
				s-2.973-3.654-2.726-7.937C634.612,144.494,637.984,141.204,637.984,141.204z"/>
			<path style="fill:#FFFFFF;" d="M637.187,99.779c0,0,2.972,3.654,2.726,7.937c-0.246,4.283-3.618,7.572-3.618,7.572
				s-2.973-3.654-2.726-7.937C633.815,103.068,637.187,99.779,637.187,99.779z"/>
			<path style="fill:#FFFFFF;" d="M603.423,188.138c0,0-0.472,4.687,2.09,8.128c2.562,3.441,7.187,4.332,7.187,4.332
				s0.472-4.687-2.09-8.128C608.049,189.03,603.423,188.138,603.423,188.138z"/>
			<path style="fill:#FFFFFF;" d="M594.66,213.631c0,0-0.472,4.687,2.09,8.128c2.562,3.441,7.187,4.332,7.187,4.332
				s0.472-4.687-2.09-8.128C599.285,214.522,594.66,213.631,594.66,213.631z"/>
			<path style="fill:#FFFFFF;" d="M617.922,222.886c0,0-0.472,4.687,2.09,8.128c2.562,3.441,7.187,4.332,7.187,4.332
				s0.472-4.687-2.09-8.128C622.547,223.778,617.922,222.886,617.922,222.886z"/>
			<path style="fill:#FFFFFF;" d="M624.281,187.563c0,0-1.794,4.356-0.325,8.386c1.469,4.03,5.646,6.209,5.646,6.209
				s1.794-4.355,0.325-8.386C628.458,189.742,624.281,187.563,624.281,187.563z"/>
			<path style="fill:#FFFFFF;" d="M607.81,281.556c0,0,4.71,0.086,7.929-2.749c3.219-2.835,3.729-7.518,3.729-7.518
				s-4.71-0.086-7.929,2.749C608.319,276.874,607.81,281.556,607.81,281.556z"/>
			<path style="fill:#FFFFFF;" d="M653.005,276.404c0,0,1.279,4.534,4.924,6.796c3.645,2.262,8.275,1.396,8.275,1.396
				s-1.279-4.534-4.924-6.795C657.635,275.538,653.005,276.404,653.005,276.404z"/>
			<path style="fill:#FFFFFF;" d="M613.064,164.637c0,0-0.472,4.687,2.09,8.128c2.562,3.441,7.187,4.332,7.187,4.332
				s0.472-4.687-2.09-8.128C617.689,165.528,613.064,164.637,613.064,164.637z"/>
			<path style="fill:#FFFFFF;" d="M612.983,143.924c0,0-0.472,4.687,2.09,8.128c2.562,3.441,7.187,4.332,7.187,4.332
				s0.472-4.687-2.09-8.128C617.608,144.816,612.983,143.924,612.983,143.924z"/>
		</g>
	</g>
	<g>
		<path style="fill:#92E3A9;" d="M509.21,230.944c0,30.038-17.77,54.39-39.689,54.39c-21.92,0-39.69-24.351-39.69-54.39
			S447.6,97.665,469.52,97.665C491.44,97.665,509.21,200.906,509.21,230.944z"/>
		<path style="opacity:0.3;fill:#FFFFFF;" d="M509.21,230.944c0,30.038-17.77,54.39-39.689,54.39c-21.92,0-39.69-24.351-39.69-54.39
			S447.6,97.665,469.52,97.665C491.44,97.665,509.21,200.906,509.21,230.944z"/>
		<polygon style="fill:#B2B2B2;" points="448.08,233.644 460.739,238.06 467.01,246.585 465.913,272.684 458.616,267.732 
			465.686,278.085 464.03,317.514 471.773,317.514 470.751,258.249 491.775,246.66 479.757,251.105 482.168,243.871 
			476.422,252.338 470.686,254.46 470.276,230.704 491.155,202.965 479.966,214.154 481.858,206.374 476.505,217.614 470.16,223.96 
			469.52,186.845 467.246,240.976 447.46,220.009 458.328,234.783 		"/>
		<g>
			<path style="fill:#FFFFFF;" d="M491.355,186.962c0,0,0.367,3.646-1.626,6.323c-1.993,2.677-5.592,3.37-5.592,3.37
				s-0.367-3.646,1.626-6.323C487.756,187.656,491.355,186.962,491.355,186.962z"/>
			<path style="fill:#FFFFFF;" d="M503.317,203.769c0,0,0.367,3.646-1.626,6.323c-1.993,2.677-5.592,3.37-5.592,3.37
				s-0.367-3.646,1.626-6.323C499.719,204.463,503.317,203.769,503.317,203.769z"/>
			<path style="fill:#FFFFFF;" d="M503.312,236.493c0,0-0.882,3.557-3.66,5.407c-2.778,1.85-6.4,1.292-6.4,1.292
				s0.882-3.557,3.66-5.407C499.69,235.935,503.312,236.493,503.312,236.493z"/>
			<path style="fill:#FFFFFF;" d="M437.615,236.493c0,0,0.882,3.557,3.66,5.407c2.778,1.85,6.4,1.292,6.4,1.292
				s-0.882-3.557-3.66-5.407C441.237,235.935,437.615,236.493,437.615,236.493z"/>
			<path style="fill:#FFFFFF;" d="M489.495,222.909c0,0,0.367,3.646-1.626,6.323c-1.993,2.677-5.592,3.371-5.592,3.371
				s-0.367-3.646,1.626-6.323C485.897,223.603,489.495,222.909,489.495,222.909z"/>
			<path style="fill:#FFFFFF;" d="M486.397,168.678c0,0,0.367,3.646-1.626,6.323c-1.993,2.677-5.592,3.371-5.592,3.371
				s-0.367-3.646,1.626-6.323C482.798,169.372,486.397,168.678,486.397,168.678z"/>
			<path style="fill:#FFFFFF;" d="M479.269,182.624c0,0,0.367,3.646-1.626,6.323c-1.993,2.677-5.592,3.371-5.592,3.371
				s-0.367-3.646,1.626-6.323C475.671,183.317,479.269,182.624,479.269,182.624z"/>
			<path style="fill:#FFFFFF;" d="M496.19,172.47c0,0,0.367,3.646-1.626,6.323c-1.993,2.677-5.592,3.37-5.592,3.37
				s-0.367-3.646,1.626-6.323C492.591,173.164,496.19,172.47,496.19,172.47z"/>
			<path style="fill:#FFFFFF;" d="M441.206,172.47c0,0-0.367,3.646,1.626,6.323c1.993,2.677,5.592,3.37,5.592,3.37
				s0.367-3.646-1.626-6.323C444.804,173.164,441.206,172.47,441.206,172.47z"/>
			<path style="fill:#FFFFFF;" d="M487.946,151.635c0,0,0.367,3.646-1.626,6.323c-1.993,2.677-5.592,3.37-5.592,3.37
				s-0.367-3.646,1.626-6.323C484.348,152.328,487.946,151.635,487.946,151.635z"/>
			<path style="fill:#FFFFFF;" d="M484.443,133.529c0,0,1.271,3.437,0.015,6.529c-1.257,3.092-4.566,4.667-4.566,4.667
				s-1.271-3.437-0.015-6.529C481.135,135.105,484.443,133.529,484.443,133.529z"/>
			<path style="fill:#FFFFFF;" d="M459.345,128.798c0,0,3.247,1.7,4.384,4.838c1.138,3.137-0.263,6.524-0.263,6.524
				s-3.246-1.7-4.384-4.838C457.943,132.185,459.345,128.798,459.345,128.798z"/>
			<path style="fill:#FFFFFF;" d="M471.049,150.448c0,0,2.313,2.843,2.121,6.175c-0.192,3.332-2.815,5.891-2.815,5.891
				s-2.313-2.843-2.121-6.175C468.426,153.008,471.049,150.448,471.049,150.448z"/>
			<path style="fill:#FFFFFF;" d="M470.429,118.22c0,0,2.313,2.843,2.121,6.175c-0.192,3.332-2.815,5.891-2.815,5.891
				s-2.313-2.843-2.121-6.175C467.806,120.779,470.429,118.22,470.429,118.22z"/>
			<path style="fill:#FFFFFF;" d="M444.161,186.962c0,0-0.367,3.646,1.626,6.323c1.993,2.677,5.592,3.37,5.592,3.37
				s0.367-3.646-1.626-6.323C447.76,187.656,444.161,186.962,444.161,186.962z"/>
			<path style="fill:#FFFFFF;" d="M437.344,206.795c0,0-0.367,3.646,1.626,6.323c1.993,2.677,5.592,3.371,5.592,3.371
				s0.367-3.646-1.626-6.323C440.942,207.489,437.344,206.795,437.344,206.795z"/>
			<path style="fill:#FFFFFF;" d="M455.441,213.996c0,0-0.367,3.646,1.626,6.323c1.993,2.677,5.592,3.37,5.592,3.37
				s0.367-3.646-1.626-6.323C459.039,214.689,455.441,213.996,455.441,213.996z"/>
			<path style="fill:#FFFFFF;" d="M460.389,186.514c0,0-1.396,3.389-0.253,6.524c1.143,3.135,4.392,4.831,4.392,4.831
				s1.396-3.388,0.253-6.524C463.638,188.21,460.389,186.514,460.389,186.514z"/>
			<path style="fill:#FFFFFF;" d="M447.574,259.641c0,0,3.664,0.067,6.169-2.139c2.504-2.206,2.901-5.849,2.901-5.849
				s-3.664-0.067-6.169,2.139C447.97,255.997,447.574,259.641,447.574,259.641z"/>
			<path style="fill:#FFFFFF;" d="M482.735,255.632c0,0,0.995,3.527,3.831,5.287c2.836,1.76,6.438,1.086,6.438,1.086
				s-0.995-3.527-3.831-5.287C486.337,254.958,482.735,255.632,482.735,255.632z"/>
			<path style="fill:#FFFFFF;" d="M451.661,168.678c0,0-0.367,3.646,1.626,6.323c1.993,2.677,5.592,3.371,5.592,3.371
				s0.367-3.646-1.626-6.323C455.26,169.372,451.661,168.678,451.661,168.678z"/>
			<path style="fill:#FFFFFF;" d="M451.599,152.564c0,0-0.367,3.646,1.626,6.323c1.993,2.677,5.592,3.37,5.592,3.37
				s0.367-3.646-1.626-6.323C455.197,153.258,451.599,152.564,451.599,152.564z"/>
		</g>
	</g>
	<g>
		<path style="fill:#92E3A9;" d="M189.921,248.798c0,39.4-23.307,71.34-52.059,71.34c-28.751,0-52.059-31.94-52.059-71.34
			s23.307-174.815,52.059-174.815C166.614,73.983,189.921,209.398,189.921,248.798z"/>
		<path style="opacity:0.3;fill:#FFFFFF;" d="M189.921,248.798c0,39.4-23.307,71.34-52.059,71.34
			c-28.751,0-52.059-31.94-52.059-71.34s23.307-174.815,52.059-174.815C166.614,73.983,189.921,209.398,189.921,248.798z"/>
		<polygon style="fill:#B2B2B2;" points="109.741,252.339 126.345,258.132 134.57,269.313 133.132,303.546 123.561,297.051 
			132.834,310.63 130.661,362.347 140.817,362.347 139.477,284.613 167.053,269.411 151.289,275.241 154.452,265.753 
			146.916,276.859 139.392,279.642 138.854,248.482 166.24,212.099 151.563,226.775 154.046,216.57 147.025,231.314 
			138.702,239.637 137.863,190.955 134.879,261.956 108.928,234.455 123.183,253.833 		"/>
		<g>
			<path style="fill:#FFFFFF;" d="M166.502,191.109c0,0,0.481,4.783-2.133,8.294c-2.614,3.511-7.334,4.421-7.334,4.421
				s-0.482-4.783,2.133-8.294C161.782,192.019,166.502,191.109,166.502,191.109z"/>
			<path style="fill:#FFFFFF;" d="M182.193,213.154c0,0,0.481,4.783-2.133,8.294c-2.614,3.511-7.334,4.421-7.334,4.421
				s-0.482-4.783,2.133-8.294C177.472,214.064,182.193,213.154,182.193,213.154z"/>
			<path style="fill:#FFFFFF;" d="M182.186,256.076c0,0-1.156,4.666-4.8,7.092c-3.643,2.426-8.394,1.694-8.394,1.694
				s1.157-4.666,4.8-7.092C177.435,255.343,182.186,256.076,182.186,256.076z"/>
			<path style="fill:#FFFFFF;" d="M96.015,256.076c0,0,1.157,4.666,4.8,7.092c3.644,2.426,8.395,1.694,8.395,1.694
				s-1.157-4.666-4.8-7.092C100.766,255.343,96.015,256.076,96.015,256.076z"/>
			<path style="fill:#FFFFFF;" d="M164.063,238.259c0,0,0.481,4.783-2.133,8.294c-2.614,3.511-7.334,4.421-7.334,4.421
				s-0.481-4.783,2.133-8.294C159.343,239.169,164.063,238.259,164.063,238.259z"/>
			<path style="fill:#FFFFFF;" d="M159.999,167.127c0,0,0.482,4.783-2.133,8.294c-2.614,3.511-7.334,4.421-7.334,4.421
				s-0.482-4.783,2.133-8.294C155.279,168.037,159.999,167.127,159.999,167.127z"/>
			<path style="fill:#FFFFFF;" d="M150.65,185.418c0,0,0.481,4.783-2.133,8.294c-2.614,3.511-7.334,4.421-7.334,4.421
				s-0.481-4.783,2.133-8.294C145.93,186.328,150.65,185.418,150.65,185.418z"/>
			<path style="fill:#FFFFFF;" d="M172.844,172.101c0,0,0.482,4.783-2.133,8.294c-2.614,3.511-7.334,4.421-7.334,4.421
				s-0.481-4.783,2.133-8.294C168.124,173.01,172.844,172.101,172.844,172.101z"/>
			<path style="fill:#FFFFFF;" d="M100.724,172.101c0,0-0.482,4.783,2.133,8.294c2.614,3.511,7.334,4.421,7.334,4.421
				s0.481-4.783-2.133-8.294C105.444,173.01,100.724,172.101,100.724,172.101z"/>
			<path style="fill:#FFFFFF;" d="M162.031,144.771c0,0,0.481,4.783-2.133,8.294c-2.614,3.511-7.334,4.421-7.334,4.421
				s-0.481-4.783,2.133-8.294C157.311,145.681,162.031,144.771,162.031,144.771z"/>
			<path style="fill:#FFFFFF;" d="M157.437,121.024c0,0,1.668,4.508,0.019,8.564c-1.648,4.055-5.988,6.122-5.988,6.122
				s-1.668-4.508-0.019-8.564C153.097,123.09,157.437,121.024,157.437,121.024z"/>
			<path style="fill:#FFFFFF;" d="M124.516,114.818c0,0,4.258,2.23,5.751,6.346c1.493,4.115-0.346,8.557-0.346,8.557
				s-4.258-2.23-5.751-6.346C122.678,119.26,124.516,114.818,124.516,114.818z"/>
			<path style="fill:#FFFFFF;" d="M139.868,143.216c0,0,3.033,3.729,2.782,8.099c-0.251,4.37-3.692,7.727-3.692,7.727
				s-3.033-3.729-2.782-8.099C136.427,146.572,139.868,143.216,139.868,143.216z"/>
			<path style="fill:#FFFFFF;" d="M139.055,100.943c0,0,3.033,3.729,2.782,8.099c-0.251,4.37-3.692,7.727-3.692,7.727
				s-3.033-3.729-2.782-8.099C135.614,104.3,139.055,100.943,139.055,100.943z"/>
			<path style="fill:#FFFFFF;" d="M104.601,191.109c0,0-0.481,4.783,2.133,8.294c2.614,3.511,7.334,4.421,7.334,4.421
				s0.482-4.783-2.133-8.294C109.321,192.019,104.601,191.109,104.601,191.109z"/>
			<path style="fill:#FFFFFF;" d="M95.658,217.123c0,0-0.481,4.783,2.133,8.294c2.614,3.511,7.334,4.421,7.334,4.421
				s0.482-4.783-2.133-8.294C100.378,218.033,95.658,217.123,95.658,217.123z"/>
			<path style="fill:#FFFFFF;" d="M119.395,226.567c0,0-0.481,4.783,2.133,8.294c2.614,3.511,7.334,4.421,7.334,4.421
				s0.481-4.783-2.133-8.294C124.116,227.477,119.395,226.567,119.395,226.567z"/>
			<path style="fill:#FFFFFF;" d="M125.885,190.522c0,0-1.831,4.445-0.331,8.557c1.499,4.113,5.761,6.336,5.761,6.336
				s1.831-4.445,0.332-8.557C130.147,192.745,125.885,190.522,125.885,190.522z"/>
			<path style="fill:#FFFFFF;" d="M109.077,286.437c0,0,4.806,0.088,8.091-2.805c3.285-2.893,3.805-7.672,3.805-7.672
				s-4.806-0.088-8.091,2.806C109.597,281.659,109.077,286.437,109.077,286.437z"/>
			<path style="fill:#FFFFFF;" d="M155.196,281.18c0,0,1.306,4.626,5.025,6.934c3.719,2.308,8.444,1.424,8.444,1.424
				s-1.305-4.626-5.025-6.934C159.921,280.296,155.196,281.18,155.196,281.18z"/>
			<path style="fill:#FFFFFF;" d="M114.438,167.127c0,0-0.481,4.783,2.133,8.294c2.614,3.511,7.334,4.421,7.334,4.421
				s0.481-4.783-2.133-8.294C119.159,168.037,114.438,167.127,114.438,167.127z"/>
			<path style="fill:#FFFFFF;" d="M114.356,145.991c0,0-0.482,4.783,2.133,8.294c2.614,3.511,7.334,4.421,7.334,4.421
				s0.482-4.783-2.133-8.294C119.076,146.901,114.356,145.991,114.356,145.991z"/>
		</g>
	</g>
	<g>
		<path style="fill:#92E3A9;" d="M317.571,234.681c0,30.044-17.773,54.4-39.697,54.4s-39.697-24.356-39.697-54.4
			c0-30.044,17.773-133.304,39.697-133.304S317.571,204.637,317.571,234.681z"/>
		<path style="opacity:0.3;fill:#FFFFFF;" d="M317.571,234.681c0,30.044-17.773,54.4-39.697,54.4s-39.697-24.356-39.697-54.4
			c0-30.044,17.773-133.304,39.697-133.304S317.571,204.637,317.571,234.681z"/>
		<polygon style="fill:#B2B2B2;" points="256.43,237.381 269.091,241.798 275.363,250.324 274.267,276.428 266.968,271.476 
			274.04,281.831 272.383,321.267 280.127,321.267 279.105,261.991 300.133,250.399 288.112,254.845 290.524,247.61 
			284.777,256.078 279.04,258.201 278.63,234.44 299.513,206.696 288.321,217.887 290.214,210.106 284.861,221.348 278.514,227.695 
			277.874,190.573 275.599,244.714 255.81,223.743 266.68,238.52 		"/>
		<g>
			<path style="fill:#FFFFFF;" d="M299.713,190.69c0,0,0.367,3.647-1.626,6.324c-1.993,2.677-5.593,3.371-5.593,3.371
				s-0.367-3.647,1.626-6.324C296.114,191.384,299.713,190.69,299.713,190.69z"/>
			<path style="fill:#FFFFFF;" d="M311.677,207.501c0,0,0.367,3.647-1.626,6.325c-1.993,2.677-5.593,3.371-5.593,3.371
				s-0.367-3.647,1.626-6.324C308.078,208.194,311.677,207.501,311.677,207.501z"/>
			<path style="fill:#FFFFFF;" d="M311.672,240.23c0,0-0.882,3.558-3.66,5.408c-2.778,1.85-6.401,1.292-6.401,1.292
				s0.882-3.558,3.66-5.408C308.05,239.672,311.672,240.23,311.672,240.23z"/>
			<path style="fill:#FFFFFF;" d="M245.963,240.23c0,0,0.882,3.558,3.66,5.408c2.779,1.85,6.401,1.292,6.401,1.292
				s-0.882-3.558-3.661-5.408C249.586,239.672,245.963,240.23,245.963,240.23z"/>
			<path style="fill:#FFFFFF;" d="M297.853,226.644c0,0,0.367,3.647-1.626,6.324c-1.993,2.677-5.593,3.371-5.593,3.371
				s-0.367-3.647,1.626-6.324S297.853,226.644,297.853,226.644z"/>
			<path style="fill:#FFFFFF;" d="M294.754,172.403c0,0,0.367,3.647-1.626,6.324c-1.994,2.678-5.593,3.371-5.593,3.371
				s-0.367-3.647,1.626-6.324C291.154,173.097,294.754,172.403,294.754,172.403z"/>
			<path style="fill:#FFFFFF;" d="M287.625,186.351c0,0,0.367,3.647-1.626,6.325c-1.994,2.677-5.593,3.371-5.593,3.371
				s-0.367-3.647,1.626-6.324C284.026,187.045,287.625,186.351,287.625,186.351z"/>
			<path style="fill:#FFFFFF;" d="M304.549,176.196c0,0,0.367,3.647-1.626,6.324c-1.993,2.677-5.593,3.371-5.593,3.371
				s-0.367-3.647,1.626-6.324C300.949,176.889,304.549,176.196,304.549,176.196z"/>
			<path style="fill:#FFFFFF;" d="M249.554,176.196c0,0-0.367,3.647,1.626,6.324c1.993,2.677,5.593,3.371,5.593,3.371
				s0.367-3.647-1.626-6.324C253.153,176.889,249.554,176.196,249.554,176.196z"/>
			<path style="fill:#FFFFFF;" d="M296.303,155.356c0,0,0.367,3.647-1.626,6.324c-1.993,2.677-5.593,3.371-5.593,3.371
				s-0.367-3.647,1.626-6.325C292.704,156.049,296.303,155.356,296.303,155.356z"/>
			<path style="fill:#FFFFFF;" d="M292.8,137.247c0,0,1.272,3.438,0.015,6.53c-1.257,3.092-4.566,4.668-4.566,4.668
				s-1.272-3.438-0.015-6.53C289.491,138.823,292.8,137.247,292.8,137.247z"/>
			<path style="fill:#FFFFFF;" d="M267.697,132.515c0,0,3.247,1.701,4.385,4.839c1.138,3.138-0.264,6.525-0.264,6.525
				s-3.247-1.701-4.385-4.839S267.697,132.515,267.697,132.515z"/>
			<path style="fill:#FFFFFF;" d="M279.403,154.169c0,0,2.313,2.844,2.121,6.176c-0.192,3.332-2.815,5.892-2.815,5.892
				s-2.313-2.844-2.121-6.176C276.779,156.729,279.403,154.169,279.403,154.169z"/>
			<path style="fill:#FFFFFF;" d="M278.783,121.935c0,0,2.313,2.843,2.121,6.176s-2.816,5.892-2.816,5.892s-2.313-2.843-2.121-6.176
				C276.159,124.494,278.783,121.935,278.783,121.935z"/>
			<path style="fill:#FFFFFF;" d="M252.51,190.69c0,0-0.367,3.647,1.626,6.324c1.993,2.677,5.593,3.371,5.593,3.371
				s0.367-3.647-1.626-6.324C256.109,191.384,252.51,190.69,252.51,190.69z"/>
			<path style="fill:#FFFFFF;" d="M245.691,210.527c0,0-0.367,3.647,1.626,6.324c1.994,2.677,5.593,3.371,5.593,3.371
				s0.367-3.647-1.626-6.325C249.29,211.221,245.691,210.527,245.691,210.527z"/>
			<path style="fill:#FFFFFF;" d="M263.792,217.729c0,0-0.367,3.647,1.626,6.325c1.993,2.677,5.593,3.371,5.593,3.371
				s0.367-3.647-1.626-6.324C267.391,218.423,263.792,217.729,263.792,217.729z"/>
			<path style="fill:#FFFFFF;" d="M268.741,190.242c0,0-1.396,3.389-0.253,6.525c1.143,3.136,4.393,4.832,4.393,4.832
				s1.396-3.389,0.253-6.525C271.991,191.938,268.741,190.242,268.741,190.242z"/>
			<path style="fill:#FFFFFF;" d="M255.923,263.383c0,0,3.665,0.067,6.17-2.139c2.505-2.206,2.901-5.85,2.901-5.85
				s-3.665-0.067-6.17,2.139C256.32,259.738,255.923,263.383,255.923,263.383z"/>
			<path style="fill:#FFFFFF;" d="M291.091,259.373c0,0,0.996,3.528,3.832,5.288c2.836,1.76,6.439,1.086,6.439,1.086
				s-0.996-3.528-3.832-5.288C294.694,258.699,291.091,259.373,291.091,259.373z"/>
			<path style="fill:#FFFFFF;" d="M260.012,172.403c0,0-0.367,3.647,1.626,6.324c1.994,2.678,5.593,3.371,5.593,3.371
				s0.367-3.647-1.626-6.324C263.611,173.097,260.012,172.403,260.012,172.403z"/>
			<path style="fill:#FFFFFF;" d="M259.949,156.286c0,0-0.367,3.647,1.626,6.324c1.994,2.677,5.593,3.371,5.593,3.371
				s0.367-3.647-1.626-6.325C263.548,156.979,259.949,156.286,259.949,156.286z"/>
		</g>
	</g>
</g>
<g id="World">
	<g>
		<path style="fill:#92E3A9;stroke:#263238;stroke-miterlimit:10;" d="M307.043,305.305C178.875,323.06,71.6,378.566,0.299,454.719
			v44.819h749.76v-78.765C639.93,329.529,475.652,281.948,307.043,305.305z"/>
		<path style="fill:#FFFFFF;stroke:#263238;stroke-miterlimit:10;" d="M197.429,499.538l-7.267-21.887l-31.397-3.074l-20.133,14.852
			c0,0-10.172,6.977-15.467,9.566c-0.352,0.172-0.778,0.354-1.26,0.544H197.429z"/>
		<path style="fill:#FFFFFF;stroke:#263238;stroke-miterlimit:10;" d="M199.059,497.501l-7.268-21.887l-31.397-3.073l-20.133,14.852
			c0,0-10.172,6.977-15.467,9.566c-0.352,0.172-0.778,0.354-1.26,0.544H199.059z"/>
		<path style="fill:#FFFFFF;stroke:#263238;stroke-miterlimit:10;" d="M129.302,458.014l-4.434,16.389l19.432-2.692l25.383-37.849
			l0.072-14.857l31.584-6.231l5.483-11.895l32.519-7.288l-0.138-15.755l23.794-4.224c0,0,15.466-9.566,18.896-10.041
			c3.429-0.475,20.48,1.803,20.48,1.803l19.665,8.411l24.005-3.325l18.265-12.737l26.709-1.845c0,0,7.698,2.645,13.413,1.854
			c5.716-0.792,21.392-9.459,21.392-9.459l36.926,11.587l15.606,6.19l3.148,13.481l17.565-0.577l3.826-8.88l16.119,3.334
			l0.536,7.349l-32.612,11.941l24.049,17.083l45.348,12.277l21.343,15.602l25.567-1.686l3.617-9.78l8.725-3.064l-33.917-13.861
			l-18.708,0.736l14.02-5.654l-17.284-13.379l19.222-3.592l27.666,7.303l10.752,20.781l15.302,9.943l16.373,24.641l28.506,10.898
			l6.926,29.662l29.437,9.841l0.299,2.573h27.37l-20.529-17.48l-10.868-26.332l21.204-0.154l-0.954-9.147l-15.071,1.159
			l11.525-6.236l12.246-8.192l-2.098-8.989l-17.074-12.482l-7.446-18.938c-108.145-72.67-255.064-108.274-405.44-87.443
			c-68.358,9.469-130.753,29.699-184.939,58.051l29.786,11.03l-12.224,18.395l-20.88,6.604l3.381,24.586l-8.515,3.963l-9.122,11.471
			l4.921,16.021L129.302,458.014z"/>
		<path style="fill:#FFFFFF;stroke:#263238;stroke-miterlimit:10;" d="M129.302,454.532l-4.434,16.389l19.432-2.692l25.383-37.849
			l0.072-14.857l31.584-6.231l5.483-11.895l32.519-7.288l-0.138-15.755l23.794-4.225c0,0,15.466-9.566,18.896-10.041
			c3.429-0.475,20.48,1.802,20.48,1.802l19.665,8.411l24.005-3.325l18.265-12.737l26.709-1.845c0,0,7.698,2.645,13.413,1.854
			c5.716-0.792,21.392-9.458,21.392-9.458l36.926,11.587l15.606,6.19l3.148,13.481l17.565-0.578l3.826-8.88l16.119,3.334
			l0.536,7.349l-32.612,11.941l24.049,17.083l45.348,12.277l21.343,15.602l25.567-1.686l3.617-9.78l8.725-3.064l-33.917-13.861
			l-18.708,0.736l14.02-5.654l-17.284-13.379l19.222-3.592l27.666,7.302l10.752,20.781l15.302,9.943l16.373,24.641l28.506,10.898
			l6.926,29.662l29.437,9.841l0.299,2.573h27.37l-20.529-17.48l-10.868-26.332l21.204-0.154l-0.954-9.147l-15.071,1.159
			l11.525-6.236l12.246-8.192l-2.098-8.989l-17.074-12.482l-7.446-18.938c-108.145-72.67-255.064-108.274-405.44-87.443
			c-68.358,9.469-130.753,29.699-184.939,58.051l29.786,11.03l-12.224,18.395l-20.88,6.604l3.381,24.586l-8.515,3.963l-9.122,11.471
			l4.921,16.021L129.302,454.532z"/>
		<polygon style="fill:#FFFFFF;stroke:#263238;stroke-miterlimit:10;" points="355.48,498.362 366.352,479.225 386.646,490.333 
			406.189,499.538 499.527,499.538 495.048,484.595 502.911,467.731 486.559,453.294 405.032,437.678 372.094,443.169 
			368.08,461.355 351.635,451.57 327.538,459.549 332.177,489.527 		"/>
		<polygon style="fill:#FFFFFF;stroke:#263238;stroke-miterlimit:10;" points="355.169,495.869 366.041,476.732 386.335,487.84 
			405.877,497.045 499.215,497.045 494.736,482.102 502.599,465.239 486.248,450.801 404.72,435.185 371.782,440.676 
			367.769,458.863 351.323,449.078 327.226,457.056 331.866,487.034 		"/>
		<polygon style="fill:#FFFFFF;stroke:#263238;stroke-miterlimit:10;" points="552.901,464.518 534.916,463.298 522.365,475.244 
			536.453,500.201 551.313,498.143 		"/>
		<polygon style="fill:#FFFFFF;stroke:#263238;stroke-miterlimit:10;" points="552.901,461.714 534.916,460.494 522.365,472.44 
			536.453,497.397 551.313,495.338 		"/>
		<polygon style="fill:#FFFFFF;stroke:#263238;stroke-miterlimit:10;" points="663.192,466.87 620.551,456.074 610.031,446.397 
			601.516,450.361 613.716,467.228 626.03,489.648 644.435,492.665 647.024,488.596 633.59,476.538 665.407,481.41 		"/>
		<polygon style="fill:#FFFFFF;stroke:#263238;stroke-miterlimit:10;" points="663.192,464.689 620.551,453.893 610.031,444.216 
			601.516,448.18 613.716,465.047 626.03,487.467 644.435,490.484 647.024,486.415 633.59,474.357 665.407,479.229 		"/>
	</g>
</g>
<g id="Chatacter_2">
	<g>
		<g>
			<path style="fill:#263238;stroke:#263238;stroke-miterlimit:10;" d="M477.956,299.88c0,0-2.805,10.553-3.072,11.221
				c-0.267,0.668-8.816,7.881-9.618,8.549c-0.801,0.668-2.004,3.607-0.668,5.21c1.336,1.603,6.545,1.736,10.553,1.87
				c4.007,0.134,9.751-2.004,11.488-2.538c1.737-0.534,4.275-0.267,5.61-2.271c1.336-2.004,1.469-4.675,1.336-6.412
				c-0.134-1.736-0.534-4.942-0.267-6.011c0.267-1.069,1.069-6.946,1.069-6.946S482.498,296.407,477.956,299.88z"/>
			<path style="fill:#FFFFFF;stroke:#263238;stroke-miterlimit:10;" d="M486.639,324.191c1.737-0.534,4.275-0.267,5.61-2.271
				c0.644-0.967,1.005-2.089,1.194-3.186c-2.688,0.328-7.129,2.543-10.411,3.988c-3.34,1.469-6.011,0.134-10.82,0.134
				c-4.076,0-7.279-0.383-8.163-0.5c-0.126,0.891-0.021,1.819,0.549,2.504c1.336,1.603,6.545,1.737,10.553,1.87
				C479.158,326.863,484.902,324.726,486.639,324.191z"/>
		</g>
		<path style="fill:#263238;stroke:#263238;stroke-miterlimit:10;" d="M499.997,194.486l-12.022,57.84l-9.618,42.879
			c0,0-1.87,1.603-1.469,2.271c0.401,0.668,1.069,2.405,1.069,2.405s5.343,0.401,6.011,0.534s5.744,2.805,7.08,3.74
			c1.336,0.935,4.542-0.267,5.076-1.336c0.534-1.069-0.534-5.477-0.534-5.477l0.267-5.343l10.286-38.204l18.835-41.677l4.007,0.668
			l10.82,39.94l24.712-0.401l-9.484-55.97l-53.699-7.213L499.997,194.486z"/>
		<path style="fill:#92E3A9;stroke:#263238;stroke-miterlimit:10;" d="M543.21,112.819c0,0-25.432-1.353-29.49,0.406
			c-4.058,1.759-28.137,18.533-29.49,20.426c-1.353,1.894-2.705,4.599-2.3,6.493c0.406,1.894,2.3,7.981,2.3,7.981l12.175-3.517
			l-0.541-4.194c0,0,2.3,1.488,3.788,0.947c1.488-0.541,15.151-5.005,15.151-5.005l-5.817,31.789l-10.822,23.267
			c0,0-0.406,4.058,2.976,8.658c3.382,4.599,10.551,9.469,10.551,9.469l8.928-8.522l3.247,12.986c0,0,15.421-1.488,21.779-5.682
			c6.358-4.193,11.228-10.416,11.228-10.416l-4.058-20.021l7.44-15.286l1.218,22.861l-2.164,21.373l11.904,1.759
			c0,0,4.735-18.938,5.14-21.779c0.406-2.841,4.058-34.089,2.3-41.258c-1.758-7.17-5.682-12.31-9.199-15.286
			s-3.517-2.976-3.517-2.976L543.21,112.819z"/>
		<g>
			<path style="fill:none;stroke:#263238;stroke-miterlimit:10;" d="M550.314,178.058c0,0-11.242,8.272-25.665,9.969"/>
			<path style="fill:none;stroke:#263238;stroke-miterlimit:10;" d="M546.497,176.573c0,0-2.757,2.757-14.423,5.091"/>
		</g>
		<path style="fill:none;stroke:#263238;stroke-miterlimit:10;" d="M546.457,112.819c0,0-2.435-1.082-4.464,0.541
			c-2.029,1.623-8.793,18.127-8.793,18.127l6.358,0.676l-1.353,4.058l5.411,8.387l13.527-4.194l0.812-3.111
			c0,0,5.14,5.682,5.681,4.735c0.541-0.947,0.812-13.798,0.812-13.798s2.435-4.058-1.759-9.875
			C558.496,112.549,546.457,112.819,546.457,112.819z"/>
		<g>
			<path style="fill:#FFFFFF;stroke:#263238;stroke-miterlimit:10;" d="M547.261,109.909c0,0-1.078-2.876-2.229-0.717
				c-1.151,2.159-0.432,5.612-0.432,5.612s-2.446,2.446-3.741,7.627c-1.295,5.18,3.022,14.534,3.453,15.397
				c0.432,0.863,0.432,5.324,0.432,5.324l8.922-7.627c0,0,1.871,1.151,4.461-0.432c2.59-1.583,6.907-4.461,9.065-7.627
				c2.159-3.166,7.195-11.8,7.195-11.8l-19.282-9.641L547.261,109.909z"/>
			<path style="fill:#263238;stroke:#263238;stroke-miterlimit:10;" d="M547.261,109.909l1.799,3.418c0,0-1.439,3.418-0.72,3.598
				c0.72,0.18,2.518-1.799,2.518-1.799s1.619,0,2.159-0.72c0.54-0.72,1.439-2.519,1.439-2.519s6.116,0.54,7.915,1.439
				c1.799,0.9,4.497,3.778,7.915,4.138c3.418,0.36,6.296,0,7.735-2.878c1.439-2.878,0.72-6.836,0.72-6.836s-0.72-7.196-3.418-9.354
				c-2.698-2.159-3.958-1.439-3.958-1.439s-5.397-4.677-7.735-4.497c-2.339,0.18-3.058,2.159-3.058,2.159s-1.619-0.54-5.757,0.899
				c-4.138,1.439-5.397,6.476-5.577,8.275C549.06,105.592,547.261,109.909,547.261,109.909z"/>
			<path style="fill:none;stroke:#263238;stroke-miterlimit:10;" d="M553.666,121.711c0.664-1.471,5.144,0.95,7.195,3.31"/>
			<path style="fill:none;stroke:#263238;stroke-miterlimit:10;" d="M564.027,125.164c0,0,3.31-0.719,4.893-0.288"/>
			<path style="fill:none;stroke:#263238;stroke-miterlimit:10;" d="M555.249,124.013c0,0,0.719,2.159,3.166,1.583"/>
			<path style="fill:none;stroke:#263238;stroke-miterlimit:10;" d="M557.551,129.769c0.576,1.151,3.166,2.878,4.173,1.871
				c1.007-1.007,1.295-4.749,1.295-4.749"/>
			<path style="fill:none;stroke:#263238;stroke-miterlimit:10;" d="M553.234,128.042c0,0,0.432,4.173,5.036,3.597"/>
			<path style="fill:none;stroke:#263238;stroke-miterlimit:10;" d="M564.315,126.172c0,0,0.72,2.015,3.022,0.288"/>
			<path style="fill:none;stroke:#263238;stroke-miterlimit:10;" d="M545.32,115.955l1.151,0.863c0,0-0.432,3.741-0.432,6.188
				c0,2.446,2.878,7.914,3.741,9.785c0.863,1.871,3.885,2.734,3.885,2.734"/>
			<line style="fill:none;stroke:#263238;stroke-miterlimit:10;" x1="549.781" y1="132.791" x2="546.759" y2="134.518"/>
		</g>
		<path style="fill:none;stroke:#263238;stroke-miterlimit:10;" d="M514.803,136.357c0,0,2.841-5.411,2.841-10.822"/>
		<path style="fill:none;stroke:#263238;stroke-miterlimit:10;" d="M559.984,163.817c0,0,4.193-5.682,5.14-11.769"/>
		<path style="fill:#FFFFFF;stroke:#263238;stroke-miterlimit:10;" d="M496.405,144.609l6.223,14.204c0,0,5.005,3.382,5.411,3.788
			c0.406,0.406,1.759,3.652,1.353,4.599c-0.406,0.947-1.759-3.247-2.706-2.705c-0.947,0.541-1.759,2.029-1.623,2.841
			c0.135,0.812,4.194,8.522,3.788,8.793c-0.406,0.27-1.217,0.676-2.3,0.406c-1.082-0.27-1.082-0.541-1.759-0.541
			c-0.676,0-3.111,0-4.194-0.271c-1.082-0.271-3.247-3.111-3.788-4.058c-0.541-0.947-1.353-9.063-1.353-9.063l-11.228-14.474
			C484.231,148.126,490.724,142.579,496.405,144.609z"/>
		<path style="fill:none;stroke:#263238;stroke-miterlimit:10;" d="M501.14,167.876c0,0,2.705,4.735,3.111,5.817
			c0.406,1.082,0.541,2.3,0.541,2.3"/>
		<path style="fill:none;stroke:#263238;stroke-miterlimit:10;" d="M498.434,170.446c0,0,2.164,3.652,4.464,5.14"/>
		<g>
			
				<rect x="527.375" y="179.785" transform="matrix(0.9074 -0.4203 0.4203 0.9074 -40.6228 241.892)" style="fill:#FFFFFF;stroke:#263238;stroke-miterlimit:10;" width="2.421" height="66.684"/>
		</g>
		<g>
			<path style="fill:#263238;stroke:#263238;stroke-miterlimit:10;" d="M512.742,183.72l-8.059-16.67
				c-0.49-1.014-0.054-2.234,0.968-2.708l0,0c0.999-0.463,2.184-0.039,2.663,0.952l8.088,16.73L512.742,183.72z"/>
		</g>
		<path style="fill:#9C9C9C;stroke:#263238;stroke-miterlimit:10;" d="M557.035,235.495c0,0-14.56,8.816-19.77,14.427
			c-5.21,5.61-20.705,23.376-23.377,26.182c-2.671,2.805-7.614,9.618-9.083,10.953c-1.469,1.336-3.607,1.202-2.939,4.408
			c0.668,3.206,1.069,3.473,1.069,4.275c0,0.801-0.134,3.473-0.134,3.473s-6.278,6.545-7.08,8.415c-0.801,1.87,0,5.61,0.935,7.614
			c0.935,2.004,2.805,3.339,2.805,3.74c0,0.401-1.603,5.878-2.004,7.347c-0.401,1.469,0.801,4.943,0.801,4.943
			s-3.072,4.542-0.935,6.679c2.137,2.137,6.011,2.538,6.679,2.004c0.668-0.534,46.753-2.404,50.359-3.874
			c3.607-1.469,6.813-2.939,9.484-6.145c2.672-3.206,5.076-4.809,5.076-4.809s2.404-2.271,2.404-4.542
			c0-2.271-0.267-2.805-0.133-3.473c0.133-0.668,1.202-2.004,1.202-2.004l0.935-3.473c0,0-0.801,0.801,0.668-6.946
			c1.469-7.748,1.737-9.751,1.737-9.751l-0.267-4.942l-0.534-5.076c0,0-4.542-22.575-6.946-28.452
			c-2.404-5.878-3.74-9.751-4.007-10.553c-0.267-0.801-0.401-4.809-0.401-4.809s2.405-4.141,2.004-5.076
			C565.184,235.094,558.237,233.624,557.035,235.495z"/>
		<g>
			<path style="fill:#FFFFFF;stroke:#263238;stroke-miterlimit:10;" d="M559.308,206.834l-0.842,14.164
				c0,0-2.857,9.442-2.609,11.181c0.249,1.739,3.106,6.212,3.106,6.212s0.87,2.361,1.615,1.491c0.745-0.87,1.367-1.367,0.994-2.857
				c-0.373-1.491-0.373-1.491-0.373-1.491s2.609,0.745,2.733,1.864c0.124,1.118-0.621,4.348,0.249,4.597
				c0.87,0.248,3.727-5.591,3.975-6.336c0.249-0.745-1.988-3.976-2.485-5.094c-0.497-1.118-2.485-3.603-2.485-4.348
				c0-0.745,8.025-17.623,8.025-17.623L559.308,206.834z"/>
			<line style="fill:none;stroke:#263238;stroke-miterlimit:10;" x1="561.199" y1="235.533" x2="559.459" y2="231.558"/>
		</g>
		<g>
			<path style="fill:#FFFFFF;stroke:#263238;stroke-miterlimit:10;" d="M550.757,252.059c0,0-1.202,4.007-1.202,4.675
				s-0.802,3.874-0.802,3.874l-0.802,1.469c0,0-2.805,2.271-2.805,3.607c0,1.336,0.668,4.408,0.668,4.408s7.08,2.004,8.015,2.004
				c0.935,0,2.004-1.336,2.004-1.336s0.801,1.469,1.737,1.469c0.935,0,2.137-0.534,2.271,0s0.534,1.603,0.534,1.603
				s1.737-2.405,2.271-3.607c0.534-1.202,1.737-0.668,0.802-2.939c-0.935-2.271-1.603-2.805-2.004-3.206
				c-0.401-0.401,0.801-0.134-0.401-0.401c-1.202-0.267-1.737-0.534-2.672-0.935c-0.935-0.401-2.271-1.202-2.271-1.202l-0.534-2.137
				c0,0,0.401-2.137,0.401-2.672s-0.401-1.603-0.401-1.603l-1.336-0.935L550.757,252.059z"/>
			<path style="fill:none;stroke:#263238;stroke-miterlimit:10;" d="M554.23,255.665c0,0-1.603,5.61-1.87,6.145
				c-0.267,0.534,3.34,4.675,3.74,4.675c0.401,0,3.607-0.935,4.141-0.534c0.534,0.401,1.603,2.271,1.603,2.672"/>
		</g>
		<path style="fill:#263238;stroke:#263238;stroke-miterlimit:10;" d="M553.028,267.42c-0.668-0.534-2.137-0.668-3.607-2.805
			c-1.469-2.137-2.004-4.007-1.87-5.477c0.134-1.469,0.134-1.469,0.134-1.469l2.672-1.87c0,0,0.134,0-0.134-1.336
			c-0.267-1.336-0.854-1.266-0.854-1.266l-4.94-10.664l-3.661,1.696l4.94,10.664c0,0-1.229,4.646-0.161,8.119
			c1.069,3.473,5.477,5.878,6.278,5.878C552.627,268.889,553.696,267.954,553.028,267.42z"/>
		<line style="fill:none;stroke:#263238;stroke-miterlimit:10;" x1="557.692" y1="239.213" x2="551.454" y2="248.485"/>
		<line style="fill:none;stroke:#263238;stroke-miterlimit:10;" x1="558.704" y1="242.753" x2="558.029" y2="256.24"/>
		<path style="fill:none;stroke:#263238;stroke-miterlimit:10;" d="M529.834,301.579c2.979,0.906,5.975,2.067,8.808,3.551"/>
		<path style="fill:none;stroke:#263238;stroke-miterlimit:10;" d="M506.273,298.387c0,0,8.503-0.315,18.407,1.853"/>
		<path style="fill:none;stroke:#263238;stroke-miterlimit:10;" d="M530.044,298.892c0,0,14.33,4.721,21.411,10.79"/>
		<path style="fill:none;stroke:#263238;stroke-miterlimit:10;" d="M499.361,317.1c0,0,2.192-5.563,7.081-9.272"/>
		<path style="fill:none;stroke:#263238;stroke-miterlimit:10;" d="M508.296,304.119c0,0-4.552,2.866-6.238,5.226"/>
		<path style="fill:none;stroke:#263238;stroke-miterlimit:10;" d="M519.805,277.266c-1.065,1.135-1.999,2.127-2.743,2.914"/>
		<path style="fill:none;stroke:#263238;stroke-miterlimit:10;" d="M540.833,254.723c0,0-10.806,11.622-18.387,19.723"/>
		<path style="fill:none;stroke:#263238;stroke-miterlimit:10;" d="M572.411,294.14c0.029,4.266-0.726,8.293-0.726,8.293"/>
		<path style="fill:none;stroke:#263238;stroke-miterlimit:10;" d="M563.761,258.432c0,0,6.744,25.119,8.092,30.514
			c0.074,0.295,0.139,0.598,0.196,0.907"/>
		<path style="fill:none;stroke:#263238;stroke-miterlimit:10;" d="M557.24,284.893c2.766,0.595,3.655,1.692,3.655,1.692"/>
		<path style="fill:none;stroke:#263238;stroke-miterlimit:10;" d="M521.277,285.743c0,0,13.824,1.686,25.288-0.506
			c2.466-0.471,4.534-0.678,6.262-0.711"/>
		<path style="fill:none;stroke:#263238;stroke-miterlimit:10;" d="M549.768,281.359c0,0-9.441,1.012-12.981,1.686"/>
	</g>
</g>
<g id="Character_1">
	<g>
		<g>
			<path style="fill:#FFFFFF;stroke:#263238;stroke-miterlimit:10;" d="M273.946,230.293c0,0-7.777,7.596-6.873,10.671
				c0.904,3.075,18.629,25.682,18.629,25.682s2.532,4.883,4.16,7.415c1.628,2.532,5.607,5.245,6.873,4.702
				c1.266-0.543,6.511-5.426,7.234-6.511c0.724-1.085-3.617-4.16-5.607-5.245c-1.99-1.085-8.501-4.702-10.309-9.224
				c-1.809-4.522-7.415-14.831-7.415-14.831l3.256-10.49L273.946,230.293z"/>
			<path style="fill:#92E3A9;stroke:#263238;stroke-miterlimit:10;" d="M296.735,278.764c1.266-0.543,6.511-5.426,7.234-6.511
				c0.724-1.085-3.617-4.16-5.607-5.245c-1.652-0.901-6.415-3.552-9.021-7.013l-4.875,5.067c0.773,0.994,1.236,1.585,1.236,1.585
				s2.532,4.883,4.16,7.415C291.49,276.594,295.469,279.307,296.735,278.764z"/>
			<g>
				<path style="fill:#9C9C9C;stroke:#263238;stroke-miterlimit:10;" d="M297.82,270.626c0,0-4.522,5.607-4.702,7.596
					c-0.181,1.99-1.266,9.947-1.266,9.947s-7.777,10.671-7.777,13.384c0,2.713,7.054,9.043,11.756,12.66
					c4.702,3.617,24.959,7.054,27.853,7.054s24.055-1.628,25.682-3.617c1.628-1.99,1.99-7.596,0-12.479
					s-15.193-16.097-16.278-17.182c-1.085-1.085-3.979-12.118-6.873-14.65c-2.894-2.532-15.554-3.075-17.544-2.894
					C306.682,270.626,299.448,270.445,297.82,270.626z"/>
				<path style="fill:none;stroke:#263238;stroke-miterlimit:10;" d="M333.856,314.266c7.15,3.263,9.616,4.444,11.345,2.468
					c2.03-2.32,1.885-4.494,1.885-4.494"/>
				<path style="fill:none;stroke:#263238;stroke-miterlimit:10;" d="M297.793,273.239c0,0-2.755,8.844-1.595,14.933
					c1.16,6.089,23.052,19.572,33.491,24.212c0.323,0.143,0.639,0.285,0.948,0.423"/>
				<path style="fill:none;stroke:#263238;stroke-miterlimit:10;" d="M328.406,293.841c1.849,2.483,3.312,4.334,3.312,4.334"/>
				<path style="fill:none;stroke:#263238;stroke-miterlimit:10;" d="M308.957,273.239c0,0,11.453,8.844,14.643,13.773
					c1.007,1.556,2.187,3.242,3.331,4.821"/>
				<path style="fill:none;stroke:#263238;stroke-miterlimit:10;" d="M305.767,273.674c0,0,5.219,7.104,7.104,13.193"/>
				<path style="fill:none;stroke:#263238;stroke-miterlimit:10;" d="M292.429,289.187c0,0-1.45,5.654,3.77,8.699"/>
			</g>
			<path style="fill:#92E3A9;stroke:#263238;stroke-miterlimit:10;" d="M294.564,266.466l5.607-0.724c0,0,3.979,3.798,4.883,4.16
				c0.904,0.362,2.17,1.99,0.904,2.532c-1.266,0.543-5.607-2.351-5.607-2.351s-2.532,0.904-4.16,0.724
				c-1.628-0.181-1.628-0.181-1.628-0.181"/>
		</g>
		<path style="fill:#FFFFFF;stroke:#263238;stroke-miterlimit:10;" d="M302.702,202.285c0,0-9.807-4.615-26.682-11.105
			c-16.874-6.49-29.711-8.365-43.989-4.904c-14.278,3.461-24.663,11.25-24.086,24.951c0.577,13.702,15.144,51.777,14.134,54.229
			c-1.01,2.452-10.384,10.961-13.125,20.336c-2.74,9.375-6.346,32.163-6.779,33.893c-0.433,1.731-3.461,0.865-3.75,5.481
			c-0.288,4.615-1.442,9.519-1.442,10.817s8.942,2.308,16.009,3.029c7.067,0.721,13.413,0.577,15.432-1.154
			c2.019-1.731,1.875-3.461,0.577-4.038c-1.298-0.577-4.615-2.74-7.067-6.057c-2.452-3.317-5.913-5.336-6.346-7.5
			c-0.433-2.163,1.01-7.932,1.01-7.932s8.221-21.057,12.115-27.403c3.894-6.346,10.817-10.673,11.971-17.596
			c1.154-6.923,0.865-16.586,0.865-16.586s7.356,16.153,7.932,19.182c0.577,3.029-4.038,7.356-2.019,19.038
			c2.019,11.682,4.759,30.865,5.048,31.73c0.288,0.865-1.731,0.577-1.587,3.317c0.144,2.74-0.865,10.817-0.144,11.25
			c0.721,0.433,8.509,0.865,11.538,0.144c3.029-0.721,9.952-1.586,12.115-1.01s9.375,0.865,11.105-0.433
			c1.731-1.298,1.731-5.192,1.154-5.192c-0.577,0-4.183-1.01-7.932-3.317c-3.75-2.308-11.105-4.182-12.404-5.913
			c-1.298-1.731-1.731-2.596-1.731-3.317s0.721-19.759,0.144-24.663c-0.577-4.904,0.577-18.317,0.577-21.778
			c0-3.461,1.875-7.067,0.721-13.269c-1.154-6.202-5.913-23.076-7.067-26.682c-1.154-3.606-3.029-8.798-3.029-8.798
			s4.471,5.913,10.673,8.942c6.202,3.029,11.394,3.75,11.394,3.75l12.98,10.384l3.173-9.519l0.577-3.606
			c0,0,2.019-1.731,3.606-3.606c1.587-1.875,3.75-3.606,5.048-6.058C304.721,218.871,302.702,202.285,302.702,202.285z"/>
		<path style="fill:#263238;stroke:#263238;stroke-miterlimit:10;" d="M264.77,291.561c-0.577-4.904,0.577-18.317,0.577-21.778
			c0-3.461,1.875-7.067,0.721-13.269c-1.154-6.202-5.913-23.076-7.067-26.682c-1.154-3.606-3.029-8.798-3.029-8.798
			s2.039,2.691,5.267,5.372l-3.166-10.552c0,0-13.825-1.047-20.738-6.703c-4.958-4.057-9.592-15.008-11.817-20.878
			c-10.803,4.104-18.06,11.441-17.575,22.955c0.577,13.702,15.144,51.777,14.134,54.229c-1.01,2.452-10.384,10.961-13.125,20.336
			c-1.994,6.822-4.445,20.741-5.8,28.486c1.955,2.087,5.981,4.991,12.445,3.497c0.26-2.477,0.999-5.445,0.999-5.445
			s8.221-21.057,12.115-27.403c3.894-6.346,10.817-10.673,11.971-17.596c1.154-6.923,0.865-16.586,0.865-16.586
			s7.356,16.153,7.932,19.182c0.577,3.029-4.038,7.356-2.019,19.038c1.375,7.953,3.083,19.377,4.125,26.136
			c4.457,0.713,9.372,0.631,13.124-1.741C264.884,307.704,265.219,295.37,264.77,291.561z"/>
		<path style="fill:#92E3A9;stroke:#263238;stroke-miterlimit:10;" d="M276.02,191.179c-16.874-6.49-29.711-8.365-43.989-4.904
			c-6.725,1.63-12.584,4.221-16.843,7.937c-0.774,2.899-0.191,7.045,5.161,12.111c10.817,10.24,15.865,14.278,23.942,14.278
			s10.529-1.298,10.529-1.298s0.879,1.835,1.979,4.048c-0.482-1.366-0.825-2.317-0.825-2.317s4.471,5.913,10.673,8.942
			c6.202,3.029,11.394,3.75,11.394,3.75l12.98,10.384l3.173-9.519l0.577-3.606c0,0,2.019-1.731,3.606-3.606
			c1.587-1.875,3.75-3.606,5.048-6.058c1.298-2.452-0.721-19.038-0.721-19.038S292.895,197.669,276.02,191.179z"/>
		<g>
			<path style="fill:#263238;stroke:#263238;stroke-miterlimit:10;" d="M309.192,203.871c0,0,3.75-5.769,13.413-6.346
				c9.663-0.577,16.153,1.587,20.625,12.98c4.471,11.394,1.731,18.605,1.731,22.355c0,3.75,1.731,13.846-0.144,17.019
				c-1.875,3.173-4.759,4.183-4.904,5.913c-0.144,1.731,1.298,2.452,1.298,2.452s-1.731,1.442-6.058-1.442
				c-4.327-2.884-4.038-6.49-4.182-8.509c-0.144-2.019-2.019,1.298-6.058-0.721c-4.038-2.019-3.029-6.202-2.884-7.5
				c0.144-1.298-1.587-1.154-3.894-1.875c-2.308-0.721-3.606-6.202-2.885-8.942c0.721-2.74-0.865-6.202-3.606-6.202
				c-2.74,0-4.327-3.894-4.327-8.942C307.317,209.063,309.192,203.871,309.192,203.871z"/>
			<g>
				<path style="fill:#FFFFFF;stroke:#263238;stroke-miterlimit:10;" d="M337.605,225.073c0,0-0.721,2.452-3.75,4.038
					c-3.029,1.587-5.192,1.587-6.346,3.029c-1.154,1.442-1.01,3.606-1.875,3.894c-0.865,0.288-3.173-1.01-3.173-1.01
					s-2.452,0.433-5.913,0.865c-3.461,0.433-5.048-0.433-5.336-2.308c-0.289-1.875-0.289-9.086,0.433-10.529
					c0.721-1.442,1.586-2.596,1.586-2.596s-1.298-3.75,1.154-5.625c2.452-1.875,3.894-1.154,4.471,0.433
					c0.577,1.587-0.144,3.75-0.144,3.75l4.615-1.298c0,0,3.029,3.317,5.913,4.471c2.885,1.154,7.644,0.288,7.644,0.288
					L337.605,225.073z"/>
				<path style="fill:none;stroke:#263238;stroke-miterlimit:10;" d="M319.144,234.015c0,0,0.144-1.731,1.01-2.74"/>
				<path style="fill:none;stroke:#263238;stroke-miterlimit:10;" d="M327.942,229.111l-2.885,0.288c0,0-2.019-1.154-0.721-3.173"/>
				<path style="fill:none;stroke:#263238;stroke-miterlimit:10;" d="M327.221,225.505c0,0,2.74,1.154,2.163,3.75"/>
			</g>
			<path style="fill:#263238;stroke:#263238;stroke-miterlimit:10;" d="M316.259,203.439c0,0-4.904-0.433-7.067,0.433
				c-2.163,0.865-6.49-1.587-6.49-1.587s-2.452-0.288-3.029,5.048s1.875,8.942,1.875,8.942s-3.461-2.308-3.173,1.154
				c0.288,3.461,3.317,7.788,4.183,8.798c0.865,1.01-1.731-0.288-1.01,2.308c0.721,2.596,5.913,5.481,8.221,5.913
				c2.308,0.433,2.596-0.865,2.74-6.202c0.144-5.336,0.721-7.788,0.721-7.788s-1.586-6.49,0.577-9.375
				c2.163-2.884,5.913-3.75,6.202-6.634"/>
		</g>
		<path style="fill:none;stroke:#263238;stroke-miterlimit:10;" d="M239.242,199.184c0,0,8.077,12.259,13.269,17.019"/>
		<path style="fill:none;stroke:#263238;stroke-miterlimit:10;" d="M246.598,198.751c0,0,1.587,8.221,4.615,13.557"/>
		<path style="fill:none;stroke:#263238;stroke-miterlimit:10;" d="M225.685,204.52c0,0,12.259,10.673,22.644,11.25"/>
		<line style="fill:none;stroke:#263238;stroke-miterlimit:10;" x1="275.155" y1="221.395" x2="278.328" y2="231.635"/>
		<path style="fill:#FFFFFF;stroke:#263238;stroke-miterlimit:10;" d="M228.425,337.858c2.019-1.731,1.875-3.461,0.577-4.038
			c-1.298-0.577-4.615-2.74-7.067-6.057c-2.452-3.317-5.913-5.337-6.346-7.5c-0.022-0.111-0.036-0.237-0.049-0.365
			c-1.314-0.126-3.615-0.221-4.95,0.446c-1.946,0.973-1.73,3.46-4.108,3.46c-2.378,0-3.027-0.649-3.135-1.622
			c-0.108-0.973-1.189-1.73-1.189-1.73l-0.305-0.172c-0.907,1-3.178,0.918-3.426,4.887c-0.288,4.615-1.442,9.519-1.442,10.817
			c0,1.298,8.942,2.308,16.009,3.029C220.06,339.733,226.406,339.589,228.425,337.858z"/>
		<path style="fill:#FFFFFF;stroke:#263238;stroke-miterlimit:10;" d="M286.693,328.772c-0.577,0-4.183-1.009-7.932-3.317
			c-3.675-2.261-10.796-4.107-12.303-5.808c-1.021,0.664-2.847,1.996-4.945,2.751c-2.703,0.973-6.595,1.081-7.136,0
			c-0.541-1.081-1.866-1.702-1.866-1.702c0.288,0.865-1.731,0.577-1.587,3.317c0.144,2.74-0.865,10.817-0.144,11.25
			c0.721,0.433,8.509,0.865,11.538,0.144c3.029-0.721,9.952-1.586,12.115-1.01s9.375,0.865,11.105-0.433
			C287.27,332.666,287.27,328.772,286.693,328.772z"/>
		<path style="fill:#FFFFFF;stroke:#263238;stroke-miterlimit:10;" d="M279.049,230.048c0,0-2.019,22.067-0.577,34.47
			c1.442,12.404,3.894,46.297,3.894,46.297l7.356-1.154l-1.01-46.73l2.74-19.903L279.049,230.048z"/>
		<g>
			<path style="fill:#FFFFFF;stroke:#263238;stroke-miterlimit:10;" d="M296.053,323.112c0,0,5.799,1.16,7.104,0.87
				c1.305-0.29,5.799-1.015,6.379-1.16s6.669-2.175,8.409-0.145c1.74,2.03,2.03,6.524-0.29,8.699
				c-2.32,2.175-6.814,2.61-10.874,2.03c-4.059-0.58-5.668-0.931-8.119-1.16c-2.451-0.229-1.113-1.612-4.326-0.806
				c-3.213,0.806-9.447,0.661-12.347,0.371c-2.9-0.29-6.379-2.175-5.654-7.249c0.725-5.074,4.096-5.693,5.165-4.949
				C282.57,320.358,296.053,323.112,296.053,323.112z"/>
			<path style="fill:#92E3A9;stroke:#263238;stroke-miterlimit:10;" d="M318.815,324.272c0,0,5.364-0.145,5.509,0.58
				c0.145,0.725,0,2.9-0.29,3.479c-0.29,0.58-4.639,0.725-4.639,0.725L318.815,324.272z"/>
		</g>
		<g>
			<path style="fill:#92E3A9;stroke:#263238;stroke-miterlimit:10;" d="M289.577,306.777l-8.654,2.452c0,0-0.433,8.798,0.577,10.384
				c1.01,1.586,2.163,5.481,2.163,5.481s0.144,5.048,0.721,6.346c0.577,1.298,3.131,0.89,4.471,1.442
				c1.609,0.663,4.035-3.956,4.418-5.472c0.199-0.791,1.207,3.165,1.063,4.03c-0.144,0.865,1.154,1.875,1.875,0.577
				c0.721-1.298,1.01-5.481,0.144-7.5c-0.865-2.019-5.048-11.25-5.336-12.259C290.731,311.248,289.577,306.777,289.577,306.777z"/>
			<path style="fill:none;stroke:#263238;stroke-miterlimit:10;" d="M289.788,327.484c0,0-0.148,2.819-0.445,3.56
				c-0.297,0.742-1.335,1.706-1.335,1.706"/>
			<path style="fill:none;stroke:#263238;stroke-miterlimit:10;" d="M286.895,326.965c0,0-0.148,2.893-0.297,3.709
				c-0.148,0.816-0.742,1.854-0.742,1.854"/>
		</g>
	</g>
</g>
<g id="Recycle_Bin">
	<g>
		<g>
			<polygon style="fill:#92E3A9;stroke:#263238;stroke-miterlimit:10;" points="429.412,315.787 371.237,315.787 366.104,212.089 
				434.545,212.089 			"/>
			<rect x="362.647" y="209.669" style="fill:#92E3A9;stroke:#263238;stroke-miterlimit:10;" width="75.354" height="4.839"/>
		</g>
		<g id="dhgKEQ.tif">
			<g>
				<path style="fill:#FFFFFF;" d="M428.833,262.038c-3.21,5.183-6.418,10.366-9.631,15.548c-0.935,1.508-2.301,2.206-4.071,2.188
					c-2.063-0.021-4.126-0.005-6.386-0.005c0,1.522,0,3.068,0,4.614c-0.105,0.023-0.21,0.046-0.315,0.068
					c-0.557-0.956-1.12-1.909-1.671-2.87c-1.429-2.494-2.868-4.983-4.259-7.498c-0.179-0.324-0.268-0.883-0.11-1.182
					c1.974-3.756,4.001-7.484,6.163-11.494c0,2.041,0,3.785,0,5.645c3.083,0,6.081,0,9.246,0c-2.409-4.21-4.771-8.337-7.189-12.563
					c3.869-2.24,7.677-4.445,11.686-6.765c2.198,3.994,4.368,7.936,6.537,11.879C428.833,260.414,428.833,261.226,428.833,262.038z"
					/>
				<path style="fill:#FFFFFF;" d="M394.255,231.116c0.512,0.077,1.022,0.215,1.536,0.224c4.544,0.075,9.088,0.146,13.632,0.176
					c1.96,0.013,3.407,0.742,4.358,2.526c0.95,1.781,2.036,3.49,3.111,5.313c1.41-0.802,2.76-1.57,4.109-2.338
					c0.054,0.046,0.107,0.092,0.161,0.138c-1.022,1.863-2.044,3.726-3.068,5.589c-0.898,1.633-1.779,3.276-2.713,4.889
					c-0.176,0.305-0.552,0.68-0.854,0.697c-4.244,0.246-8.492,0.435-12.832,0.397c1.5-0.882,2.999-1.764,4.574-2.69
					c-1.551-2.646-3.063-5.225-4.702-8.022c-2.426,4.365-4.771,8.585-7.124,12.821c-3.929-2.17-7.789-4.301-11.76-6.494
					c0.594-1.082,1.151-2.102,1.713-3.119c1.057-1.915,2.2-3.788,3.153-5.754c1.026-2.114,2.522-3.612,4.759-4.352
					C392.956,231.116,393.606,231.116,394.255,231.116z"/>
				<path style="fill:#FFFFFF;" d="M377.817,252.555c-1.441-0.871-2.773-1.676-4.105-2.481c0.013-0.071,0.027-0.141,0.04-0.212
					c1.516,0,3.031,0,4.547,0c2.068,0,4.144,0.115,6.201-0.038c1.534-0.114,2.392,0.387,3.156,1.727
					c1.883,3.301,3.946,6.499,5.81,9.908c-1.527-0.918-3.055-1.837-4.684-2.816c-1.534,2.658-3.036,5.26-4.645,8.047
					c4.947,0,9.666,0,14.459,0c0,4.514,0,8.914,0,13.488c-0.682,0-1.355,0-2.029,0c-3.041,0.002-6.082,0.027-9.122-0.002
					c-2.568-0.025-4.483-1.144-5.686-3.47c-2.343-4.53-4.681-9.063-7.107-13.548c-1.03-1.903-1.092-3.628,0.117-5.465
					C375.834,256.076,376.754,254.361,377.817,252.555z"/>
			</g>
		</g>
	</g>
</g>
</svg>
