<svg xmlns="http://www.w3.org/2000/svg" xmlns:xlink="http://www.w3.org/1999/xlink" viewBox="0 0 500 500"><defs><clipPath id="freepik--clip-path--inject-1--inject-359"><rect x="326.65" y="339.94" width="19.25" height="17.48" style="fill:#fff;stroke:#263238;stroke-linecap:round;stroke-linejoin:round"></rect></clipPath><clipPath id="freepik--clip-path-2--inject-1--inject-359"><rect x="353.81" y="339.94" width="19.25" height="17.48" style="fill:#fff;stroke:#263238;stroke-linecap:round;stroke-linejoin:round"></rect></clipPath><clipPath id="freepik--clip-path-3--inject-1--inject-359"><rect x="380.96" y="339.94" width="19.25" height="17.48" style="fill:#fff;stroke:#263238;stroke-linecap:round;stroke-linejoin:round"></rect></clipPath><clipPath id="freepik--clip-path-4--inject-1--inject-359"><rect x="326.65" y="369.39" width="19.25" height="17.48" style="fill:#fff;stroke:#263238;stroke-linecap:round;stroke-linejoin:round"></rect></clipPath><clipPath id="freepik--clip-path-5--inject-1--inject-359"><rect x="353.81" y="369.39" width="19.25" height="17.48" style="fill:#fff;stroke:#263238;stroke-linecap:round;stroke-linejoin:round"></rect></clipPath><clipPath id="freepik--clip-path-6--inject-1--inject-359"><rect x="380.96" y="369.39" width="19.25" height="17.48" style="fill:#fff;stroke:#263238;stroke-linecap:round;stroke-linejoin:round"></rect></clipPath><clipPath id="freepik--clip-path-7--inject-1--inject-359"><rect x="257.89" y="367.61" width="42.42" height="31.41" style="fill:#fff;stroke:#263238;stroke-linecap:round;stroke-linejoin:round"></rect></clipPath><clipPath id="freepik--clip-path-8--inject-1--inject-359"><rect x="279.1" y="367.61" width="21.21" height="31.41" style="fill:#fff;stroke:#263238;stroke-linecap:round;stroke-linejoin:round"></rect></clipPath><clipPath id="freepik--clip-path-9--inject-1--inject-359"><rect x="181.19" y="172.14" width="19.25" height="17.48" style="fill:#fff;stroke:#263238;stroke-linecap:round;stroke-linejoin:round"></rect></clipPath><clipPath id="freepik--clip-path-10--inject-1--inject-359"><rect x="208.71" y="172.14" width="19.25" height="17.48" style="fill:#fff;stroke:#263238;stroke-linecap:round;stroke-linejoin:round"></rect></clipPath><clipPath id="freepik--clip-path-11--inject-1--inject-359"><rect x="181.19" y="205.7" width="19.25" height="17.48" style="fill:#fff;stroke:#263238;stroke-linecap:round;stroke-linejoin:round"></rect></clipPath><clipPath id="freepik--clip-path-12--inject-1--inject-359"><rect x="208.71" y="205.7" width="19.25" height="17.48" style="fill:#fff;stroke:#263238;stroke-linecap:round;stroke-linejoin:round"></rect></clipPath><clipPath id="freepik--clip-path-13--inject-1--inject-359"><rect x="181.19" y="239.26" width="19.25" height="17.48" style="fill:#fff;stroke:#263238;stroke-linecap:round;stroke-linejoin:round"></rect></clipPath><clipPath id="freepik--clip-path-14--inject-1--inject-359"><rect x="208.71" y="239.26" width="19.25" height="17.48" style="fill:#fff;stroke:#263238;stroke-linecap:round;stroke-linejoin:round"></rect></clipPath><clipPath id="freepik--clip-path-15--inject-1--inject-359"><rect x="181.19" y="272.82" width="19.25" height="17.48" style="fill:#fff;stroke:#263238;stroke-linecap:round;stroke-linejoin:round"></rect></clipPath><clipPath id="freepik--clip-path-16--inject-1--inject-359"><rect x="208.71" y="272.82" width="19.25" height="17.48" style="fill:#fff;stroke:#263238;stroke-linecap:round;stroke-linejoin:round"></rect></clipPath><clipPath id="freepik--clip-path-17--inject-1--inject-359"><rect x="181.19" y="306.38" width="19.25" height="17.48" style="fill:#fff;stroke:#263238;stroke-linecap:round;stroke-linejoin:round"></rect></clipPath><clipPath id="freepik--clip-path-18--inject-1--inject-359"><rect x="208.71" y="306.38" width="19.25" height="17.48" style="fill:#fff;stroke:#263238;stroke-linecap:round;stroke-linejoin:round"></rect></clipPath><clipPath id="freepik--clip-path-19--inject-1--inject-359"><rect x="181.19" y="339.94" width="19.25" height="17.48" style="fill:#fff;stroke:#263238;stroke-linecap:round;stroke-linejoin:round"></rect></clipPath><clipPath id="freepik--clip-path-20--inject-1--inject-359"><rect x="208.71" y="339.94" width="19.25" height="17.48" style="fill:#fff;stroke:#263238;stroke-linecap:round;stroke-linejoin:round"></rect></clipPath><clipPath id="freepik--clip-path-21--inject-1--inject-359"><rect x="242.49" y="172.14" width="19.25" height="17.48" style="fill:#fff;stroke:#263238;stroke-linecap:round;stroke-linejoin:round"></rect></clipPath><clipPath id="freepik--clip-path-22--inject-1--inject-359"><rect x="270.01" y="172.14" width="19.25" height="17.48" style="fill:#fff;stroke:#263238;stroke-linecap:round;stroke-linejoin:round"></rect></clipPath><clipPath id="freepik--clip-path-23--inject-1--inject-359"><rect x="297.53" y="172.14" width="19.25" height="17.48" style="fill:#fff;stroke:#263238;stroke-linecap:round;stroke-linejoin:round"></rect></clipPath><clipPath id="freepik--clip-path-24--inject-1--inject-359"><rect x="242.49" y="205.7" width="19.25" height="17.48" style="fill:#fff;stroke:#263238;stroke-linecap:round;stroke-linejoin:round"></rect></clipPath><clipPath id="freepik--clip-path-25--inject-1--inject-359"><rect x="270.01" y="205.7" width="19.25" height="17.48" style="fill:#fff;stroke:#263238;stroke-linecap:round;stroke-linejoin:round"></rect></clipPath><clipPath id="freepik--clip-path-26--inject-1--inject-359"><rect x="297.53" y="205.7" width="19.25" height="17.48" style="fill:#fff;stroke:#263238;stroke-linecap:round;stroke-linejoin:round"></rect></clipPath><clipPath id="freepik--clip-path-27--inject-1--inject-359"><rect x="242.49" y="239.26" width="19.25" height="17.48" style="fill:#fff;stroke:#263238;stroke-linecap:round;stroke-linejoin:round"></rect></clipPath><clipPath id="freepik--clip-path-28--inject-1--inject-359"><rect x="270.01" y="239.26" width="19.25" height="17.48" style="fill:#fff;stroke:#263238;stroke-linecap:round;stroke-linejoin:round"></rect></clipPath><clipPath id="freepik--clip-path-29--inject-1--inject-359"><rect x="297.53" y="239.26" width="19.25" height="17.48" style="fill:#fff;stroke:#263238;stroke-linecap:round;stroke-linejoin:round"></rect></clipPath><clipPath id="freepik--clip-path-30--inject-1--inject-359"><rect x="242.49" y="272.82" width="19.25" height="17.48" style="fill:#fff;stroke:#263238;stroke-linecap:round;stroke-linejoin:round"></rect></clipPath><clipPath id="freepik--clip-path-31--inject-1--inject-359"><rect x="270.01" y="272.82" width="19.25" height="17.48" style="fill:#fff;stroke:#263238;stroke-linecap:round;stroke-linejoin:round"></rect></clipPath><clipPath id="freepik--clip-path-32--inject-1--inject-359"><rect x="297.53" y="272.82" width="19.25" height="17.48" style="fill:#fff;stroke:#263238;stroke-linecap:round;stroke-linejoin:round"></rect></clipPath><clipPath id="freepik--clip-path-33--inject-1--inject-359"><rect x="242.49" y="306.38" width="19.25" height="17.48" style="fill:#fff;stroke:#263238;stroke-linecap:round;stroke-linejoin:round"></rect></clipPath><clipPath id="freepik--clip-path-34--inject-1--inject-359"><rect x="270.01" y="306.38" width="19.25" height="17.48" style="fill:#fff;stroke:#263238;stroke-linecap:round;stroke-linejoin:round"></rect></clipPath><clipPath id="freepik--clip-path-35--inject-1--inject-359"><rect x="297.53" y="306.38" width="19.25" height="17.48" style="fill:#fff;stroke:#263238;stroke-linecap:round;stroke-linejoin:round"></rect></clipPath><clipPath id="freepik--clip-path-36--inject-1--inject-359"><rect x="242.49" y="339.94" width="19.25" height="17.48" style="fill:#fff;stroke:#263238;stroke-linecap:round;stroke-linejoin:round"></rect></clipPath><clipPath id="freepik--clip-path-37--inject-1--inject-359"><rect x="270.01" y="339.94" width="19.25" height="17.48" style="fill:#fff;stroke:#263238;stroke-linecap:round;stroke-linejoin:round"></rect></clipPath><clipPath id="freepik--clip-path-38--inject-1--inject-359"><rect x="297.53" y="339.94" width="19.25" height="17.48" style="fill:#fff;stroke:#263238;stroke-linecap:round;stroke-linejoin:round"></rect></clipPath></defs><g id="freepik--background-simple--inject-1--inject-359"><path d="M441.11,368c-11.43-13-27.44-9.15-16-38.11,7.09-17.95,12.76-39.14,6-58.06-8.06-22.65-32.94-34.62-55.62-36.43-12.25-1-25.24,4.57-37.11,2.1-14.42-3-22.95-17.35-24.63-31.11a.28.28,0,0,0,0-.09H423.11s1.35-4.05-3.6-6.75-7.2-.45-9-2.7,4.95-8.1-8.55-14c0,0-.9-12.6-19.35-13s-13.5,12.6-18.45,15.75-6.3-1.8-11.25,1.35-2.7,9.45-6.75,10.35-9.45-4.05-14.39-.9-4.95,5.85-7.2,5.85-6.75-1.8-9.45,0c-.54.35-1.09.73-1.63,1.1-.81-11.49,1.52-23,3.08-34.5,4.5-33-9.27-58.62-42.23-68.36-33.87-10-72.26-4.62-102.25,13.73C121,145.42,153,206.39,113.41,223.91s-77.2,53.5-55.63,109c21.34,54.87,66.34,42.95,66.34,42.95l1.49,16.94H446.68S452.54,380.9,441.11,368Zm-229-108.74H74s3.82-2.73,7.09-4.92,8.74,0,11.46,0,2.73-3.27,8.74-7.09,12.55,2.18,17.47,1.09,2.18-8.73,8.19-12.55,7.64,2.18,13.64-1.64,0-19.65,22.38-19.11,23.48,15.83,23.48,15.83c16.37,7.1,8.18,14.2,10.37,16.92s4.91,0,10.91,3.28S212.12,259.21,212.12,259.21Zm70.33-131.69H199.38s2.3-1.64,4.27-3,5.25,0,6.89,0,1.65-2,5.26-4.27,7.55,1.32,10.5.66,1.32-5.25,4.93-7.55,4.6,1.31,8.21-1,0-11.82,13.46-11.49S267,110.44,267,110.44c9.85,4.27,4.93,8.54,6.24,10.18s2.95,0,6.57,2S282.45,127.52,282.45,127.52ZM368.8,271h-38s1.05-.75,1.95-1.35,2.4,0,3.15,0,.75-.9,2.41-1.95,3.45.6,4.8.3.6-2.4,2.25-3.45,2.1.6,3.75-.45,0-5.41,6.16-5.26,6.46,4.36,6.46,4.36c4.5,1.95,2.25,3.9,2.85,4.65s1.35,0,3,.9A1.94,1.94,0,0,1,368.8,271Z" style="fill:#92E3A9"></path><circle cx="364.23" cy="141.97" r="23.2" transform="translate(91.86 422.39) rotate(-67.13)" style="fill:#92E3A9"></circle><g style="opacity:0.7000000000000001"><path d="M441.11,368c-11.43-13-27.44-9.15-16-38.11,7.09-17.95,12.76-39.14,6-58.06-8.06-22.65-32.94-34.62-55.62-36.43-12.25-1-25.24,4.57-37.11,2.1-14.42-3-22.95-17.35-24.63-31.11a.28.28,0,0,0,0-.09H423.11s1.35-4.05-3.6-6.75-7.2-.45-9-2.7,4.95-8.1-8.55-14c0,0-.9-12.6-19.35-13s-13.5,12.6-18.45,15.75-6.3-1.8-11.25,1.35-2.7,9.45-6.75,10.35-9.45-4.05-14.39-.9-4.95,5.85-7.2,5.85-6.75-1.8-9.45,0c-.54.35-1.09.73-1.63,1.1-.81-11.49,1.52-23,3.08-34.5,4.5-33-9.27-58.62-42.23-68.36-33.87-10-72.26-4.62-102.25,13.73C121,145.42,153,206.39,113.41,223.91s-77.2,53.5-55.63,109c21.34,54.87,66.34,42.95,66.34,42.95l1.49,16.94H446.68S452.54,380.9,441.11,368Zm-229-108.74H74s3.82-2.73,7.09-4.92,8.74,0,11.46,0,2.73-3.27,8.74-7.09,12.55,2.18,17.47,1.09,2.18-8.73,8.19-12.55,7.64,2.18,13.64-1.64,0-19.65,22.38-19.11,23.48,15.83,23.48,15.83c16.37,7.1,8.18,14.2,10.37,16.92s4.91,0,10.91,3.28S212.12,259.21,212.12,259.21Zm70.33-131.69H199.38s2.3-1.64,4.27-3,5.25,0,6.89,0,1.65-2,5.26-4.27,7.55,1.32,10.5.66,1.32-5.25,4.93-7.55,4.6,1.31,8.21-1,0-11.82,13.46-11.49S267,110.44,267,110.44c9.85,4.27,4.93,8.54,6.24,10.18s2.95,0,6.57,2S282.45,127.52,282.45,127.52ZM368.8,271h-38s1.05-.75,1.95-1.35,2.4,0,3.15,0,.75-.9,2.41-1.95,3.45.6,4.8.3.6-2.4,2.25-3.45,2.1.6,3.75-.45,0-5.41,6.16-5.26,6.46,4.36,6.46,4.36c4.5,1.95,2.25,3.9,2.85,4.65s1.35,0,3,.9A1.94,1.94,0,0,1,368.8,271Z" style="fill:#fff"></path><circle cx="364.23" cy="141.97" r="23.2" transform="translate(91.86 422.39) rotate(-67.13)" style="fill:#fff"></circle></g></g><g id="freepik--Plants--inject-1--inject-359"><path d="M339,392.57s8.36-2.76,6-.62a11.18,11.18,0,0,1-1,.83H319.22l-.75-1.51-.18-.36-.3-.61,3-2L317.82,390l-.83-1.87.64-6.29-1,5.73L316,386l-2.77-5.3,4.5,10-6.44-2.56L318,391.2l.78,1.58h-26.7c-1.46-.16-3.51-.58-3.88-1.75-.6-1.83,5.67-1.83,5.67-1.83s-6.57-2.76-4.18-3.37,6.57,1.83,6.57,1.83-2.39-5.51.59-4.29a6.15,6.15,0,0,1,3.44,3.52c-.32-1.08-.92-3.63.74-2.9a6.25,6.25,0,0,1,2.52,2.32c-.8-1.64-1.5-4.08,2-3.24,0,0-.73-7.52,7.16-8.89s7.47,9.5,10.15,11.65,6-.31,7.17,2.14.89,3.68.89,3.68,4.48-11.95,5.08-8.58a9.78,9.78,0,0,1-1.5,6.43s7.17-9.5,5.68-5.82a42.92,42.92,0,0,1-3.29,6.44s9.85-2.46,8.36-.92S339,392.57,339,392.57Z" style="fill:#92E3A9"></path><path d="M327.11,390.84c.07-.55.17-1.34.35-2.28.05-.27.1-.55.17-.85a5.09,5.09,0,0,0,1.55,0,1.6,1.6,0,0,0,1-.8.76.76,0,0,0-.48-1c-.61-.16-1.48.58-1.79,1.06,0,0-.21.41-.3.61,0-.18.08-.35.12-.54s.13-.54.19-.81.09-.28.13-.42.09-.27.13-.42l.24-.61a5.2,5.2,0,0,0,1.46.23,1.57,1.57,0,0,0,1.15-.64.75.75,0,0,0-.32-1.07c-.58-.25-1.55.35-1.93.78l-.16.23.27-.6c.27-.57.57-1.13.86-1.7l.18-.36a4.73,4.73,0,0,0,1.49.24,1.55,1.55,0,0,0,1.16-.63.75.75,0,0,0-.33-1.07c-.58-.25-1.55.35-1.92.77,0,0-.1.13-.19.27.16-.32.31-.63.44-.94a12.43,12.43,0,0,0,.62-1.66,5.22,5.22,0,0,0,1.54.25,1.53,1.53,0,0,0,1.15-.63.75.75,0,0,0-.32-1.07c-.58-.25-1.55.35-1.93.77l-.42.61h0a11,11,0,0,0,.3-1.71,14.06,14.06,0,0,0,.05-1.56c0-.48-.05-.92-.08-1.3,0-.21,0-.41-.07-.58h0s.23-.73.24-.77c.1-.56,0-1.69-.6-2a.76.76,0,0,0-1,.42,1.57,1.57,0,0,0,.23,1.29,4.85,4.85,0,0,0,1.13,1c0,.19,0,.39.06.61,0,.39.05.83.05,1.3,0,.13,0,.27,0,.4,0-.22-.1-.53-.11-.56-.17-.54-.82-1.48-1.45-1.48a.74.74,0,0,0-.73.84,1.6,1.6,0,0,0,.8,1.05,4.88,4.88,0,0,0,1.48.38c0,.3,0,.6-.06.91a9.55,9.55,0,0,1-.34,1.69l0,.09c0-.11-.05-.74-.06-.79-.11-.55-.65-1.56-1.28-1.63a.74.74,0,0,0-.81.76,1.55,1.55,0,0,0,.67,1.13,5.31,5.31,0,0,0,1.47.55,13.12,13.12,0,0,1-.63,1.59c-.18.39-.38.77-.58,1.15,0-.15-.05-.74-.06-.78-.11-.55-.65-1.56-1.27-1.63a.75.75,0,0,0-.82.76,1.54,1.54,0,0,0,.68,1.12,4.94,4.94,0,0,0,1.46.56c-.1.17-.19.34-.28.51-.3.57-.61,1.13-.9,1.69-.09.2-.18.39-.28.59,0-.22,0-.63-.05-.67-.11-.55-.65-1.56-1.28-1.63a.74.74,0,0,0-.81.76,1.53,1.53,0,0,0,.68,1.13,5,5,0,0,0,1.4.54c-.15.33-.29.66-.41,1-.05.15-.11.29-.15.43l-.13.42c-.08.29-.16.55-.22.82s-.07.27-.1.4c0-.23,0-.59,0-.62,0-.57-.4-1.64-1-1.81a.74.74,0,0,0-.92.63,1.55,1.55,0,0,0,.5,1.22,5.57,5.57,0,0,0,1.35.76c-.08.32-.15.64-.21.94-.2.94-.32,1.74-.4,2.29s-.12.88-.12.88h0a.22.22,0,0,0,.2.24.22.22,0,0,0,.24-.2S327,391.39,327.11,390.84Z" style="fill:#92E3A9"></path><path d="M331.62,375.84a5.56,5.56,0,0,0,1.57-.16,1.56,1.56,0,0,0,.94-.92.74.74,0,0,0-.59-.94c-.63-.09-1.41.74-1.65,1.25C331.87,375.12,331.61,375.84,331.62,375.84Z" style="fill:#92E3A9"></path><path d="M326.46,390.83c-.25-.49-.59-1.21-1-2.09-.11-.25-.22-.52-.33-.8a5.26,5.26,0,0,0,1.3-.84,1.58,1.58,0,0,0,.43-1.25.75.75,0,0,0-1-.57c-.6.2-.91,1.3-.9,1.86,0,0,0,.47.08.68-.06-.17-.13-.33-.2-.51s-.19-.52-.28-.79l-.13-.41c-.05-.14-.08-.28-.12-.43s-.09-.42-.14-.64a4.79,4.79,0,0,0,1.34-.61,1.59,1.59,0,0,0,.62-1.17.75.75,0,0,0-.86-.71c-.63.11-1.1,1.14-1.18,1.7,0,0,0,.14,0,.28,0-.21-.08-.42-.11-.64-.08-.62-.15-1.26-.22-1.89,0-.14,0-.27-.05-.4a5.1,5.1,0,0,0,1.39-.62,1.62,1.62,0,0,0,.61-1.17.75.75,0,0,0-.86-.71c-.63.11-1.1,1.14-1.18,1.7,0,0,0,.17,0,.33,0-.35-.09-.69-.15-1a13.47,13.47,0,0,0-.4-1.72,5.27,5.27,0,0,0,1.42-.64,1.53,1.53,0,0,0,.61-1.17.75.75,0,0,0-.86-.71c-.62.11-1.1,1.15-1.17,1.71,0,0,0,.56,0,.74v0a9.53,9.53,0,0,0-.69-1.59,13.14,13.14,0,0,0-.81-1.32c-.27-.4-.55-.74-.79-1.05l-.38-.45h0s-.21-.73-.23-.78c-.23-.51-1-1.38-1.6-1.32a.75.75,0,0,0-.63.92,1.58,1.58,0,0,0,.9,1,5,5,0,0,0,1.51.22l.38.48c.24.31.5.66.76,1.06.07.1.14.22.21.33l-.4-.4c-.44-.36-1.5-.79-2-.44a.75.75,0,0,0-.14,1.1,1.58,1.58,0,0,0,1.25.44,5.16,5.16,0,0,0,1.45-.5c.15.25.3.51.44.8a9,9,0,0,1,.65,1.58.44.44,0,0,1,0,.1c-.06-.09-.45-.59-.48-.62-.4-.4-1.4-.95-2-.66a.75.75,0,0,0-.26,1.08,1.55,1.55,0,0,0,1.19.57,5,5,0,0,0,1.53-.35,12.81,12.81,0,0,1,.35,1.68c.06.42.11.84.15,1.27l-.48-.61c-.4-.41-1.4-1-2-.66a.75.75,0,0,0-.27,1.08,1.56,1.56,0,0,0,1.19.57,5.06,5.06,0,0,0,1.52-.34l.06.58c.06.63.11,1.27.18,1.9l.09.65c-.13-.18-.39-.5-.41-.53-.4-.4-1.4-.94-2-.66a.77.77,0,0,0-.26,1.09,1.57,1.57,0,0,0,1.19.56,4.78,4.78,0,0,0,1.47-.32c.06.35.12.71.2,1.05,0,.15.07.3.11.44l.12.42q.14.42.27.81c0,.13.1.25.14.38-.11-.2-.29-.52-.31-.54-.33-.46-1.24-1.15-1.84-.95a.75.75,0,0,0-.42,1,1.57,1.57,0,0,0,1.09.74,4.85,4.85,0,0,0,1.55-.11c.11.32.23.62.34.9.36.9.69,1.63.93,2.14s.39.8.39.8h0a.22.22,0,0,0,.39-.21S326.71,391.33,326.46,390.83Z" style="fill:#92E3A9"></path><path d="M322,375.83a5.15,5.15,0,0,0,1.22-1,1.55,1.55,0,0,0,.28-1.28.74.74,0,0,0-1-.46c-.58.27-.76,1.39-.69,2C321.76,375.09,321.94,375.84,322,375.83Z" style="fill:#92E3A9"></path><path d="M440.34,392.51S451,389,448,391.73c-.53.47-.94.8-1.28,1H415.16l-1-1.92-.23-.47-.38-.78,3.78-2.6-4,2.16-1.06-2.39.82-8-1.29,7.32-.78-2-3.53-6.76,5.74,12.71-8.22-3.27,8.57,4,1,2H380.54c-1.85-.2-4.47-.74-5-2.23-.76-2.34,7.24-2.34,7.24-2.34s-8.38-3.52-5.33-4.3,8.38,2.34,8.38,2.34-3.05-7,.76-5.47a7.77,7.77,0,0,1,4.38,4.48c-.4-1.38-1.17-4.63,1-3.7a8.1,8.1,0,0,1,3.21,3c-1-2.09-1.91-5.2,2.5-4.13,0,0-.93-9.59,9.14-11.34s9.53,12.12,12.95,14.86,7.62-.4,9.15,2.73,1.14,4.69,1.14,4.69,5.71-15.24,6.47-10.94-1.9,8.21-1.9,8.21,9.14-12.12,7.24-7.43a54.78,54.78,0,0,1-4.19,8.21s12.57-3.13,10.66-1.17S440.34,392.51,440.34,392.51Z" style="fill:#92E3A9"></path><path d="M425.23,390.3c.09-.7.23-1.71.45-2.9.06-.35.13-.71.21-1.09a6.61,6.61,0,0,0,2,0,2,2,0,0,0,1.33-1,1,1,0,0,0-.61-1.28c-.78-.21-1.89.74-2.28,1.34,0,0-.27.53-.39.79l.15-.69c.08-.33.17-.69.25-1,.06-.18.11-.36.16-.54s.12-.35.17-.53.2-.53.31-.79a6,6,0,0,0,1.86.3,2,2,0,0,0,1.47-.82,1,1,0,0,0-.41-1.36c-.74-.32-2,.45-2.46,1l-.21.29c.11-.25.22-.51.35-.76.34-.72.72-1.45,1.09-2.17.08-.15.15-.31.23-.46a6.56,6.56,0,0,0,1.91.31,2,2,0,0,0,1.47-.81,1,1,0,0,0-.41-1.36c-.74-.32-2,.44-2.46,1l-.24.34q.3-.6.57-1.2a16.37,16.37,0,0,0,.78-2.11,6.78,6.78,0,0,0,2,.32,2,2,0,0,0,1.47-.81,1,1,0,0,0-.42-1.36c-.74-.32-2,.44-2.45,1l-.54.78v0a12.47,12.47,0,0,0,.38-2.18,17,17,0,0,0,.07-2c0-.62-.06-1.18-.11-1.67,0-.27-.05-.51-.08-.74h0s.29-.93.3-1c.13-.72-.05-2.16-.76-2.54a1,1,0,0,0-1.32.53,2,2,0,0,0,.29,1.66,6.36,6.36,0,0,0,1.44,1.3c0,.24.05.49.07.77,0,.5.07,1.06.07,1.67,0,.16,0,.34,0,.51-.05-.29-.13-.68-.14-.72-.21-.69-1-1.89-1.84-1.9a1,1,0,0,0-.93,1.08,2,2,0,0,0,1,1.34,6.36,6.36,0,0,0,1.89.49c0,.38,0,.76-.09,1.16a11.53,11.53,0,0,1-.43,2.15s0,.08,0,.12c0-.15-.06-.95-.08-1-.14-.7-.82-2-1.62-2.08a1,1,0,0,0-1,1,2,2,0,0,0,.86,1.44,6.78,6.78,0,0,0,1.87.71,17.77,17.77,0,0,1-.8,2c-.23.49-.48,1-.74,1.46,0-.2-.07-.94-.08-1-.14-.7-.82-2-1.62-2.08a1,1,0,0,0-1.05,1,2,2,0,0,0,.87,1.44,6.93,6.93,0,0,0,1.86.71l-.35.66c-.39.71-.78,1.43-1.15,2.15-.12.25-.24.5-.35.75,0-.29-.07-.81-.07-.85-.14-.71-.83-2-1.63-2.09a1,1,0,0,0-1,1,2,2,0,0,0,.86,1.45,6.25,6.25,0,0,0,1.8.68c-.19.42-.37.84-.53,1.26-.07.18-.14.37-.19.55s-.12.35-.17.53c-.1.37-.2.71-.28,1.05,0,.18-.08.34-.12.51,0-.29.05-.76.05-.8,0-.72-.51-2.09-1.29-2.31a1,1,0,0,0-1.18.8,2,2,0,0,0,.64,1.56,6.82,6.82,0,0,0,1.72,1c-.09.41-.19.82-.26,1.2-.25,1.2-.41,2.21-.52,2.92s-.14,1.12-.14,1.12h0a.29.29,0,0,0,.26.31.28.28,0,0,0,.31-.26S425.14,391,425.23,390.3Z" style="fill:#92E3A9"></path><path d="M431,371.17a6.84,6.84,0,0,0,2-.21,2,2,0,0,0,1.2-1.17,1,1,0,0,0-.75-1.21c-.8-.11-1.8,1-2.11,1.6C431.3,370.24,431,371.16,431,371.17Z" style="fill:#92E3A9"></path><path d="M424.41,390.3c-.32-.64-.76-1.55-1.23-2.68q-.21-.48-.42-1a6.74,6.74,0,0,0,1.66-1.07,2,2,0,0,0,.54-1.59,1,1,0,0,0-1.22-.73c-.76.26-1.16,1.66-1.15,2.38,0,0,.07.59.11.86-.09-.21-.17-.42-.26-.65s-.24-.67-.36-1-.11-.36-.16-.53a5.44,5.44,0,0,1-.15-.54c-.07-.27-.12-.55-.18-.83a6.26,6.26,0,0,0,1.71-.78,2,2,0,0,0,.78-1.49,1,1,0,0,0-1.1-.91c-.79.14-1.4,1.47-1.5,2.18,0,0,0,.18,0,.36-.05-.28-.1-.55-.14-.83-.1-.79-.19-1.6-.28-2.41l-.06-.51a6.12,6.12,0,0,0,1.76-.79,2,2,0,0,0,.78-1.49,1,1,0,0,0-1.09-.91c-.8.14-1.41,1.46-1.51,2.18,0,0,0,.21,0,.41-.06-.44-.12-.88-.19-1.31a18.6,18.6,0,0,0-.51-2.2,6.56,6.56,0,0,0,1.81-.81,2,2,0,0,0,.78-1.49,1,1,0,0,0-1.09-.91c-.8.14-1.41,1.47-1.51,2.18,0,.05,0,.71,0,.95v0a13,13,0,0,0-.89-2,16.23,16.23,0,0,0-1-1.68c-.34-.51-.69-.95-1-1.34l-.48-.57h0s-.28-.94-.3-1c-.29-.66-1.23-1.76-2-1.68a.93.93,0,0,0-.8,1.16,2,2,0,0,0,1.15,1.23,6.44,6.44,0,0,0,1.92.29c.15.18.32.38.49.6.3.4.64.84,1,1.36.09.13.18.28.27.43-.2-.22-.48-.5-.51-.53-.56-.45-1.91-1-2.59-.56a1,1,0,0,0-.18,1.41,2,2,0,0,0,1.59.56,6.6,6.6,0,0,0,1.85-.63c.19.32.39.65.57,1a12,12,0,0,1,.82,2s0,.08,0,.12c-.09-.12-.58-.75-.62-.79-.51-.52-1.79-1.21-2.51-.85a1,1,0,0,0-.33,1.39,2,2,0,0,0,1.51.72,6.63,6.63,0,0,0,1.95-.44,15.89,15.89,0,0,1,.45,2.14c.08.53.14,1.07.19,1.62-.11-.16-.57-.75-.61-.78-.51-.52-1.79-1.21-2.51-.85a1,1,0,0,0-.33,1.39,2,2,0,0,0,1.52.72,6.56,6.56,0,0,0,1.94-.44c0,.25,0,.5.07.75.07.81.14,1.62.23,2.43,0,.27.07.54.12.82l-.53-.67c-.51-.51-1.79-1.21-2.51-.84a1,1,0,0,0-.33,1.38,2,2,0,0,0,1.51.73,6.46,6.46,0,0,0,1.88-.42c.07.45.15.9.25,1.34.05.19.09.38.14.56l.16.54c.12.36.23.7.35,1,0,.17.11.33.17.49-.14-.26-.37-.66-.39-.69-.42-.59-1.59-1.47-2.35-1.22a1,1,0,0,0-.54,1.32,2,2,0,0,0,1.39.95,6.71,6.71,0,0,0,2-.14l.44,1.15c.46,1.14.88,2.07,1.19,2.72s.49,1,.49,1h0a.29.29,0,0,0,.38.11.3.3,0,0,0,.12-.39S424.72,390.93,424.41,390.3Z" style="fill:#92E3A9"></path><path d="M418.65,371.16a7.2,7.2,0,0,0,1.56-1.28,2,2,0,0,0,.35-1.64,1,1,0,0,0-1.29-.59c-.73.35-1,1.78-.88,2.5C418.4,370.21,418.64,371.16,418.65,371.16Z" style="fill:#92E3A9"></path><path d="M345.64,392.61s-6.59-2.15-4.71-.47c.33.28.59.49.8.64h19.49l.59-1.17.14-.29.24-.48-2.34-1.59,2.47,1.32.65-1.46-.5-4.91.8,4.48.48-1.2,2.18-4.14-3.55,7.78,5.08-2-5.29,2.43-.62,1.23h21.08c1.15-.12,2.76-.45,3.06-1.36.47-1.44-4.47-1.44-4.47-1.44s5.18-2.15,3.29-2.63-5.18,1.44-5.18,1.44,1.89-4.31-.47-3.35a4.79,4.79,0,0,0-2.71,2.74c.25-.84.72-2.83-.59-2.26a5.08,5.08,0,0,0-2,1.81c.63-1.28,1.19-3.18-1.54-2.53a6.44,6.44,0,0,0-5.66-6.94c-6.22-1.07-5.89,7.42-8,9.09s-4.71-.24-5.65,1.68a4.78,4.78,0,0,0-.71,2.87s-3.53-9.33-4-6.7a7.56,7.56,0,0,0,1.18,5s-5.66-7.41-4.48-4.54a33.16,33.16,0,0,0,2.59,5s-7.77-1.91-6.59-.72S345.64,392.61,345.64,392.61Z" style="fill:#92E3A9"></path><path d="M378.09,391.27c0-.43-.14-1-.27-1.78,0-.21-.09-.44-.14-.67a3.92,3.92,0,0,1-1.22,0,1.23,1.23,0,0,1-.82-.63.57.57,0,0,1,.38-.78c.48-.13,1.16.45,1.4.82a5.14,5.14,0,0,1,.24.48l-.09-.42-.15-.63-.1-.33c0-.11-.07-.22-.11-.33s-.12-.32-.19-.48a3.91,3.91,0,0,1-1.15.18,1.22,1.22,0,0,1-.91-.5.58.58,0,0,1,.26-.83c.46-.2,1.22.27,1.52.6l.13.18c-.07-.15-.14-.31-.22-.46-.21-.44-.44-.89-.67-1.33l-.15-.28a4.09,4.09,0,0,1-1.18.19,1.25,1.25,0,0,1-.91-.5A.59.59,0,0,1,374,383c.46-.2,1.22.27,1.52.6,0,0,.07.11.15.21-.13-.24-.24-.49-.35-.73a9.83,9.83,0,0,1-.49-1.3,4.08,4.08,0,0,1-1.21.2,1.2,1.2,0,0,1-.91-.5.58.58,0,0,1,.25-.83c.46-.2,1.23.27,1.52.6l.33.48h0a7.43,7.43,0,0,1-.24-1.34c0-.43,0-.83,0-1.21s0-.72.06-1l.06-.45h0s-.18-.57-.19-.61c-.07-.43,0-1.31.48-1.54a.58.58,0,0,1,.81.32,1.21,1.21,0,0,1-.17,1,4,4,0,0,1-.9.8c0,.14,0,.3,0,.47s-.05.65,0,1v.31c0-.17.08-.42.09-.44.14-.42.65-1.15,1.14-1.16a.59.59,0,0,1,.58.66,1.24,1.24,0,0,1-.63.82,4,4,0,0,1-1.17.3c0,.23,0,.47,0,.71a7.37,7.37,0,0,0,.27,1.32.25.25,0,0,0,0,.07c0-.09,0-.58.05-.62.09-.43.51-1.21,1-1.27a.59.59,0,0,1,.64.59,1.2,1.2,0,0,1-.53.88,4.27,4.27,0,0,1-1.16.44,9.19,9.19,0,0,0,.5,1.24c.14.3.29.59.45.89,0-.12,0-.57.05-.61.09-.43.51-1.21,1-1.27a.59.59,0,0,1,.64.59,1.2,1.2,0,0,1-.53.88,3.94,3.94,0,0,1-1.16.43l.22.41c.24.44.48.88.71,1.32.08.15.15.3.22.45,0-.17,0-.49,0-.51.09-.44.52-1.22,1-1.28a.58.58,0,0,1,.64.59,1.2,1.2,0,0,1-.53.88,3.81,3.81,0,0,1-1.11.43c.12.25.23.51.33.76l.12.34.1.32c.06.23.12.44.17.65s.05.21.08.31c0-.18,0-.46,0-.49,0-.44.32-1.28.8-1.41a.59.59,0,0,1,.73.49,1.21,1.21,0,0,1-.39,1,4.52,4.52,0,0,1-1.07.6c.06.25.12.5.17.73.15.74.25,1.36.31,1.79s.1.69.1.69h0a.19.19,0,0,1-.16.19.17.17,0,0,1-.19-.16S378.15,391.7,378.09,391.27Z" style="fill:#92E3A9"></path><path d="M374.53,379.56a4.43,4.43,0,0,1-1.24-.13,1.23,1.23,0,0,1-.74-.72A.58.58,0,0,1,373,378c.49-.07,1.1.58,1.3,1C374.34,379,374.54,379.56,374.53,379.56Z" style="fill:#92E3A9"></path><path d="M378.6,391.26c.2-.39.47-.95.76-1.63.09-.2.17-.41.26-.63a4,4,0,0,1-1-.66,1.21,1.21,0,0,1-.33-1,.59.59,0,0,1,.75-.45c.47.16.72,1,.72,1.46,0,0-.05.36-.07.53l.15-.4c.08-.2.16-.41.23-.61l.1-.33c0-.11.06-.22.09-.33s.08-.33.11-.5a4,4,0,0,1-1-.48,1.25,1.25,0,0,1-.49-.91.6.6,0,0,1,.68-.56c.49.09.87.9.93,1.33,0,0,0,.11,0,.22,0-.16.06-.33.08-.5.07-.49.12-1,.18-1.48l0-.31a4,4,0,0,1-1.09-.48,1.25,1.25,0,0,1-.48-.92.59.59,0,0,1,.68-.55c.49.09.87.89.93,1.33,0,0,0,.13,0,.25,0-.27.07-.53.12-.8a9.68,9.68,0,0,1,.31-1.34,4.06,4.06,0,0,1-1.12-.5,1.2,1.2,0,0,1-.48-.91.59.59,0,0,1,.67-.56c.5.09.87.9.93,1.34,0,0,0,.43,0,.58v0a7.38,7.38,0,0,1,.55-1.24,10.78,10.78,0,0,1,.64-1c.21-.31.43-.58.62-.82l.3-.35h0s.17-.57.18-.61c.18-.4.76-1.08,1.26-1a.58.58,0,0,1,.5.71,1.2,1.2,0,0,1-.71.75,4.09,4.09,0,0,1-1.19.18,4,4,0,0,0-.3.37,9,9,0,0,0-.6.83,2.33,2.33,0,0,0-.17.26l.32-.32c.34-.28,1.18-.61,1.6-.34a.58.58,0,0,1,.11.86,1.26,1.26,0,0,1-1,.34,3.93,3.93,0,0,1-1.15-.39c-.12.2-.24.4-.35.62a7.66,7.66,0,0,0-.51,1.24s0,.05,0,.08l.38-.49c.31-.31,1.11-.73,1.55-.51a.58.58,0,0,1,.21.84,1.25,1.25,0,0,1-.94.45,4.29,4.29,0,0,1-1.21-.27,9.07,9.07,0,0,0-.27,1.3c0,.33-.09.66-.12,1,.07-.1.35-.46.38-.48.31-.32,1.1-.74,1.55-.52a.58.58,0,0,1,.2.85,1.22,1.22,0,0,1-.93.44,3.81,3.81,0,0,1-1.2-.27c0,.16,0,.31,0,.46,0,.5-.09,1-.14,1.48,0,.17,0,.34-.07.51.1-.14.3-.39.32-.41.32-.31,1.11-.74,1.55-.52a.58.58,0,0,1,.21.85,1.24,1.24,0,0,1-.94.44,3.92,3.92,0,0,1-1.16-.25,7.43,7.43,0,0,1-.16.82c0,.11,0,.23-.08.34l-.1.33-.21.63c0,.11-.08.2-.11.3.08-.16.23-.4.24-.42.26-.36,1-.9,1.46-.74a.58.58,0,0,1,.33.8,1.25,1.25,0,0,1-.86.58,4.54,4.54,0,0,1-1.22-.08c-.09.24-.18.48-.27.7-.29.7-.55,1.27-.74,1.67l-.3.62h0a.16.16,0,0,1-.23.07.17.17,0,0,1-.07-.24S378.41,391.65,378.6,391.26Z" style="fill:#92E3A9"></path><path d="M382.16,379.55a4.21,4.21,0,0,1-1-.78,1.2,1.2,0,0,1-.22-1,.59.59,0,0,1,.8-.36c.45.21.6,1.09.54,1.53C382.32,379,382.17,379.56,382.16,379.55Z" style="fill:#92E3A9"></path><path d="M355.39,391.48c0-.33-.1-.79-.21-1.34,0-.16-.06-.33-.09-.5a3.08,3.08,0,0,1-.93,0,.89.89,0,0,1-.61-.47.43.43,0,0,1,.28-.59c.36-.09.88.34,1.06.62l.18.36c0-.1,0-.21-.07-.31s-.08-.32-.12-.48l-.07-.25a2.25,2.25,0,0,0-.08-.24c0-.12-.09-.24-.14-.37a2.83,2.83,0,0,1-.87.14.92.92,0,0,1-.68-.37.44.44,0,0,1,.19-.63c.35-.15.92.2,1.14.45l.1.14a3.73,3.73,0,0,0-.16-.35c-.16-.33-.33-.67-.51-1l-.1-.21a2.82,2.82,0,0,1-.89.14.92.92,0,0,1-.69-.37.45.45,0,0,1,.19-.63c.35-.15.93.21,1.15.46l.11.15c-.09-.18-.18-.37-.26-.55a7.7,7.7,0,0,1-.37-1,3.59,3.59,0,0,1-.91.15,1,1,0,0,1-.69-.38.44.44,0,0,1,.19-.62c.35-.15.92.2,1.15.45l.25.36h0a6.27,6.27,0,0,1-.17-1,5.68,5.68,0,0,1,0-.91c0-.28,0-.54,0-.77s0-.23,0-.34h0a4.21,4.21,0,0,1-.14-.46c-.06-.33,0-1,.35-1.16a.45.45,0,0,1,.62.24.9.9,0,0,1-.14.76,2.73,2.73,0,0,1-.67.6q0,.16,0,.36a6,6,0,0,0,0,.76v.24c0-.14.06-.32.07-.33.1-.32.48-.87.86-.88a.45.45,0,0,1,.43.5,1,1,0,0,1-.47.62,3.11,3.11,0,0,1-.88.22,3.44,3.44,0,0,0,0,.54,5.13,5.13,0,0,0,.19,1,.14.14,0,0,1,0,.06c0-.07,0-.44,0-.46.07-.33.38-.92.76-1a.44.44,0,0,1,.48.44.9.9,0,0,1-.4.67,3.17,3.17,0,0,1-.87.32,9.15,9.15,0,0,0,.37.94l.35.67c0-.09,0-.43,0-.46.07-.32.39-.92.76-1a.44.44,0,0,1,.48.45.88.88,0,0,1-.4.66,3,3,0,0,1-.86.32,3,3,0,0,0,.16.31c.18.33.36.66.53,1,.06.11.11.23.17.34,0-.13,0-.37,0-.39.07-.32.38-.91.76-1a.44.44,0,0,1,.48.45.91.91,0,0,1-.4.66,2.69,2.69,0,0,1-.84.32c.09.19.18.39.25.58a2.5,2.5,0,0,1,.09.25l.08.24c0,.17.09.33.13.49a1.89,1.89,0,0,1,.05.23c0-.13,0-.35,0-.36,0-.34.24-1,.6-1.07a.45.45,0,0,1,.55.37.94.94,0,0,1-.3.72,3.09,3.09,0,0,1-.8.45c0,.19.09.37.12.55.12.55.19,1,.24,1.34s.07.52.07.52h0a.14.14,0,0,1-.12.15.13.13,0,0,1-.14-.12S355.43,391.8,355.39,391.48Z" style="fill:#92E3A9"></path><path d="M352.71,382.67a3.33,3.33,0,0,1-.93-.09,1,1,0,0,1-.56-.54.44.44,0,0,1,.36-.55c.37-.06.83.43,1,.73C352.57,382.25,352.72,382.67,352.71,382.67Z" style="fill:#92E3A9"></path><path d="M355.78,391.47c.14-.29.35-.71.57-1.22.06-.15.13-.31.19-.48a3.11,3.11,0,0,1-.77-.49.9.9,0,0,1-.25-.73.44.44,0,0,1,.56-.34c.36.12.55.77.54,1.1,0,0,0,.27-.05.4l.12-.3c.06-.15.11-.31.17-.47l.07-.24a2.33,2.33,0,0,0,.07-.25l.09-.38a2.79,2.79,0,0,1-.8-.36.89.89,0,0,1-.36-.68.44.44,0,0,1,.51-.42c.37.06.65.67.7,1v.17c0-.13.05-.26.06-.38.06-.37.1-.74.14-1.11a1.94,1.94,0,0,0,0-.24,3.06,3.06,0,0,1-.81-.36.94.94,0,0,1-.37-.69.46.46,0,0,1,.51-.42c.37.07.66.68.7,1,0,0,0,.09,0,.19a6,6,0,0,1,.09-.61,8.68,8.68,0,0,1,.23-1,3.14,3.14,0,0,1-.84-.37.93.93,0,0,1-.36-.69.44.44,0,0,1,.51-.41c.37.06.65.67.7,1,0,0,0,.32,0,.43h0a5.67,5.67,0,0,1,.41-.93,7,7,0,0,1,.48-.78c.16-.23.33-.43.47-.61l.22-.27h0s.12-.43.13-.45c.14-.31.58-.82.95-.78a.45.45,0,0,1,.38.54,1,1,0,0,1-.54.56,2.85,2.85,0,0,1-.89.13l-.23.28c-.14.18-.3.39-.45.62l-.13.2.24-.24c.26-.21.89-.46,1.2-.26a.44.44,0,0,1,.09.65.92.92,0,0,1-.74.26,3.18,3.18,0,0,1-.86-.29c-.09.15-.18.3-.27.47a5.64,5.64,0,0,0-.38.93l0,.05.29-.36c.24-.24.83-.56,1.17-.39a.44.44,0,0,1,.15.64.92.92,0,0,1-.7.33,3.19,3.19,0,0,1-.91-.2,7.38,7.38,0,0,0-.21,1l-.09.75a3.42,3.42,0,0,1,.29-.36c.23-.24.83-.56,1.16-.39a.44.44,0,0,1,.16.64.94.94,0,0,1-.71.33,3.48,3.48,0,0,1-.9-.2l0,.34c0,.37-.07.75-.11,1.12,0,.12,0,.25-.05.37l.24-.3c.24-.24.83-.56,1.17-.39a.44.44,0,0,1,.15.64.92.92,0,0,1-.7.33,3,3,0,0,1-.88-.19c0,.21-.07.41-.11.62a2.33,2.33,0,0,1-.07.25L357,389l-.16.47c0,.08-.06.16-.08.23.06-.12.17-.3.18-.32.2-.27.74-.67,1.09-.56a.44.44,0,0,1,.25.61.88.88,0,0,1-.64.43,2.71,2.71,0,0,1-.92-.06l-.21.53c-.21.52-.41.95-.55,1.25s-.23.47-.23.47h0a.14.14,0,0,1-.18.06.13.13,0,0,1,0-.18S355.63,391.77,355.78,391.47Z" style="fill:#92E3A9"></path><path d="M358.45,382.67a3.28,3.28,0,0,1-.72-.59.89.89,0,0,1-.17-.75.44.44,0,0,1,.6-.27c.34.16.46.82.41,1.15C358.57,382.23,358.46,382.67,358.45,382.67Z" style="fill:#92E3A9"></path></g><g id="freepik--building-2--inject-1--inject-359"><rect x="323.84" y="392.21" width="125.94" height="6.81" style="fill:#fff;stroke:#263238;stroke-linecap:round;stroke-linejoin:round"></rect><line x1="409.62" y1="392.45" x2="409.62" y2="396.43" style="fill:none;stroke:#263238;stroke-linecap:round;stroke-linejoin:round;stroke-width:0.75px"></line><line x1="412.22" y1="392.45" x2="412.22" y2="394.6" style="fill:none;stroke:#263238;stroke-linecap:round;stroke-linejoin:round;stroke-width:0.75px"></line><line x1="414.82" y1="392.45" x2="414.82" y2="394.6" style="fill:none;stroke:#263238;stroke-linecap:round;stroke-linejoin:round;stroke-width:0.75px"></line><line x1="417.42" y1="392.45" x2="417.42" y2="397.97" style="fill:none;stroke:#263238;stroke-linecap:round;stroke-linejoin:round;stroke-width:0.75px"></line><line x1="420.54" y1="392.45" x2="420.54" y2="395.03" style="fill:none;stroke:#263238;stroke-linecap:round;stroke-linejoin:round;stroke-width:0.75px"></line><rect x="361.03" y="298.95" width="29.09" height="13.97" style="fill:#263238;stroke:#263238;stroke-linecap:round;stroke-linejoin:round"></rect><rect x="380.05" y="298.95" width="10.06" height="13.97" style="fill:#fff;stroke:#263238;stroke-linecap:round;stroke-linejoin:round"></rect><polygon points="349.9 320.01 349.9 291.82 262.59 291.82 262.59 399.02 320.01 399.02 349.9 399.02 407.32 399.02 407.32 320.01 349.9 320.01" style="fill:#92E3A9;stroke:#263238;stroke-linecap:round;stroke-linejoin:round"></polygon><rect x="395.73" y="320.01" width="11.59" height="79.01" style="fill:#fff;stroke:#263238;stroke-linecap:round;stroke-linejoin:round"></rect><rect x="349.74" y="313.99" width="57.49" height="16.29" style="fill:#263238;stroke:#263238;stroke-linecap:round;stroke-linejoin:round"></rect><rect x="292.38" y="292.59" width="57.49" height="16.29" style="fill:#263238;stroke:#263238;stroke-linecap:round;stroke-linejoin:round"></rect><rect x="252.65" y="288.67" width="100.89" height="16.29" style="fill:#fff;stroke:#263238;stroke-linecap:round;stroke-linejoin:round"></rect><rect x="349.74" y="310.24" width="62.78" height="16.29" style="fill:#fff;stroke:#263238;stroke-linecap:round;stroke-linejoin:round"></rect><line x1="325.44" y1="288.97" x2="325.44" y2="295.41" style="fill:none;stroke:#263238;stroke-linecap:round;stroke-linejoin:round;stroke-width:0.75px"></line><line x1="328.04" y1="288.97" x2="328.04" y2="295.41" style="fill:none;stroke:#263238;stroke-linecap:round;stroke-linejoin:round;stroke-width:0.75px"></line><line x1="328.04" y1="297.15" x2="328.04" y2="302.08" style="fill:none;stroke:#263238;stroke-linecap:round;stroke-linejoin:round;stroke-width:0.75px"></line><line x1="330.65" y1="288.97" x2="330.65" y2="295.41" style="fill:none;stroke:#263238;stroke-linecap:round;stroke-linejoin:round;stroke-width:0.75px"></line><line x1="330.65" y1="297.43" x2="330.65" y2="302" style="fill:none;stroke:#263238;stroke-linecap:round;stroke-linejoin:round;stroke-width:0.75px"></line><line x1="333.07" y1="297.43" x2="333.07" y2="300.31" style="fill:none;stroke:#263238;stroke-linecap:round;stroke-linejoin:round;stroke-width:0.75px"></line><line x1="333.25" y1="288.97" x2="333.25" y2="295.41" style="fill:none;stroke:#263238;stroke-linecap:round;stroke-linejoin:round;stroke-width:0.75px"></line><line x1="336.2" y1="293.78" x2="336.2" y2="295.41" style="fill:none;stroke:#263238;stroke-linecap:round;stroke-linejoin:round;stroke-width:0.75px"></line><line x1="336.37" y1="288.97" x2="336.37" y2="292.63" style="fill:none;stroke:#263238;stroke-linecap:round;stroke-linejoin:round;stroke-width:0.75px"></line><line x1="325.44" y1="296.71" x2="325.44" y2="300.53" style="fill:none;stroke:#263238;stroke-linecap:round;stroke-linejoin:round;stroke-width:0.75px"></line><line x1="352.4" y1="310.32" x2="352.4" y2="316.77" style="fill:none;stroke:#263238;stroke-linecap:round;stroke-linejoin:round;stroke-width:0.75px"></line><line x1="355" y1="310.32" x2="355" y2="316.77" style="fill:none;stroke:#263238;stroke-linecap:round;stroke-linejoin:round;stroke-width:0.75px"></line><line x1="355" y1="318.51" x2="355" y2="323.44" style="fill:none;stroke:#263238;stroke-linecap:round;stroke-linejoin:round;stroke-width:0.75px"></line><line x1="357.6" y1="310.32" x2="357.6" y2="316.77" style="fill:none;stroke:#263238;stroke-linecap:round;stroke-linejoin:round;stroke-width:0.75px"></line><line x1="357.6" y1="318.79" x2="357.6" y2="323.35" style="fill:none;stroke:#263238;stroke-linecap:round;stroke-linejoin:round;stroke-width:0.75px"></line><line x1="360.03" y1="318.79" x2="360.03" y2="321.67" style="fill:none;stroke:#263238;stroke-linecap:round;stroke-linejoin:round;stroke-width:0.75px"></line><line x1="360.2" y1="310.32" x2="360.2" y2="316.77" style="fill:none;stroke:#263238;stroke-linecap:round;stroke-linejoin:round;stroke-width:0.75px"></line><line x1="363.15" y1="315.14" x2="363.15" y2="316.77" style="fill:none;stroke:#263238;stroke-linecap:round;stroke-linejoin:round;stroke-width:0.75px"></line><line x1="363.32" y1="310.32" x2="363.32" y2="313.99" style="fill:none;stroke:#263238;stroke-linecap:round;stroke-linejoin:round;stroke-width:0.75px"></line><line x1="352.4" y1="318.07" x2="352.4" y2="321.89" style="fill:none;stroke:#263238;stroke-linecap:round;stroke-linejoin:round;stroke-width:0.75px"></line><rect x="326.65" y="339.94" width="19.25" height="17.48" style="fill:#fff"></rect><g style="clip-path:url(#freepik--clip-path--inject-1--inject-359)"><g style="opacity:0.6000000000000001;mix-blend-mode:multiply"><polyline points="326.65 353.29 326.65 356.75 345.9 341.11 345.9 339.94 343.08 339.94" style="fill:#92E3A9"></polyline><polyline points="345.9 348.38 345.9 344.92 330.51 357.43 334.77 357.43" style="fill:#92E3A9"></polyline></g></g><rect x="326.65" y="339.94" width="19.25" height="17.48" style="fill:none;stroke:#263238;stroke-linecap:round;stroke-linejoin:round"></rect><rect x="326.65" y="334.91" width="19.25" height="7.6" style="fill:#fff;stroke:#263238;stroke-linecap:round;stroke-linejoin:round"></rect><rect x="353.81" y="339.94" width="19.25" height="17.48" style="fill:#fff"></rect><g style="clip-path:url(#freepik--clip-path-2--inject-1--inject-359)"><g style="opacity:0.6000000000000001;mix-blend-mode:multiply"><polygon points="370.24 339.94 353.81 353.29 353.81 356.75 373.06 341.11 373.06 339.94 370.24 339.94" style="fill:#92E3A9"></polygon><polygon points="361.92 357.43 373.06 348.38 373.06 344.92 357.66 357.43 361.92 357.43" style="fill:#92E3A9"></polygon></g></g><rect x="353.81" y="339.94" width="19.25" height="17.48" style="fill:none;stroke:#263238;stroke-linecap:round;stroke-linejoin:round"></rect><rect x="353.81" y="334.91" width="19.25" height="7.6" style="fill:#fff;stroke:#263238;stroke-linecap:round;stroke-linejoin:round"></rect><rect x="380.96" y="339.94" width="19.25" height="17.48" style="fill:#fff"></rect><g style="clip-path:url(#freepik--clip-path-3--inject-1--inject-359)"><g style="opacity:0.6000000000000001;mix-blend-mode:multiply"><polygon points="397.39 339.94 380.96 353.29 380.96 356.75 400.21 341.11 400.21 339.94 397.39 339.94" style="fill:#92E3A9"></polygon><polygon points="389.08 357.43 400.21 348.38 400.21 344.92 384.82 357.43 389.08 357.43" style="fill:#92E3A9"></polygon></g></g><rect x="380.96" y="339.94" width="19.25" height="17.48" style="fill:none;stroke:#263238;stroke-linecap:round;stroke-linejoin:round"></rect><rect x="380.96" y="334.91" width="19.25" height="7.6" style="fill:#fff;stroke:#263238;stroke-linecap:round;stroke-linejoin:round"></rect><rect x="326.65" y="369.39" width="19.25" height="17.48" style="fill:#fff"></rect><g style="clip-path:url(#freepik--clip-path-4--inject-1--inject-359)"><g style="opacity:0.6000000000000001;mix-blend-mode:multiply"><polyline points="326.65 382.74 326.65 386.19 345.9 370.56 345.9 369.39 343.08 369.39" style="fill:#92E3A9"></polyline><polyline points="345.9 377.83 345.9 374.37 330.51 386.87 334.77 386.87" style="fill:#92E3A9"></polyline></g></g><rect x="326.65" y="369.39" width="19.25" height="17.48" style="fill:none;stroke:#263238;stroke-linecap:round;stroke-linejoin:round"></rect><rect x="326.65" y="364.35" width="19.25" height="7.6" style="fill:#fff;stroke:#263238;stroke-linecap:round;stroke-linejoin:round"></rect><rect x="353.81" y="369.39" width="19.25" height="17.48" style="fill:#fff"></rect><g style="clip-path:url(#freepik--clip-path-5--inject-1--inject-359)"><g style="opacity:0.6000000000000001;mix-blend-mode:multiply"><polyline points="353.81 382.74 353.81 386.19 373.06 370.56 373.06 369.39 370.24 369.39" style="fill:#92E3A9"></polyline><polyline points="357.66 386.87 361.92 386.87 373.06 377.83 373.06 374.37" style="fill:#92E3A9"></polyline></g></g><rect x="353.81" y="369.39" width="19.25" height="17.48" style="fill:none;stroke:#263238;stroke-linecap:round;stroke-linejoin:round"></rect><rect x="353.81" y="364.35" width="19.25" height="7.6" style="fill:#fff;stroke:#263238;stroke-linecap:round;stroke-linejoin:round"></rect><rect x="380.96" y="369.39" width="19.25" height="17.48" style="fill:#fff"></rect><g style="clip-path:url(#freepik--clip-path-6--inject-1--inject-359)"><g style="opacity:0.6000000000000001;mix-blend-mode:multiply"><polygon points="397.39 369.39 380.96 382.74 380.96 386.19 400.21 370.56 400.21 369.39 397.39 369.39" style="fill:#92E3A9"></polygon><polygon points="389.08 386.87 400.21 377.83 400.21 374.37 384.82 386.87 389.08 386.87" style="fill:#92E3A9"></polygon></g></g><rect x="380.96" y="369.39" width="19.25" height="17.48" style="fill:none;stroke:#263238;stroke-linecap:round;stroke-linejoin:round"></rect><rect x="380.96" y="364.35" width="19.25" height="7.6" style="fill:#fff;stroke:#263238;stroke-linecap:round;stroke-linejoin:round"></rect></g><g id="freepik--building-1--inject-1--inject-359"><rect x="95.34" y="282.1" width="22.57" height="20.04" style="fill:#92E3A9;stroke:#263238;stroke-linecap:round;stroke-linejoin:round"></rect><rect x="105.56" y="282.1" width="22.57" height="20.04" style="fill:#263238;stroke:#263238;stroke-linecap:round;stroke-linejoin:round"></rect><rect x="96.51" y="308.95" width="89.01" height="90.07" style="fill:#263238;stroke:#263238;stroke-linecap:round;stroke-linejoin:round"></rect><rect x="90.83" y="299.11" width="94.7" height="16.29" style="fill:#263238"></rect><rect x="133.22" y="265.44" width="27.49" height="25.66" style="fill:#263238"></rect><polygon points="146.97 250.93 130.32 265.95 163.62 265.95 146.97 250.93" style="fill:#92E3A9;stroke:#263238;stroke-linecap:round;stroke-linejoin:round"></polygon><polygon points="163.62 265.95 146.97 250.93 137.89 265.95 163.62 265.95" style="fill:#263238"></polygon><rect x="134.11" y="287.07" width="1.93" height="15.47" style="fill:#263238"></rect><rect x="157.31" y="287.07" width="1.93" height="15.47" style="fill:#263238"></rect><rect x="144.61" y="287.07" width="1.93" height="15.47" style="fill:#263238"></rect><rect x="148.2" y="287.07" width="1.93" height="15.47" style="fill:#263238"></rect><rect x="99.85" y="320.01" width="4.7" height="18.79" style="fill:#fff;stroke:#263238;stroke-linecap:round;stroke-linejoin:round"></rect><rect x="99.85" y="349.76" width="4.7" height="18.79" style="fill:#fff;stroke:#263238;stroke-linecap:round;stroke-linejoin:round"></rect><rect x="171.11" y="143.47" width="151.65" height="255.55" style="fill:#263238;stroke:#263238;stroke-linecap:round;stroke-linejoin:round"></rect><rect x="235.44" y="143.47" width="87.32" height="255.55" style="fill:#fff;stroke:#263238;stroke-linecap:round;stroke-linejoin:round"></rect><rect x="245.58" y="143.47" width="67.04" height="255.55" style="fill:#92E3A9;stroke:#263238;stroke-linecap:round;stroke-linejoin:round"></rect><rect x="235.44" y="143.47" width="87.32" height="17.5" style="fill:#263238;stroke:#263238;stroke-linecap:round;stroke-linejoin:round"></rect><rect x="257.89" y="367.61" width="42.42" height="31.41" style="fill:#fff"></rect><g style="clip-path:url(#freepik--clip-path-7--inject-1--inject-359)"><g style="opacity:0.6000000000000001;mix-blend-mode:multiply"><polygon points="276.47 377.83 258.31 394.36 258.31 398.85 258.6 398.85 279.13 380.16 279.13 377.83 276.47 377.83" style="fill:#92E3A9"></polygon><polygon points="269.59 398.85 279.13 390.16 279.13 385.4 264.36 398.85 269.59 398.85" style="fill:#92E3A9"></polygon></g></g><rect x="257.89" y="367.61" width="42.42" height="31.41" style="fill:none;stroke:#263238;stroke-linecap:round;stroke-linejoin:round"></rect><rect x="279.1" y="367.61" width="21.21" height="31.41" style="fill:#fff"></rect><g style="clip-path:url(#freepik--clip-path-8--inject-1--inject-359)"><g style="opacity:0.6000000000000001;mix-blend-mode:multiply"><polygon points="297.29 377.83 279.13 394.36 279.13 398.85 279.42 398.85 299.95 380.16 299.95 377.83 297.29 377.83" style="fill:#92E3A9"></polygon><polygon points="290.41 398.85 299.95 390.16 299.95 385.4 285.18 398.85 290.41 398.85" style="fill:#92E3A9"></polygon></g></g><rect x="279.1" y="367.61" width="21.21" height="31.41" style="fill:none;stroke:#263238;stroke-linecap:round;stroke-linejoin:round"></rect><rect x="181.19" y="172.14" width="19.25" height="17.48" style="fill:#fff"></rect><g style="clip-path:url(#freepik--clip-path-9--inject-1--inject-359)"><g style="opacity:0.6000000000000001;mix-blend-mode:multiply"><polyline points="200.44 173.31 200.44 172.14 197.62 172.14 181.19 185.48 181.19 188.94" style="fill:#92E3A9"></polyline><polyline points="200.44 180.58 200.44 177.12 185.04 189.62 189.3 189.62" style="fill:#92E3A9"></polyline></g></g><rect x="181.19" y="172.14" width="19.25" height="17.48" style="fill:none;stroke:#263238;stroke-linecap:round;stroke-linejoin:round"></rect><rect x="181.19" y="167.1" width="19.25" height="7.6" style="fill:#fff;stroke:#263238;stroke-linecap:round;stroke-linejoin:round"></rect><rect x="208.71" y="172.14" width="19.25" height="17.48" style="fill:#fff"></rect><g style="clip-path:url(#freepik--clip-path-10--inject-1--inject-359)"><g style="opacity:0.6000000000000001;mix-blend-mode:multiply"><polyline points="208.71 185.48 208.71 188.94 227.96 173.31 227.96 172.14 225.14 172.14" style="fill:#92E3A9"></polyline><polyline points="227.96 180.58 227.96 177.12 212.56 189.62 216.82 189.62" style="fill:#92E3A9"></polyline></g></g><rect x="208.71" y="172.14" width="19.25" height="17.48" style="fill:none;stroke:#263238;stroke-linecap:round;stroke-linejoin:round"></rect><rect x="208.71" y="167.1" width="19.25" height="7.6" style="fill:#fff;stroke:#263238;stroke-linecap:round;stroke-linejoin:round"></rect><rect x="181.19" y="205.7" width="19.25" height="17.48" style="fill:#fff"></rect><g style="clip-path:url(#freepik--clip-path-11--inject-1--inject-359)"><g style="opacity:0.6000000000000001;mix-blend-mode:multiply"><polyline points="181.19 219.05 181.19 222.5 200.44 206.87 200.44 205.7 197.62 205.7" style="fill:#92E3A9"></polyline><polyline points="200.44 214.14 200.44 210.68 185.04 223.18 189.3 223.18" style="fill:#92E3A9"></polyline></g></g><rect x="181.19" y="205.7" width="19.25" height="17.48" style="fill:none;stroke:#263238;stroke-linecap:round;stroke-linejoin:round"></rect><rect x="181.19" y="200.66" width="19.25" height="7.6" style="fill:#fff;stroke:#263238;stroke-linecap:round;stroke-linejoin:round"></rect><rect x="208.71" y="205.7" width="19.25" height="17.48" style="fill:#fff"></rect><g style="clip-path:url(#freepik--clip-path-12--inject-1--inject-359)"><g style="opacity:0.6000000000000001;mix-blend-mode:multiply"><polyline points="227.96 206.87 227.96 205.7 225.14 205.7 208.71 219.05 208.71 222.5" style="fill:#92E3A9"></polyline><polyline points="212.56 223.18 216.82 223.18 227.96 214.14 227.96 210.68" style="fill:#92E3A9"></polyline></g></g><rect x="208.71" y="205.7" width="19.25" height="17.48" style="fill:none;stroke:#263238;stroke-linecap:round;stroke-linejoin:round"></rect><rect x="208.71" y="200.66" width="19.25" height="7.6" style="fill:#fff;stroke:#263238;stroke-linecap:round;stroke-linejoin:round"></rect><rect x="181.19" y="239.26" width="19.25" height="17.48" style="fill:#fff"></rect><g style="clip-path:url(#freepik--clip-path-13--inject-1--inject-359)"><g style="opacity:0.6000000000000001;mix-blend-mode:multiply"><polyline points="181.19 252.61 181.19 256.07 200.44 240.43 200.44 239.26 197.62 239.26" style="fill:#92E3A9"></polyline><polyline points="200.44 247.7 200.44 244.24 185.04 256.74 189.3 256.74" style="fill:#92E3A9"></polyline></g></g><rect x="181.19" y="239.26" width="19.25" height="17.48" style="fill:none;stroke:#263238;stroke-linecap:round;stroke-linejoin:round"></rect><rect x="181.19" y="234.23" width="19.25" height="7.6" style="fill:#fff;stroke:#263238;stroke-linecap:round;stroke-linejoin:round"></rect><rect x="208.71" y="239.26" width="19.25" height="17.48" style="fill:#fff"></rect><g style="clip-path:url(#freepik--clip-path-14--inject-1--inject-359)"><g style="opacity:0.6000000000000001;mix-blend-mode:multiply"><polyline points="208.71 252.61 208.71 256.07 227.96 240.43 227.96 239.26 225.14 239.26" style="fill:#92E3A9"></polyline><polyline points="212.56 256.74 216.82 256.74 227.96 247.7 227.96 244.24" style="fill:#92E3A9"></polyline></g></g><rect x="208.71" y="239.26" width="19.25" height="17.48" style="fill:none;stroke:#263238;stroke-linecap:round;stroke-linejoin:round"></rect><rect x="208.71" y="234.23" width="19.25" height="7.6" style="fill:#fff;stroke:#263238;stroke-linecap:round;stroke-linejoin:round"></rect><rect x="181.19" y="272.82" width="19.25" height="17.48" style="fill:#fff"></rect><g style="clip-path:url(#freepik--clip-path-15--inject-1--inject-359)"><g style="opacity:0.6000000000000001;mix-blend-mode:multiply"><polygon points="197.62 272.82 181.19 286.17 181.19 289.63 200.44 273.99 200.44 272.82 197.62 272.82" style="fill:#92E3A9"></polygon><polygon points="189.3 290.31 200.44 281.26 200.44 277.8 185.04 290.31 189.3 290.31" style="fill:#92E3A9"></polygon></g></g><rect x="181.19" y="272.82" width="19.25" height="17.48" style="fill:none;stroke:#263238;stroke-linecap:round;stroke-linejoin:round"></rect><rect x="181.19" y="267.79" width="19.25" height="7.6" style="fill:#fff;stroke:#263238;stroke-linecap:round;stroke-linejoin:round"></rect><rect x="208.71" y="272.82" width="19.25" height="17.48" style="fill:#fff"></rect><g style="clip-path:url(#freepik--clip-path-16--inject-1--inject-359)"><g style="opacity:0.6000000000000001;mix-blend-mode:multiply"><polyline points="208.71 286.17 208.71 289.63 227.96 273.99 227.96 272.82 225.14 272.82" style="fill:#92E3A9"></polyline><polyline points="212.56 290.31 216.82 290.31 227.96 281.26 227.96 277.8" style="fill:#92E3A9"></polyline></g></g><rect x="208.71" y="272.82" width="19.25" height="17.48" style="fill:none;stroke:#263238;stroke-linecap:round;stroke-linejoin:round"></rect><rect x="208.71" y="267.79" width="19.25" height="7.6" style="fill:#fff;stroke:#263238;stroke-linecap:round;stroke-linejoin:round"></rect><rect x="181.19" y="306.38" width="19.25" height="17.48" style="fill:#fff"></rect><g style="clip-path:url(#freepik--clip-path-17--inject-1--inject-359)"><g style="opacity:0.6000000000000001;mix-blend-mode:multiply"><polygon points="197.62 306.38 181.19 319.73 181.19 323.19 200.44 307.55 200.44 306.38 197.62 306.38" style="fill:#92E3A9"></polygon><polygon points="189.3 323.87 200.44 314.82 200.44 311.36 185.04 323.87 189.3 323.87" style="fill:#92E3A9"></polygon></g></g><rect x="181.19" y="306.38" width="19.25" height="17.48" style="fill:none;stroke:#263238;stroke-linecap:round;stroke-linejoin:round"></rect><rect x="181.19" y="301.35" width="19.25" height="7.6" style="fill:#fff;stroke:#263238;stroke-linecap:round;stroke-linejoin:round"></rect><rect x="208.71" y="306.38" width="19.25" height="17.48" style="fill:#fff"></rect><g style="clip-path:url(#freepik--clip-path-18--inject-1--inject-359)"><g style="opacity:0.6000000000000001;mix-blend-mode:multiply"><polygon points="225.14 306.38 208.71 319.73 208.71 323.19 227.96 307.55 227.96 306.38 225.14 306.38" style="fill:#92E3A9"></polygon><polygon points="216.82 323.87 227.96 314.82 227.96 311.36 212.56 323.87 216.82 323.87" style="fill:#92E3A9"></polygon></g></g><rect x="208.71" y="306.38" width="19.25" height="17.48" style="fill:none;stroke:#263238;stroke-linecap:round;stroke-linejoin:round"></rect><rect x="208.71" y="301.35" width="19.25" height="7.6" style="fill:#fff;stroke:#263238;stroke-linecap:round;stroke-linejoin:round"></rect><rect x="181.19" y="339.94" width="19.25" height="17.48" style="fill:#fff"></rect><g style="clip-path:url(#freepik--clip-path-19--inject-1--inject-359)"><g style="opacity:0.6000000000000001;mix-blend-mode:multiply"><polygon points="197.62 339.94 181.19 353.29 181.19 356.75 200.44 341.11 200.44 339.94 197.62 339.94" style="fill:#92E3A9"></polygon><polygon points="189.3 357.43 200.44 348.38 200.44 344.92 185.04 357.43 189.3 357.43" style="fill:#92E3A9"></polygon></g></g><rect x="181.19" y="339.94" width="19.25" height="17.48" style="fill:none;stroke:#263238;stroke-linecap:round;stroke-linejoin:round"></rect><rect x="181.19" y="334.91" width="19.25" height="7.6" style="fill:#fff;stroke:#263238;stroke-linecap:round;stroke-linejoin:round"></rect><rect x="208.71" y="339.94" width="19.25" height="17.48" style="fill:#fff"></rect><g style="clip-path:url(#freepik--clip-path-20--inject-1--inject-359)"><g style="opacity:0.6000000000000001;mix-blend-mode:multiply"><polygon points="225.14 339.94 208.71 353.29 208.71 356.75 227.96 341.11 227.96 339.94 225.14 339.94" style="fill:#92E3A9"></polygon><polygon points="216.82 357.43 227.96 348.38 227.96 344.92 212.56 357.43 216.82 357.43" style="fill:#92E3A9"></polygon></g></g><rect x="208.71" y="339.94" width="19.25" height="17.48" style="fill:none;stroke:#263238;stroke-linecap:round;stroke-linejoin:round"></rect><rect x="208.71" y="334.91" width="19.25" height="7.6" style="fill:#fff;stroke:#263238;stroke-linecap:round;stroke-linejoin:round"></rect><rect x="242.49" y="172.14" width="19.25" height="17.48" style="fill:#fff"></rect><g style="clip-path:url(#freepik--clip-path-21--inject-1--inject-359)"><g style="opacity:0.6000000000000001;mix-blend-mode:multiply"><polyline points="242.49 185.48 242.49 188.94 261.74 173.31 261.74 172.14 258.92 172.14" style="fill:#92E3A9"></polyline><polyline points="261.74 180.58 261.74 177.12 246.35 189.62 250.61 189.62" style="fill:#92E3A9"></polyline></g></g><rect x="242.49" y="172.14" width="19.25" height="17.48" style="fill:none;stroke:#263238;stroke-linecap:round;stroke-linejoin:round"></rect><rect x="242.49" y="167.1" width="19.25" height="7.6" style="fill:#fff;stroke:#263238;stroke-linecap:round;stroke-linejoin:round"></rect><rect x="270.01" y="172.14" width="19.25" height="17.48" style="fill:#fff"></rect><g style="clip-path:url(#freepik--clip-path-22--inject-1--inject-359)"><g style="opacity:0.6000000000000001;mix-blend-mode:multiply"><polyline points="289.26 173.31 289.26 172.14 286.44 172.14 270.01 185.48 270.01 188.94" style="fill:#92E3A9"></polyline><polyline points="289.26 180.58 289.26 177.12 273.87 189.62 278.13 189.62" style="fill:#92E3A9"></polyline></g></g><rect x="270.01" y="172.14" width="19.25" height="17.48" style="fill:none;stroke:#263238;stroke-linecap:round;stroke-linejoin:round"></rect><rect x="270.01" y="167.1" width="19.25" height="7.6" style="fill:#fff;stroke:#263238;stroke-linecap:round;stroke-linejoin:round"></rect><rect x="297.53" y="172.14" width="19.25" height="17.48" style="fill:#fff"></rect><g style="clip-path:url(#freepik--clip-path-23--inject-1--inject-359)"><g style="opacity:0.6000000000000001;mix-blend-mode:multiply"><polyline points="297.53 185.48 297.53 188.94 316.78 173.31 316.78 172.14 313.96 172.14" style="fill:#92E3A9"></polyline><polyline points="301.39 189.62 305.65 189.62 316.78 180.58 316.78 177.12" style="fill:#92E3A9"></polyline></g></g><rect x="297.53" y="172.14" width="19.25" height="17.48" style="fill:none;stroke:#263238;stroke-linecap:round;stroke-linejoin:round"></rect><rect x="297.53" y="167.1" width="19.25" height="7.6" style="fill:#fff;stroke:#263238;stroke-linecap:round;stroke-linejoin:round"></rect><rect x="242.49" y="205.7" width="19.25" height="17.48" style="fill:#fff"></rect><g style="clip-path:url(#freepik--clip-path-24--inject-1--inject-359)"><g style="opacity:0.6000000000000001;mix-blend-mode:multiply"><polyline points="242.49 219.05 242.49 222.5 261.74 206.87 261.74 205.7 258.92 205.7" style="fill:#92E3A9"></polyline><polyline points="246.35 223.18 250.61 223.18 261.74 214.14 261.74 210.68" style="fill:#92E3A9"></polyline></g></g><rect x="242.49" y="205.7" width="19.25" height="17.48" style="fill:none;stroke:#263238;stroke-linecap:round;stroke-linejoin:round"></rect><rect x="242.49" y="200.66" width="19.25" height="7.6" style="fill:#fff;stroke:#263238;stroke-linecap:round;stroke-linejoin:round"></rect><rect x="270.01" y="205.7" width="19.25" height="17.48" style="fill:#fff"></rect><g style="clip-path:url(#freepik--clip-path-25--inject-1--inject-359)"><g style="opacity:0.6000000000000001;mix-blend-mode:multiply"><polyline points="270.01 219.05 270.01 222.5 289.26 206.87 289.26 205.7 286.44 205.7" style="fill:#92E3A9"></polyline><polyline points="273.87 223.18 278.13 223.18 289.26 214.14 289.26 210.68" style="fill:#92E3A9"></polyline></g></g><rect x="270.01" y="205.7" width="19.25" height="17.48" style="fill:none;stroke:#263238;stroke-linecap:round;stroke-linejoin:round"></rect><rect x="270.01" y="200.66" width="19.25" height="7.6" style="fill:#fff;stroke:#263238;stroke-linecap:round;stroke-linejoin:round"></rect><rect x="297.53" y="205.7" width="19.25" height="17.48" style="fill:#fff"></rect><g style="clip-path:url(#freepik--clip-path-26--inject-1--inject-359)"><g style="opacity:0.6000000000000001;mix-blend-mode:multiply"><polyline points="297.53 219.05 297.53 222.5 316.78 206.87 316.78 205.7 313.96 205.7" style="fill:#92E3A9"></polyline><polyline points="316.78 214.14 316.78 210.68 301.39 223.18 305.65 223.18" style="fill:#92E3A9"></polyline></g></g><rect x="297.53" y="205.7" width="19.25" height="17.48" style="fill:none;stroke:#263238;stroke-linecap:round;stroke-linejoin:round"></rect><rect x="297.53" y="200.66" width="19.25" height="7.6" style="fill:#fff;stroke:#263238;stroke-linecap:round;stroke-linejoin:round"></rect><rect x="242.49" y="239.26" width="19.25" height="17.48" style="fill:#fff"></rect><g style="clip-path:url(#freepik--clip-path-27--inject-1--inject-359)"><g style="opacity:0.6000000000000001;mix-blend-mode:multiply"><polyline points="242.49 252.61 242.49 256.07 261.74 240.43 261.74 239.26 258.92 239.26" style="fill:#92E3A9"></polyline><polyline points="261.74 247.7 261.74 244.24 246.35 256.74 250.61 256.74" style="fill:#92E3A9"></polyline></g></g><rect x="242.49" y="239.26" width="19.25" height="17.48" style="fill:none;stroke:#263238;stroke-linecap:round;stroke-linejoin:round"></rect><rect x="242.49" y="234.23" width="19.25" height="7.6" style="fill:#fff;stroke:#263238;stroke-linecap:round;stroke-linejoin:round"></rect><rect x="270.01" y="239.26" width="19.25" height="17.48" style="fill:#fff"></rect><g style="clip-path:url(#freepik--clip-path-28--inject-1--inject-359)"><g style="opacity:0.6000000000000001;mix-blend-mode:multiply"><polyline points="270.01 252.61 270.01 256.07 289.26 240.43 289.26 239.26 286.44 239.26" style="fill:#92E3A9"></polyline><polyline points="289.26 247.7 289.26 244.24 273.87 256.74 278.13 256.74" style="fill:#92E3A9"></polyline></g></g><rect x="270.01" y="239.26" width="19.25" height="17.48" style="fill:none;stroke:#263238;stroke-linecap:round;stroke-linejoin:round"></rect><rect x="270.01" y="234.23" width="19.25" height="7.6" style="fill:#fff;stroke:#263238;stroke-linecap:round;stroke-linejoin:round"></rect><rect x="297.53" y="239.26" width="19.25" height="17.48" style="fill:#fff"></rect><g style="clip-path:url(#freepik--clip-path-29--inject-1--inject-359)"><g style="opacity:0.6000000000000001;mix-blend-mode:multiply"><polyline points="297.53 252.61 297.53 256.07 316.78 240.43 316.78 239.26 313.96 239.26" style="fill:#92E3A9"></polyline><polyline points="301.39 256.74 305.65 256.74 316.78 247.7 316.78 244.24" style="fill:#92E3A9"></polyline></g></g><rect x="297.53" y="239.26" width="19.25" height="17.48" style="fill:none;stroke:#263238;stroke-linecap:round;stroke-linejoin:round"></rect><rect x="297.53" y="234.23" width="19.25" height="7.6" style="fill:#fff;stroke:#263238;stroke-linecap:round;stroke-linejoin:round"></rect><rect x="242.49" y="272.82" width="19.25" height="17.48" style="fill:#fff"></rect><g style="clip-path:url(#freepik--clip-path-30--inject-1--inject-359)"><g style="opacity:0.6000000000000001;mix-blend-mode:multiply"><polygon points="258.92 272.82 242.49 286.17 242.49 289.63 261.74 273.99 261.74 272.82 258.92 272.82" style="fill:#92E3A9"></polygon><polygon points="250.61 290.31 261.74 281.26 261.74 277.8 246.35 290.31 250.61 290.31" style="fill:#92E3A9"></polygon></g></g><rect x="242.49" y="272.82" width="19.25" height="17.48" style="fill:none;stroke:#263238;stroke-linecap:round;stroke-linejoin:round"></rect><rect x="242.49" y="267.79" width="19.25" height="7.6" style="fill:#fff;stroke:#263238;stroke-linecap:round;stroke-linejoin:round"></rect><rect x="270.01" y="272.82" width="19.25" height="17.48" style="fill:#fff"></rect><g style="clip-path:url(#freepik--clip-path-31--inject-1--inject-359)"><g style="opacity:0.6000000000000001;mix-blend-mode:multiply"><polyline points="270.01 286.17 270.01 289.63 289.26 273.99 289.26 272.82 286.44 272.82" style="fill:#92E3A9"></polyline><polyline points="289.26 281.26 289.26 277.8 273.87 290.31 278.13 290.31" style="fill:#92E3A9"></polyline></g></g><rect x="270.01" y="272.82" width="19.25" height="17.48" style="fill:none;stroke:#263238;stroke-linecap:round;stroke-linejoin:round"></rect><rect x="270.01" y="267.79" width="19.25" height="7.6" style="fill:#fff;stroke:#263238;stroke-linecap:round;stroke-linejoin:round"></rect><rect x="297.53" y="272.82" width="19.25" height="17.48" style="fill:#fff"></rect><g style="clip-path:url(#freepik--clip-path-32--inject-1--inject-359)"><g style="opacity:0.6000000000000001;mix-blend-mode:multiply"><polyline points="297.53 286.17 297.53 289.63 316.78 273.99 316.78 272.82 313.96 272.82" style="fill:#92E3A9"></polyline><polyline points="301.39 290.31 305.65 290.31 316.78 281.26 316.78 277.8" style="fill:#92E3A9"></polyline></g></g><rect x="297.53" y="272.82" width="19.25" height="17.48" style="fill:none;stroke:#263238;stroke-linecap:round;stroke-linejoin:round"></rect><rect x="297.53" y="267.79" width="19.25" height="7.6" style="fill:#fff;stroke:#263238;stroke-linecap:round;stroke-linejoin:round"></rect><rect x="242.49" y="306.38" width="19.25" height="17.48" style="fill:#fff"></rect><g style="clip-path:url(#freepik--clip-path-33--inject-1--inject-359)"><g style="opacity:0.6000000000000001;mix-blend-mode:multiply"><polygon points="258.92 306.38 242.49 319.73 242.49 323.19 261.74 307.55 261.74 306.38 258.92 306.38" style="fill:#92E3A9"></polygon><polygon points="250.61 323.87 261.74 314.82 261.74 311.36 246.35 323.87 250.61 323.87" style="fill:#92E3A9"></polygon></g></g><rect x="242.49" y="306.38" width="19.25" height="17.48" style="fill:none;stroke:#263238;stroke-linecap:round;stroke-linejoin:round"></rect><rect x="242.49" y="301.35" width="19.25" height="7.6" style="fill:#fff;stroke:#263238;stroke-linecap:round;stroke-linejoin:round"></rect><rect x="270.01" y="306.38" width="19.25" height="17.48" style="fill:#fff"></rect><g style="clip-path:url(#freepik--clip-path-34--inject-1--inject-359)"><g style="opacity:0.6000000000000001;mix-blend-mode:multiply"><polygon points="286.44 306.38 270.01 319.73 270.01 323.19 289.26 307.55 289.26 306.38 286.44 306.38" style="fill:#92E3A9"></polygon><polygon points="278.13 323.87 289.26 314.82 289.26 311.36 273.87 323.87 278.13 323.87" style="fill:#92E3A9"></polygon></g></g><rect x="270.01" y="306.38" width="19.25" height="17.48" style="fill:none;stroke:#263238;stroke-linecap:round;stroke-linejoin:round"></rect><rect x="270.01" y="301.35" width="19.25" height="7.6" style="fill:#fff;stroke:#263238;stroke-linecap:round;stroke-linejoin:round"></rect><rect x="297.53" y="306.38" width="19.25" height="17.48" style="fill:#fff"></rect><g style="clip-path:url(#freepik--clip-path-35--inject-1--inject-359)"><g style="opacity:0.6000000000000001;mix-blend-mode:multiply"><polyline points="316.78 307.55 316.78 306.38 313.96 306.38 297.53 319.73 297.53 323.19" style="fill:#92E3A9"></polyline><polyline points="301.39 323.87 305.65 323.87 316.78 314.82 316.78 311.36" style="fill:#92E3A9"></polyline></g></g><rect x="297.53" y="306.38" width="19.25" height="17.48" style="fill:none;stroke:#263238;stroke-linecap:round;stroke-linejoin:round"></rect><rect x="297.53" y="301.35" width="19.25" height="7.6" style="fill:#fff;stroke:#263238;stroke-linecap:round;stroke-linejoin:round"></rect><rect x="242.49" y="339.94" width="19.25" height="17.48" style="fill:#fff"></rect><g style="clip-path:url(#freepik--clip-path-36--inject-1--inject-359)"><g style="opacity:0.6000000000000001;mix-blend-mode:multiply"><polygon points="258.92 339.94 242.49 353.29 242.49 356.75 261.74 341.11 261.74 339.94 258.92 339.94" style="fill:#92E3A9"></polygon><polygon points="250.61 357.43 261.74 348.38 261.74 344.92 246.35 357.43 250.61 357.43" style="fill:#92E3A9"></polygon></g></g><rect x="242.49" y="339.94" width="19.25" height="17.48" style="fill:none;stroke:#263238;stroke-linecap:round;stroke-linejoin:round"></rect><rect x="242.49" y="334.91" width="19.25" height="7.6" style="fill:#fff;stroke:#263238;stroke-linecap:round;stroke-linejoin:round"></rect><rect x="270.01" y="339.94" width="19.25" height="17.48" style="fill:#fff"></rect><g style="clip-path:url(#freepik--clip-path-37--inject-1--inject-359)"><g style="opacity:0.6000000000000001;mix-blend-mode:multiply"><polygon points="286.44 339.94 270.01 353.29 270.01 356.75 289.26 341.11 289.26 339.94 286.44 339.94" style="fill:#92E3A9"></polygon><polygon points="278.13 357.43 289.26 348.38 289.26 344.92 273.87 357.43 278.13 357.43" style="fill:#92E3A9"></polygon></g></g><rect x="270.01" y="339.94" width="19.25" height="17.48" style="fill:none;stroke:#263238;stroke-linecap:round;stroke-linejoin:round"></rect><rect x="270.01" y="334.91" width="19.25" height="7.6" style="fill:#fff;stroke:#263238;stroke-linecap:round;stroke-linejoin:round"></rect><rect x="297.53" y="339.94" width="19.25" height="17.48" style="fill:#fff"></rect><g style="clip-path:url(#freepik--clip-path-38--inject-1--inject-359)"><g style="opacity:0.6000000000000001;mix-blend-mode:multiply"><polygon points="313.96 339.94 297.53 353.29 297.53 356.75 316.78 341.11 316.78 339.94 313.96 339.94" style="fill:#92E3A9"></polygon><polygon points="305.65 357.43 316.78 348.38 316.78 344.92 301.39 357.43 305.65 357.43" style="fill:#92E3A9"></polygon></g></g><rect x="297.53" y="339.94" width="19.25" height="17.48" style="fill:none;stroke:#263238;stroke-linecap:round;stroke-linejoin:round"></rect><rect x="297.53" y="334.91" width="19.25" height="7.6" style="fill:#fff;stroke:#263238;stroke-linecap:round;stroke-linejoin:round"></rect><rect x="241.55" y="367.56" width="74.99" height="9.51" style="fill:#263238;stroke:#263238;stroke-linecap:round;stroke-linejoin:round"></rect><rect x="241.55" y="364.81" width="74.99" height="9.51" style="fill:#fff;stroke:#263238;stroke-linecap:round;stroke-linejoin:round"></rect><rect x="171.03" y="130.32" width="40.85" height="25.18" style="fill:#263238;stroke:#263238;stroke-linecap:round;stroke-linejoin:round"></rect><rect x="197.75" y="130.32" width="14.14" height="25.18" style="fill:#fff;stroke:#263238;stroke-linecap:round;stroke-linejoin:round"></rect><rect x="298.63" y="136.47" width="16.79" height="19.03" style="fill:#263238;stroke:#263238;stroke-linecap:round;stroke-linejoin:round"></rect><rect x="167.42" y="143.47" width="159.03" height="12.04" style="fill:#263238;stroke:#263238;stroke-linecap:round;stroke-linejoin:round"></rect><rect x="231.35" y="143.47" width="95.1" height="12.04" style="fill:#fff;stroke:#263238;stroke-linecap:round;stroke-linejoin:round"></rect><line x1="235.44" y1="143.47" x2="235.44" y2="148.52" style="fill:none;stroke:#263238;stroke-linecap:round;stroke-linejoin:round;stroke-width:0.75px"></line><line x1="238.04" y1="143.47" x2="238.04" y2="148.52" style="fill:none;stroke:#263238;stroke-linecap:round;stroke-linejoin:round;stroke-width:0.75px"></line><line x1="238.04" y1="149.88" x2="238.04" y2="153.74" style="fill:none;stroke:#263238;stroke-linecap:round;stroke-linejoin:round;stroke-width:0.75px"></line><line x1="240.65" y1="143.47" x2="240.65" y2="148.52" style="fill:none;stroke:#263238;stroke-linecap:round;stroke-linejoin:round;stroke-width:0.75px"></line><line x1="240.65" y1="150.1" x2="240.65" y2="153.68" style="fill:none;stroke:#263238;stroke-linecap:round;stroke-linejoin:round;stroke-width:0.75px"></line><line x1="243.07" y1="150.1" x2="243.07" y2="152.36" style="fill:none;stroke:#263238;stroke-linecap:round;stroke-linejoin:round;stroke-width:0.75px"></line><line x1="243.25" y1="143.47" x2="243.25" y2="148.52" style="fill:none;stroke:#263238;stroke-linecap:round;stroke-linejoin:round;stroke-width:0.75px"></line><line x1="246.2" y1="147.24" x2="246.2" y2="148.52" style="fill:none;stroke:#263238;stroke-linecap:round;stroke-linejoin:round;stroke-width:0.75px"></line><line x1="246.37" y1="143.47" x2="246.37" y2="146.34" style="fill:none;stroke:#263238;stroke-linecap:round;stroke-linejoin:round;stroke-width:0.75px"></line><line x1="235.44" y1="149.54" x2="235.44" y2="152.53" style="fill:none;stroke:#263238;stroke-linecap:round;stroke-linejoin:round;stroke-width:0.75px"></line><path d="M131.45,392.57s8.36-2.76,6-.62a11.18,11.18,0,0,1-1,.83H111.72l-.75-1.51-.18-.36-.3-.61,3-2L110.32,390l-.83-1.87.64-6.29-1,5.73-.61-1.53-2.77-5.3,4.5,10-6.44-2.56,6.71,3.11.78,1.58H84.59c-1.46-.16-3.51-.58-3.88-1.75-.6-1.83,5.67-1.83,5.67-1.83s-6.57-2.76-4.18-3.37,6.57,1.83,6.57,1.83-2.39-5.51.59-4.29a6.15,6.15,0,0,1,3.44,3.52c-.32-1.08-.92-3.63.74-2.9a6.25,6.25,0,0,1,2.52,2.32c-.8-1.64-1.5-4.08,2-3.24,0,0-.73-7.52,7.16-8.89s7.47,9.5,10.15,11.65,6-.31,7.17,2.14.89,3.68.89,3.68,4.48-11.95,5.08-8.58a9.78,9.78,0,0,1-1.5,6.43s7.17-9.5,5.68-5.82a42.92,42.92,0,0,1-3.29,6.44s9.85-2.46,8.36-.92S131.45,392.57,131.45,392.57Z" style="fill:#92E3A9"></path><path d="M119.61,390.84c.07-.55.17-1.34.35-2.28.05-.27.1-.55.17-.85a5.09,5.09,0,0,0,1.55,0,1.6,1.6,0,0,0,1-.8.76.76,0,0,0-.48-1c-.61-.16-1.48.58-1.79,1.06,0,0-.21.41-.3.61,0-.18.08-.35.12-.54s.13-.54.19-.81.09-.28.13-.42.09-.27.13-.42l.24-.61a5.2,5.2,0,0,0,1.46.23,1.57,1.57,0,0,0,1.15-.64.75.75,0,0,0-.32-1.07c-.58-.25-1.55.35-1.93.78l-.16.23.27-.6c.27-.57.57-1.13.86-1.7l.18-.36a4.73,4.73,0,0,0,1.49.24,1.55,1.55,0,0,0,1.16-.63.75.75,0,0,0-.33-1.07c-.58-.25-1.55.35-1.92.77,0,0-.1.13-.19.27.16-.32.31-.63.44-.94a12.43,12.43,0,0,0,.62-1.66,5.22,5.22,0,0,0,1.54.25,1.53,1.53,0,0,0,1.15-.63.75.75,0,0,0-.32-1.07c-.58-.25-1.55.35-1.93.77l-.42.61h0a11,11,0,0,0,.3-1.71,14.06,14.06,0,0,0,.05-1.56c0-.48-.05-.92-.08-1.3,0-.21,0-.41-.07-.58h0s.23-.73.24-.77c.1-.56,0-1.69-.6-2a.76.76,0,0,0-1,.42,1.57,1.57,0,0,0,.23,1.29,4.85,4.85,0,0,0,1.13,1c0,.19,0,.39.06.61,0,.39,0,.83,0,1.3,0,.13,0,.27,0,.4,0-.22-.1-.53-.11-.56-.17-.54-.82-1.48-1.45-1.48a.74.74,0,0,0-.73.84,1.6,1.6,0,0,0,.8,1.05,4.88,4.88,0,0,0,1.48.38c0,.3,0,.6-.06.91a9.55,9.55,0,0,1-.34,1.69l0,.09c0-.11,0-.74-.06-.79-.11-.55-.65-1.56-1.28-1.63a.74.74,0,0,0-.81.76,1.55,1.55,0,0,0,.67,1.13,5.31,5.31,0,0,0,1.47.55,13.12,13.12,0,0,1-.63,1.59c-.18.39-.38.77-.58,1.15,0-.15,0-.74-.06-.78-.11-.55-.65-1.56-1.27-1.63a.75.75,0,0,0-.82.76,1.54,1.54,0,0,0,.68,1.12,4.94,4.94,0,0,0,1.46.56c-.1.17-.19.34-.28.51-.3.57-.61,1.13-.9,1.69-.09.2-.18.39-.28.59,0-.22,0-.63,0-.67-.11-.55-.65-1.56-1.28-1.63a.74.74,0,0,0-.81.76,1.53,1.53,0,0,0,.68,1.13,5,5,0,0,0,1.4.54c-.15.33-.29.66-.41,1,0,.15-.11.29-.15.43l-.13.42c-.08.29-.16.55-.22.82s-.07.27-.1.4c0-.23,0-.59,0-.62,0-.57-.4-1.64-1-1.81a.74.74,0,0,0-.92.63,1.55,1.55,0,0,0,.5,1.22,5.57,5.57,0,0,0,1.35.76c-.08.32-.15.64-.21.94-.2.94-.32,1.74-.4,2.29s-.12.88-.12.88h0a.22.22,0,0,0,.2.24.22.22,0,0,0,.24-.2S119.54,391.39,119.61,390.84Z" style="fill:#92E3A9"></path><path d="M124.12,375.84a5.56,5.56,0,0,0,1.57-.16,1.56,1.56,0,0,0,.94-.92.74.74,0,0,0-.59-.94c-.63-.09-1.41.74-1.65,1.25C124.37,375.12,124.11,375.84,124.12,375.84Z" style="fill:#92E3A9"></path><path d="M119,390.83c-.25-.49-.59-1.21-1-2.09-.11-.25-.22-.52-.33-.8a5.26,5.26,0,0,0,1.3-.84,1.58,1.58,0,0,0,.43-1.25.75.75,0,0,0-1-.57c-.6.2-.91,1.3-.9,1.86,0,0,0,.47.08.68-.06-.17-.13-.33-.2-.51s-.19-.52-.28-.79l-.13-.41c-.05-.14-.08-.28-.12-.43s-.09-.42-.14-.64a4.79,4.79,0,0,0,1.34-.61,1.59,1.59,0,0,0,.62-1.17.75.75,0,0,0-.86-.71c-.63.11-1.1,1.14-1.18,1.7,0,0,0,.14,0,.28,0-.21-.08-.42-.11-.64-.08-.62-.15-1.26-.22-1.89,0-.14,0-.27,0-.4a4.93,4.93,0,0,0,1.38-.62,1.59,1.59,0,0,0,.62-1.17.75.75,0,0,0-.86-.71c-.63.11-1.1,1.14-1.18,1.7,0,0,0,.17,0,.33,0-.35-.09-.69-.15-1a13.47,13.47,0,0,0-.4-1.72,5.27,5.27,0,0,0,1.42-.64,1.53,1.53,0,0,0,.61-1.17.75.75,0,0,0-.86-.71c-.62.11-1.1,1.15-1.17,1.71,0,0,0,.56,0,.74v0a9.53,9.53,0,0,0-.69-1.59,13.14,13.14,0,0,0-.81-1.32c-.27-.4-.55-.74-.79-1.05l-.38-.45h0s-.21-.73-.23-.78c-.23-.51-1-1.38-1.6-1.32a.75.75,0,0,0-.63.92,1.58,1.58,0,0,0,.9,1,5,5,0,0,0,1.51.22l.38.48c.24.31.5.66.76,1.06.07.1.14.22.21.33l-.4-.4c-.44-.36-1.5-.79-2-.44a.75.75,0,0,0-.14,1.1,1.58,1.58,0,0,0,1.25.44,5.28,5.28,0,0,0,1.45-.5c.15.25.3.51.44.8a9,9,0,0,1,.65,1.58.44.44,0,0,1,0,.1c-.06-.09-.45-.59-.48-.62-.4-.4-1.4-.95-2-.66a.75.75,0,0,0-.26,1.08,1.55,1.55,0,0,0,1.19.57,5,5,0,0,0,1.53-.35,12.81,12.81,0,0,1,.35,1.68c.06.42.11.84.15,1.27l-.48-.61c-.4-.41-1.4-1-2-.66a.75.75,0,0,0-.27,1.08,1.56,1.56,0,0,0,1.19.57,5.06,5.06,0,0,0,1.52-.34l.06.58c.06.63.11,1.27.18,1.9l.09.65c-.13-.18-.39-.5-.41-.53-.4-.4-1.4-.94-2-.66a.77.77,0,0,0-.26,1.09,1.57,1.57,0,0,0,1.19.56,4.78,4.78,0,0,0,1.47-.32c.06.35.12.71.2,1.05,0,.15.07.3.11.44l.12.42.27.81c.05.13.1.25.14.38-.11-.2-.29-.52-.31-.54-.33-.46-1.24-1.15-1.84-.95a.75.75,0,0,0-.42,1,1.57,1.57,0,0,0,1.09.74,4.85,4.85,0,0,0,1.55-.11c.11.32.23.62.34.9.36.9.69,1.63.93,2.14s.39.8.39.8h0a.22.22,0,1,0,.39-.21S119.21,391.33,119,390.83Z" style="fill:#92E3A9"></path><path d="M114.45,375.83a5.15,5.15,0,0,0,1.22-1,1.55,1.55,0,0,0,.28-1.28.74.74,0,0,0-1-.46c-.58.27-.76,1.39-.69,2C114.26,375.09,114.44,375.84,114.45,375.83Z" style="fill:#92E3A9"></path><path d="M232.84,392.51s10.67-3.52,7.62-.78a16.09,16.09,0,0,1-1.28,1H207.66l-.95-1.92-.23-.47-.38-.78,3.78-2.6-4,2.16-1.06-2.39.82-8-1.29,7.32-.78-2L200,377.35l5.74,12.71-8.22-3.27,8.57,4,1,2H173c-1.85-.2-4.47-.74-4.95-2.23-.76-2.34,7.24-2.34,7.24-2.34s-8.38-3.52-5.33-4.3,8.38,2.34,8.38,2.34-3-7,.76-5.47a7.77,7.77,0,0,1,4.38,4.48c-.4-1.38-1.17-4.63.95-3.7a8.1,8.1,0,0,1,3.21,3c-1-2.09-1.91-5.2,2.5-4.13,0,0-.93-9.59,9.14-11.34s9.53,12.12,13,14.86,7.62-.4,9.15,2.73,1.14,4.69,1.14,4.69,5.71-15.24,6.47-10.94-1.9,8.21-1.9,8.21,9.14-12.12,7.24-7.43a54.78,54.78,0,0,1-4.19,8.21s12.57-3.13,10.66-1.17S232.84,392.51,232.84,392.51Z" style="fill:#92E3A9"></path><path d="M217.73,390.3c.09-.7.23-1.71.45-2.9.06-.35.13-.71.21-1.09a6.61,6.61,0,0,0,2,0,2,2,0,0,0,1.33-1,1,1,0,0,0-.61-1.28c-.78-.21-1.89.74-2.28,1.34,0,0-.27.53-.39.79.05-.23.1-.45.15-.69s.17-.69.25-1c.06-.18.11-.36.16-.54s.12-.35.17-.53.2-.53.31-.79a6,6,0,0,0,1.86.3,2,2,0,0,0,1.47-.82,1,1,0,0,0-.41-1.36c-.74-.32-2,.45-2.46,1l-.21.29c.11-.25.23-.51.35-.76.34-.72.72-1.45,1.09-2.17l.23-.46a6.56,6.56,0,0,0,1.91.31,2,2,0,0,0,1.47-.81,1,1,0,0,0-.41-1.36c-.74-.32-2,.44-2.46,1l-.24.34q.3-.6.57-1.2a16.37,16.37,0,0,0,.78-2.11,6.78,6.78,0,0,0,2,.32,2,2,0,0,0,1.47-.81,1,1,0,0,0-.42-1.36c-.74-.32-2,.44-2.45,1l-.54.78v0a12.47,12.47,0,0,0,.38-2.18,15,15,0,0,0,.06-2,16.13,16.13,0,0,0-.1-1.67c0-.27,0-.51-.08-.74h0s.29-.93.3-1c.13-.72-.05-2.16-.76-2.54a1,1,0,0,0-1.32.53,2,2,0,0,0,.28,1.66,6.6,6.6,0,0,0,1.45,1.3c0,.24.05.49.07.77,0,.5.07,1.06.07,1.67,0,.16,0,.34,0,.51,0-.29-.13-.68-.14-.72-.21-.69-1-1.89-1.84-1.9a1,1,0,0,0-.93,1.08,2,2,0,0,0,1,1.34,6.36,6.36,0,0,0,1.89.49c0,.38,0,.76-.09,1.16a11.53,11.53,0,0,1-.43,2.15l0,.12c0-.15-.06-.95-.08-1-.14-.7-.82-2-1.62-2.08a1,1,0,0,0-1,1,2,2,0,0,0,.86,1.44,6.78,6.78,0,0,0,1.87.71,17.77,17.77,0,0,1-.8,2c-.23.49-.48,1-.74,1.46,0-.2-.07-.94-.08-1-.14-.7-.82-2-1.63-2.08a1,1,0,0,0-1,1,2,2,0,0,0,.87,1.44,6.93,6.93,0,0,0,1.86.71l-.35.66c-.39.71-.78,1.43-1.14,2.15q-.19.38-.36.75c0-.29-.06-.81-.07-.85-.14-.71-.83-2-1.63-2.09a1,1,0,0,0-1,1,2,2,0,0,0,.86,1.45,6.25,6.25,0,0,0,1.8.68c-.19.42-.37.84-.53,1.26-.07.18-.14.37-.19.55s-.12.35-.17.53c-.1.37-.2.71-.28,1.05,0,.18-.08.34-.12.51,0-.29.05-.76.05-.8,0-.72-.51-2.09-1.29-2.31a1,1,0,0,0-1.18.8,2,2,0,0,0,.64,1.56,6.82,6.82,0,0,0,1.72,1c-.09.41-.19.82-.26,1.2-.25,1.2-.41,2.21-.52,2.92s-.14,1.12-.14,1.12h0a.29.29,0,0,0,.26.31.28.28,0,0,0,.31-.26S217.64,391,217.73,390.3Z" style="fill:#92E3A9"></path><path d="M223.49,371.17a6.84,6.84,0,0,0,2-.21,2,2,0,0,0,1.2-1.17,1,1,0,0,0-.75-1.21c-.8-.11-1.8,1-2.11,1.6C223.8,370.24,223.47,371.16,223.49,371.17Z" style="fill:#92E3A9"></path><path d="M216.91,390.3c-.32-.64-.76-1.55-1.23-2.68q-.21-.48-.42-1a6.74,6.74,0,0,0,1.66-1.07,2,2,0,0,0,.54-1.59,1,1,0,0,0-1.22-.73c-.76.26-1.16,1.66-1.15,2.38,0,0,.07.59.11.86-.09-.21-.17-.42-.26-.65s-.24-.67-.36-1-.11-.36-.17-.53-.09-.36-.14-.54-.12-.55-.18-.83a6.26,6.26,0,0,0,1.71-.78,2,2,0,0,0,.78-1.49,1,1,0,0,0-1.1-.91c-.79.14-1.4,1.47-1.5,2.18,0,0,0,.18,0,.36-.05-.28-.1-.55-.14-.83-.1-.79-.19-1.6-.28-2.41l-.06-.51a6.12,6.12,0,0,0,1.76-.79,2,2,0,0,0,.78-1.49,1,1,0,0,0-1.09-.91c-.8.14-1.41,1.46-1.51,2.18,0,0,0,.21,0,.41-.06-.44-.12-.88-.19-1.31a18.6,18.6,0,0,0-.51-2.2,6.56,6.56,0,0,0,1.81-.81,2,2,0,0,0,.78-1.49,1,1,0,0,0-1.09-.91c-.8.14-1.41,1.47-1.51,2.18,0,.05,0,.71,0,.95v0a13,13,0,0,0-.89-2,16.23,16.23,0,0,0-1-1.68c-.34-.51-.69-.95-1-1.34l-.48-.57h0s-.28-.94-.3-1c-.29-.66-1.23-1.76-2-1.68a.93.93,0,0,0-.8,1.16,2,2,0,0,0,1.15,1.23,6.44,6.44,0,0,0,1.92.29c.15.18.32.38.49.6.3.4.64.84,1,1.36.09.13.18.28.27.43-.2-.22-.48-.5-.51-.53-.56-.45-1.91-1-2.59-.56a1,1,0,0,0-.18,1.41,2,2,0,0,0,1.59.56,6.6,6.6,0,0,0,1.85-.63c.19.32.39.65.57,1a12,12,0,0,1,.82,2s0,.08,0,.12c-.09-.12-.58-.75-.62-.79-.51-.52-1.79-1.21-2.51-.85a1,1,0,0,0-.33,1.39,2,2,0,0,0,1.51.72,6.63,6.63,0,0,0,2-.44,15.89,15.89,0,0,1,.45,2.14c.08.53.14,1.07.19,1.62-.11-.16-.57-.75-.61-.78-.51-.52-1.79-1.21-2.51-.85a1,1,0,0,0-.33,1.39,2,2,0,0,0,1.52.72,6.56,6.56,0,0,0,1.94-.44c0,.25,0,.5.07.75.07.81.14,1.62.23,2.43,0,.27.07.54.12.82l-.53-.67c-.51-.51-1.79-1.21-2.51-.84a1,1,0,0,0-.33,1.38,2,2,0,0,0,1.51.73,6.46,6.46,0,0,0,1.88-.42c.07.45.15.9.25,1.34.05.19.09.38.14.56l.16.54c.12.36.23.7.35,1,.05.17.11.33.17.49-.14-.26-.37-.66-.39-.69-.42-.59-1.59-1.47-2.35-1.22a1,1,0,0,0-.54,1.32,2,2,0,0,0,1.39.95,6.71,6.71,0,0,0,2-.14l.44,1.15c.46,1.14.88,2.07,1.19,2.72s.49,1,.49,1h0a.29.29,0,0,0,.38.11.3.3,0,0,0,.12-.39S217.22,390.93,216.91,390.3Z" style="fill:#92E3A9"></path><path d="M211.15,371.16a7.2,7.2,0,0,0,1.56-1.28,2,2,0,0,0,.35-1.64,1,1,0,0,0-1.29-.59c-.73.35-1,1.78-.88,2.5C210.9,370.21,211.14,371.16,211.15,371.16Z" style="fill:#92E3A9"></path><path d="M138.14,392.61s-6.59-2.15-4.71-.47c.33.28.59.49.8.64h19.49l.59-1.17.14-.29.24-.48-2.34-1.59,2.47,1.32.65-1.46-.5-4.91.8,4.48.48-1.2,2.18-4.14-3.55,7.78,5.08-2-5.29,2.43-.62,1.23h21.08c1.15-.12,2.76-.45,3.06-1.36.47-1.44-4.47-1.44-4.47-1.44s5.18-2.15,3.29-2.63-5.18,1.44-5.18,1.44,1.89-4.31-.47-3.35a4.79,4.79,0,0,0-2.71,2.74c.25-.84.72-2.83-.59-2.26a5.08,5.08,0,0,0-2,1.81c.63-1.28,1.19-3.18-1.54-2.53a6.44,6.44,0,0,0-5.66-6.94c-6.22-1.07-5.89,7.42-8,9.09s-4.71-.24-5.65,1.68a4.78,4.78,0,0,0-.71,2.87s-3.53-9.33-4-6.7a7.56,7.56,0,0,0,1.18,5s-5.66-7.41-4.48-4.54a33.16,33.16,0,0,0,2.59,5s-7.77-1.91-6.59-.72S138.14,392.61,138.14,392.61Z" style="fill:#92E3A9"></path><path d="M170.59,391.27c-.05-.43-.14-1-.27-1.78,0-.21-.09-.44-.14-.67a3.92,3.92,0,0,1-1.22,0,1.23,1.23,0,0,1-.82-.63.57.57,0,0,1,.38-.78c.48-.13,1.16.45,1.4.82a5.14,5.14,0,0,1,.24.48l-.09-.42c0-.21-.1-.42-.16-.63l-.09-.33c0-.11-.07-.22-.11-.33s-.12-.32-.19-.48a3.91,3.91,0,0,1-1.15.18,1.22,1.22,0,0,1-.91-.5.58.58,0,0,1,.26-.83c.46-.2,1.22.27,1.52.6l.13.18c-.07-.15-.14-.31-.22-.46-.21-.44-.44-.89-.67-1.33l-.15-.28a4.09,4.09,0,0,1-1.18.19,1.25,1.25,0,0,1-.91-.5.59.59,0,0,1,.26-.83c.46-.2,1.22.27,1.52.6,0,0,.07.11.15.21-.13-.24-.24-.49-.35-.73a9.83,9.83,0,0,1-.49-1.3,4.08,4.08,0,0,1-1.21.2,1.2,1.2,0,0,1-.91-.5.58.58,0,0,1,.25-.83c.46-.2,1.23.27,1.52.6l.33.48h0a7.43,7.43,0,0,1-.24-1.34c0-.43,0-.83,0-1.21s0-.72.06-1,0-.31.06-.45h0s-.18-.57-.19-.61c-.07-.43,0-1.31.48-1.54a.58.58,0,0,1,.81.32,1.21,1.21,0,0,1-.17,1,4,4,0,0,1-.9.8c0,.14,0,.3,0,.47s0,.65,0,1v.31c0-.17.09-.42.09-.44.14-.42.65-1.15,1.14-1.16a.59.59,0,0,1,.58.66,1.24,1.24,0,0,1-.63.82,4,4,0,0,1-1.17.3c0,.23,0,.47.05.71a7.37,7.37,0,0,0,.27,1.32.25.25,0,0,0,0,.07c0-.09,0-.58.05-.62.09-.43.51-1.21,1-1.27a.59.59,0,0,1,.64.59,1.2,1.2,0,0,1-.53.88,4.27,4.27,0,0,1-1.16.44A9.19,9.19,0,0,0,168,383c.14.3.29.59.45.89,0-.12,0-.57,0-.61.09-.43.51-1.21,1-1.27a.59.59,0,0,1,.64.59,1.2,1.2,0,0,1-.53.88,3.94,3.94,0,0,1-1.16.43l.22.41c.24.44.48.88.71,1.32.08.15.15.3.22.45,0-.17,0-.49,0-.51.09-.44.52-1.22,1-1.28a.58.58,0,0,1,.64.59,1.2,1.2,0,0,1-.53.88,3.81,3.81,0,0,1-1.11.43c.12.25.23.51.33.76l.12.34.1.32c.06.23.12.44.17.65s0,.21.08.31c0-.18,0-.46,0-.49,0-.44.32-1.28.8-1.41a.59.59,0,0,1,.73.49,1.21,1.21,0,0,1-.39,1,4.34,4.34,0,0,1-1.07.6c.06.25.12.5.17.73.15.74.25,1.36.31,1.79s.1.69.1.69h0a.19.19,0,0,1-.16.19.17.17,0,0,1-.19-.16S170.65,391.7,170.59,391.27Z" style="fill:#92E3A9"></path><path d="M167,379.56a4.43,4.43,0,0,1-1.24-.13,1.23,1.23,0,0,1-.74-.72.58.58,0,0,1,.47-.73c.49-.07,1.1.58,1.3,1C166.84,379,167,379.56,167,379.56Z" style="fill:#92E3A9"></path><path d="M171.1,391.26c.2-.39.47-.95.76-1.63.09-.2.17-.41.26-.63a4,4,0,0,1-1-.66,1.21,1.21,0,0,1-.33-1,.59.59,0,0,1,.75-.45c.47.16.72,1,.72,1.46,0,0,0,.36-.07.53l.15-.4c.08-.2.16-.41.23-.61l.1-.33c0-.11.06-.22.09-.33s.08-.33.11-.5a4,4,0,0,1-1.05-.48,1.25,1.25,0,0,1-.49-.91.6.6,0,0,1,.68-.56c.49.09.87.9.93,1.33,0,0,0,.11,0,.22,0-.16.06-.33.08-.5.07-.49.12-1,.18-1.48l0-.31a4,4,0,0,1-1.09-.48,1.25,1.25,0,0,1-.48-.92.59.59,0,0,1,.68-.55c.49.09.87.89.93,1.33,0,0,0,.13,0,.25,0-.27.07-.53.12-.8a9.68,9.68,0,0,1,.31-1.34,4.06,4.06,0,0,1-1.12-.5,1.2,1.2,0,0,1-.48-.91.59.59,0,0,1,.67-.56c.5.09.87.9.93,1.34,0,0,0,.43,0,.58v0a7.38,7.38,0,0,1,.55-1.24,10.78,10.78,0,0,1,.64-1c.21-.31.43-.58.62-.82l.3-.35h0s.17-.57.18-.61c.18-.4.76-1.08,1.26-1a.58.58,0,0,1,.5.71,1.2,1.2,0,0,1-.71.75,4.09,4.09,0,0,1-1.19.18,4,4,0,0,0-.3.37,9,9,0,0,0-.6.83,2.33,2.33,0,0,0-.17.26l.32-.32c.34-.28,1.18-.61,1.6-.34a.58.58,0,0,1,.11.86,1.25,1.25,0,0,1-1,.34,3.93,3.93,0,0,1-1.15-.39c-.12.2-.24.4-.35.62a7.66,7.66,0,0,0-.51,1.24s0,.05,0,.08l.38-.49c.31-.31,1.11-.73,1.55-.51a.58.58,0,0,1,.21.84,1.25,1.25,0,0,1-.94.45,4.29,4.29,0,0,1-1.21-.27,9.07,9.07,0,0,0-.27,1.3c-.05.33-.09.66-.12,1,.07-.1.35-.46.38-.48.31-.32,1.1-.74,1.55-.52a.58.58,0,0,1,.2.85,1.22,1.22,0,0,1-.93.44,3.81,3.81,0,0,1-1.2-.27c0,.16,0,.31-.05.46,0,.5-.09,1-.14,1.48,0,.17-.05.34-.07.51.1-.14.3-.39.32-.41.32-.31,1.11-.74,1.55-.52a.58.58,0,0,1,.21.85,1.24,1.24,0,0,1-.94.44,3.92,3.92,0,0,1-1.16-.25,7.43,7.43,0,0,1-.16.82c0,.11-.05.23-.08.34l-.1.33-.21.63c0,.11-.08.2-.11.3.08-.16.23-.4.24-.42.26-.36,1-.9,1.46-.74a.58.58,0,0,1,.33.8,1.25,1.25,0,0,1-.86.58,4.54,4.54,0,0,1-1.22-.08c-.09.24-.18.48-.27.7-.29.7-.55,1.27-.74,1.67l-.3.62h0a.16.16,0,0,1-.23.07.17.17,0,0,1-.07-.24S170.91,391.65,171.1,391.26Z" style="fill:#92E3A9"></path><path d="M174.66,379.55a4.21,4.21,0,0,1-1-.78,1.2,1.2,0,0,1-.22-1,.59.59,0,0,1,.8-.36c.45.21.6,1.09.54,1.53C174.81,379,174.67,379.56,174.66,379.55Z" style="fill:#92E3A9"></path><path d="M147.89,391.48c0-.33-.1-.79-.21-1.34,0-.16-.06-.33-.09-.5a3.08,3.08,0,0,1-.93,0,.89.89,0,0,1-.61-.47.43.43,0,0,1,.28-.59c.36-.09.88.34,1.06.62l.18.36c0-.1,0-.21-.07-.31s-.08-.32-.12-.48l-.07-.25a2.25,2.25,0,0,0-.08-.24c0-.12-.09-.24-.14-.37a2.83,2.83,0,0,1-.87.14.92.92,0,0,1-.68-.37.44.44,0,0,1,.19-.63c.35-.15.92.2,1.14.45l.1.14a3.73,3.73,0,0,0-.16-.35c-.16-.33-.33-.67-.51-1l-.1-.21a2.82,2.82,0,0,1-.89.14.92.92,0,0,1-.69-.37.45.45,0,0,1,.19-.63c.35-.15.93.21,1.15.46l.11.15c-.09-.18-.18-.37-.26-.55a7.7,7.7,0,0,1-.37-1,3.59,3.59,0,0,1-.91.15,1,1,0,0,1-.69-.38.44.44,0,0,1,.19-.62c.35-.15.92.2,1.15.45l.25.36h0a7.68,7.68,0,0,1-.18-1,7.06,7.06,0,0,1,0-.91c0-.28,0-.54,0-.77s0-.23,0-.34h0a4.21,4.21,0,0,1-.14-.46c-.06-.33,0-1,.35-1.16a.45.45,0,0,1,.62.24.9.9,0,0,1-.14.76,2.73,2.73,0,0,1-.67.6l0,.36a6,6,0,0,0,0,.76v.24c0-.14.06-.32.07-.33.1-.32.48-.87.86-.88a.45.45,0,0,1,.43.5,1,1,0,0,1-.47.62,3.11,3.11,0,0,1-.88.22,3.44,3.44,0,0,0,0,.54,5.13,5.13,0,0,0,.19,1,.14.14,0,0,1,0,.06c0-.07,0-.44,0-.46.07-.33.38-.92.76-1a.44.44,0,0,1,.48.44.9.9,0,0,1-.4.67,3.17,3.17,0,0,1-.87.32,9.15,9.15,0,0,0,.37.94l.35.67c0-.09,0-.43,0-.46.07-.32.39-.92.76-1a.44.44,0,0,1,.48.45.88.88,0,0,1-.4.66,3,3,0,0,1-.86.32,3,3,0,0,0,.16.31c.18.33.36.66.53,1,.06.11.11.23.17.34,0-.13,0-.37,0-.39.07-.32.38-.91.76-1a.44.44,0,0,1,.48.45.91.91,0,0,1-.4.66,2.69,2.69,0,0,1-.84.32c.09.19.18.39.25.58a2.5,2.5,0,0,1,.09.25l.08.24c0,.17.09.33.13.49a1.89,1.89,0,0,1,.05.23c0-.13,0-.35,0-.36,0-.34.24-1,.6-1.07a.45.45,0,0,1,.55.37.94.94,0,0,1-.3.72,3.09,3.09,0,0,1-.8.45c0,.19.09.37.12.55.12.55.19,1,.24,1.34s.07.52.07.52h0a.14.14,0,0,1-.12.15A.13.13,0,0,1,148,392S147.93,391.8,147.89,391.48Z" style="fill:#92E3A9"></path><path d="M145.21,382.67a3.33,3.33,0,0,1-.93-.09,1,1,0,0,1-.56-.54.44.44,0,0,1,.36-.55c.37-.06.83.43,1,.73C145.07,382.25,145.22,382.67,145.21,382.67Z" style="fill:#92E3A9"></path><path d="M148.28,391.47c.14-.29.35-.71.57-1.22.06-.15.13-.31.19-.48a3.11,3.11,0,0,1-.77-.49.9.9,0,0,1-.25-.73.44.44,0,0,1,.56-.34c.36.12.55.77.54,1.1,0,0,0,.27-.05.4l.12-.3c.06-.15.11-.31.17-.47l.07-.24a2.33,2.33,0,0,0,.07-.25l.09-.38a2.79,2.79,0,0,1-.8-.36.89.89,0,0,1-.36-.68.44.44,0,0,1,.51-.42c.37.06.65.67.7,1v.17c0-.13.05-.26.06-.38.06-.37.1-.74.14-1.11a1.94,1.94,0,0,0,0-.24,3.06,3.06,0,0,1-.81-.36.94.94,0,0,1-.37-.69.46.46,0,0,1,.51-.42c.37.07.66.68.7,1,0,0,0,.09,0,.19a6,6,0,0,1,.09-.61,8.68,8.68,0,0,1,.23-1,3.14,3.14,0,0,1-.84-.37.93.93,0,0,1-.36-.69.44.44,0,0,1,.51-.41c.37.06.65.67.7,1,0,0,0,.32,0,.43h0a5.67,5.67,0,0,1,.41-.93,7,7,0,0,1,.48-.78c.16-.23.33-.43.47-.61l.22-.27h0s.13-.43.14-.45c.14-.31.58-.82,1-.78a.45.45,0,0,1,.38.54,1,1,0,0,1-.54.56,2.85,2.85,0,0,1-.89.13l-.23.28c-.14.18-.3.39-.45.62l-.13.2.24-.24c.26-.21.89-.46,1.2-.26a.44.44,0,0,1,.09.65.92.92,0,0,1-.74.26,3.06,3.06,0,0,1-.86-.29c-.09.15-.18.3-.27.47a5.64,5.64,0,0,0-.38.93l0,.05.29-.36c.24-.24.83-.56,1.17-.39a.44.44,0,0,1,.15.64.92.92,0,0,1-.7.33,3.19,3.19,0,0,1-.91-.2,7.38,7.38,0,0,0-.21,1l-.09.75a3.42,3.42,0,0,1,.29-.36c.23-.24.83-.56,1.16-.39a.44.44,0,0,1,.16.64.94.94,0,0,1-.71.33,3.48,3.48,0,0,1-.9-.2l0,.34c0,.37-.07.75-.11,1.12,0,.12,0,.25-.05.37l.24-.3c.24-.24.83-.56,1.17-.39a.44.44,0,0,1,.15.64.92.92,0,0,1-.7.33,3,3,0,0,1-.88-.19c0,.21-.07.41-.11.62a2.33,2.33,0,0,1-.07.25l-.07.25-.16.47c0,.08-.06.16-.08.23.06-.12.17-.3.18-.32.2-.27.74-.67,1.09-.56a.44.44,0,0,1,.25.61.88.88,0,0,1-.64.43,2.71,2.71,0,0,1-.92-.06l-.21.53c-.21.52-.41.95-.55,1.25s-.23.47-.23.47h0a.14.14,0,0,1-.18.06.13.13,0,0,1-.05-.18S148.13,391.77,148.28,391.47Z" style="fill:#92E3A9"></path><path d="M151,382.67a3.28,3.28,0,0,1-.72-.59.89.89,0,0,1-.17-.75.44.44,0,0,1,.6-.27c.34.16.46.82.41,1.15C151.07,382.23,151,382.67,151,382.67Z" style="fill:#92E3A9"></path><rect x="66.45" y="392.21" width="174.54" height="6.81" style="fill:#263238;stroke:#263238;stroke-linecap:round;stroke-linejoin:round"></rect><rect x="138.74" y="392.21" width="102.25" height="6.81" style="fill:#fff;stroke:#263238;stroke-linecap:round;stroke-linejoin:round"></rect><line x1="148.29" y1="396.43" x2="148.29" y2="392.45" style="fill:none;stroke:#263238;stroke-linecap:round;stroke-linejoin:round;stroke-width:0.75px"></line><line x1="150.89" y1="392.45" x2="150.89" y2="394.6" style="fill:none;stroke:#263238;stroke-linecap:round;stroke-linejoin:round;stroke-width:0.75px"></line><line x1="153.49" y1="392.45" x2="153.49" y2="394.6" style="fill:none;stroke:#263238;stroke-linecap:round;stroke-linejoin:round;stroke-width:0.75px"></line><line x1="156.09" y1="392.45" x2="156.09" y2="397.97" style="fill:none;stroke:#263238;stroke-linecap:round;stroke-linejoin:round;stroke-width:0.75px"></line><line x1="159.21" y1="392.45" x2="159.21" y2="395.03" style="fill:none;stroke:#263238;stroke-linecap:round;stroke-linejoin:round;stroke-width:0.75px"></line><line x1="221.12" y1="392.45" x2="221.12" y2="396.43" style="fill:none;stroke:#263238;stroke-linecap:round;stroke-linejoin:round;stroke-width:0.75px"></line><line x1="223.72" y1="392.45" x2="223.72" y2="394.6" style="fill:none;stroke:#263238;stroke-linecap:round;stroke-linejoin:round;stroke-width:0.75px"></line><line x1="226.32" y1="392.45" x2="226.32" y2="394.6" style="fill:none;stroke:#263238;stroke-linecap:round;stroke-linejoin:round;stroke-width:0.75px"></line><line x1="228.93" y1="392.45" x2="228.93" y2="397.97" style="fill:none;stroke:#263238;stroke-linecap:round;stroke-linejoin:round;stroke-width:0.75px"></line><line x1="232.05" y1="392.45" x2="232.05" y2="395.03" style="fill:none;stroke:#263238;stroke-linecap:round;stroke-linejoin:round;stroke-width:0.75px"></line></g></svg>