<svg xmlns="http://www.w3.org/2000/svg" viewBox="0 0 500 500"><g id="freepik--background-complete--inject-12"><path d="M125.62,325.16l10.85,2.3-10.85,3.17a3.88,3.88,0,0,0-2.72,2.94l-2.71,13-3-12.75a3.9,3.9,0,0,0-2.93-2.91l-10.85-2.47,11.15-3.14a3.89,3.89,0,0,0,2.77-3l2.49-12.5,2.81,12.42A3.88,3.88,0,0,0,125.62,325.16Z" style="fill:#e0e0e0"></path><path d="M75.4,418.34l5.69,1.2-5.7,1.67A2,2,0,0,0,74,422.75l-1.43,6.82L71,422.87a2,2,0,0,0-1.54-1.52l-5.69-1.3,5.85-1.65a2.05,2.05,0,0,0,1.46-1.57l1.3-6.56,1.47,6.52A2.05,2.05,0,0,0,75.4,418.34Z" style="fill:#e0e0e0"></path><path d="M155.63,314.24l3.3.7-3.3,1a1.16,1.16,0,0,0-.83.89l-.83,4-.91-3.89a1.19,1.19,0,0,0-.9-.88l-3.3-.75,3.4-1a1.2,1.2,0,0,0,.84-.91l.76-3.81.85,3.78A1.21,1.21,0,0,0,155.63,314.24Z" style="fill:#e0e0e0"></path><path d="M171.94,381.13l3.31.69-3.31,1a1.19,1.19,0,0,0-.83.9l-.82,3.95-.91-3.88a1.22,1.22,0,0,0-.9-.89l-3.3-.75,3.4-1a1.18,1.18,0,0,0,.84-.91l.76-3.81.85,3.78A1.19,1.19,0,0,0,171.94,381.13Z" style="fill:#e0e0e0"></path><path d="M91.38,403.16l2.72.57-2.72.8a1,1,0,0,0-.68.73L90,408.52l-.75-3.2a1,1,0,0,0-.73-.73L85.82,404l2.79-.79a1,1,0,0,0,.7-.75l.62-3.13.7,3.11A1,1,0,0,0,91.38,403.16Z" style="fill:#e0e0e0"></path><path d="M272.17,434.05l2.72.57-2.72.79a1,1,0,0,0-.68.74l-.68,3.25-.75-3.19a1,1,0,0,0-.73-.73l-2.72-.62,2.79-.78a1,1,0,0,0,.69-.75l.63-3.13.7,3.11A1,1,0,0,0,272.17,434.05Z" style="fill:#e0e0e0"></path><path d="M199.85,245.46l2.72.58-2.72.79a1,1,0,0,0-.68.74l-.68,3.25-.75-3.19a1,1,0,0,0-.73-.73l-2.72-.62,2.79-.79a1,1,0,0,0,.7-.75l.62-3.13.7,3.11A1,1,0,0,0,199.85,245.46Z" style="fill:#e0e0e0"></path><path d="M451.72,334.47l2.72.58-2.72.79a1,1,0,0,0-.68.74l-.68,3.25-.75-3.19a1,1,0,0,0-.74-.73l-2.71-.62,2.79-.79a.94.94,0,0,0,.69-.74l.63-3.14.7,3.11A1,1,0,0,0,451.72,334.47Z" style="fill:#e0e0e0"></path><path d="M406.66,256.31l2.72.57-2.72.8a1,1,0,0,0-.68.73l-.68,3.26-.75-3.2a1,1,0,0,0-.74-.73l-2.71-.61,2.79-.79a1,1,0,0,0,.69-.75l.63-3.13.7,3.11A1,1,0,0,0,406.66,256.31Z" style="fill:#e0e0e0"></path><path d="M313,106.11l2.71.58-2.71.79a1,1,0,0,0-.68.74l-.68,3.25-.75-3.19a1,1,0,0,0-.74-.73l-2.72-.62,2.8-.79a1,1,0,0,0,.69-.75l.62-3.13.71,3.11A1,1,0,0,0,313,106.11Z" style="fill:#e0e0e0"></path><path d="M199.92,392.54l5.5,1.17-5.5,1.6a2,2,0,0,0-1.38,1.5l-1.38,6.58-1.52-6.46a2,2,0,0,0-1.48-1.48l-5.51-1.25,5.66-1.6a2,2,0,0,0,1.41-1.51l1.26-6.34,1.42,6.3A2,2,0,0,0,199.92,392.54Z" style="fill:#e0e0e0"></path><path d="M211.55,272.76l5.5,1.16-5.5,1.61a2,2,0,0,0-1.38,1.49l-1.37,6.59-1.52-6.47a2,2,0,0,0-1.49-1.47l-5.5-1.25,5.66-1.6a2,2,0,0,0,1.4-1.52l1.26-6.34,1.42,6.3A2,2,0,0,0,211.55,272.76Z" style="fill:#e0e0e0"></path><path d="M288.32,72.84l5.5,1.16-5.5,1.61a2,2,0,0,0-1.39,1.5l-1.37,6.58L284,77.22a2,2,0,0,0-1.49-1.47l-5.5-1.25,5.66-1.6a2,2,0,0,0,1.4-1.51l1.26-6.34,1.43,6.29A2,2,0,0,0,288.32,72.84Z" style="fill:#e0e0e0"></path><path d="M445.77,208.44l9.45,2-9.45,2.76a3.4,3.4,0,0,0-2.38,2.57L441,227.08,438.42,216a3.41,3.41,0,0,0-2.56-2.53l-9.45-2.15,9.72-2.74a3.41,3.41,0,0,0,2.41-2.61l2.17-10.9,2.45,10.82A3.4,3.4,0,0,0,445.77,208.44Z" style="fill:#e0e0e0"></path><rect x="71.39" y="49.96" width="88.47" height="92.23" style="fill:#e0e0e0"></rect><rect x="65.39" y="49.96" width="88.47" height="92.23" style="fill:#fafafa"></rect><path d="M153.89,142.21H65.37V49.93h88.52Zm-88.47-.05h88.42V50H65.42Z" style="fill:#e0e0e0"></path><rect x="77.29" y="62.36" width="64.69" height="67.43" style="fill:#fafafa"></rect><path d="M77.29,130.24a11.09,11.09,0,0,1-1.6,1.85c-1,1.09-2.48,2.57-4.11,4.17s-3.12,3-4.23,4.05a9.75,9.75,0,0,1-1.87,1.55A11.63,11.63,0,0,1,67.07,140c1-1.09,2.49-2.56,4.12-4.17s3.13-3,4.24-4.05A9.78,9.78,0,0,1,77.29,130.24Z" style="fill:#e0e0e0"></path><path d="M142,130.07a10.32,10.32,0,0,1,1.86,1.6c1.09,1,2.57,2.48,4.17,4.11s3,3.12,4,4.22a10.37,10.37,0,0,1,1.56,1.87,9.78,9.78,0,0,1-1.85-1.58c-1.09-1-2.57-2.49-4.17-4.12s-3-3.14-4.06-4.24A10.3,10.3,0,0,1,142,130.07Z" style="fill:#e0e0e0"></path><path d="M141.8,62.54a10.48,10.48,0,0,1,1.59-1.86c1-1.09,2.49-2.56,4.12-4.17s3.12-3,4.22-4a9.61,9.61,0,0,1,1.87-1.56A9.64,9.64,0,0,1,152,52.76c-1,1.09-2.49,2.57-4.12,4.18s-3.13,3-4.23,4.05A10.3,10.3,0,0,1,141.8,62.54Z" style="fill:#e0e0e0"></path><path d="M77.11,62.7a10.48,10.48,0,0,1-1.86-1.59c-1.09-1-2.56-2.49-4.16-4.12s-3-3.12-4-4.22a11.1,11.1,0,0,1-1.56-1.87,9.64,9.64,0,0,1,1.85,1.59c1.09,1,2.57,2.49,4.18,4.12s3,3.13,4,4.23A10.3,10.3,0,0,1,77.11,62.7Z" style="fill:#e0e0e0"></path><path d="M141.8,129.79a2.4,2.4,0,0,1,0-.33c0-.23,0-.54,0-.94,0-.85,0-2.06,0-3.64,0-3.2,0-7.84-.07-13.74,0-11.81-.07-28.64-.12-48.78l.25.25-64.51,0h0l.28-.28c0,24.75,0,47.9,0,67.43l-.24-.25,46.71.13,13.12.06,3.47,0h.89l.32,0h-.29l-.87,0-3.42,0-13.07.07L77.29,130H77v-.24c0-19.53,0-42.68,0-67.43v-.29h.29l64.51,0h.25v.25c-.06,20.21-.1,37.09-.13,48.94,0,5.87,0,10.5-.07,13.68,0,1.56,0,2.76,0,3.59,0,.39,0,.7,0,.92S141.8,129.79,141.8,129.79Z" style="fill:#e0e0e0"></path><rect x="98.84" y="85.28" width="21.58" height="21.58" style="fill:#ebebeb"></rect><rect x="71.31" y="165.15" width="88.47" height="92.23" style="fill:#e0e0e0"></rect><rect x="65.31" y="165.15" width="88.47" height="92.23" style="fill:#fafafa"></rect><path d="M153.82,257.41H65.29V165.13h88.53Zm-88.48-.06h88.42V165.18H65.34Z" style="fill:#e0e0e0"></path><rect x="77.21" y="177.55" width="64.69" height="67.43" style="fill:#fafafa"></rect><path d="M77.21,245.43a10.87,10.87,0,0,1-1.6,1.86c-1,1.09-2.48,2.56-4.11,4.17s-3.12,3-4.23,4a10.65,10.65,0,0,1-1.87,1.56A10.67,10.67,0,0,1,67,255.21c1-1.09,2.49-2.57,4.12-4.18s3.13-3,4.24-4.05A10.3,10.3,0,0,1,77.21,245.43Z" style="fill:#e0e0e0"></path><path d="M141.89,245.27a10,10,0,0,1,1.86,1.59c1.09,1,2.57,2.49,4.17,4.11s3,3.13,4,4.23a9.61,9.61,0,0,1,1.56,1.87,10.54,10.54,0,0,1-1.85-1.59c-1.09-1-2.57-2.49-4.17-4.12s-3-3.13-4.06-4.23A10.73,10.73,0,0,1,141.89,245.27Z" style="fill:#e0e0e0"></path><path d="M141.72,177.73a10.67,10.67,0,0,1,1.59-1.85c1-1.09,2.49-2.57,4.12-4.17s3.12-3,4.22-4.05a10.12,10.12,0,0,1,1.87-1.55,10.19,10.19,0,0,1-1.59,1.84c-1,1.09-2.49,2.57-4.12,4.18s-3.13,3-4.23,4.05A9.78,9.78,0,0,1,141.72,177.73Z" style="fill:#e0e0e0"></path><path d="M77,177.9a10.87,10.87,0,0,1-1.86-1.6c-1.09-1-2.56-2.48-4.16-4.11S68,169.07,67,168a10.65,10.65,0,0,1-1.56-1.87,10.67,10.67,0,0,1,1.85,1.59c1.09,1,2.57,2.49,4.18,4.12s3,3.13,4,4.24A9.78,9.78,0,0,1,77,177.9Z" style="fill:#e0e0e0"></path><path d="M141.72,245a2,2,0,0,1,0-.32c0-.23,0-.54,0-.95,0-.84,0-2.06,0-3.64,0-3.19,0-7.84-.07-13.74,0-11.81-.07-28.63-.12-48.78l.25.25-64.51,0h0l.28-.29c0,24.75,0,47.91,0,67.43l-.24-.24,46.71.12,13.12.07,3.47,0h1.21a1.51,1.51,0,0,1-.29,0h-.87l-3.42,0-13.07.06-46.86.13H77V245c0-19.52,0-42.68,0-67.43v-.28h.29l64.51,0H142v.25c-.06,20.21-.1,37.09-.13,48.94,0,5.88-.05,10.51-.07,13.69,0,1.56,0,2.76,0,3.59,0,.39,0,.69,0,.91A2.86,2.86,0,0,1,141.72,245Z" style="fill:#e0e0e0"></path><rect x="98.76" y="200.48" width="21.59" height="21.58" style="fill:#ebebeb"></rect></g><g id="freepik--speech-bubble--inject-12"><path d="M388.93,174.47A49.75,49.75,0,0,1,359,166.25l-22,5.36,9.58-17a50,50,0,1,1,42.35,19.89Z" style="fill:#fff"></path><path d="M388.93,174.47s.3-.05.87-.11l2.55-.28c.56-.07,1.19-.11,1.88-.22l2.23-.47c.81-.17,1.68-.33,2.6-.55l2.89-.91a48.1,48.1,0,0,0,13.81-7.06,18.72,18.72,0,0,0,1.82-1.43l1.85-1.53a21.76,21.76,0,0,0,1.79-1.69l1.79-1.81c1.17-1.26,2.24-2.67,3.41-4.06l1.54-2.29a23.5,23.5,0,0,0,1.51-2.39,46.6,46.6,0,0,0,2.63-5.24q.58-1.38,1.17-2.79l.92-2.95c.15-.5.31-1,.47-1.5s.22-1,.33-1.55c.21-1,.43-2.09.64-3.16s.24-2.16.36-3.25c.06-.55.12-1.1.17-1.65s0-1.12,0-1.68v-3.39c-.05-1.14-.21-2.28-.31-3.44-.06-.57-.11-1.15-.17-1.73s-.22-1.15-.33-1.73c-.24-1.15-.48-2.32-.72-3.49a54.51,54.51,0,0,0-5.75-13.51,52,52,0,0,0-10-11.71c-1-.82-2-1.73-3.11-2.49l-3.33-2.25c-1.16-.67-2.37-1.29-3.56-2-.3-.15-.59-.33-.9-.47l-.94-.4-1.89-.8a49.08,49.08,0,0,0-33.26-1.41l-1.58.49-.79.24-.77.32-3,1.28-.75.33-.72.39-1.45.78A28.34,28.34,0,0,0,360,82.6l-2.69,1.81c-.9.6-1.68,1.35-2.53,2A49,49,0,0,0,336.87,124v2.88c.06,1,.1,1.91.21,2.85a45.85,45.85,0,0,0,.89,5.55,49.7,49.7,0,0,0,8.78,19.17l.09.11-.07.13-9.6,17-.22-.28,22-5.32H359l.06,0A50.38,50.38,0,0,0,371,171.94a51.08,51.08,0,0,0,9.65,2.17,58.52,58.52,0,0,0,6.15.38l1.58,0h.54l-.53,0-1.59.06a52.37,52.37,0,0,1-6.17-.3,49.74,49.74,0,0,1-21.75-7.89l.12,0-22,5.4-.43.1.22-.38c3-5.29,6.14-11,9.56-17v.23a49.93,49.93,0,0,1-8.89-19.33,47,47,0,0,1-.91-5.6c-.11-.95-.16-1.91-.22-2.87s0-1.94,0-2.92a49.29,49.29,0,0,1,13.32-33.54A50.73,50.73,0,0,1,354.42,86c.85-.67,1.64-1.43,2.55-2l2.72-1.84a29.75,29.75,0,0,1,2.85-1.65l1.46-.79.73-.4.76-.32,3.07-1.3.78-.32.8-.25,1.6-.49a50.9,50.9,0,0,1,17.18-2.21,51.42,51.42,0,0,1,16.42,3.64l1.91.81.95.4c.32.15.61.33.91.49,1.21.66,2.42,1.29,3.6,2L416.07,84c1.11.77,2.09,1.69,3.14,2.52a51.93,51.93,0,0,1,10.12,11.83A54.88,54.88,0,0,1,435.12,112l.72,3.52c.11.58.26,1.16.33,1.74s.11,1.17.17,1.75c.1,1.17.26,2.32.3,3.47s0,2.29,0,3.42c0,.57,0,1.13,0,1.69l-.18,1.67c-.13,1.1-.2,2.2-.37,3.28s-.44,2.13-.66,3.18c-.11.52-.2,1.05-.34,1.56s-.31,1-.47,1.51c-.31,1-.63,2-.93,3l-1.19,2.81a46.42,46.42,0,0,1-2.67,5.27,23.81,23.81,0,0,1-1.53,2.4c-.53.77-1,1.54-1.56,2.3-1.18,1.39-2.26,2.82-3.44,4.08l-1.82,1.81a19.29,19.29,0,0,1-1.81,1.7l-1.86,1.53a17.81,17.81,0,0,1-1.84,1.43,48.19,48.19,0,0,1-13.92,7l-2.9.88c-.93.22-1.81.37-2.62.54l-2.24.44c-.69.11-1.32.13-1.89.19l-2.56.23C389.23,174.46,388.93,174.47,388.93,174.47Z" style="fill:#263238"></path><path d="M390.59,100.79c.46-2.05.44-4.29,1.6-6a5.12,5.12,0,0,1,9.33,2.11c.32,2.36-1,4.72-.64,7.07a6.74,6.74,0,0,0,4,4.74,12.74,12.74,0,0,0,4.27,1.61c.13,0,.27,0,.4.06h0a6.76,6.76,0,0,1,.94,13.14c-2.42.76-5.73.55-6.67,2.9-.82,2.06,1.11,4.1,2.78,5.55s3.45,3.73,2.33,5.65c-.84,1.44-2.84,1.66-4.5,1.43s-3.39-.72-4.94-.11c-2.1.83-3,3.33-3.14,5.58s.16,4.57-.61,6.69-3.22,3.9-5.24,2.9c-3.39-1.68-1.18-8.13-4.55-9.86-1.69-.88-3.78.13-5.14,1.47s-2.4,3-4,4a5.8,5.8,0,0,1-8.67-6.16c.41-2,1.79-3.55,2.73-5.32s1.34-4.15,0-5.61c-1.95-2.08-5.42-.54-8.26-.94-3.5-.5-5.85-4.5-5.12-8s3.94-6.07,7.42-6.72c1.91-.36,3.9-.21,5.8-.64s3.83-1.66,4.2-3.57c.47-2.5-1.85-4.63-2.42-7.11a5.34,5.34,0,0,1,8.51-5.39c2,1.56,3.15,4.64,5.69,4.7C388.7,105,390.13,102.83,390.59,100.79Z" style="fill:#92E3A9"></path><path d="M363.66,128.79c0,.06-.6,0-1.42-.42a4.87,4.87,0,0,1-2.05-6.32c.39-.84.85-1.21.89-1.17s-.27.49-.55,1.31a5,5,0,0,0,1.91,5.86C363.15,128.55,363.68,128.71,363.66,128.79Z" style="fill:#fff"></path><path d="M372.19,148.28c-.05,0-.36-.25-.69-.86a5.36,5.36,0,0,1,.22-5.15c.37-.58.71-.84.75-.8a9.94,9.94,0,0,0-1,3.37A10.06,10.06,0,0,0,372.19,148.28Z" style="fill:#fff"></path><path d="M373.44,134.85c-.15,0-.14-.8-.36-1.71s-.56-1.61-.44-1.69.71.55.94,1.57S373.58,134.87,373.44,134.85Z" style="fill:#fff"></path><path d="M391.28,151.43c-.14,0-.43-.65-.65-1.54s-.27-1.63-.14-1.66.43.66.65,1.54S391.42,151.4,391.28,151.43Z" style="fill:#fff"></path><path d="M376.21,109.28s-.41-.26-.82-.9a6.66,6.66,0,0,1-.56-5.68c.28-.71.57-1.07.62-1a13,13,0,0,0-.47,3.89A12.76,12.76,0,0,0,376.21,109.28Z" style="fill:#fff"></path><rect x="385.5" y="73.48" width="2.02" height="99.86" transform="translate(48.54 347.9) rotate(-51.3)" style="fill:#263238"></rect></g><g id="freepik--Character--inject-12"><polygon points="214.94 360.83 200.46 386.45 220.69 406.81 241.88 383.82 214.94 360.83" style="fill:#ffbe9d"></polygon><path d="M90,441.32l27.41-.65s14.35-8.7,15.48-9.35,7.66-2,7.66-2L184,442.93v4H82.26V443.9l4.68-.49Z" style="fill:#e0e0e0"></path><path d="M202.05,382.82c-.82-.13-23.88,35.81-23.88,35.81l-27.55,5.05-30.54,17s-.69,3.45,2.76,3.68,22-8,22-8-6.35,3.09-5.14,7.07c1.42,4.67,13.4,1,13.4,1l25.59-1.66a8.4,8.4,0,0,0,6.05-3.18l3.26-4.12,35.82-28.47S220.65,385.57,202.05,382.82Z" style="fill:#92E3A9"></path><path d="M161.2,431.24a3,3,0,0,1-.61.65,17.7,17.7,0,0,1-1.91,1.49,16.22,16.22,0,0,1-3.19,1.69,14.23,14.23,0,0,1-4.33.89,38.7,38.7,0,0,0-4.32.34,12.65,12.65,0,0,0-3.24,1.28c-1.77,1-2.68,1.85-2.74,1.78s.17-.27.6-.66a13.88,13.88,0,0,1,1.95-1.44,12.16,12.16,0,0,1,3.33-1.43,33.18,33.18,0,0,1,4.38-.39,15.08,15.08,0,0,0,7.36-2.37C160.19,432,161.14,431.17,161.2,431.24Z" style="fill:#263238"></path><path d="M181.83,427c-.14,0-.48-2-1.61-4.28a41.82,41.82,0,0,1-2.05-4.13,14,14,0,0,1,2.52,3.91A8.59,8.59,0,0,1,181.83,427Z" style="fill:#263238"></path><path d="M188.77,429.16a6.13,6.13,0,0,1-1.66-1.12,21.13,21.13,0,0,1-5.78-7.67,6.16,6.16,0,0,1-.63-1.91,56.68,56.68,0,0,0,3.49,5.76A55.06,55.06,0,0,0,188.77,429.16Z" style="fill:#263238"></path><path d="M197.21,421.75a3.11,3.11,0,0,1-.14-.9c0-.58-.1-1.42-.11-2.46a50,50,0,0,1,.55-8.11,52,52,0,0,1,1.85-7.93c.32-1,.61-1.78.84-2.32a2.88,2.88,0,0,1,.39-.81,31,31,0,0,1-.87,3.24,65,65,0,0,0-2.39,15.93A31.63,31.63,0,0,1,197.21,421.75Z" style="fill:#263238"></path><g style="opacity:0.30000000000000004"><path d="M199.64,402.53a42,42,0,0,0-2.33,17.16A44.44,44.44,0,0,0,199.64,402.53Z"></path></g><path d="M316.12,459.94,319,437l109.13-60.69s16,25.87,22.12,83.65l-76.68-.36h0Z" style="fill:#263238"></path><path d="M258.33,235.61l-13.92,15.48-2.3,30.82,26.78,54.91,30.71,64.64c2.53,5.55,5.08,18.34,3.28,25.61,0,0-5,17.6,20.38,18.77,13.84.64,29.76-3,41.37-6.47l.3-.09a79.09,79.09,0,0,0,46.68-37.39l17.81-24.59c-3.94-15.33-10-11.15-12.39-16.94-11.52-27.81-21-47.9-21-47.9l-38.16-87.92c-5.71-12.91-12.91-17.64-21.3-19.71a40,40,0,0,0-18.92.06L298.9,209.4Z" style="fill:#455a64"></path><path d="M243.5,394.83c7.82-9,20.5-71.05,20.5-71.05l-19.59-72.69s-9.06,10.31-11.87,20.17l-16.42,86.87s-6,1.25-5.94,10.46C210.19,374.79,243.5,394.83,243.5,394.83Z" style="fill:#455a64"></path><path d="M278.55,356.83a4.15,4.15,0,0,1-.37-.62l-1-1.82-3.49-6.75c-2.92-5.77-6.92-13.64-11.33-22.34L251.2,302.89l-3.34-6.82c-.37-.77-.66-1.39-.88-1.86a3.28,3.28,0,0,1-.28-.67,3.81,3.81,0,0,1,.37.62l1,1.82,3.49,6.75c2.92,5.76,6.92,13.64,11.33,22.35l11.2,22.41,3.34,6.82c.36.77.65,1.39.88,1.86A3.1,3.1,0,0,1,278.55,356.83Z" style="fill:#263238"></path><path d="M416.65,366.4a5,5,0,0,1-.23.84l-.76,2.38-.56,1.72c-.22.63-.49,1.29-.77,2-.57,1.44-1.15,3.1-2,4.85-.4.89-.82,1.82-1.25,2.79s-1,1.93-1.49,2.95c-1,2.06-2.26,4.15-3.55,6.38a109,109,0,0,1-21.37,25.58c-2,1.66-3.81,3.28-5.65,4.63-.92.68-1.77,1.38-2.64,2s-1.72,1.17-2.52,1.73c-1.58,1.13-3.11,2-4.42,2.82-.66.4-1.27.78-1.84,1.11L366,429l-2.21,1.17a7.37,7.37,0,0,1-.79.38,4.89,4.89,0,0,1,.74-.47l2.16-1.26,1.56-.89c.57-.34,1.17-.74,1.82-1.15,1.29-.84,2.8-1.73,4.36-2.88l2.49-1.75c.86-.61,1.71-1.31,2.61-2,1.83-1.36,3.65-3,5.6-4.64a111.77,111.77,0,0,0,21.28-25.47c1.29-2.21,2.56-4.29,3.57-6.33.52-1,1.06-2,1.51-2.93l1.29-2.76c.85-1.74,1.46-3.38,2.05-4.8.29-.72.57-1.38.81-2l.6-1.7.85-2.35A6.08,6.08,0,0,1,416.65,366.4Z" style="fill:#263238"></path><g style="opacity:0.30000000000000004"><path d="M346.14,363c8.16-.15,19.68-1.51,27.52-3.79S389,353,394.61,347.1s9.24-14,9-22.11C399,335,390,344.12,379.77,349.3c-3.41,1.73-9.56,4.75-10.26,3.85h0L346.14,363"></path></g><path d="M310.64,350.21c1.42-1.57,36.31-27.66,36.31-27.66l28.61,30.29-48.1,20.32Z" style="fill:#ffbe9d"></path><path d="M368.64,356.45c6.44-2.6,12.66-5.35,16.88-8.6,20-15.43,21.32-29.35,18.72-39.53-2.85-11.2-48.34-90-53.36-95.07s-20.88-13.19-36.73,4.9c-9.2,10.51,9.09,40.13,9.09,40.13l32.5,56.88c-9.15-1.55-13.33,7.84-13.33,7.84Z" style="fill:#455a64"></path><path d="M343.1,325.43a1.78,1.78,0,0,1-.07-.34,9.6,9.6,0,0,1,.56-4.84,8,8,0,0,1,4.38-4.09,17.84,17.84,0,0,1,7.78-1.21l-.2.32c-3.32-5.77-7.28-12.69-11.55-20.12l-14.77-26-4.43-7.91c-.49-.91-.88-1.63-1.18-2.17a7.42,7.42,0,0,1-.38-.77,4.52,4.52,0,0,1,.47.72c.32.52.74,1.23,1.27,2.12l4.57,7.83c3.84,6.67,9.09,15.83,14.91,25.94l11.46,20.17.2.34-.4,0a17.74,17.74,0,0,0-7.61,1.11,7.76,7.76,0,0,0-4.29,3.86,8.92,8.92,0,0,0-.75,3.72C343.07,325,343.13,325.43,343.1,325.43Z" style="fill:#263238"></path><path d="M402.82,304.49a3.74,3.74,0,0,1,.3.65c.17.43.48,1.06.75,1.91a27.14,27.14,0,0,1,1.42,7.41,27.88,27.88,0,0,1-.23,5.23,33,33,0,0,1-1.44,5.83,38.92,38.92,0,0,1-2.78,6,47.53,47.53,0,0,1-4,5.86,61.5,61.5,0,0,1-19.36,15.47,52.71,52.71,0,0,1-6.92,3c-.84.32-1.51.5-1.95.64a3.76,3.76,0,0,1-.7.18,4.45,4.45,0,0,1,.66-.28c.44-.17,1.1-.38,1.92-.73a64.24,64.24,0,0,0,6.82-3.14,63.47,63.47,0,0,0,19.13-15.48,48.27,48.27,0,0,0,4-5.78,40.39,40.39,0,0,0,2.77-5.93,32.92,32.92,0,0,0,1.46-5.74,27.22,27.22,0,0,0,.29-5.14,28.73,28.73,0,0,0-1.24-7.37c-.24-.85-.52-1.49-.65-1.94A2.86,2.86,0,0,1,402.82,304.49Z" style="fill:#263238"></path><g style="opacity:0.30000000000000004"><path d="M355.49,315.16a26.08,26.08,0,0,1,18.24,10.68,5.69,5.69,0,0,1,1.1,2.28,2.25,2.25,0,0,1-.87,2.25,2.29,2.29,0,0,1-2.26-.1,7.49,7.49,0,0,1-1.74-1.59c-4.59-5.2-8.49-9.61-14.22-13.52"></path></g><path d="M373.2,334.82c-.08,0-.75-1.3-2-3.38a52.26,52.26,0,0,0-5.43-7.66,43.46,43.46,0,0,0-6.9-6.34c-1.93-1.43-3.22-2.2-3.17-2.28a4.92,4.92,0,0,1,.95.46c.6.32,1.43.84,2.44,1.52a37.65,37.65,0,0,1,7.07,6.3,42.89,42.89,0,0,1,5.36,7.82c.57,1.07,1,1.95,1.26,2.57A4.27,4.27,0,0,1,373.2,334.82Z" style="fill:#263238"></path><path d="M337,204.86a30.22,30.22,0,0,0-7.9,1.36,25.85,25.85,0,0,0-7.66,4.05,23.74,23.74,0,0,0-9.51,18.24,25.47,25.47,0,0,0,1.05,8.59,29.66,29.66,0,0,0,3.41,7.26s-.14-.14-.36-.43a15.35,15.35,0,0,1-.92-1.33,22.66,22.66,0,0,1-2.48-5.39,25.43,25.43,0,0,1-1.18-8.72,23.9,23.9,0,0,1,9.7-18.61,25.65,25.65,0,0,1,7.84-4,22.92,22.92,0,0,1,5.84-1c.7-.06,1.24,0,1.61,0A2.44,2.44,0,0,1,337,204.86Z" style="fill:#263238"></path><path d="M253.72,376l-1.24-2.44-2.8-1.27s-12,1.93-14.92,6.92-14.48,22.8-14,26.35,3.52,5.45,5.56,4.69,5.81-5.71,5.81-5.71l1.61-.21,19,4.37L255,404.8l-17.7-6.52,9.63-.95,8.43-9Z" style="fill:#e0e0e0"></path><path d="M271.74,406.11a10.64,10.64,0,0,0,1.58,9.85c3.12,4.11,7.77,10.56,12.15,16.3,3.42,4.47,26.44,16.31,38.88,22.5A10.63,10.63,0,0,0,338,451.07a91.59,91.59,0,0,0,10.46-21.68,10.64,10.64,0,0,0-5.58-12.91l-53.55-25.26a10.63,10.63,0,0,0-14.6,6.18Z" style="fill:#e0e0e0"></path><path d="M271.74,406.11s0-.19.15-.54l.51-1.57c.46-1.39,1.14-3.41,2-6a11.51,11.51,0,0,1,2.12-4.06,10.65,10.65,0,0,1,4.42-3.18,10.81,10.81,0,0,1,6.22-.47,15.58,15.58,0,0,1,3.22,1.23l3.25,1.52,31.21,14.67,18.43,8.69a10.87,10.87,0,0,1,5.9,8.76,12.1,12.1,0,0,1-.88,5.49c-.61,1.76-1.26,3.51-2,5.24a94.39,94.39,0,0,1-4.87,10q-1.35,2.39-2.82,4.66a14.8,14.8,0,0,1-1.64,2.18,10.91,10.91,0,0,1-12.3,2.44c-3.08-1.48-6-3-8.91-4.48-5.78-3-11.23-5.87-16.25-8.72-2.52-1.42-4.93-2.83-7.19-4.27a41.41,41.41,0,0,1-6.26-4.55,27.23,27.23,0,0,1-2.25-2.82c-.69-.94-1.37-1.86-2-2.74-1.31-1.78-2.56-3.46-3.72-5s-2.23-3-3.23-4.37a32,32,0,0,1-2.59-3.78,10.57,10.57,0,0,1-1.05-6.18,7.68,7.68,0,0,1,.54-2.14s0,.18-.14.54a11.51,11.51,0,0,0-.3,1.61,10.62,10.62,0,0,0,1.13,6.08,31.7,31.7,0,0,0,2.61,3.72l3.27,4.34,3.74,5,2.05,2.73a25.61,25.61,0,0,0,2.23,2.78,41.33,41.33,0,0,0,6.21,4.47c2.26,1.42,4.67,2.82,7.19,4.23,5,2.83,10.48,5.71,16.25,8.67,2.89,1.46,5.86,3,8.9,4.46a10.38,10.38,0,0,0,9.72-.71,10.53,10.53,0,0,0,2-1.64,14.41,14.41,0,0,0,1.58-2.1c1-1.51,1.9-3,2.79-4.64a93.31,93.31,0,0,0,4.85-9.94c.72-1.72,1.36-3.46,2-5.21a11.4,11.4,0,0,0,.86-5.28,10.33,10.33,0,0,0-5.61-8.34l-18.4-8.72-31.17-14.77-3.24-1.54a15.65,15.65,0,0,0-3.14-1.22,10.51,10.51,0,0,0-6,.43,10.38,10.38,0,0,0-4.33,3.06,11.45,11.45,0,0,0-2.12,4c-.9,2.58-1.61,4.58-2.09,6-.24.66-.42,1.18-.56,1.55S271.74,406.11,271.74,406.11Z" style="fill:#263238"></path><path d="M250.65,384.92s1.23-8.82,4.24-9.71,21.75-6.51,21.75-6.51L328,333.46l20.05,38.47-47,19s-1.84,2.41-3.89,1.48c0,0-3.11,3.78-4.76,4s-1.06,1.11-1.06,1.11-13.77,23-17.08,23.45-7.48-.17-7.36-2.85c0,0-6.2,2.25-8.2-.13,0,0-4.81,3.66-7.94-.26a47.13,47.13,0,0,1-2.23-4.37s-4.16,5.15-7.92,3.36c-3.58-1.71-2.78-7.25-.82-10.64S250.65,384.92,250.65,384.92Z" style="fill:#92E3A9"></path><path d="M231.33,405.74c-.08,0-.37-.51-1-1.28a10,10,0,0,0-6.49-3.61,10.56,10.56,0,0,1-1.61-.16,3.54,3.54,0,0,1,1.64-.2,8.65,8.65,0,0,1,6.76,3.76A3.52,3.52,0,0,1,231.33,405.74Z" style="fill:#263238"></path><path d="M247.43,390.94a20.31,20.31,0,0,1-2.52,2c-1.58,1.19-3.78,2.8-6.07,4.75a44.44,44.44,0,0,0-5.43,5.45c-1.25,1.52-1.91,2.54-2,2.5a2.77,2.77,0,0,1,.39-.78,19.3,19.3,0,0,1,1.32-1.95,35.61,35.61,0,0,1,5.37-5.61,69.7,69.7,0,0,1,6.2-4.66A18.71,18.71,0,0,1,247.43,390.94Z" style="fill:#263238"></path><polygon points="291.82 431.36 306.62 403.19 333.33 415.39 315.91 446.14 291.82 431.36" style="fill:#fff"></polygon><path d="M274.15,406.85a7.26,7.26,0,0,1-.77,1.87,39.67,39.67,0,0,1-2.47,4.23,38.45,38.45,0,0,1-3,3.88,6.73,6.73,0,0,1-1.45,1.42c-.12-.1,1.89-2.44,4-5.59S274,406.78,274.15,406.85Z" style="fill:#263238"></path><path d="M264.34,407.24a20.06,20.06,0,0,1-2.25,5.78,20.32,20.32,0,0,1-3.54,5.09c-.13-.1,1.48-2.35,3.08-5.34S264.19,407.19,264.34,407.24Z" style="fill:#263238"></path><path d="M253.38,405.31a20.18,20.18,0,0,1-2,4.31,11.44,11.44,0,0,1-2.89,3.77c-.1-.1,1.2-1.74,2.44-4S253.23,405.23,253.38,405.31Z" style="fill:#263238"></path><path d="M290.48,390.7c0,.14-5.47-1.2-12.14-3s-12-3.38-12-3.51,5.47,1.2,12.14,3S290.52,390.56,290.48,390.7Z" style="fill:#263238"></path><path d="M288.2,386a6.45,6.45,0,0,1-1.93-.46,36.39,36.39,0,0,1-4.46-1.74,37.86,37.86,0,0,1-4.21-2.28,6.65,6.65,0,0,1-1.59-1.18c.08-.13,2.66,1.44,6,3S288.24,385.8,288.2,386Z" style="fill:#263238"></path><g style="opacity:0.30000000000000004"><path d="M297.15,389.5c-.23-.44-.38-.89-.6-1.34a37.58,37.58,0,0,0-9.85-12.43c-.38-.31-.89-.63-1.32-.39a.85.85,0,0,0-.33,1,2.45,2.45,0,0,0,.59.94c3.73,4.38,6.73,8.57,10.46,12.95C296.38,390.6,297.4,390,297.15,389.5Z"></path></g><path d="M208.67,427.16a15.57,15.57,0,0,1,1.66-2.24c1.07-1.34,2.58-3.17,4.28-5.17s3.25-3.79,4.39-5.07a14.23,14.23,0,0,1,1.94-2,14.65,14.65,0,0,1-1.66,2.24c-1.07,1.34-2.58,3.17-4.27,5.17s-3.25,3.79-4.4,5.06A15.56,15.56,0,0,1,208.67,427.16Z" style="fill:#263238"></path><path d="M212.75,441.4c-.13,0,2.07-6,4.91-13.34s5.25-13.21,5.38-13.15-2.06,6-4.9,13.34S212.89,441.46,212.75,441.4Z" style="fill:#263238"></path><path d="M225.55,433.52a84.86,84.86,0,0,1-.18-9.42,86.87,86.87,0,0,1,.35-9.42,84.86,84.86,0,0,1,.18,9.42A86.87,86.87,0,0,1,225.55,433.52Z" style="fill:#263238"></path><path d="M193.43,174.45c0-5.09,1.62-6.81.43-7.76-4.26-3.41-8.06-12.37-8.41-16.35-.81-9.36,7.1-17.59,7.1-17.59,1.47-5,3.5-11.63,9.44-16.23,6.44-5,16.53-10.94,24.6-9.9s13.9,1.54,19.06,7.83l-11.27,99.92c-6.26-.19-11.83-4.14-16.08-8.75s-7.61-10-12-14.43c-3.3-3.31-4-1.95-9.68-9.46C193.08,177.06,193.38,179.12,193.43,174.45Z" style="fill:#263238"></path><path d="M273.33,143.94c-7.06-20.24-24.73-33-44.76-25.38l-1.81.82a38.32,38.32,0,0,0-20.41,47.8c6.21,17.5,13.3,36.74,17.48,45.75,8.65,18.65,28.72,13.15,28.72,13.15l8.52,16.2h0a37.51,37.51,0,0,0,42.68-24.35h0Z" style="fill:#ffbe9d"></path><path d="M219.84,181.34a3,3,0,0,0,3.8,1.55,2.82,2.82,0,0,0,1.68-3.66,3,3,0,0,0-3.8-1.55A2.82,2.82,0,0,0,219.84,181.34Z" style="fill:#263238"></path><path d="M214,174.69c.49.2,1.85-2.21,4.73-3.5s5.65-.79,5.8-1.28c.09-.23-.53-.71-1.76-1a8.06,8.06,0,0,0-4.83.59,7.74,7.74,0,0,0-3.57,3.23C213.75,173.84,213.73,174.61,214,174.69Z" style="fill:#263238"></path><path d="M246.11,170.3a2.94,2.94,0,0,0,3.79,1.54,2.8,2.8,0,0,0,1.68-3.65,2.93,2.93,0,0,0-3.79-1.55A2.81,2.81,0,0,0,246.11,170.3Z" style="fill:#263238"></path><path d="M240.79,162.12c.48.21,1.9-2.16,4.82-3.37s5.66-.65,5.83-1.14c.09-.22-.51-.71-1.73-1a8,8,0,0,0-4.85.47c-2.3,1.09-3.77,2.55-3.66,3.12C240.59,161.26,240.56,162,240.79,162.12Z" style="fill:#263238"></path><path d="M242.2,188.43c-.06-.17-2,.32-5.06,1.25-.77.26-1.53.42-1.88,0a4.17,4.17,0,0,1-.49-2.41c-.1-2.09-.22-4.28-.34-6.58-.55-9.34-1.31-16.88-1.69-16.86s-.22,7.62.33,17c.16,2.29.3,4.48.45,6.57a4.67,4.67,0,0,0,.91,3.06,2,2,0,0,0,1.7.54,5.61,5.61,0,0,0,1.32-.39C240.45,189.4,242.27,188.6,242.2,188.43Z" style="fill:#263238"></path><path d="M237.71,159.26c.86.3,2.56-2.39,5.27-5s5.4-4.23,5.12-5.1c-.15-.4-1.1-.52-2.51-.12a11.9,11.9,0,0,0-4.84,2.92,12,12,0,0,0-3.08,4.74C237.23,158.14,237.31,159.1,237.71,159.26Z" style="fill:#263238"></path><path d="M211.88,166.83c.67.68,3.08-.22,6-.44s5.49.14,6-.64c.23-.38-.21-1.08-1.35-1.69a9.3,9.3,0,0,0-5-.86,9,9,0,0,0-4.73,1.74C211.88,165.74,211.58,166.5,211.88,166.83Z" style="fill:#263238"></path><path d="M245.65,114.45c-.64-.25-1.3-.5-2-.73v0h0c-5.58-2-11.85-3.1-16.65.13-2.76,1.85-4.52,4.89-7.17,6.91-3.58,2.73-8.34,3.31-12.28,5.49a17,17,0,0,0-8.55,13c-.41,4.18.7,8.7-1.26,12.4-.91,1.72-4,2.92-5.07,4.53,0,0-1.91,13.6,8.52,13l1.31-1.11,10.23-13.53c3.41-1.15,6.92-2,8.41-5.13,1-2.07.72-4.57.86-6.89l5.47-6.5c1.73-.43,3.64-.59,5.36-1a15.53,15.53,0,0,0,11.58-19.14Z" style="fill:#263238"></path><path d="M228.51,130.05c2.3-1.88,6.94-5.87,7.37-8.75.94-6.25,4.88-11.93,10.52-14a14.4,14.4,0,0,1,16.39,5.36c6.68-2.8,15-1.4,20.86,3.52A24,24,0,0,1,291.84,137c-.25,2-.75,4.08,0,6,1,2.34,3.47,3.44,5.51,4.85,5.57,3.83,8.41,11.15,8.29,18s-1.06,9.6-4.21,12.3c-6.18,5.3,7.12,17.68-4.75,22.77l-21.54-41.88-.05.08a4.77,4.77,0,0,1-4.44,2.51c-12-.77-11.23-13.36-8.84-15.73a44,44,0,0,1-10.23-4.39c-3.17-2-8.55-5.94-9.65-9.64C239.49,133,227.5,130.87,228.51,130.05Z" style="fill:#263238"></path><path d="M275.17,158.93c.26-.28,11.18-9.59,16.53,3.42s-8.82,15.69-9,15.33S275.17,158.93,275.17,158.93Z" style="fill:#ffbe9d"></path><path d="M284.65,171.12c0-.07.29.06.75.08a2.47,2.47,0,0,0,1.71-.66c1.16-1.07,1.42-3.73.52-6.1a8,8,0,0,0-2-3,2.84,2.84,0,0,0-2.42-1,1.25,1.25,0,0,0-1.09,1.17c0,.43.17.66.11.71s-.37-.1-.49-.68a1.61,1.61,0,0,1,.18-1,1.87,1.87,0,0,1,1.12-.85,3.43,3.43,0,0,1,3.19,1,8.3,8.3,0,0,1,2.28,3.3c1,2.66.66,5.66-1,7a2.65,2.65,0,0,1-2.21.51C284.8,171.42,284.61,171.16,284.65,171.12Z" style="fill:#eb996e"></path><path d="M240.86,200.07c.13.27,2.44-.54,5.17-1.8s4.84-2.5,4.72-2.77-2.43.54-5.16,1.81S240.74,199.81,240.86,200.07Z" style="fill:#263238"></path><path d="M252.55,226.08s16.09-10,22.84-22c0,0,2.11,18.23-19.63,28.07Z" style="fill:#eb996e"></path><path d="M236.63,161.06c0,.05-.27.27-.85.34a2.78,2.78,0,0,1-2.1-.67,2.81,2.81,0,0,1-.92-2c0-.58.18-.9.24-.88s0,.35.13.84a2.73,2.73,0,0,0,2.64,2.35C236.27,161.06,236.6,161,236.63,161.06Z" style="fill:#eb996e"></path><path d="M228.79,165.55c0-.06.15-.34.34-.84a3.84,3.84,0,0,0,.26-2,4,4,0,0,0-.81-1.85c-.33-.42-.61-.63-.56-.7s.38.06.83.45a3.43,3.43,0,0,1,.61,4.27C229.15,165.38,228.84,165.59,228.79,165.55Z" style="fill:#eb996e"></path><path d="M283.24,286.46l5.49,1.17-5.5,1.61a2,2,0,0,0-1.38,1.49l-1.37,6.58L279,290.85a2,2,0,0,0-1.49-1.48l-5.5-1.25,5.66-1.59A2,2,0,0,0,279,285l1.26-6.34,1.43,6.3A2,2,0,0,0,283.24,286.46Z" style="fill:#fff"></path><path d="M270.75,303.05l2.45.52-2.45.71a.9.9,0,0,0-.62.67l-.61,2.93-.68-2.88a.87.87,0,0,0-.66-.66l-2.45-.55,2.52-.71a.91.91,0,0,0,.63-.68l.56-2.82.63,2.8A.88.88,0,0,0,270.75,303.05Z" style="fill:#fff"></path><path d="M344.18,222.52l2.45.52-2.45.71a.9.9,0,0,0-.62.67l-.61,2.93-.68-2.88a.87.87,0,0,0-.66-.66l-2.45-.55,2.52-.71a.89.89,0,0,0,.63-.68l.56-2.82.63,2.8A.88.88,0,0,0,344.18,222.52Z" style="fill:#fff"></path></g><g id="freepik--Table--inject-12"><path d="M473.06,459.18c0,.14-99.87.26-223,.26s-223.07-.12-223.07-.26,99.85-.26,223.07-.26S473.06,459,473.06,459.18Z" style="fill:#263238"></path><rect x="54.81" y="445.11" width="272.64" height="14.1" style="fill:#455a64"></rect><rect x="248.6" y="445.11" width="76.92" height="14.1" style="fill:#263238"></rect><path d="M72.41,459.22a5.38,5.38,0,0,1-.32-.62c-.2-.4-.49-1-.87-1.69a35.49,35.49,0,0,0-7.67-9.79c-.6-.54-1.09-1-1.43-1.25a3.08,3.08,0,0,1-.52-.47,5.54,5.54,0,0,1,.57.41c.36.26.87.67,1.47,1.2a32.13,32.13,0,0,1,7.71,9.83c.36.72.64,1.31.81,1.73A5.16,5.16,0,0,1,72.41,459.22Z" style="fill:#263238"></path><path d="M93.06,459.47a18.19,18.19,0,0,1-4-.41A23.94,23.94,0,0,1,85,457.81a27,27,0,0,1-4.65-2.51,27.48,27.48,0,0,1-6.82-6.7,23.15,23.15,0,0,1-2-3.41s.06.08.15.23.26.43.41.68a28.12,28.12,0,0,0,1.59,2.41,28.41,28.41,0,0,0,6.82,6.61,27.28,27.28,0,0,0,4.6,2.51,24,24,0,0,0,4.08,1.28,15.88,15.88,0,0,0,1.62.3,9.8,9.8,0,0,0,1.24.15l.78.07Z" style="fill:#263238"></path><path d="M112.13,452.29s-1.23.14-3.47.16c-1.12,0-2.49,0-4.08-.13-.79-.06-1.64-.14-2.54-.25l-1.38-.19a5.34,5.34,0,0,1-1.43-.35,1.93,1.93,0,0,1-1.14-1,1.37,1.37,0,0,1,.46-1.53,3.84,3.84,0,0,1,1.55-.67c.55-.15,1.11-.3,1.69-.42a40.73,40.73,0,0,1,15.75-.47,29.53,29.53,0,0,1,4.3,1,3.28,3.28,0,0,1,1.79,1.39,2.81,2.81,0,0,1,.11,2.29,3.59,3.59,0,0,1-1.4,1.83,6.1,6.1,0,0,1-2.1.86c-1.46.32-2.9.57-4.32.81a59.33,59.33,0,0,1-8.28.82,30,30,0,0,1-13.71-2.65,22.81,22.81,0,0,1-7.57-5.64,18.08,18.08,0,0,1-1.57-2c-.33-.5-.49-.76-.49-.76s.19.25.52.73a19.63,19.63,0,0,0,1.6,2A23,23,0,0,0,94,453.59a30,30,0,0,0,13.65,2.59,60.53,60.53,0,0,0,8.24-.83c1.42-.24,2.87-.5,4.31-.81a6,6,0,0,0,2-.83,3.46,3.46,0,0,0,1.32-1.73,2.61,2.61,0,0,0-.11-2.12,3,3,0,0,0-1.68-1.3,30.45,30.45,0,0,0-4.26-1,41.16,41.16,0,0,0-15.67.44c-.58.12-1.14.27-1.68.41a3.62,3.62,0,0,0-1.5.64,1.24,1.24,0,0,0-.42,1.35,1.86,1.86,0,0,0,1,1,5.3,5.3,0,0,0,1.4.34l1.38.2c.89.11,1.74.2,2.53.26,1.58.13,3,.17,4.07.17s2,0,2.57-.05Z" style="fill:#263238"></path><path d="M160.4,446.07l-.38,0c-.25,0-.61-.08-1.08-.07a14.29,14.29,0,0,0-3.93.44,24.29,24.29,0,0,0-5.47,2.16,64.79,64.79,0,0,0-6.14,3.82c-2.12,1.45-4.16,2.81-6.11,3.9a26,26,0,0,1-5.44,2.36,14.6,14.6,0,0,1-3.94.63,10.49,10.49,0,0,1-1.46-.05h.38a10.58,10.58,0,0,0,1.08,0,15.31,15.31,0,0,0,3.9-.69,26.88,26.88,0,0,0,5.38-2.38c1.94-1.1,4-2.46,6.09-3.91a61.92,61.92,0,0,1,6.17-3.82,23.46,23.46,0,0,1,5.52-2.13,14.14,14.14,0,0,1,4-.38A10.94,10.94,0,0,1,160.4,446.07Z" style="fill:#263238"></path><path d="M179,452.31l-.75-.16a13.55,13.55,0,0,0-2.18-.27,12.89,12.89,0,0,0-3.45.28,13.42,13.42,0,0,0-2.08.62,3.67,3.67,0,0,0-1.93,1.33,2,2,0,0,0,.33,2.39,5.62,5.62,0,0,0,2.4,1.52,10.91,10.91,0,0,0,6.27.13,20.62,20.62,0,0,0,3.28-1.08,11.05,11.05,0,0,0,3.12-1.75,4.23,4.23,0,0,0,1.56-3.19,5.25,5.25,0,0,0-1.42-3.42,6.91,6.91,0,0,0-3.2-2,10.24,10.24,0,0,0-3.68-.34,26.7,26.7,0,0,0-6.84,1.72,71.78,71.78,0,0,0-10.9,5,75.62,75.62,0,0,0-6.82,4.35c-.78.56-1.37,1-1.77,1.3s-.63.46-.63.46.81-.69,2.35-1.83a73.7,73.7,0,0,1,6.8-4.41,69.77,69.77,0,0,1,10.9-5.05,26.88,26.88,0,0,1,6.89-1.74,10.71,10.71,0,0,1,3.76.34,7.27,7.27,0,0,1,3.3,2,5.44,5.44,0,0,1,1.47,3.56,4.43,4.43,0,0,1-1.64,3.34,11.37,11.37,0,0,1-3.17,1.79,22.4,22.4,0,0,1-3.31,1.08,11.2,11.2,0,0,1-6.38-.15,5.81,5.81,0,0,1-2.46-1.58,2.58,2.58,0,0,1-.6-1.27,1.92,1.92,0,0,1,.27-1.31,3.81,3.81,0,0,1,2-1.38,14.38,14.38,0,0,1,2.1-.61,13.77,13.77,0,0,1,3.47-.25,12.54,12.54,0,0,1,2.19.32C178.79,452.23,179,452.31,179,452.31Z" style="fill:#263238"></path><path d="M201.39,459.13s0-.26,0-.73a16.2,16.2,0,0,0,0-2,13.91,13.91,0,0,0-1.93-6.21,11.5,11.5,0,0,0-4.78-4.35,12.87,12.87,0,0,0-2.58-.86,7.76,7.76,0,0,1,2.64.72,11.36,11.36,0,0,1,4.9,4.38,13.51,13.51,0,0,1,1.9,6.31A10.49,10.49,0,0,1,201.39,459.13Z" style="fill:#263238"></path><path d="M230.53,459a31.2,31.2,0,0,1-4.2-.87,41.93,41.93,0,0,1-4.43-1.46,48.43,48.43,0,0,1-5.15-2.46,46,46,0,0,1-8.38-6.08c-1-.9-1.74-1.66-2.24-2.21l-.58-.63c-.13-.14-.19-.22-.19-.22s.08.06.22.2l.61.6c.51.53,1.29,1.27,2.27,2.15A46.58,46.58,0,0,0,222,456.51a44.31,44.31,0,0,0,4.39,1.5c1.27.36,2.32.61,3,.76l.84.17A1.25,1.25,0,0,1,230.53,459Z" style="fill:#263238"></path><path d="M251,455.06l-.28-.13c-.18-.09-.42-.25-.77-.41a19.65,19.65,0,0,0-3-1.17,30.77,30.77,0,0,0-4.66-1c-1.77-.26-3.74-.43-5.8-.7-4.12-.51-7.8-1.74-10-3.37a12.87,12.87,0,0,1-2.4-2.15c-.48-.59-.71-.94-.71-.94s.08.07.21.22.3.39.56.67a13.71,13.71,0,0,0,2.43,2.08c2.21,1.58,5.85,2.77,10,3.28,2.05.27,4,.45,5.8.72a29.35,29.35,0,0,1,4.67,1,17.42,17.42,0,0,1,3,1.24C250.62,454.82,251,455.06,251,455.06Z" style="fill:#263238"></path></g></svg>