<?xml version="1.0" encoding="utf-8"?>
<!-- Generator: Adobe Illustrator 27.5.0, SVG Export Plug-In . SVG Version: 6.00 Build 0)  -->
<svg version="1.1" xmlns="http://www.w3.org/2000/svg" xmlns:xlink="http://www.w3.org/1999/xlink" x="0px" y="0px"
	 viewBox="0 0 750 500" style="enable-background:new 0 0 750 500;" xml:space="preserve">
<g id="Background_Simple">
	<g>
		<path style="fill:#92E3A9;" d="M713.57,200.896c0,0-16.016-81.682-130.532-132.133c-114.515-50.451-167.54-0.247-225.112,20.698
			s-88.804-7.885-184.901-21.498C76.928,54.348-6.356,189.685,20.871,295.392c27.227,105.706,87.288,143.344,218.62,167.369
			c131.332,24.024,209.011-55.256,301.904-40.841C634.29,436.333,744.801,355.452,713.57,200.896z"/>
		<path style="opacity:0.7;fill:#FFFFFF;" d="M713.57,200.896c0,0-16.016-81.682-130.532-132.133
			c-114.515-50.451-167.54-0.247-225.112,20.698s-88.804-7.885-184.901-21.498C76.928,54.348-6.356,189.685,20.871,295.392
			c27.227,105.706,87.288,143.344,218.62,167.369c131.332,24.024,209.011-55.256,301.904-40.841
			C634.29,436.333,744.801,355.452,713.57,200.896z"/>
	</g>
</g>
<g id="Windows">
	<g style="opacity:0.3;">
		<path style="fill:none;stroke:#000000;stroke-linecap:round;stroke-linejoin:round;stroke-miterlimit:10;" d="M343.62,64.531
			c3.801,8.497,5.914,17.913,5.914,27.823v202.63H213.123V92.354c0-37.669,30.537-68.206,68.206-68.206h0
			c25.712,0,48.101,14.228,59.724,35.24"/>
		<path style="fill:none;stroke:#000000;stroke-linecap:round;stroke-linejoin:round;stroke-miterlimit:10;" d="M260.775,45.899
			c6.318-2.672,13.263-4.15,20.554-4.15h0c29.163,0,52.804,23.641,52.804,52.805v199.697"/>
		<path style="fill:none;stroke:#000000;stroke-linecap:round;stroke-linejoin:round;stroke-miterlimit:10;" d="M228.524,294.251
			V94.554c0-20.64,11.842-38.514,29.102-47.199"/>
		
			<line style="fill:none;stroke:#000000;stroke-linecap:round;stroke-linejoin:round;stroke-miterlimit:10;" x1="281.329" y1="105.929" x2="281.329" y2="294.617"/>
		
			<line style="fill:none;stroke:#000000;stroke-linecap:round;stroke-linejoin:round;stroke-miterlimit:10;" x1="281.329" y1="24.148" x2="281.329" y2="100.01"/>
		
			<line style="fill:none;stroke:#000000;stroke-linecap:round;stroke-linejoin:round;stroke-miterlimit:10;" x1="213.856" y1="84.47" x2="348.618" y2="84.47"/>
		
			<line style="fill:none;stroke:#000000;stroke-linecap:round;stroke-linejoin:round;stroke-miterlimit:10;" x1="234.936" y1="126.853" x2="348.618" y2="126.853"/>
		
			<line style="fill:none;stroke:#000000;stroke-linecap:round;stroke-linejoin:round;stroke-miterlimit:10;" x1="213.856" y1="126.853" x2="230.497" y2="126.853"/>
		
			<line style="fill:none;stroke:#000000;stroke-linecap:round;stroke-linejoin:round;stroke-miterlimit:10;" x1="213.856" y1="169.39" x2="348.618" y2="169.39"/>
		
			<line style="fill:none;stroke:#000000;stroke-linecap:round;stroke-linejoin:round;stroke-miterlimit:10;" x1="327.794" y1="211.927" x2="348.618" y2="211.927"/>
		
			<line style="fill:none;stroke:#000000;stroke-linecap:round;stroke-linejoin:round;stroke-miterlimit:10;" x1="213.856" y1="211.927" x2="321.505" y2="211.927"/>
		
			<line style="fill:none;stroke:#000000;stroke-linecap:round;stroke-linejoin:round;stroke-miterlimit:10;" x1="261.573" y1="254.464" x2="348.618" y2="254.464"/>
		
			<line style="fill:none;stroke:#000000;stroke-linecap:round;stroke-linejoin:round;stroke-miterlimit:10;" x1="213.856" y1="254.464" x2="256.024" y2="254.464"/>
		
			<line style="fill:none;stroke:#000000;stroke-linecap:round;stroke-linejoin:round;stroke-miterlimit:10;" x1="231.875" y1="45.435" x2="244.096" y2="56.563"/>
		
			<line style="fill:none;stroke:#000000;stroke-linecap:round;stroke-linejoin:round;stroke-miterlimit:10;" x1="330.27" y1="45.435" x2="318.049" y2="56.563"/>
	</g>
	<g style="opacity:0.3;">
		<path style="fill:none;stroke:#000000;stroke-linecap:round;stroke-linejoin:round;stroke-miterlimit:10;" d="M517.513,64.531
			c3.801,8.497,5.914,17.913,5.914,27.823v202.63H387.015V92.354c0-37.669,30.537-68.206,68.206-68.206h0
			c25.712,0,48.101,14.228,59.724,35.24"/>
		<path style="fill:none;stroke:#000000;stroke-linecap:round;stroke-linejoin:round;stroke-miterlimit:10;" d="M434.667,45.899
			c6.318-2.672,13.263-4.15,20.554-4.15h0c29.163,0,52.804,23.641,52.804,52.805v199.697"/>
		<path style="fill:none;stroke:#000000;stroke-linecap:round;stroke-linejoin:round;stroke-miterlimit:10;" d="M402.416,294.251
			V94.554c0-20.64,11.842-38.514,29.102-47.199"/>
		
			<line style="fill:none;stroke:#000000;stroke-linecap:round;stroke-linejoin:round;stroke-miterlimit:10;" x1="455.221" y1="105.929" x2="455.221" y2="294.617"/>
		
			<line style="fill:none;stroke:#000000;stroke-linecap:round;stroke-linejoin:round;stroke-miterlimit:10;" x1="455.221" y1="24.148" x2="455.221" y2="100.01"/>
		
			<line style="fill:none;stroke:#000000;stroke-linecap:round;stroke-linejoin:round;stroke-miterlimit:10;" x1="387.748" y1="84.47" x2="522.51" y2="84.47"/>
		
			<line style="fill:none;stroke:#000000;stroke-linecap:round;stroke-linejoin:round;stroke-miterlimit:10;" x1="408.828" y1="126.853" x2="522.51" y2="126.853"/>
		
			<line style="fill:none;stroke:#000000;stroke-linecap:round;stroke-linejoin:round;stroke-miterlimit:10;" x1="387.748" y1="126.853" x2="404.389" y2="126.853"/>
		
			<line style="fill:none;stroke:#000000;stroke-linecap:round;stroke-linejoin:round;stroke-miterlimit:10;" x1="387.748" y1="169.39" x2="522.51" y2="169.39"/>
		
			<line style="fill:none;stroke:#000000;stroke-linecap:round;stroke-linejoin:round;stroke-miterlimit:10;" x1="501.686" y1="211.927" x2="522.51" y2="211.927"/>
		
			<line style="fill:none;stroke:#000000;stroke-linecap:round;stroke-linejoin:round;stroke-miterlimit:10;" x1="387.748" y1="211.927" x2="495.397" y2="211.927"/>
		
			<line style="fill:none;stroke:#000000;stroke-linecap:round;stroke-linejoin:round;stroke-miterlimit:10;" x1="435.465" y1="254.464" x2="522.51" y2="254.464"/>
		
			<line style="fill:none;stroke:#000000;stroke-linecap:round;stroke-linejoin:round;stroke-miterlimit:10;" x1="387.748" y1="254.464" x2="429.916" y2="254.464"/>
		
			<line style="fill:none;stroke:#000000;stroke-linecap:round;stroke-linejoin:round;stroke-miterlimit:10;" x1="405.767" y1="45.435" x2="417.988" y2="56.563"/>
		
			<line style="fill:none;stroke:#000000;stroke-linecap:round;stroke-linejoin:round;stroke-miterlimit:10;" x1="504.162" y1="45.435" x2="491.941" y2="56.563"/>
	</g>
</g>
<g id="Floor">
	
		<line style="fill:none;stroke:#263238;stroke-linecap:round;stroke-linejoin:round;stroke-miterlimit:10;" x1="22.142" y1="388.148" x2="738.511" y2="388.148"/>
</g>
<g id="Plant_2">
	<g>
		<polyline style="fill:#92E3A9;" points="705.981,159.865 709.321,150.735 707.54,152.739 707.54,149.622 703.754,155.412 
			707.094,134.702 702.64,146.059 702.195,136.038 701.527,139.378 700.636,128.021 699.077,145.391 696.851,139.378 
			697.296,147.172 691.283,129.357 694.178,151.626 689.947,148.508 692.397,152.517 689.279,150.29 692.842,160.533 
			705.758,160.756 		"/>
		<polygon style="fill:#263238;stroke:#263238;stroke-linecap:round;stroke-linejoin:round;stroke-miterlimit:10;" points="
			691.693,182.355 705.62,182.355 709.37,158.228 687.943,158.228 		"/>
	</g>
</g>
<g id="Plant_1">
	<g>
		<g>
			<g>
				<path style="fill:#263238;" d="M58.198,265.231l0.002-0.004c0.013-0.032-0.002-0.069-0.035-0.082
					c-0.033-0.014-0.071,0.001-0.085,0.034c-1.952,4.507-3.324,9.238-4.47,14.011c-1.105,4.785-1.906,9.64-2.466,14.525
					l-0.349,3.671c-0.054,0.612-0.121,1.224-0.165,1.837l-0.1,1.842c-0.053,1.229-0.128,2.457-0.163,3.686l0.034,3.69l0.041,1.844
					c0.027,0.614,0.071,1.228,0.113,1.841c0.093,1.226,0.168,2.453,0.28,3.676c0.235,2.446,0.603,4.879,0.981,7.301
					c0.005,0.031,0.032,0.055,0.064,0.055c0.036,0,0.065-0.029,0.064-0.065v-0.004c-0.007-1.23-0.058-2.453-0.086-3.677
					c-0.035-1.223-0.142-2.44-0.125-3.663c0.006-1.223-0.026-2.442-0.04-3.662l-0.034-1.829l0.032-1.829l0.017-3.656l0.099-3.654
					l0.038-1.828c0.023-0.609,0.069-1.217,0.103-1.825l0.224-3.652c0.428-4.859,1.095-9.701,2.068-14.487
					C55.213,274.546,56.414,269.784,58.198,265.231z"/>
				<path style="fill:#263238;" d="M58.722,284.348c0.009-0.033-0.008-0.07-0.04-0.081c-0.034-0.012-0.071,0.006-0.082,0.04
					c-1.052,3.038-1.892,6.145-2.602,9.285c-0.679,3.145-1.211,6.332-1.536,9.543c-0.325,3.199-0.682,6.402-0.726,9.619
					c-0.049,3.215,0.002,6.434,0.342,9.646c0.003,0.03,0.027,0.055,0.058,0.058c0.036,0.004,0.068-0.022,0.071-0.058
					c0.372-3.203,0.598-6.397,0.82-9.591c0.227-3.192,0.257-6.394,0.465-9.587c0.193-3.184,0.592-6.355,1.14-9.505
					C57.168,290.565,57.838,287.427,58.722,284.348z"/>
				<path style="fill:#263238;" d="M69.32,291.073c-0.019-0.03-0.059-0.039-0.089-0.02c-2.653,1.68-5.019,3.795-7.086,6.178
					c-1.016,1.21-1.961,2.476-2.771,3.853l-0.569,1.075l-0.446,1.116c-0.161,0.37-0.273,0.751-0.389,1.132
					c-0.114,0.381-0.243,0.76-0.345,1.143c-0.796,3.072-1.323,6.202-1.466,9.348c-0.128,3.145-0.068,6.294,0.352,9.416
					c0.005,0.03,0.029,0.054,0.06,0.056c0.036,0.003,0.067-0.024,0.069-0.06l0.808-9.321c0.322-3.081,0.519-6.181,1.181-9.19
					c0.084-0.375,0.192-0.741,0.287-1.113c0.096-0.371,0.189-0.744,0.327-1.098l0.378-1.078l0.487-1.017
					c0.718-1.346,1.596-2.634,2.539-3.855c1.893-2.443,4.119-4.669,6.654-6.476l0.004-0.003
					C69.331,291.14,69.339,291.102,69.32,291.073z"/>
				<path style="fill:#263238;" d="M64.191,303.047c-1.444,0.932-2.41,2.399-3.223,3.874c-0.774,1.508-1.384,3.107-1.806,4.746
					c-0.127,0.406-0.227,0.817-0.315,1.231l-0.292,1.239c-0.149,0.832-0.266,1.673-0.313,2.517c-0.011,0.846-0.035,1.69,0.022,2.533
					c0.07,0.843,0.166,1.684,0.332,2.517c0.006,0.024,0.026,0.047,0.052,0.052c0.036,0.007,0.07-0.016,0.078-0.052
					c0.204-0.832,0.338-1.656,0.446-2.478c0.131-0.82,0.259-1.636,0.357-2.452c0.12-0.813,0.227-1.623,0.291-2.442
					c0.114-0.808,0.173-1.634,0.35-2.432c0.283-1.616,0.751-3.193,1.382-4.702c0.629-1.496,1.447-2.987,2.706-4.041l0.01-0.008
					c0.024-0.02,0.03-0.056,0.013-0.084C64.26,303.037,64.22,303.028,64.191,303.047z"/>
				<path style="fill:#263238;" d="M49.327,312.384c-0.348-4.138-1.031-8.234-1.676-12.328c-0.647-4.095-1.36-8.177-2.109-12.252
					c-0.776-4.07-1.586-8.133-2.464-12.181c-0.007-0.034-0.041-0.056-0.075-0.05c-0.035,0.006-0.058,0.04-0.052,0.075
					c0.708,4.079,1.349,8.169,1.954,12.263c0.621,4.091,1.205,8.187,1.723,12.29c0.506,4.105,0.9,8.22,1.414,12.318l1.514,12.317
					c0.004,0.031,0.029,0.056,0.061,0.057c0.036,0.002,0.066-0.026,0.068-0.062c0.047-1.038,0.049-2.076,0.074-3.116
					c0.009-1.04-0.042-2.075-0.061-3.115C49.66,316.522,49.483,314.454,49.327,312.384z"/>
				<path style="fill:#263238;" d="M46.846,312.324c-0.221-1.639-0.522-3.268-0.835-4.892l-0.581-2.416
					c-0.19-0.805-0.371-1.613-0.607-2.408c-0.826-3.205-1.881-6.356-3.162-9.409l-0.496-1.138l-0.551-1.114
					c-0.351-0.75-0.775-1.465-1.177-2.188c-0.865-1.409-1.763-2.817-2.986-3.96c-0.025-0.023-0.064-0.023-0.089,0.001
					c-0.025,0.025-0.026,0.065-0.001,0.091l0.006,0.006c1.131,1.172,1.955,2.62,2.732,4.05c0.36,0.736,0.74,1.459,1.048,2.219
					l0.486,1.126l0.431,1.15c1.146,3.063,2.066,6.211,2.757,9.412c0.377,1.592,0.627,3.214,0.935,4.819l0.387,2.425
					c0.14,0.806,0.313,1.607,0.426,2.418c0.258,1.618,0.556,3.231,0.838,4.85c0.251,1.623,0.547,3.243,0.889,4.865
					c0.006,0.029,0.033,0.053,0.064,0.053c0.036,0,0.065-0.029,0.065-0.065c0.007-1.653-0.031-3.307-0.116-4.959
					C47.214,315.612,47.018,313.969,46.846,312.324z"/>
				<path style="fill:#263238;" d="M43.422,312.535c-0.767-2.171-1.654-4.296-2.62-6.38c-0.992-2.073-2.063-4.105-3.296-6.042
					c-0.019-0.027-0.058-0.038-0.087-0.021c-0.031,0.018-0.041,0.058-0.023,0.089c1.077,2.011,1.987,4.109,2.813,6.23
					c0.84,2.116,1.597,4.263,2.231,6.445c0.647,2.179,1.111,4.401,1.69,6.59c0.61,2.187,1.103,4.397,1.775,6.612
					c0.008,0.026,0.033,0.048,0.062,0.048c0.036,0,0.065-0.028,0.066-0.064c0.033-2.311-0.194-4.621-0.644-6.884
					C44.985,316.883,44.185,314.704,43.422,312.535z"/>
				<path style="fill:#263238;" d="M43.28,319.766c-0.392-1.359-1.061-2.626-1.821-3.819c-0.747-1.199-1.613-2.334-2.651-3.294
					c-0.535-0.463-1.082-0.909-1.686-1.272c-0.596-0.372-1.227-0.687-1.912-0.865c-0.03-0.008-0.062,0.007-0.075,0.036
					c-0.014,0.033,0,0.07,0.033,0.085l0.008,0.003c1.24,0.551,2.287,1.465,3.173,2.465c0.897,1.001,1.613,2.151,2.21,3.347
					c0.628,1.188,0.952,2.502,1.498,3.726c0.241,0.628,0.48,1.259,0.759,1.886c0.236,0.64,0.499,1.277,0.832,1.912l0.002,0.004
					c0.011,0.02,0.032,0.034,0.056,0.035c0.037,0.001,0.068-0.027,0.069-0.064c0.03-0.708-0.012-1.412-0.079-2.115
					C43.593,321.142,43.446,320.453,43.28,319.766z"/>
			</g>
			<path style="fill:#92E3A9;" d="M43.536,281.546c0,0-6.78-1.565-8.345-8.866c-1.565-7.301,3.477-4.172-1.043-15.646
				c-4.52-11.474-3.477-14.082-1.912-17.385c1.565-3.303,2.434-2.26,3.825,2.086c1.391,4.346,6.432,11.126,8.345,23.817
				C46.318,278.243,43.536,281.546,43.536,281.546z"/>
			<path style="fill:#92E3A9;" d="M56.922,269.203c0,0-4.52-1.565-4.694-10.083c-0.174-8.519,3.303-6.78,3.825-17.385
				c0.521-10.605,1.217-18.08,3.129-18.254c1.912-0.174,6.954,5.215,8.692,17.037c1.738,11.822-2.26,19.644-5.737,23.121
				C58.661,267.117,56.922,269.203,56.922,269.203z"/>
			<path style="fill:#92E3A9;" d="M41.102,291.803c0,0-1.043-6.258-3.129-9.214c-2.086-2.956-6.606-5.563-9.561-11.3
				c-2.955-5.737-6.258-8.519-6.085-0.348c0.174,8.171,3.825,12.343,8.345,15.125C35.192,288.848,41.102,291.803,41.102,291.803z"/>
			<path style="fill:#92E3A9;" d="M39.19,302.582c0,0-4.172-7.997-10.257-13.908c-6.085-5.911-10.953-8.866-9.214-5.911
				c1.738,2.955,3.825,2.782,6.78,7.997c2.955,5.215,2.086,9.04,6.259,11.995C36.93,305.711,39.19,302.582,39.19,302.582z"/>
			<path style="fill:#92E3A9;" d="M38.668,312.839c-0.174-0.522-0.348-4.346-6.258-7.475c-5.911-3.129-11.474-1.912-10.778-0.348
				c0.695,1.565,4.346,4.172,7.997,5.737C33.279,312.317,38.668,312.839,38.668,312.839z"/>
			<path style="fill:#92E3A9;" d="M56.575,292.151c0,0-2.608-3.303-1.217-10.257c1.391-6.954,4.52-5.215,7.997-8.866
				c3.477-3.651,2.782-4.172,6.258-7.997c3.477-3.825,6.606-5.911,7.997-4.346s-0.695,6.432-2.782,9.214
				c-2.086,2.782-5.389,4.172-6.954,7.649c-1.565,3.477-0.869,9.04-4.868,11.648C59.008,291.803,56.575,292.151,56.575,292.151z"/>
			<path style="fill:#92E3A9;" d="M65.267,294.063c0,0,6.258-7.128,10.779-12.343c4.52-5.216,6.258-9.214,6.432-5.737
				c0.174,3.477,1.565,6.259-2.086,10.779C76.741,291.282,65.267,294.063,65.267,294.063z"/>
			<path style="fill:#92E3A9;" d="M61.964,305.537c0,0-0.174-2.782,9.735-9.214c9.909-6.432,14.082-7.649,13.038-5.041
				c-1.043,2.608-5.389,5.215-10.083,9.909C69.961,305.885,61.964,305.537,61.964,305.537z"/>
			<path style="fill:none;stroke:#263238;stroke-linecap:round;stroke-linejoin:round;stroke-miterlimit:10;" d="M43.95,280.805
				c0,0-2.326-12.471-4.76-21.338c-2.434-8.866-3.998-14.255-3.998-14.255"/>
			<path style="fill:none;stroke:#263238;stroke-linecap:round;stroke-linejoin:round;stroke-miterlimit:10;" d="M56.522,269.334
				c0,0,4.225-13.518,5.616-21.688c1.391-8.171-0.174-14.255-0.869-17.906"/>
			<path style="fill:none;stroke:#263238;stroke-linecap:round;stroke-linejoin:round;stroke-miterlimit:10;" d="M40.554,291.542
				c0,0-2.581-4.607-6.406-9.127c-3.824-4.52-6.78-6.954-8.518-11.3"/>
			<path style="fill:none;stroke:#263238;stroke-linecap:round;stroke-linejoin:round;stroke-miterlimit:10;" d="M56.575,292.151
				c0,0,1.391-8.345,4.694-12.691c3.303-4.346,9.909-11.126,12.517-15.472"/>
			<path style="fill:none;stroke:#263238;stroke-linecap:round;stroke-linejoin:round;stroke-miterlimit:10;" d="M38.26,312.649
				c0,0-5.85-3.809-10.022-5.895"/>
		</g>
		<g>
			<g>
				<path style="fill:#263238;stroke:#263238;stroke-linecap:round;stroke-linejoin:round;stroke-miterlimit:10;" d="M71.756,347.69
					c-0.391-10.549-12.112-17.582-12.112-17.582h-7.415h-3.134h-7.415c0,0-11.721,7.033-12.112,17.582
					c-0.391,10.549,13.284,49.23,13.284,49.23h6.243h3.134h6.243C58.471,396.92,72.146,358.239,71.756,347.69z"/>
				<polygon style="fill:#263238;stroke:#263238;stroke-linecap:round;stroke-linejoin:round;stroke-miterlimit:10;" points="
					61.957,319.735 39.034,319.735 41.679,330.108 59.312,330.108 				"/>
			</g>
		</g>
	</g>
</g>
<g id="Pictures">
	<g style="opacity:0.3;">
		
			<rect x="563.131" y="58.495" style="fill:none;stroke:#000000;stroke-linecap:round;stroke-linejoin:round;stroke-miterlimit:10;" width="85.677" height="110.156"/>
		
			<rect x="567.828" y="64.534" style="fill:none;stroke:#000000;stroke-linecap:round;stroke-linejoin:round;stroke-miterlimit:10;" width="76.284" height="98.079"/>
		
			<rect x="586.945" y="89.112" style="fill:none;stroke:#000000;stroke-linecap:round;stroke-linejoin:round;stroke-miterlimit:10;" width="38.05" height="48.922"/>
	</g>
	<g style="opacity:0.3;">
		
			<rect x="83.34" y="58.495" style="fill:none;stroke:#000000;stroke-linecap:round;stroke-linejoin:round;stroke-miterlimit:10;" width="85.677" height="110.156"/>
		
			<rect x="88.037" y="64.534" style="fill:none;stroke:#000000;stroke-linecap:round;stroke-linejoin:round;stroke-miterlimit:10;" width="76.284" height="98.079"/>
		
			<rect x="107.153" y="89.112" style="fill:none;stroke:#000000;stroke-linecap:round;stroke-linejoin:round;stroke-miterlimit:10;" width="38.05" height="48.922"/>
	</g>
</g>
<g id="File_Cabinet">
	<g>
		<g>
			
				<rect x="667.042" y="182.189" transform="matrix(-1 -1.224647e-16 1.224647e-16 -1 1395.9133 580.1746)" style="fill:#FFFFFF;stroke:#263238;stroke-linecap:round;stroke-linejoin:round;stroke-miterlimit:10;" width="61.83" height="215.796"/>
			<g>
				
					<rect x="671.244" y="189.278" transform="matrix(-1 -1.224647e-16 1.224647e-16 -1 1396.5134 430.5352)" style="fill:#FFFFFF;stroke:#263238;stroke-linecap:round;stroke-linejoin:round;stroke-miterlimit:10;" width="54.026" height="51.98"/>
				
					<rect x="687.451" y="210.542" transform="matrix(-1 -1.224647e-16 1.224647e-16 -1 1396.5135 430.5352)" style="fill:#263238;" width="21.611" height="9.451"/>
			</g>
			<g>
				
					<rect x="671.244" y="249.921" transform="matrix(-1 -1.224647e-16 1.224647e-16 -1 1396.5134 551.8218)" style="fill:#FFFFFF;stroke:#263238;stroke-linecap:round;stroke-linejoin:round;stroke-miterlimit:10;" width="54.026" height="51.98"/>
				
					<rect x="687.451" y="271.185" transform="matrix(-1 -1.224647e-16 1.224647e-16 -1 1396.5135 551.8218)" style="fill:#263238;" width="21.611" height="9.451"/>
			</g>
			<g>
				
					<rect x="671.244" y="310.564" transform="matrix(-1 -1.224647e-16 1.224647e-16 -1 1396.5134 673.1085)" style="fill:#FFFFFF;stroke:#263238;stroke-linecap:round;stroke-linejoin:round;stroke-miterlimit:10;" width="54.026" height="51.98"/>
				
					<rect x="687.451" y="331.829" transform="matrix(-1 -1.224647e-16 1.224647e-16 -1 1396.5135 673.1084)" style="fill:#263238;" width="21.611" height="9.451"/>
			</g>
		</g>
	</g>
</g>
<g id="Table_2">
	<g>
		<g>
			<g>
				
					<line style="fill:none;stroke:#263238;stroke-width:4;stroke-linecap:round;stroke-miterlimit:10;" x1="528.21" y1="396.851" x2="532.401" y2="307.537"/>
				
					<line style="fill:none;stroke:#263238;stroke-width:4;stroke-linecap:round;stroke-miterlimit:10;" x1="534.846" y1="396.824" x2="540.433" y2="279.248"/>
				
					<line style="fill:none;stroke:#263238;stroke-width:4;stroke-linecap:round;stroke-miterlimit:10;" x1="612.378" y1="396.824" x2="606.441" y2="280.645"/>
				
					<line style="fill:none;stroke:#263238;stroke-width:4;stroke-linecap:round;stroke-miterlimit:10;" x1="618.315" y1="396.851" x2="614.124" y2="307.537"/>
				<path style="fill:#C4C4C4;stroke:#263238;stroke-linecap:round;stroke-linejoin:round;stroke-miterlimit:10;" d="
					M605.833,283.634h-65.83c-2.485,0-4.5-2.015-4.5-4.5v-59c0-2.485,2.015-4.5,4.5-4.5h65.83c2.485,0,4.5,2.015,4.5,4.5v59
					C610.333,281.62,608.319,283.634,605.833,283.634z"/>
				<path style="fill:#C4C4C4;stroke:#263238;stroke-linecap:round;stroke-linejoin:round;stroke-miterlimit:10;" d="
					M618.693,312.806h-87.959c-2.348,0-4.252-1.903-4.252-4.252l0,0c0-2.348,1.904-4.252,4.252-4.252h87.959
					c2.348,0,4.252,1.904,4.252,4.252l0,0C622.945,310.903,621.042,312.806,618.693,312.806z"/>
			</g>
		</g>
		<g>
			
				<rect x="539.61" y="256.277" style="fill:#FFFFFF;stroke:#263238;stroke-linecap:round;stroke-linejoin:round;stroke-miterlimit:10;" width="60.704" height="2.691"/>
			<g>
				<g>
					<g>
						
							<rect x="485.214" y="194.97" style="fill:#FFFFFF;stroke:#263238;stroke-linecap:round;stroke-linejoin:round;stroke-miterlimit:10;" width="65.736" height="50.566"/>
					</g>
				</g>
				<g>
					<g>
						
							<rect x="483.554" y="194.97" style="fill:#FFFFFF;stroke:#263238;stroke-linecap:round;stroke-linejoin:round;stroke-miterlimit:10;" width="65.736" height="50.566"/>
					</g>
				</g>
				<g>
					<g>
						<polygon style="fill:#C7C7C7;stroke:#263238;stroke-linecap:round;stroke-linejoin:round;stroke-miterlimit:10;" points="
							530.889,256.005 514.575,256.005 510.011,258.588 530.889,258.588 						"/>
					</g>
				</g>
				<g>
					<g>
						<polygon style="fill:#C7C7C7;stroke:#263238;stroke-linecap:round;stroke-linejoin:round;stroke-miterlimit:10;" points="
							521.472,258.588 505.564,258.588 510.128,213.018 526.035,213.018 						"/>
					</g>
				</g>
			</g>
		</g>
		<g>
			<g>
				<path style="fill:#263238;stroke:#263238;stroke-linecap:round;stroke-linejoin:round;stroke-miterlimit:10;" d="
					M642.075,269.366l10.673,127c0.117,0.805,0.89,1.343,1.668,1.16c0.66-0.155,1.1-0.781,1.031-1.467l-7.266-126.693H642.075z"/>
				<path style="fill:#263238;stroke:#263238;stroke-linecap:round;stroke-linejoin:round;stroke-miterlimit:10;" d="
					M635.11,269.366l10.709,127.423c0.117,0.805,0.89,1.343,1.668,1.16c0.66-0.155,1.1-0.781,1.031-1.467l-7.29-127.117H635.11z"/>
				<path style="fill:#263238;stroke:#263238;stroke-linecap:round;stroke-linejoin:round;stroke-miterlimit:10;" d="
					M454.027,269.366l-5.632,125.888c-0.061,0.685,0.387,1.317,1.05,1.481h0c0.781,0.192,1.547-0.336,1.654-1.139l9.022-126.229
					H454.027z"/>
				<path style="fill:#263238;stroke:#263238;stroke-linecap:round;stroke-linejoin:round;stroke-miterlimit:10;" d="
					M445.538,269.366l-5.613,125.465c-0.061,0.685,0.387,1.318,1.05,1.481c0.781,0.192,1.547-0.335,1.654-1.139l8.992-125.806
					H445.538z"/>
			</g>
			<g>
				
					<rect x="441.554" y="262.331" style="fill:#FFFFFF;stroke:#263238;stroke-linecap:round;stroke-linejoin:round;stroke-miterlimit:10;" width="215.671" height="10.905"/>
				
					<rect x="441.554" y="262.331" style="fill:#263238;stroke:#263238;stroke-linecap:round;stroke-linejoin:round;stroke-miterlimit:10;" width="215.671" height="3.74"/>
				
					<rect x="438.169" y="258.702" style="fill:#92E3A9;stroke:#263238;stroke-linecap:round;stroke-linejoin:round;stroke-miterlimit:10;" width="222.441" height="4.157"/>
			</g>
		</g>
	</g>
</g>
<g id="Table_1">
	<g>
		<g>
			<g>
				
					<line style="fill:none;stroke:#263238;stroke-width:4;stroke-linecap:round;stroke-miterlimit:10;" x1="169.782" y1="396.851" x2="173.973" y2="307.537"/>
				
					<line style="fill:none;stroke:#263238;stroke-width:4;stroke-linecap:round;stroke-miterlimit:10;" x1="176.417" y1="396.824" x2="182.005" y2="279.248"/>
				
					<line style="fill:none;stroke:#263238;stroke-width:4;stroke-linecap:round;stroke-miterlimit:10;" x1="253.95" y1="396.824" x2="248.012" y2="280.645"/>
				
					<line style="fill:none;stroke:#263238;stroke-width:4;stroke-linecap:round;stroke-miterlimit:10;" x1="259.887" y1="396.851" x2="255.696" y2="307.537"/>
				<path style="fill:#C4C4C4;stroke:#263238;stroke-linecap:round;stroke-linejoin:round;stroke-miterlimit:10;" d="
					M247.405,283.634h-65.83c-2.485,0-4.5-2.015-4.5-4.5v-59c0-2.485,2.015-4.5,4.5-4.5h65.83c2.485,0,4.5,2.015,4.5,4.5v59
					C251.905,281.62,249.891,283.634,247.405,283.634z"/>
				<path style="fill:#C4C4C4;stroke:#263238;stroke-linecap:round;stroke-linejoin:round;stroke-miterlimit:10;" d="
					M260.265,312.806h-87.959c-2.348,0-4.252-1.903-4.252-4.252l0,0c0-2.348,1.904-4.252,4.252-4.252h87.959
					c2.348,0,4.252,1.904,4.252,4.252l0,0C264.517,310.903,262.613,312.806,260.265,312.806z"/>
			</g>
		</g>
		<g>
			
				<rect x="181.182" y="256.277" style="fill:#FFFFFF;stroke:#263238;stroke-linecap:round;stroke-linejoin:round;stroke-miterlimit:10;" width="60.704" height="2.691"/>
			<g>
				<g>
					<g>
						
							<rect x="126.785" y="194.97" style="fill:#FFFFFF;stroke:#263238;stroke-linecap:round;stroke-linejoin:round;stroke-miterlimit:10;" width="65.736" height="50.566"/>
					</g>
				</g>
				<g>
					<g>
						
							<rect x="125.126" y="194.97" style="fill:#FFFFFF;stroke:#263238;stroke-linecap:round;stroke-linejoin:round;stroke-miterlimit:10;" width="65.736" height="50.566"/>
					</g>
				</g>
				<g>
					<g>
						<polygon style="fill:#C7C7C7;stroke:#263238;stroke-linecap:round;stroke-linejoin:round;stroke-miterlimit:10;" points="
							172.461,256.005 156.146,256.005 151.583,258.588 172.461,258.588 						"/>
					</g>
				</g>
				<g>
					<g>
						<polygon style="fill:#C7C7C7;stroke:#263238;stroke-linecap:round;stroke-linejoin:round;stroke-miterlimit:10;" points="
							163.044,258.588 147.136,258.588 151.7,213.018 167.607,213.018 						"/>
					</g>
				</g>
			</g>
		</g>
		<g>
			<g>
				<path style="fill:#263238;stroke:#263238;stroke-linecap:round;stroke-linejoin:round;stroke-miterlimit:10;" d="
					M283.647,269.366l10.673,127c0.117,0.805,0.89,1.343,1.668,1.16c0.66-0.155,1.1-0.781,1.031-1.467l-7.266-126.693H283.647z"/>
				<path style="fill:#263238;stroke:#263238;stroke-linecap:round;stroke-linejoin:round;stroke-miterlimit:10;" d="
					M276.682,269.366l10.709,127.423c0.117,0.805,0.89,1.343,1.668,1.16c0.66-0.155,1.1-0.781,1.031-1.467l-7.29-127.117H276.682z"
					/>
				<path style="fill:#263238;stroke:#263238;stroke-linecap:round;stroke-linejoin:round;stroke-miterlimit:10;" d="
					M95.599,269.366l-5.632,125.888c-0.061,0.685,0.387,1.317,1.049,1.481h0c0.781,0.192,1.547-0.336,1.654-1.139l9.022-126.229
					H95.599z"/>
				<path style="fill:#263238;stroke:#263238;stroke-linecap:round;stroke-linejoin:round;stroke-miterlimit:10;" d="M87.11,269.366
					L81.497,394.83c-0.061,0.685,0.387,1.318,1.05,1.481c0.781,0.192,1.547-0.335,1.654-1.139l8.992-125.806H87.11z"/>
			</g>
			<g>
				
					<rect x="83.126" y="262.331" style="fill:#FFFFFF;stroke:#263238;stroke-linecap:round;stroke-linejoin:round;stroke-miterlimit:10;" width="215.671" height="10.905"/>
				
					<rect x="83.126" y="262.331" style="fill:#263238;stroke:#263238;stroke-linecap:round;stroke-linejoin:round;stroke-miterlimit:10;" width="215.671" height="3.74"/>
				
					<rect x="79.741" y="258.702" style="fill:#92E3A9;stroke:#263238;stroke-linecap:round;stroke-linejoin:round;stroke-miterlimit:10;" width="222.441" height="4.157"/>
			</g>
		</g>
	</g>
</g>
<g id="Character_2">
	<g>
		<polygon style="fill:#263238;stroke:#263238;stroke-linecap:round;stroke-linejoin:round;stroke-miterlimit:10;" points="
			482.457,206.688 487.061,186.63 489.724,197.805 		"/>
		<polygon style="fill:#92E3A9;stroke:#263238;stroke-linecap:round;stroke-linejoin:round;stroke-miterlimit:10;" points="
			489.724,197.805 482.457,206.688 497.53,219.07 		"/>
		<path style="fill:#FFFFFF;stroke:#263238;stroke-linecap:round;stroke-linejoin:round;stroke-miterlimit:10;" d="M456.014,135.471
			c0,0-14.645,0.586-20.112,7.811c-5.467,7.225-5.663,11.716-4.882,18.16c0.781,6.444,4.296,8.201,4.296,8.201
			s2.249,7.836,4.982,10.374c2.734,2.538,7.282,3.295,8.063,5.443c0.548,1.505,1.04,4.725,2.073,6.015
			c1.064,1.327,3.976,1.426,5.006-0.021c0,0,9.556,4.159,12.68,1.816c3.124-2.343,5.272-8.982,5.272-8.982s4.686,0.781,7.42,0.781
			c2.734,0,6.249,1.562,6.249,1.562s-2.734-11.325-3.905-17.183c-1.172-5.858-4.686-18.355-8.396-25.384
			C471.049,137.034,462.067,134.3,456.014,135.471z"/>
		<path style="fill:#263238;stroke:#263238;stroke-linecap:round;stroke-linejoin:round;stroke-miterlimit:10;" d="M439.221,171.79
			c1.562-1.172,2.343-5.077,4.686-5.272c2.343-0.195,6.249,3.71,13.864,3.515c7.615-0.195,9.177-3.124,9.177-3.124
			s1.172,0.976,2.343-1.367c1.172-2.343,0.195-5.663,3.319-6.249s5.467,6.444,5.467,8.201c0,1.315,2.732,1.755,4.927,1.239
			c-1.296-6.104-4.677-17.908-8.246-24.67c-3.71-7.03-12.692-9.763-18.745-8.592c0,0-14.645,0.586-20.112,7.811
			s-5.663,11.716-4.882,18.16c0.781,6.444,4.296,8.201,4.296,8.201S437.659,172.962,439.221,171.79z"/>
		<path style="fill:none;stroke:#263238;stroke-linecap:round;stroke-linejoin:round;stroke-miterlimit:10;" d="M449.18,181.358
			c0,0,3.71-4.296,7.615-4.491"/>
		<path style="fill:none;stroke:#263238;stroke-linecap:round;stroke-linejoin:round;stroke-miterlimit:10;" d="M453.085,182.335
			c0,0,3.319,0.976,5.077-4.1"/>
		<path style="fill:none;stroke:#263238;stroke-linecap:round;stroke-linejoin:round;stroke-miterlimit:10;" d="M458.357,190.34
			c0,0,2.148,0.195,3.905-2.734"/>
		<path style="fill:#FFFFFF;stroke:#263238;stroke-linecap:round;stroke-linejoin:round;stroke-miterlimit:10;" d="M478.079,167.495
			c0,0,0.195,3.905-1.953,4.686"/>
		<g>
			<polygon style="fill:#FFFFFF;stroke:#263238;stroke-linecap:round;stroke-linejoin:round;stroke-miterlimit:10;" points="
				434.482,474.368 350.867,451.62 379.972,442.572 463.587,465.32 			"/>
			<polygon style="fill:#92E3A9;stroke:#263238;stroke-linecap:round;stroke-linejoin:round;stroke-miterlimit:10;" points="
				427.722,470.425 364.845,453.319 386.732,446.515 449.609,463.621 			"/>
			<g>
				<path style="fill:#FFFFFF;stroke:#263238;stroke-linecap:round;stroke-linejoin:round;stroke-miterlimit:10;" d="
					M403.644,457.734c-0.639,0-1.285-0.186-1.852-0.575c-1.495-1.024-1.876-3.067-0.852-4.561L542.3,246.305
					c1.024-1.495,3.067-1.878,4.561-0.852c1.496,1.024,1.877,3.067,0.852,4.562L406.354,456.307
					C405.718,457.235,404.69,457.734,403.644,457.734z"/>
			</g>
			<path style="fill:#263238;stroke:#263238;stroke-linecap:round;stroke-linejoin:round;stroke-miterlimit:10;" d="M400.94,452.598
				c-1.024,1.494-0.643,3.537,0.852,4.561c0.567,0.389,1.213,0.575,1.852,0.575c1.046,0,2.074-0.499,2.71-1.427l24.534-35.804
				l-6.669-1.878L400.94,452.598z"/>
		</g>
		<g>
			<path style="fill:#92E3A9;stroke:#263238;stroke-linecap:round;stroke-linejoin:round;stroke-miterlimit:10;" d="
				M535.126,273.398c0,0,2.223-1.821,2.382-3.218c0.159-1.397-0.735-4.532-1.435-4.427s-0.829,2.348-0.829,2.348
				s0.577,1.403,0.493,2.653"/>
			<path style="fill:#92E3A9;stroke:#263238;stroke-linecap:round;stroke-linejoin:round;stroke-miterlimit:10;" d="
				M526.605,280.319c0,0,2.064-0.424,2.985-0.601c0.921-0.176,3.56-3.356,3.576-5.196c0.015-1.84-1.16-2.07-2.016-0.937
				C530.294,274.719,526.605,280.319,526.605,280.319z"/>
			<path style="fill:#92E3A9;stroke:#263238;stroke-linecap:round;stroke-linejoin:round;stroke-miterlimit:10;" d="
				M532.412,276.724c0,0,2.298-1.968,2.714-3.326s1.221-5.289,0.117-5.298c-1.104-0.009-1.648-0.934-1.956,0.757
				c-0.308,1.69-0.62,3.748-0.62,3.748S532.161,275.949,532.412,276.724z"/>
		</g>
		<path style="fill:#FFFFFF;stroke:#263238;stroke-linecap:round;stroke-linejoin:round;stroke-miterlimit:10;" d="M498.343,236.194
			l-3.573,28.584c0,0-2.474,10.169-3.848,15.666c-1.374,5.497-6.047,21.988-6.047,21.988l14.567,0.824l13.467-38.204l3.298-28.584
			L498.343,236.194z"/>
		<path style="fill:#92E3A9;stroke:#263238;stroke-linecap:round;stroke-linejoin:round;stroke-miterlimit:10;" d="M485.142,293.523
			l20.647,9.518l-12.886,19.915c0,0,2.343,8.786,2.343,9.957c0,1.172-0.586,1.904-1.318,2.343c-0.732,0.439-1.464,0.879-1.464,1.318
			s0.439,2.782-0.439,3.807c-0.879,1.025-3.514,1.171-3.514,1.171s2.196,3.221-0.586,4.979c-2.782,1.757-4.979-3.221-6.004-2.343
			c-1.025,0.879-0.586,10.689-1.757,12.007c-1.171,1.318-3.075-0.146-3.221-1.318c-0.147-1.171-1.318-10.982-1.318-13.618
			c0-2.636,1.464-18.597,2.782-22.843C479.724,314.17,485.142,293.523,485.142,293.523z"/>
		<g>
			<path style="fill:#263238;stroke:#263238;stroke-linecap:round;stroke-linejoin:round;stroke-miterlimit:10;" d="
				M539.252,361.462l5.653,78.06c0,0-11.305,6.999-15.612,9.421c-4.307,2.422-11.844,4.576-12.651,6.46
				c-0.807,1.884-0.231,6.439,7.287,7.661c7.518,1.222,20.438-0.662,20.438-0.662s14.805,4.038,17.765,3.23
				c2.961-0.807,3.499-5.922,3.768-9.152c0.269-3.23-3.499-22.341-3.499-22.341s4.576-54.373,3.23-63.525
				c-1.346-9.152-2.692-28.263-2.692-28.263l1.884-12.113l-28.263-1.346L539.252,361.462z"/>
			<path style="fill:#FFFFFF;stroke:#263238;stroke-linecap:round;stroke-linejoin:round;stroke-miterlimit:10;" d="
				M562.401,434.139c0,0,0.039-0.457,0.107-1.286c-6.662,2.613-14.192,1.633-18.025,0.835l0.422,5.834
				c0,0-11.305,6.999-15.612,9.421c-4.307,2.422-11.844,4.576-12.651,6.46c-0.807,1.884-0.231,6.439,7.287,7.661
				s20.438-0.662,20.438-0.662s14.805,4.038,17.765,3.23c2.961-0.807,3.499-5.922,3.768-9.152
				C566.169,453.25,562.401,434.139,562.401,434.139z"/>
			<path style="fill:#FFFFFF;stroke:#263238;stroke-linecap:round;stroke-linejoin:round;stroke-miterlimit:10;" d="
				M562.401,434.139c0,0,0.039-0.457,0.107-1.286c-6.662,2.613-14.192,1.633-18.025,0.835l0.422,5.834
				c0,0-11.305,6.999-15.612,9.421c-4.307,2.422-11.844,4.576-12.651,6.46c-0.807,1.884-0.231,6.439,7.287,7.661
				s20.438-0.662,20.438-0.662s14.805,4.038,17.765,3.23c2.961-0.807,3.499-5.922,3.768-9.152
				C566.169,453.25,562.401,434.139,562.401,434.139z"/>
			<path style="fill:#FFFFFF;stroke:#263238;stroke-linecap:round;stroke-linejoin:round;stroke-miterlimit:10;" d="
				M562.401,434.139c0,0,0.039-0.457,0.107-1.286c-6.662,2.613-14.192,1.633-18.025,0.835l0.422,5.834
				c0,0-11.305,6.999-15.612,9.421c-4.307,2.422-11.844,4.576-12.651,6.46c-0.807,1.884-0.231,6.439,7.287,7.661
				s20.438-0.662,20.438-0.662s14.805,4.038,17.765,3.23c2.961-0.807,3.499-5.922,3.768-9.152
				C566.169,453.25,562.401,434.139,562.401,434.139z"/>
			<path style="fill:#FFFFFF;stroke:#263238;stroke-linecap:round;stroke-linejoin:round;stroke-miterlimit:10;" d="
				M539.256,442.993c-3.479,2.125-7.693,4.673-9.964,5.95c-4.307,2.422-11.844,4.576-12.651,6.46
				c-0.807,1.884-0.231,6.439,7.287,7.661s20.438-0.662,20.438-0.662s14.805,4.038,17.765,3.23c2.961-0.807,3.499-5.922,3.768-9.152
				c0.114-1.367-0.496-5.577-1.236-9.98c-2.736,0.949-6.539,2.086-11.146,2.981C546.302,450.885,541.327,445.722,539.256,442.993z"
				/>
			<path style="fill:#92E3A9;stroke:#263238;stroke-linecap:round;stroke-linejoin:round;stroke-miterlimit:10;" d="
				M562.132,465.632c1.759-0.48,2.66-2.482,3.16-4.703c-3.864,1.642-11.088,0.097-15.273-0.949
				c-4.307-1.077-7.806,0.538-21.265,1.077c-6.012,0.24-9.656-0.809-11.853-2.043c0.857,1.692,2.885,3.377,7.027,4.051
				c7.518,1.222,20.438-0.662,20.438-0.662S559.171,466.44,562.132,465.632z"/>
		</g>
		<path style="fill:#263238;stroke:#263238;stroke-linecap:round;stroke-linejoin:round;stroke-miterlimit:10;" d="M595.24,244.641
			c0,0,4.845,15.612,2.961,24.764s-51.412,80.214-51.412,80.214s-4.576,32.57-9.421,51.143
			c-4.845,18.573-13.19,36.338-13.728,41.453c-0.538,5.114,0.538,21.265,0.269,24.225c-0.269,2.961-21.265,6.46-29.609,8.344
			c-8.344,1.884-26.648-2.423-26.648-5.922c0-3.499,17.517-8.932,22.611-12.651c7.221-5.273,18.61-20.912,18.304-23.687
			c-0.346-3.132,8.883-60.564,8.883-68.37c0-7.806,0.807-18.842,2.153-22.341c1.346-3.499,6.729-18.304,6.729-18.304
			s30.955-57.334,31.493-72.408c0.538-15.074,4.576-13.997,8.614-15.074C570.476,234.951,590.395,237.912,595.24,244.641z"/>
		<path style="fill:#FFFFFF;stroke:#263238;stroke-linecap:round;stroke-linejoin:round;stroke-miterlimit:10;" d="M584.742,218.801
			c0,0,11.574,23.687,11.574,27.994c0,4.307-8.614,8.075-8.614,8.075l-11.844-34.993L584.742,218.801z"/>
		<path style="fill:#FFFFFF;stroke:#263238;stroke-linecap:round;stroke-linejoin:round;stroke-miterlimit:10;" d="M525.621,435.371
			c-7.669,0.165-13.54-1.605-17.063-3.086c0,0.096,0.002,0.18,0.008,0.239c0.307,2.775-11.082,18.414-18.304,23.687
			c-5.094,3.719-22.611,9.152-22.611,12.651c0,3.499,18.304,7.806,26.648,5.922c8.344-1.884,29.34-5.383,29.609-8.344
			c0.269-2.961-0.807-19.111-0.269-24.226C523.788,440.808,524.528,438.443,525.621,435.371z"/>
		<path style="fill:#FFFFFF;stroke:#263238;stroke-linecap:round;stroke-linejoin:round;stroke-miterlimit:10;" d="M523.909,466.44
			c0.156-1.714-0.139-7.848-0.311-13.702c-3.067,1.938-6.741,3.546-9.918,2.936c-6.998-1.346-5.922-4.307-7.806-6.729
			c-1.295-1.664-4.241-2.312-5.958-2.555c-3.208,3.942-6.764,7.712-9.654,9.823c-5.094,3.719-22.611,9.152-22.611,12.651
			c0,3.499,18.304,7.806,26.648,5.922C502.645,472.9,523.64,469.401,523.909,466.44z"/>
		<path style="fill:#92E3A9;stroke:#263238;stroke-linecap:round;stroke-linejoin:round;stroke-miterlimit:10;" d="M523.909,466.44
			c0.056-0.62,0.053-1.823,0.019-3.375c-6.85,2.814-20.524,7.652-34.742,8.22c-14.476,0.579-19.124-2.302-20.597-3.978
			c-0.592,0.549-0.937,1.071-0.937,1.556c0,3.499,18.304,7.806,26.648,5.922C502.645,472.9,523.64,469.401,523.909,466.44z"/>
		<path style="fill:#92E3A9;stroke:#263238;stroke-linecap:round;stroke-linejoin:round;stroke-miterlimit:10;" d="M527.409,235.758
			l-5.922,27.994c0,0-4.845,8.883-3.768,9.959c1.077,1.077,4.907,3.145,4.907,3.145l8.344-10.498l8.552-19.026L527.409,235.758z"/>
		<path style="fill:#92E3A9;stroke:#263238;stroke-linecap:round;stroke-linejoin:round;stroke-miterlimit:10;" d="M523.909,263.752
			c0,0-1.346,6.998-2.961,9.421c-1.615,2.423-4.576,4.845-1.884,5.653c2.692,0.807,8.344-6.999,9.69-9.152
			c1.346-2.153,1.884-8.344,1.884-8.344"/>
		<g>
			<g>
				<path style="fill:#92E3A9;stroke:#263238;stroke-linecap:round;stroke-linejoin:round;stroke-miterlimit:10;" d="
					M522.294,229.837c0,0,9.421,11.844,12.651,17.227c3.23,5.383,5.114,18.035,4.038,27.186
					c-1.077,9.152-14.535,53.566-14.535,53.566s10.498,5.114,27.725,6.46c17.227,1.346,32.57,1.884,32.57,1.884
					s9.152-62.179,7.537-78.599c-1.615-16.42-9.69-36.069-9.69-36.069l2.153-2.692l-1.746-1.846l-55.049,2.922L522.294,229.837z"/>
				<g>
					<path style="fill:none;stroke:#263238;stroke-linecap:round;stroke-linejoin:round;stroke-miterlimit:10;" d="M576.121,243.339
						c1.601-0.425,3.234-0.892,4.893-1.406"/>
					<path style="fill:none;stroke:#263238;stroke-linecap:round;stroke-linejoin:round;stroke-miterlimit:10;" d="M546.135,247.627
						c0,0,10.822,0.144,25.361-3.151"/>
					<path style="fill:none;stroke:#263238;stroke-linecap:round;stroke-linejoin:round;stroke-miterlimit:10;" d="M539.521,247.333
						c0,0,3.924,4.535,20.138,7.412"/>
					
						<line style="fill:none;stroke:#263238;stroke-linecap:round;stroke-linejoin:round;stroke-miterlimit:10;" x1="580.302" y1="221.646" x2="572.116" y2="227.697"/>
					
						<line style="fill:none;stroke:#263238;stroke-linecap:round;stroke-linejoin:round;stroke-miterlimit:10;" x1="579.234" y1="225.561" x2="572.472" y2="233.747"/>
					<path style="fill:none;stroke:#263238;stroke-linecap:round;stroke-linejoin:round;stroke-miterlimit:10;" d="M542.576,258.304
						c0,0,7.118,11.389,14.236,15.304"/>
				</g>
			</g>
			<path style="fill:#92E3A9;stroke:#263238;stroke-linecap:round;stroke-linejoin:round;stroke-miterlimit:10;" d="
				M582.996,216.955c0,0,0.939-9.998,3.092-9.998s7.268,5.653,5.922,6.191c-1.346,0.538-6.729,3.769-6.729,3.769l14.805,19.111
				l-4.845,4.576L582.996,216.955z"/>
		</g>
		<path style="fill:#FFFFFF;stroke:#263238;stroke-linecap:round;stroke-linejoin:round;stroke-miterlimit:10;" d="M487.061,186.63
			c0,0,2.596,14.309,5.587,22.65c2.99,8.341,3.305,30.218,3.305,30.218l27.07,1.102l5.278-18.973l54.695-4.672
			c0,0-25.561-30.233-41.502-43.701c-15.941-13.467-50.572-15.941-54.42-15.391c-3.848,0.55-7.146,2.748-7.146,2.748L487.061,186.63
			z"/>
		<polygon style="fill:#263238;stroke:#263238;stroke-linecap:round;stroke-linejoin:round;stroke-miterlimit:10;" points="
			528.302,221.627 534.035,206.343 530.832,240.509 525.137,233.747 		"/>
		<path style="fill:#263238;stroke:#263238;stroke-linecap:round;stroke-linejoin:round;stroke-miterlimit:10;" d="M459.919,134.886
			c0,0,1.953-6.053,7.615-8.982c5.663-2.929,15.035-0.586,18.16,3.319c3.124,3.905,4.882,8.982,7.615,10.935
			c2.734,1.953,8.201-3.32,13.083-0.781c4.882,2.539,6.834,8.201,7.225,10.935c0.391,2.734,6.639-4.491,14.645-0.781
			c8.006,3.71,9.373,15.231,7.615,18.745c-1.757,3.515-9.958,9.177-19.526,2.343c-9.568-6.834-15.621-12.302-17.183-10.544
			c-1.562,1.757-1.562,10.739-8.201,6.053c-6.639-4.686-12.887-21.088-17.183-25.97c-4.296-4.882-10.349-4.882-10.349-4.882
			L459.919,134.886z"/>
		<path style="fill:#92E3A9;stroke:#263238;stroke-linecap:round;stroke-linejoin:round;stroke-miterlimit:10;" d="M482.726,159.044
			c0,0,7.806,15.612,8.883,21.534c1.077,5.922-1.884,17.227-1.884,17.227l-9.796-37.194L482.726,159.044z"/>
	</g>
</g>
<g id="Character_1">
	<g>
		<path style="fill:#FFFFFF;stroke:#263238;stroke-linecap:round;stroke-linejoin:round;stroke-miterlimit:10;" d="M337.853,122.973
			c0,0-2.269,5.547-1.765,7.564c0.504,2.017,0.252,4.034-0.756,5.295c-1.009,1.261-2.017,2.521-1.009,3.53
			c1.009,1.009,1.009,1.009,1.009,1.009s1.008,8.321,2.269,9.581c1.261,1.261,4.539,1.261,4.539,1.261l0.252,6.303
			c0,0,6.051-0.756,9.581-0.252c3.53,0.504,8.069,0.504,8.069,0.504s-1.513-5.799-1.009-10.086
			c0.504-4.286,2.521-12.103,0.756-16.641c-1.765-4.538-11.346-9.581-14.624-9.077C341.888,122.469,337.853,122.973,337.853,122.973
			z"/>
		<path style="fill:#263238;stroke:#263238;stroke-linecap:round;stroke-linejoin:round;stroke-miterlimit:10;" d="M347.182,115.913
			c0,0-2.773-0.252-4.538-1.261c-1.765-1.009-5.295-1.261-4.286,0.756c1.009,2.017,1.765,4.539,1.765,4.539
			s-6.304-3.026-5.043-0.756c1.261,2.269,2.774,3.782,2.774,3.782s0.252,6.556,1.765,7.312c1.513,0.756,0.756,3.026,0.504,5.043
			c-0.252,2.017,0,3.782,1.009,3.782c1.009,0,1.009,0,1.009,0s1.513-2.017,2.774,0.756c1.261,2.774,1.513,4.791,1.765,6.808
			c0.252,2.017,4.286,3.782,6.808,4.034c2.521,0.252,5.547-0.504,6.051-1.261c0.504-0.756,5.043-6.808,6.556-12.607
			c1.513-5.799,0-13.111-3.026-16.137c-3.026-3.026-8.573-5.043-8.573-5.043s-4.791-6.051-5.799-4.286
			S347.182,115.913,347.182,115.913z"/>
		<g>
			
				<rect x="267.643" y="142.342" transform="matrix(0.9468 -0.3217 0.3217 0.9468 -35.2134 94.4771)" style="fill:#FFFFFF;stroke:#263238;stroke-linecap:round;stroke-linejoin:round;stroke-miterlimit:10;" width="1.255" height="22.896"/>
			<path style="fill:#92E3A9;stroke:#263238;stroke-linecap:round;stroke-linejoin:round;stroke-miterlimit:10;" d="
				M270.561,143.902l-10.132,3.442c-2.604,0.885-5.458-0.522-6.343-3.126l-10.425-38.729c-0.663-1.953,0.391-4.094,2.344-4.757
				l7.599-2.582c1.953-0.663,4.094,0.392,4.757,2.344l15.326,37.065C274.572,140.163,273.165,143.018,270.561,143.902z"/>
		</g>
		<g>
			<path style="fill:#FFFFFF;stroke:#263238;stroke-linecap:round;stroke-linejoin:round;stroke-miterlimit:10;" d="
				M275.879,177.501l3.462-0.239l-2.507-4.417C276.834,172.845,275.282,175.232,275.879,177.501z"/>
			<path style="fill:#FFFFFF;stroke:#263238;stroke-linecap:round;stroke-linejoin:round;stroke-miterlimit:10;" d="
				M305.831,169.115l-12.103,2.521l-18.406-8.825l-3.278,4.286c0,0,9.833,15.633,12.607,17.146
				c2.773,1.513,26.727,0.252,26.727,0.252L305.831,169.115z"/>
			<path style="fill:#92E3A9;stroke:#263238;stroke-linecap:round;stroke-linejoin:round;stroke-miterlimit:10;" d="M269.79,156.251
				c0,0-4.895-2.626-5.492-2.507c-0.597,0.119-1.433,0.597-1.194,1.552c0.239,0.955,0.597,2.149,0.597,2.149s-1.91,5.73-1.433,7.163
				c0.478,1.433,2.507,3.82,3.701,4.298c1.194,0.478,2.865,0.836,2.865,0.836l7.044,7.76c0,0,1.433-4.536,3.104-6.447
				c1.671-1.91,4.656-4.298,4.656-4.298s-5.492-4.775-5.85-5.014c-0.358-0.239-1.433-2.507-1.91-3.462
				c-0.478-0.955-1.791-1.433-3.343-2.388c-1.552-0.955-1.91-1.433-2.507-1.074C269.432,155.176,269.79,156.251,269.79,156.251z"/>
		</g>
		<g>
			<path style="fill:#FFFFFF;stroke:#263238;stroke-linecap:round;stroke-linejoin:round;stroke-miterlimit:10;" d="
				M367.893,385.683c0,0-0.214,8.769,0.428,9.838c0.642,1.069,4.705,1.711,7.7,1.069c2.994-0.642,4.491-1.283,4.491-2.78
				c0-1.497-1.283-13.688-1.283-13.688l-11.763,0.855L367.893,385.683z"/>
			<path style="fill:#92E3A9;stroke:#263238;stroke-linecap:round;stroke-linejoin:round;stroke-miterlimit:10;" d="M376.021,396.59
				c2.994-0.642,4.491-1.283,4.491-2.78c0-0.191-0.021-0.559-0.058-1.052c-5.281,2.23-10.1,1.314-12.483,0.57
				c0.07,1.068,0.179,1.908,0.35,2.193C368.963,396.59,373.026,397.232,376.021,396.59z"/>
		</g>
		<g>
			<path style="fill:#FFFFFF;stroke:#263238;stroke-linecap:round;stroke-linejoin:round;stroke-miterlimit:10;" d="
				M319.771,385.683c0,0-4.919,2.353-7.913,3.636c-2.994,1.283-11.763,3.422-12.405,4.491c-0.642,1.069-0.428,3.85,0.428,4.705
				c0.855,0.856,30.798,2.567,34.434,2.139c3.636-0.428,5.347-1.069,5.347-2.994s0-7.058,0-7.058L319.771,385.683z"/>
			<path style="fill:#92E3A9;stroke:#263238;stroke-linecap:round;stroke-linejoin:round;stroke-miterlimit:10;" d="M339.661,397.66
				c0-0.392,0-0.919,0-1.506c-2.197,1.392-5.347,2.362-5.347,2.362l-35.218-2.502c0.053,1.014,0.32,2.039,0.783,2.502
				c0.855,0.856,30.798,2.567,34.434,2.139C337.95,400.226,339.661,399.585,339.661,397.66z"/>
		</g>
		<g>
			<polygon style="fill:#FFFFFF;stroke:#263238;stroke-linecap:round;stroke-linejoin:round;stroke-miterlimit:10;" points="
				388.143,186.534 394.132,230.209 390.139,254.916 383.401,255.415 382.403,226.215 376.663,195.019 			"/>
			<g>
				<path style="fill:#92E3A9;stroke:#263238;stroke-linecap:round;stroke-linejoin:round;stroke-miterlimit:10;" d="
					M380.406,250.424l12.229,1.747l-2.995,18.718c0,0,1.248,6.988,0.499,8.984c-0.749,1.997-3.494,4.991-5.491,6.239
					c-1.996,1.248-3.993,2.995-5.241,0.499c-1.248-2.496-3.494-13.227-2.995-14.725c0.499-1.497,2.995-7.737,2.995-7.737
					L380.406,250.424z"/>
				<path style="fill:none;stroke:#263238;stroke-linecap:round;stroke-linejoin:round;stroke-miterlimit:10;" d="M383.9,268.892
					c0,0-0.749,5.74,0,6.988c0.749,1.248,1.997,2.995,1.997,2.995l-3.244,4.991"/>
			</g>
		</g>
		<path style="fill:#263238;stroke:#263238;stroke-linecap:round;stroke-linejoin:round;stroke-miterlimit:10;" d="M325.332,258.639
			l2.353,74.643l-2.78,47.908l-4.705,1.925l-0.428,2.566c0,0,9.411,4.919,12.191,5.561c2.78,0.642,7.058,1.283,7.058,1.283
			s4.492-27.376,4.919-29.729c0.428-2.353,3.422-36.573,3.422-36.573l4.705-35.076l3.636-0.642l7.7,46.198l4.491,48.978
			c0,0,0.642,1.283,4.705,1.925c4.064,0.642,6.844-0.642,6.844-0.642l0.214-17.752l1.283-48.336l-3.422-64.163L325.332,258.639z"/>
		<path style="fill:#FFFFFF;stroke:#263238;stroke-linecap:round;stroke-linejoin:round;stroke-miterlimit:10;" d="M371.529,232.974
			l5.989,23.74c0,0-8.983,2.78-27.59,4.064c-18.607,1.283-24.596-2.139-24.596-2.139l3.636-31.44c0,0,17.11,5.347,28.446,4.705
			c11.335-0.642,13.046-0.642,13.046-0.642L371.529,232.974z"/>
		<g>
			<path style="fill:#92E3A9;stroke:#263238;stroke-linecap:round;stroke-linejoin:round;stroke-miterlimit:10;" d="
				M323.733,221.057c0,0-3.107,41.433-3.107,48.705c0,7.272,0.642,27.162,0.642,27.162l5.133,2.78c0,0,1.069-35.504,2.353-45.128
				c1.283-9.625,4.491-23.313,4.491-23.313s21.602,2.353,23.954,2.353c2.353,0,12.619-0.855,12.619-0.855l1.711,0.214l-0.141-6.623
				c0,0-16.328,0.848-27.877-1.505c-11.549-2.353-20.746-6.63-20.746-6.63L323.733,221.057z"/>
			<path style="fill:#92E3A9;stroke:#263238;stroke-linecap:round;stroke-linejoin:round;stroke-miterlimit:10;" d="M354.847,232.76
				c0,0-8.555-3.85-9.197-2.78c-0.642,1.069-2.139,5.989-1.069,6.416c1.069,0.428,8.555-1.069,8.555-1.069s-0.856,6.63-0.428,14.33
				s1.283,18.821,1.283,18.821l4.491-1.069c0,0-1.497-18.607-1.925-20.746c-0.428-2.139,0.428-10.052,0.428-10.052
				s1.925,7.058,2.567,8.555c0.642,1.497,1.711,17.752,1.711,17.752l4.491-0.642c0,0-1.069-13.26-2.566-16.682
				c-1.497-3.422-3.85-8.341-3.85-8.341s2.353,1.283,2.994,1.497c0.642,0.214,2.994,2.566,2.994,2.566s1.069-4.705,0.642-6.416
				c-0.428-1.711-0.855-1.497-3.422-1.925C359.98,232.546,354.847,232.76,354.847,232.76z"/>
		</g>
		<g>
			<path style="fill:#FFFFFF;stroke:#263238;stroke-linecap:round;stroke-linejoin:round;stroke-miterlimit:10;" d="
				M342.392,157.517l-23.449,3.782l-13.111,7.816l6.303,17.65l9.077-1.261c0,0,0.504,33.031,2.522,35.552
				c2.017,2.521,12.859,6.556,20.423,7.312c7.564,0.756,21.18,1.765,23.449,1.513c2.269-0.252,3.026-1.765,3.782-3.53
				c0.756-1.765,5.547-20.928,5.547-20.928l3.53-10.338l11.851-5.295c0,0-6.051-15.885-8.321-18.154
				c-2.269-2.269-19.919-11.851-20.676-12.607c-0.756-0.757-3.278-1.261-3.278-1.261S347.182,155.247,342.392,157.517z"/>
			<path style="fill:none;stroke:#263238;stroke-linecap:round;stroke-linejoin:round;stroke-miterlimit:10;" d="M338.862,167.602
				c0,0,3.026,7.06,6.808,15.128"/>
			<path style="fill:none;stroke:#263238;stroke-linecap:round;stroke-linejoin:round;stroke-miterlimit:10;" d="M344.409,174.662
				c0,0,5.799,11.094,8.321,13.868"/>
			
				<line style="fill:none;stroke:#263238;stroke-linecap:round;stroke-linejoin:round;stroke-miterlimit:10;" x1="380.465" y1="195.086" x2="382.987" y2="183.992"/>
			
				<line style="fill:none;stroke:#263238;stroke-linecap:round;stroke-linejoin:round;stroke-miterlimit:10;" x1="321.212" y1="185.505" x2="319.699" y2="176.68"/>
		</g>
	</g>
</g>
<g id="Bucket">
	<g>
		<g>
			<path style="fill:#263238;stroke:#263238;stroke-linecap:round;stroke-linejoin:round;stroke-miterlimit:10;" d="
				M622.473,421.641c-1.748-2.177-3.033-2.403-3.033-2.403l-6.469-12.836l-0.702-1.393l-5.619-11.148c0,0,0.583-1.168-0.127-3.868
				c-0.71-2.7-3.722-4.745-3.722-4.745l-7.462,2.954l-6.814,4.24c0,0-0.148,3.637,1.6,5.814c1.748,2.177,3.033,2.403,3.033,2.403
				l5.619,11.148l0.702,1.393l6.469,12.836c0,0-0.583,1.167,0.127,3.868c0.044,0.169,0.098,0.335,0.159,0.498
				c2.211,5.912,11.222,3.837,15.375-0.622c2.06-2.213,2.925-5.013,1.17-7.716C622.684,421.919,622.582,421.777,622.473,421.641z"/>
			
				<rect x="587.142" y="385.97" transform="matrix(0.893 -0.4501 0.4501 0.893 -110.7439 309.2104)" style="fill:#FFFFFF;stroke:#263238;stroke-linecap:round;stroke-linejoin:round;stroke-miterlimit:10;" width="15.541" height="3.07"/>
		</g>
		
			<rect x="632.385" y="385.437" transform="matrix(0.8164 -0.5775 0.5775 0.8164 -110.4731 446.4187)" style="fill:#92E3A9;stroke:#263238;stroke-linecap:round;stroke-linejoin:round;stroke-miterlimit:10;" width="28.834" height="23.006"/>
		<polygon style="fill:#92E3A9;stroke:#263238;stroke-linecap:round;stroke-linejoin:round;stroke-miterlimit:10;" points="
			649.746,378.859 651.928,379.223 665.214,398.004 663.032,397.641 		"/>
		
			<rect x="630.203" y="385.073" transform="matrix(0.8164 -0.5775 0.5775 0.8164 -110.6636 445.0941)" style="fill:#FFFFFF;stroke:#263238;stroke-linecap:round;stroke-linejoin:round;stroke-miterlimit:10;" width="28.834" height="23.006"/>
		<g>
			<path style="fill:#FFFFFF;stroke:#263238;stroke-linecap:round;stroke-linejoin:round;stroke-miterlimit:10;" d="
				M632.537,374.477c0,0,2.988,0.285,3.415,0.64c0.427,0.356,1.423,2.348,2.277,3.273c0.854,0.925,2.206,1.423,2.206,1.138
				s-2.348-4.198-3.06-6.048c-0.711-1.85-1.494-2.206-1.85-2.206C635.17,371.276,632.537,374.477,632.537,374.477z"/>
			<path style="fill:#FFFFFF;stroke:#263238;stroke-linecap:round;stroke-linejoin:round;stroke-miterlimit:10;" d="
				M638.911,367.732c0,0-10.491,0.414-11.043,0.552c-0.552,0.138-4.969,2.761-4.969,2.761l1.104,4.141h2.347l-0.216,0.714h6.688
				l3.19-4.303l3.175-0.276L638.911,367.732z"/>
			
				<rect x="638.728" y="367.362" style="fill:#263238;stroke:#263238;stroke-linecap:round;stroke-linejoin:round;stroke-miterlimit:10;" width="3.558" height="4.483"/>
			
				<rect x="626.134" y="375.901" style="fill:#FFFFFF;stroke:#263238;stroke-linecap:round;stroke-linejoin:round;stroke-miterlimit:10;" width="6.688" height="5.194"/>
			<polygon style="fill:#263238;stroke:#263238;stroke-linecap:round;stroke-linejoin:round;stroke-miterlimit:10;" points="
				635.066,391.905 634.872,384.16 632.742,381.095 629.542,381.173 626.342,381.095 624.212,384.16 624.018,391.905 
				620.723,407.21 629.542,407.21 638.361,407.21 			"/>
			<polygon style="fill:#FFFFFF;stroke:#263238;stroke-linecap:round;stroke-linejoin:round;stroke-miterlimit:10;" points="
				635.064,391.812 634.872,384.16 632.742,381.095 629.542,381.173 626.342,381.095 624.212,384.16 624.02,391.812 			"/>
		</g>
		<g>
			<path style="fill:#263238;stroke:#263238;stroke-linecap:round;stroke-linejoin:round;stroke-miterlimit:10;" d="
				M624.946,376.311h-7.628v-3.174c0-1.169,0.948-2.117,2.117-2.117h3.393c1.169,0,2.117,0.948,2.117,2.117V376.311z"/>
			<path style="fill:#FFFFFF;stroke:#263238;stroke-linecap:round;stroke-linejoin:round;stroke-miterlimit:10;" d="
				M629.798,381.142c-0.644-2.454-5.22-4.831-5.22-4.831h-3.867h-3.867c0,0-4.575,2.377-5.22,4.831c-0.644,2.454,0,6.748,0,6.748
				h9.086h9.086C629.798,387.891,630.442,383.596,629.798,381.142z"/>
			<path style="fill:#FFFFFF;stroke:#263238;stroke-linecap:round;stroke-linejoin:round;stroke-miterlimit:10;" d="
				M630.182,412.583h-18.941v-16.319c0-0.982,0.796-1.779,1.779-1.779h15.384c0.982,0,1.779,0.796,1.779,1.779V412.583z"/>
			<path style="fill:#FFFFFF;stroke:#263238;stroke-linecap:round;stroke-linejoin:round;stroke-miterlimit:10;" d="
				M629.701,387.891h-9.038h-9.038c0,0,1.401,1.304,1.85,2.991c0.449,1.687-1.572,3.834-1.572,3.834h8.76h8.76
				c0,0-2.022-2.147-1.572-3.834C628.3,389.194,629.701,387.891,629.701,387.891z"/>
		</g>
		<g>
			<path style="fill:none;stroke:#263238;stroke-linecap:round;stroke-linejoin:round;stroke-miterlimit:10;" d="M657.596,417.185
				h6.207c0,0,2.403,16.219,3.004,23.228s-4.806,16.219-9.612,17.621c-4.806,1.402-4.806,1.402-4.806,1.402"/>
			
				<rect x="655.994" y="413.981" transform="matrix(0.9956 0.0935 -0.0935 0.9956 41.9407 -59.7202)" style="fill:#92E3A9;stroke:#263238;stroke-linecap:round;stroke-linejoin:round;stroke-miterlimit:10;" width="4.205" height="7.209"/>
			<path style="fill:#92E3A9;stroke:#263238;stroke-linecap:round;stroke-linejoin:round;stroke-miterlimit:10;" d="
				M646.453,478.002h-41.865c-1.419,0-2.62-1.046-2.815-2.452l-9.692-69.857h66.878l-9.692,69.857
				C649.074,476.956,647.872,478.002,646.453,478.002z"/>
			
				<rect x="588.94" y="405.694" style="fill:#92E3A9;stroke:#263238;stroke-linecap:round;stroke-linejoin:round;stroke-miterlimit:10;" width="73.163" height="3.175"/>
			
				<line style="fill:none;stroke:#263238;stroke-linecap:round;stroke-linejoin:round;stroke-miterlimit:10;" x1="635.322" y1="416.599" x2="644.847" y2="416.599"/>
			
				<line style="fill:none;stroke:#263238;stroke-linecap:round;stroke-linejoin:round;stroke-miterlimit:10;" x1="595.566" y1="416.599" x2="631.595" y2="416.599"/>
		</g>
	</g>
</g>
<g id="Sign">
	<g>
		<path style="fill:#FFFFFF;stroke:#263238;stroke-linecap:round;stroke-linejoin:round;stroke-miterlimit:10;" d="M201.236,362.854
			c-0.275-3.01-2.799-5.315-5.821-5.315h-1.744v-13.835c0-2.076-1.683-3.759-3.759-3.759h-44.407c-2.076,0-3.759,1.683-3.759,3.759
			v13.835h-1.744c-3.023,0-5.547,2.305-5.822,5.315l-9.428,110.311l18.446,0.386l0.327-3.061c0.33-3.091,2.938-5.436,6.047-5.436
			h36.271c3.109,0,5.717,2.345,6.047,5.436l0.327,3.061l18.446-0.386L201.236,362.854z M180.983,355.959h-26.551v-8.218h26.551
			V355.959z"/>
		<g>
			<g>
				<path style="fill:#263238;" d="M192.63,427.27h-47.723c-1.744,0-3.302-0.904-4.165-2.42c-0.864-1.515-0.85-3.315,0.038-4.816
					l23.862-40.344c0.001,0,0.001,0,0.001,0c0.872-1.474,2.414-2.354,4.126-2.354s3.256,0.88,4.128,2.354l23.862,40.344
					c0.888,1.502,0.902,3.302,0.038,4.817C195.931,426.366,194.374,427.27,192.63,427.27z M168.083,381.727l-23.861,40.344
					c-0.205,0.346-0.092,0.648-0.006,0.798c0.085,0.15,0.289,0.401,0.691,0.401h47.723c0.402,0,0.605-0.251,0.69-0.401
					c0.085-0.149,0.198-0.452-0.006-0.798l-23.861-40.344c-0.201-0.34-0.515-0.391-0.684-0.391
					C168.598,381.336,168.285,381.387,168.083,381.727L168.083,381.727z"/>
			</g>
			<path style="fill:#263238;" d="M170.875,408.51c0.78,0.142,1.45,0.283,2.126,0.38c0.585,0.084,0.963,0.403,1.098,0.951
				c0.43,1.743,0.848,3.489,1.236,5.242c0.155,0.7-0.385,1.421-1.089,1.566c-0.765,0.158-1.489-0.278-1.678-1.047
				c-0.298-1.211-0.584-2.426-0.844-3.646c-0.081-0.378-0.221-0.558-0.632-0.617c-1.053-0.151-2.099-0.358-3.146-0.553
				c-0.955-0.178-1.521-0.786-1.787-1.689c-0.379-1.284-0.741-2.573-1.111-3.859c-0.041-0.144-0.088-0.286-0.155-0.501
				c-0.115,0.141-0.203,0.233-0.273,0.337c-0.393,0.58-0.794,1.155-1.166,1.748c-0.241,0.384-0.533,0.561-1.008,0.545
				c-1.156-0.037-2.315-0.024-3.472-0.022c-0.257,0-0.515,0.026-0.77,0.057c-0.674,0.081-1.247-0.443-1.203-1.109
				c0.034-0.517,0.399-0.868,0.919-0.865c1.188,0.008,2.376,0.006,3.564,0.044c0.381,0.012,0.605-0.094,0.806-0.428
				c0.762-1.264,1.545-2.517,2.348-3.756c0.21-0.324,0.486-0.635,0.798-0.859c2.286-1.645,4.589-3.267,6.887-4.895
				c0.087-0.061,0.175-0.123,0.268-0.173c0.538-0.285,1.134-0.14,1.444,0.347c0.304,0.478,0.197,1.038-0.309,1.402
				c-1.198,0.863-2.409,1.709-3.615,2.562c-0.373,0.264-0.753,0.519-1.112,0.8c-0.097,0.076-0.203,0.255-0.177,0.354
				c0.413,1.587,0.847,3.169,1.294,4.819c0.172-0.117,0.307-0.202,0.436-0.296c0.947-0.691,1.899-1.376,2.835-2.08
				c0.492-0.37,1.005-0.457,1.589-0.272c1.826,0.58,3.657,1.146,5.484,1.725c0.798,0.253,1.206,0.975,0.981,1.7
				c-0.228,0.737-1.013,1.151-1.793,0.914c-1.528-0.465-3.054-0.937-4.573-1.431c-0.358-0.117-0.611-0.071-0.91,0.159
				c-0.942,0.723-1.912,1.409-2.87,2.111C171.177,408.263,171.065,408.359,170.875,408.51z"/>
			<path style="fill:#263238;" d="M182.471,417.643c0,0.847,0,1.649,0,2.484c-8.816,0-17.608,0-26.438,0c0-0.816,0-1.63,0-2.484
				C164.83,417.643,173.633,417.643,182.471,417.643z"/>
			<path style="fill:#263238;" d="M163.002,401.22c-1.263,0.001-2.263-0.989-2.267-2.246c-0.004-1.275,1.016-2.301,2.281-2.293
				c1.23,0.008,2.26,1.05,2.257,2.284C165.269,400.211,164.254,401.219,163.002,401.22z"/>
		</g>
	</g>
</g>
<g id="Text">
	<g>
		<g>
			<path d="M149.69,373.887c-0.736,0-1.318-0.134-1.746-0.401c-0.428-0.269-0.73-0.645-0.906-1.128
				c-0.176-0.484-0.264-1.054-0.264-1.71v-3.504c0-0.673,0.088-1.25,0.264-1.734c0.176-0.484,0.478-0.858,0.906-1.122
				c0.428-0.264,1.01-0.396,1.746-0.396c0.72,0,1.282,0.118,1.686,0.353c0.404,0.236,0.69,0.566,0.858,0.99
				c0.168,0.424,0.252,0.912,0.252,1.464v0.84h-2.1v-0.972c0-0.192-0.01-0.376-0.03-0.552c-0.02-0.177-0.078-0.322-0.174-0.438
				c-0.096-0.116-0.26-0.174-0.492-0.174c-0.224,0-0.39,0.06-0.498,0.18c-0.108,0.12-0.176,0.27-0.204,0.45
				c-0.028,0.18-0.042,0.37-0.042,0.57v4.571c0,0.217,0.018,0.414,0.054,0.595c0.036,0.18,0.108,0.323,0.216,0.432
				c0.108,0.108,0.266,0.162,0.474,0.162c0.224,0,0.384-0.058,0.48-0.174c0.096-0.116,0.156-0.267,0.18-0.45
				c0.024-0.184,0.036-0.372,0.036-0.564v-1.02h2.1v0.84c0,0.552-0.082,1.046-0.246,1.482c-0.164,0.436-0.448,0.779-0.852,1.031
				C150.984,373.761,150.418,373.887,149.69,373.887z"/>
			<path d="M153.194,373.743l1.836-9.72h2.448l1.812,9.72h-1.98l-0.324-2.052h-1.428l-0.336,2.052H153.194z M155.75,370.408h1.032
				l-0.516-3.792L155.75,370.408z"/>
			<path d="M162.986,373.887c-0.744,0-1.326-0.122-1.746-0.365c-0.42-0.244-0.714-0.601-0.882-1.068
				c-0.168-0.468-0.252-1.042-0.252-1.722v-6.708h2.124v7.031c0,0.2,0.016,0.4,0.048,0.601c0.032,0.2,0.102,0.364,0.21,0.492
				c0.108,0.128,0.274,0.191,0.498,0.191c0.232,0,0.4-0.064,0.504-0.191c0.104-0.128,0.17-0.292,0.198-0.492
				c0.028-0.2,0.042-0.4,0.042-0.601v-7.031h2.136v6.708c0,0.68-0.086,1.254-0.258,1.722c-0.172,0.468-0.466,0.824-0.882,1.068
				C164.31,373.765,163.73,373.887,162.986,373.887z"/>
			<path d="M168.11,373.743v-8.124h-1.464v-1.596h5.076v1.596h-1.452v8.124H168.11z"/>
			<path d="M172.586,373.743v-9.72h2.148v9.72H172.586z"/>
			<path d="M178.97,373.887c-0.728,0-1.304-0.128-1.728-0.384c-0.424-0.256-0.728-0.624-0.912-1.104
				c-0.184-0.48-0.276-1.052-0.276-1.716v-3.612c0-0.672,0.092-1.244,0.276-1.716c0.184-0.473,0.488-0.834,0.912-1.086
				c0.424-0.252,1-0.378,1.728-0.378c0.736,0,1.318,0.126,1.746,0.378c0.428,0.252,0.734,0.613,0.918,1.086
				c0.184,0.472,0.276,1.044,0.276,1.716v3.612c0,0.664-0.092,1.235-0.276,1.716c-0.184,0.48-0.49,0.848-0.918,1.104
				C180.288,373.759,179.706,373.887,178.97,373.887z M178.97,372.364c0.224,0,0.388-0.056,0.492-0.168
				c0.104-0.112,0.172-0.256,0.204-0.433c0.032-0.176,0.048-0.355,0.048-0.539v-4.681c0-0.191-0.016-0.374-0.048-0.546
				c-0.032-0.172-0.1-0.314-0.204-0.426c-0.104-0.112-0.268-0.168-0.492-0.168c-0.208,0-0.364,0.056-0.468,0.168
				c-0.104,0.112-0.172,0.254-0.204,0.426c-0.032,0.172-0.048,0.354-0.048,0.546v4.681c0,0.184,0.014,0.363,0.042,0.539
				c0.028,0.177,0.092,0.32,0.192,0.433C178.584,372.308,178.745,372.364,178.97,372.364z"/>
			<path d="M183.218,373.743v-9.72h1.512l1.992,4.68v-4.68h1.776v9.72h-1.452l-1.992-5.04v5.04H183.218z"/>
		</g>
	</g>
	<g>
		<path d="M137.881,444.612l-1.386-11.457h2.15l0.679,6.677l0.863-6.663h1.683l0.905,6.62l0.693-6.634h2.122l-1.372,11.457h-2.207
			l-0.976-6.917l-0.919,6.917H137.881z"/>
		<path d="M146.764,444.612v-11.457h5.148v1.726h-2.617v2.843h1.994v1.753h-1.994v3.424h2.645v1.712H146.764z"/>
		<path d="M154.12,444.612v-9.576h-1.726v-1.881h5.984v1.881h-1.712v9.576H154.12z"/>
		<path d="M163.003,444.612v-11.457h4.951v1.712h-2.419v2.885h2.107v1.768h-2.107v5.093H163.003z"/>
		<path d="M169.072,444.612v-11.457h2.532v9.746h2.631v1.712H169.072z"/>
		<path d="M178.436,444.781c-0.858,0-1.537-0.151-2.037-0.452c-0.5-0.302-0.858-0.736-1.075-1.301
			c-0.217-0.566-0.325-1.24-0.325-2.023v-4.258c0-0.792,0.108-1.467,0.325-2.023c0.217-0.557,0.576-0.983,1.075-1.28
			c0.5-0.297,1.179-0.445,2.037-0.445c0.867,0,1.554,0.148,2.058,0.445c0.504,0.297,0.865,0.723,1.082,1.28
			c0.217,0.556,0.325,1.231,0.325,2.023v4.258c0,0.783-0.108,1.456-0.325,2.023c-0.217,0.565-0.578,0.999-1.082,1.301
			C179.989,444.631,179.303,444.781,178.436,444.781z M178.436,442.986c0.264,0,0.458-0.066,0.58-0.198
			c0.123-0.132,0.203-0.302,0.241-0.51c0.037-0.207,0.056-0.419,0.056-0.635v-5.518c0-0.226-0.019-0.441-0.056-0.643
			c-0.038-0.203-0.118-0.37-0.241-0.502c-0.123-0.132-0.316-0.198-0.58-0.198c-0.245,0-0.429,0.066-0.551,0.198
			c-0.123,0.132-0.203,0.299-0.241,0.502c-0.038,0.203-0.056,0.418-0.056,0.643v5.518c0,0.216,0.016,0.428,0.049,0.635
			c0.033,0.208,0.108,0.378,0.226,0.51C177.981,442.92,178.171,442.986,178.436,442.986z"/>
		<path d="M186.725,444.781c-0.858,0-1.537-0.151-2.037-0.452s-0.858-0.736-1.075-1.301c-0.217-0.566-0.325-1.24-0.325-2.023v-4.258
			c0-0.792,0.108-1.467,0.325-2.023c0.217-0.557,0.576-0.983,1.075-1.28c0.5-0.297,1.179-0.445,2.037-0.445
			c0.867,0,1.553,0.148,2.058,0.445c0.504,0.297,0.865,0.723,1.082,1.28c0.217,0.556,0.325,1.231,0.325,2.023v4.258
			c0,0.783-0.108,1.456-0.325,2.023c-0.217,0.565-0.578,0.999-1.082,1.301C188.278,444.631,187.592,444.781,186.725,444.781z
			 M186.725,442.986c0.264,0,0.458-0.066,0.58-0.198c0.123-0.132,0.203-0.302,0.24-0.51c0.038-0.207,0.057-0.419,0.057-0.635v-5.518
			c0-0.226-0.019-0.441-0.057-0.643c-0.038-0.203-0.118-0.37-0.24-0.502c-0.123-0.132-0.316-0.198-0.58-0.198
			c-0.245,0-0.429,0.066-0.551,0.198c-0.123,0.132-0.203,0.299-0.241,0.502c-0.038,0.203-0.056,0.418-0.056,0.643v5.518
			c0,0.216,0.016,0.428,0.049,0.635c0.033,0.208,0.108,0.378,0.226,0.51C186.27,442.92,186.46,442.986,186.725,442.986z"/>
		<path d="M191.733,444.612v-11.457h3.154c0.773,0,1.443,0.084,2.009,0.254c0.566,0.169,1.007,0.474,1.323,0.912
			c0.315,0.439,0.474,1.059,0.474,1.86c0,0.472-0.038,0.891-0.113,1.259c-0.075,0.367-0.215,0.686-0.417,0.954
			c-0.203,0.269-0.493,0.494-0.87,0.672l1.57,5.545h-2.617l-1.259-5.135h-0.721v5.135H191.733z M194.264,438.021h0.707
			c0.359,0,0.637-0.064,0.835-0.191c0.199-0.128,0.337-0.311,0.417-0.551c0.08-0.241,0.12-0.531,0.12-0.87
			c0-0.49-0.09-0.873-0.269-1.145c-0.179-0.274-0.509-0.411-0.99-0.411h-0.82V438.021z"/>
	</g>
</g>
</svg>
